%
M48
M72
T01C0.0276
T02C0.0320
T03C0.0354
T04C0.0400
T05C0.0470
T06C0.0520
T07C0.1260
%
T01
X26600Y20600
X27600Y20600
X27600Y23200
X26600Y23200
T02
X26600Y24600
X27600Y24600
X28600Y24600
X29600Y24600
X30600Y24600
X31600Y24600
X32600Y24600
X33600Y24600
X34600Y24600
X35600Y24600
X35600Y27600
X34600Y27600
X33600Y27600
X32600Y27600
X31600Y27600
X30600Y27600
X29600Y27600
X28600Y27600
X27600Y27600
X26600Y27600
X25600Y27600
X24600Y27600
X23600Y27600
X22600Y27600
X22600Y24600
X23600Y24600
X24600Y24600
X25600Y24600
X24600Y22850
X23600Y22850
X22600Y22850
X22600Y19850
X23600Y19850
X24600Y19850
X11800Y26600
X11050Y27100
X11800Y27600
X11800Y29200
X11050Y29700
X11800Y30200
T03
X14700Y30200
X14700Y29000
X14700Y27700
X14700Y26500
X16700Y24600
X16680Y22880
X16640Y21140
X20640Y21140
X20680Y22880
X20700Y24600
X18700Y26500
X18700Y27700
X18700Y29000
X18700Y30200
X19600Y16100
X15600Y16100
X13200Y16100
X11600Y16100
X7600Y16100
X7600Y12100
X6100Y11100
X6100Y7100
X11600Y12100
X13200Y12100
X14100Y11100
X15600Y12100
X18100Y11100
X19600Y12100
X22100Y11100
X23600Y12100
X26100Y11100
X27600Y12100
X30100Y11100
X31600Y12100
X34100Y11100
X35600Y12100
X35600Y16100
X31600Y16100
X27600Y16100
X23600Y16100
X22100Y7100
X18100Y7100
X14100Y7100
X26100Y7100
X30100Y7100
X34100Y7100
T04
X35600Y8100
X35600Y9100
X35600Y10100
X31600Y10100
X31600Y9100
X31600Y8100
X27600Y8100
X27600Y9100
X27600Y10100
X23600Y10100
X23600Y9100
X23600Y8100
X19600Y8100
X19600Y9100
X19600Y10100
X15600Y10100
X15600Y9100
X15600Y8100
X11600Y8100
X11600Y9100
X11600Y10100
X7600Y10100
X7600Y9100
X7600Y8100
X11300Y22600
X14300Y22600
T05
X20816Y31100
X22784Y31100
X24816Y31100
X26784Y31100
X28816Y31100
X30784Y31100
X32816Y31100
X34784Y31100
X3100Y27084
X3100Y25116
X3100Y22084
X3100Y20116
X3100Y17584
X3100Y15616
X3100Y12584
X3100Y10616
X5116Y3600
X7084Y3600
X9116Y3600
X11084Y3600
X13116Y3600
X15084Y3600
X17116Y3600
X19084Y3600
X21116Y3600
X23084Y3600
X25116Y3600
X27084Y3600
X29116Y3600
X31084Y3600
X33116Y3600
X35084Y3600
T06
X8100Y18100
X8100Y27100
T07
X2100Y2100
X2100Y31800
X37400Y31800
X37600Y2100
M30
