G75*
%MOIN*%
%OFA0B0*%
%FSLAX25Y25*%
%IPPOS*%
%LPD*%
%AMOC8*
5,1,8,0,0,1.08239X$1,22.5*
%
%ADD10C,0.07050*%
%ADD11C,0.07800*%
%ADD12C,0.04800*%
%ADD13C,0.06000*%
%ADD14C,0.07400*%
%ADD15C,0.25000*%
%ADD16C,0.06500*%
%ADD17R,0.06500X0.06500*%
%ADD18C,0.06600*%
%ADD19C,0.01600*%
%ADD20C,0.01200*%
D10*
X0051157Y0032475D02*
X0051157Y0039525D01*
X0070843Y0039525D02*
X0070843Y0032475D01*
X0091157Y0032475D02*
X0091157Y0039525D01*
X0110843Y0039525D02*
X0110843Y0032475D01*
X0131157Y0032475D02*
X0131157Y0039525D01*
X0150843Y0039525D02*
X0150843Y0032475D01*
X0171157Y0032475D02*
X0171157Y0039525D01*
X0190843Y0039525D02*
X0190843Y0032475D01*
X0211157Y0032475D02*
X0211157Y0039525D01*
X0230843Y0039525D02*
X0230843Y0032475D01*
X0251157Y0032475D02*
X0251157Y0039525D01*
X0270843Y0039525D02*
X0270843Y0032475D01*
X0291157Y0032475D02*
X0291157Y0039525D01*
X0310843Y0039525D02*
X0310843Y0032475D01*
X0331157Y0032475D02*
X0331157Y0039525D01*
X0350843Y0039525D02*
X0350843Y0032475D01*
X0034525Y0106157D02*
X0027475Y0106157D01*
X0027475Y0125843D02*
X0034525Y0125843D01*
X0034525Y0156157D02*
X0027475Y0156157D01*
X0027475Y0175843D02*
X0034525Y0175843D01*
X0034525Y0201157D02*
X0027475Y0201157D01*
X0027475Y0220843D02*
X0034525Y0220843D01*
X0034525Y0251157D02*
X0027475Y0251157D01*
X0027475Y0270843D02*
X0034525Y0270843D01*
X0208157Y0307475D02*
X0208157Y0314525D01*
X0227843Y0314525D02*
X0227843Y0307475D01*
X0248157Y0307475D02*
X0248157Y0314525D01*
X0267843Y0314525D02*
X0267843Y0307475D01*
X0288157Y0307475D02*
X0288157Y0314525D01*
X0307843Y0314525D02*
X0307843Y0307475D01*
X0328157Y0307475D02*
X0328157Y0314525D01*
X0347843Y0314525D02*
X0347843Y0307475D01*
D11*
X0081000Y0274900D02*
X0081000Y0267100D01*
X0081000Y0184900D02*
X0081000Y0177100D01*
D12*
X0226000Y0196100D02*
X0226000Y0200900D01*
X0236000Y0200900D02*
X0236000Y0196100D01*
X0246000Y0196100D02*
X0246000Y0200900D01*
X0246000Y0226100D02*
X0246000Y0230900D01*
X0236000Y0230900D02*
X0236000Y0226100D01*
X0226000Y0226100D02*
X0226000Y0230900D01*
X0226000Y0243600D02*
X0226000Y0248400D01*
X0236000Y0248400D02*
X0236000Y0243600D01*
X0246000Y0243600D02*
X0246000Y0248400D01*
X0256000Y0248400D02*
X0256000Y0243600D01*
X0266000Y0243600D02*
X0266000Y0248400D01*
X0276000Y0248400D02*
X0276000Y0243600D01*
X0286000Y0243600D02*
X0286000Y0248400D01*
X0296000Y0248400D02*
X0296000Y0243600D01*
X0306000Y0243600D02*
X0306000Y0248400D01*
X0316000Y0248400D02*
X0316000Y0243600D01*
X0326000Y0243600D02*
X0326000Y0248400D01*
X0336000Y0248400D02*
X0336000Y0243600D01*
X0346000Y0243600D02*
X0346000Y0248400D01*
X0356000Y0248400D02*
X0356000Y0243600D01*
X0356000Y0273600D02*
X0356000Y0278400D01*
X0346000Y0278400D02*
X0346000Y0273600D01*
X0336000Y0273600D02*
X0336000Y0278400D01*
X0326000Y0278400D02*
X0326000Y0273600D01*
X0316000Y0273600D02*
X0316000Y0278400D01*
X0306000Y0278400D02*
X0306000Y0273600D01*
X0296000Y0273600D02*
X0296000Y0278400D01*
X0286000Y0278400D02*
X0286000Y0273600D01*
X0276000Y0273600D02*
X0276000Y0278400D01*
X0266000Y0278400D02*
X0266000Y0273600D01*
X0256000Y0273600D02*
X0256000Y0278400D01*
X0246000Y0278400D02*
X0246000Y0273600D01*
X0236000Y0273600D02*
X0236000Y0278400D01*
X0226000Y0278400D02*
X0226000Y0273600D01*
D13*
X0233000Y0101000D02*
X0239000Y0101000D01*
X0239000Y0091000D02*
X0233000Y0091000D01*
X0233000Y0081000D02*
X0239000Y0081000D01*
X0273000Y0081000D02*
X0279000Y0081000D01*
X0279000Y0091000D02*
X0273000Y0091000D01*
X0273000Y0101000D02*
X0279000Y0101000D01*
X0313000Y0101000D02*
X0319000Y0101000D01*
X0319000Y0091000D02*
X0313000Y0091000D01*
X0313000Y0081000D02*
X0319000Y0081000D01*
X0353000Y0081000D02*
X0359000Y0081000D01*
X0359000Y0091000D02*
X0353000Y0091000D01*
X0353000Y0101000D02*
X0359000Y0101000D01*
X0199000Y0101000D02*
X0193000Y0101000D01*
X0193000Y0091000D02*
X0199000Y0091000D01*
X0199000Y0081000D02*
X0193000Y0081000D01*
X0159000Y0081000D02*
X0153000Y0081000D01*
X0153000Y0091000D02*
X0159000Y0091000D01*
X0159000Y0101000D02*
X0153000Y0101000D01*
X0119000Y0101000D02*
X0113000Y0101000D01*
X0113000Y0091000D02*
X0119000Y0091000D01*
X0119000Y0081000D02*
X0113000Y0081000D01*
X0079000Y0081000D02*
X0073000Y0081000D01*
X0073000Y0091000D02*
X0079000Y0091000D01*
X0079000Y0101000D02*
X0073000Y0101000D01*
D14*
X0061000Y0111000D03*
X0076000Y0121000D03*
X0116000Y0121000D03*
X0132000Y0121000D03*
X0141000Y0111000D03*
X0156000Y0121000D03*
X0181000Y0111000D03*
X0196000Y0121000D03*
X0221000Y0111000D03*
X0236000Y0121000D03*
X0261000Y0111000D03*
X0276000Y0121000D03*
X0301000Y0111000D03*
X0316000Y0121000D03*
X0341000Y0111000D03*
X0356000Y0121000D03*
X0356000Y0161000D03*
X0316000Y0161000D03*
X0276000Y0161000D03*
X0236000Y0161000D03*
X0196000Y0161000D03*
X0156000Y0161000D03*
X0132000Y0161000D03*
X0116000Y0161000D03*
X0076000Y0161000D03*
X0166400Y0211400D03*
X0166800Y0228800D03*
X0167000Y0246000D03*
X0147000Y0265000D03*
X0147000Y0277000D03*
X0147000Y0290000D03*
X0147000Y0302000D03*
X0118000Y0302000D03*
X0110500Y0297000D03*
X0118000Y0292000D03*
X0118000Y0276000D03*
X0110500Y0271000D03*
X0118000Y0266000D03*
X0187000Y0265000D03*
X0187000Y0277000D03*
X0187000Y0290000D03*
X0187000Y0302000D03*
X0207000Y0246000D03*
X0206800Y0228800D03*
X0206400Y0211400D03*
X0221000Y0071000D03*
X0181000Y0071000D03*
X0141000Y0071000D03*
X0061000Y0071000D03*
X0261000Y0071000D03*
X0301000Y0071000D03*
X0341000Y0071000D03*
D15*
X0376000Y0021000D03*
X0374000Y0318000D03*
X0021000Y0318000D03*
X0021000Y0021000D03*
D16*
X0266000Y0232000D03*
X0276000Y0232000D03*
X0276000Y0206000D03*
D17*
X0266000Y0206000D03*
X0113000Y0226000D03*
D18*
X0143000Y0226000D03*
D19*
X0128000Y0226390D02*
X0072200Y0226390D01*
X0072200Y0224792D02*
X0128000Y0224792D01*
X0128000Y0223193D02*
X0072200Y0223193D01*
X0072200Y0221595D02*
X0128000Y0221595D01*
X0128000Y0219996D02*
X0072200Y0219996D01*
X0072200Y0218398D02*
X0128000Y0218398D01*
X0128000Y0216799D02*
X0072200Y0216799D01*
X0072200Y0215201D02*
X0128000Y0215201D01*
X0128000Y0213602D02*
X0072200Y0213602D01*
X0072200Y0212003D02*
X0128000Y0212003D01*
X0128000Y0210405D02*
X0072200Y0210405D01*
X0072200Y0208806D02*
X0128000Y0208806D01*
X0128000Y0207208D02*
X0072200Y0207208D01*
X0072200Y0205609D02*
X0127609Y0205609D01*
X0128000Y0206000D02*
X0123000Y0201000D01*
X0074000Y0201000D01*
X0072200Y0202800D01*
X0072200Y0231675D01*
X0077325Y0236800D01*
X0097637Y0236800D01*
X0098813Y0237287D01*
X0101525Y0240000D01*
X0123000Y0240000D01*
X0128000Y0235000D01*
X0128000Y0206000D01*
X0126011Y0204011D02*
X0072200Y0204011D01*
X0072588Y0202412D02*
X0124412Y0202412D01*
X0108000Y0199750D02*
X0108000Y0103040D01*
X0107600Y0102074D01*
X0107600Y0099926D01*
X0108000Y0098960D01*
X0108000Y0093040D01*
X0107600Y0092074D01*
X0107600Y0089926D01*
X0108000Y0088960D01*
X0108000Y0083040D01*
X0107600Y0082074D01*
X0107600Y0079926D01*
X0108000Y0078960D01*
X0108000Y0052250D01*
X0109250Y0051000D01*
X0359750Y0051000D01*
X0361000Y0049750D01*
X0361000Y0020250D01*
X0359750Y0019000D01*
X0062250Y0019000D01*
X0061000Y0020250D01*
X0061000Y0063750D01*
X0062150Y0064900D01*
X0062213Y0064900D01*
X0062455Y0065000D01*
X0082750Y0065000D01*
X0084000Y0066250D01*
X0084000Y0078960D01*
X0084400Y0079926D01*
X0084400Y0082074D01*
X0084000Y0083040D01*
X0084000Y0088960D01*
X0084400Y0089926D01*
X0084400Y0092074D01*
X0084000Y0093040D01*
X0084000Y0098960D01*
X0084400Y0099926D01*
X0084400Y0102074D01*
X0084000Y0103040D01*
X0084000Y0104750D01*
X0082750Y0106000D01*
X0081040Y0106000D01*
X0080074Y0106400D01*
X0071926Y0106400D01*
X0070960Y0106000D01*
X0070250Y0106000D01*
X0069000Y0107250D01*
X0069000Y0127475D01*
X0070813Y0129287D01*
X0071713Y0130187D01*
X0072200Y0131363D01*
X0072200Y0156173D01*
X0072545Y0155829D01*
X0074787Y0154900D01*
X0077213Y0154900D01*
X0079455Y0155829D01*
X0081171Y0157545D01*
X0082100Y0159787D01*
X0082100Y0162213D01*
X0081171Y0164455D01*
X0079455Y0166171D01*
X0077213Y0167100D01*
X0074787Y0167100D01*
X0072545Y0166171D01*
X0072200Y0165827D01*
X0072200Y0201000D01*
X0106750Y0201000D01*
X0108000Y0199750D01*
X0108000Y0199215D02*
X0072200Y0199215D01*
X0072200Y0197617D02*
X0108000Y0197617D01*
X0108000Y0196018D02*
X0072200Y0196018D01*
X0072200Y0194420D02*
X0108000Y0194420D01*
X0108000Y0192821D02*
X0072200Y0192821D01*
X0072200Y0191223D02*
X0108000Y0191223D01*
X0108000Y0189624D02*
X0072200Y0189624D01*
X0072200Y0188026D02*
X0108000Y0188026D01*
X0108000Y0186427D02*
X0072200Y0186427D01*
X0072200Y0184829D02*
X0108000Y0184829D01*
X0108000Y0183230D02*
X0072200Y0183230D01*
X0072200Y0181632D02*
X0108000Y0181632D01*
X0108000Y0180033D02*
X0072200Y0180033D01*
X0072200Y0178435D02*
X0108000Y0178435D01*
X0108000Y0176836D02*
X0072200Y0176836D01*
X0072200Y0175238D02*
X0108000Y0175238D01*
X0108000Y0173639D02*
X0072200Y0173639D01*
X0072200Y0172041D02*
X0108000Y0172041D01*
X0108000Y0170442D02*
X0072200Y0170442D01*
X0072200Y0168844D02*
X0108000Y0168844D01*
X0108000Y0167245D02*
X0072200Y0167245D01*
X0069000Y0167245D02*
X0046000Y0167245D01*
X0046000Y0165647D02*
X0069000Y0165647D01*
X0069000Y0164048D02*
X0046000Y0164048D01*
X0046000Y0162450D02*
X0069000Y0162450D01*
X0069000Y0160851D02*
X0046000Y0160851D01*
X0046000Y0159253D02*
X0069000Y0159253D01*
X0069000Y0157654D02*
X0046000Y0157654D01*
X0046000Y0156056D02*
X0069000Y0156056D01*
X0069000Y0154457D02*
X0045457Y0154457D01*
X0046000Y0155000D02*
X0046000Y0265000D01*
X0067000Y0286000D01*
X0096000Y0286000D01*
X0103000Y0279000D01*
X0103000Y0246000D01*
X0097000Y0240000D01*
X0076000Y0240000D01*
X0069000Y0233000D01*
X0069000Y0132000D01*
X0053000Y0116000D01*
X0017000Y0116000D01*
X0011000Y0122000D01*
X0011000Y0141000D01*
X0016000Y0146000D01*
X0037000Y0146000D01*
X0046000Y0155000D01*
X0043859Y0152859D02*
X0069000Y0152859D01*
X0069000Y0151260D02*
X0042260Y0151260D01*
X0040662Y0149662D02*
X0069000Y0149662D01*
X0069000Y0148063D02*
X0039063Y0148063D01*
X0037465Y0146465D02*
X0069000Y0146465D01*
X0069000Y0144866D02*
X0014866Y0144866D01*
X0013268Y0143268D02*
X0069000Y0143268D01*
X0069000Y0141669D02*
X0011669Y0141669D01*
X0011000Y0140070D02*
X0069000Y0140070D01*
X0069000Y0138472D02*
X0011000Y0138472D01*
X0011000Y0136873D02*
X0069000Y0136873D01*
X0069000Y0135275D02*
X0011000Y0135275D01*
X0011000Y0133676D02*
X0069000Y0133676D01*
X0069000Y0132078D02*
X0011000Y0132078D01*
X0011000Y0130479D02*
X0067479Y0130479D01*
X0065881Y0128881D02*
X0011000Y0128881D01*
X0011000Y0127282D02*
X0064282Y0127282D01*
X0062684Y0125684D02*
X0011000Y0125684D01*
X0011000Y0124085D02*
X0061085Y0124085D01*
X0059487Y0122487D02*
X0011000Y0122487D01*
X0012112Y0120888D02*
X0057888Y0120888D01*
X0056290Y0119290D02*
X0013710Y0119290D01*
X0015309Y0117691D02*
X0054691Y0117691D01*
X0053093Y0116093D02*
X0016907Y0116093D01*
X0069000Y0116093D02*
X0072280Y0116093D01*
X0072545Y0115829D02*
X0074787Y0114900D01*
X0077213Y0114900D01*
X0079455Y0115829D01*
X0081171Y0117545D01*
X0082100Y0119787D01*
X0082100Y0122213D01*
X0081171Y0124455D01*
X0079455Y0126171D01*
X0077213Y0127100D01*
X0074787Y0127100D01*
X0072545Y0126171D01*
X0070829Y0124455D01*
X0069900Y0122213D01*
X0069900Y0119787D01*
X0070829Y0117545D01*
X0072545Y0115829D01*
X0070768Y0117691D02*
X0069000Y0117691D01*
X0069000Y0119290D02*
X0070106Y0119290D01*
X0069900Y0120888D02*
X0069000Y0120888D01*
X0069000Y0122487D02*
X0070013Y0122487D01*
X0070675Y0124085D02*
X0069000Y0124085D01*
X0069000Y0125684D02*
X0072057Y0125684D01*
X0069000Y0127282D02*
X0108000Y0127282D01*
X0108000Y0125684D02*
X0079943Y0125684D01*
X0081325Y0124085D02*
X0108000Y0124085D01*
X0108000Y0122487D02*
X0081987Y0122487D01*
X0082100Y0120888D02*
X0108000Y0120888D01*
X0108000Y0119290D02*
X0081894Y0119290D01*
X0081232Y0117691D02*
X0108000Y0117691D01*
X0108000Y0116093D02*
X0079720Y0116093D01*
X0069000Y0114494D02*
X0108000Y0114494D01*
X0108000Y0112896D02*
X0069000Y0112896D01*
X0069000Y0111297D02*
X0108000Y0111297D01*
X0108000Y0109699D02*
X0069000Y0109699D01*
X0069000Y0108100D02*
X0108000Y0108100D01*
X0108000Y0106502D02*
X0069748Y0106502D01*
X0083847Y0104903D02*
X0108000Y0104903D01*
X0108000Y0103305D02*
X0084000Y0103305D01*
X0084400Y0101706D02*
X0107600Y0101706D01*
X0107600Y0100108D02*
X0084400Y0100108D01*
X0084000Y0098509D02*
X0108000Y0098509D01*
X0108000Y0096911D02*
X0084000Y0096911D01*
X0084000Y0095312D02*
X0108000Y0095312D01*
X0108000Y0093714D02*
X0084000Y0093714D01*
X0084383Y0092115D02*
X0107617Y0092115D01*
X0107600Y0090517D02*
X0084400Y0090517D01*
X0084000Y0088918D02*
X0108000Y0088918D01*
X0108000Y0087320D02*
X0084000Y0087320D01*
X0084000Y0085721D02*
X0108000Y0085721D01*
X0108000Y0084123D02*
X0084000Y0084123D01*
X0084214Y0082524D02*
X0107786Y0082524D01*
X0107600Y0080926D02*
X0084400Y0080926D01*
X0084152Y0079327D02*
X0107848Y0079327D01*
X0108000Y0077729D02*
X0084000Y0077729D01*
X0084000Y0076130D02*
X0108000Y0076130D01*
X0108000Y0074532D02*
X0084000Y0074532D01*
X0084000Y0072933D02*
X0108000Y0072933D01*
X0108000Y0071334D02*
X0084000Y0071334D01*
X0084000Y0069736D02*
X0108000Y0069736D01*
X0108000Y0068137D02*
X0084000Y0068137D01*
X0084000Y0066539D02*
X0108000Y0066539D01*
X0108000Y0064940D02*
X0062311Y0064940D01*
X0061000Y0063342D02*
X0108000Y0063342D01*
X0108000Y0061743D02*
X0061000Y0061743D01*
X0061000Y0060145D02*
X0108000Y0060145D01*
X0108000Y0058546D02*
X0061000Y0058546D01*
X0061000Y0056948D02*
X0108000Y0056948D01*
X0108000Y0055349D02*
X0061000Y0055349D01*
X0061000Y0053751D02*
X0108000Y0053751D01*
X0108098Y0052152D02*
X0061000Y0052152D01*
X0061000Y0050554D02*
X0360196Y0050554D01*
X0361000Y0048955D02*
X0061000Y0048955D01*
X0061000Y0047357D02*
X0361000Y0047357D01*
X0361000Y0045758D02*
X0061000Y0045758D01*
X0061000Y0044160D02*
X0087413Y0044160D01*
X0087801Y0044548D02*
X0086135Y0042881D01*
X0085232Y0040704D01*
X0085232Y0031296D01*
X0086135Y0029119D01*
X0087801Y0027452D01*
X0089979Y0026550D01*
X0092336Y0026550D01*
X0094514Y0027452D01*
X0096180Y0029119D01*
X0097082Y0031296D01*
X0097082Y0040704D01*
X0096180Y0042881D01*
X0094514Y0044548D01*
X0092336Y0045450D01*
X0089979Y0045450D01*
X0087801Y0044548D01*
X0086002Y0042561D02*
X0061000Y0042561D01*
X0061000Y0040963D02*
X0085340Y0040963D01*
X0085232Y0039364D02*
X0061000Y0039364D01*
X0061000Y0037766D02*
X0085232Y0037766D01*
X0085232Y0036167D02*
X0061000Y0036167D01*
X0061000Y0034569D02*
X0085232Y0034569D01*
X0085232Y0032970D02*
X0061000Y0032970D01*
X0061000Y0031372D02*
X0085232Y0031372D01*
X0085863Y0029773D02*
X0061000Y0029773D01*
X0061000Y0028175D02*
X0087079Y0028175D01*
X0089916Y0026576D02*
X0061000Y0026576D01*
X0061000Y0024978D02*
X0361000Y0024978D01*
X0361000Y0026576D02*
X0332399Y0026576D01*
X0332336Y0026550D02*
X0334514Y0027452D01*
X0336180Y0029119D01*
X0337082Y0031296D01*
X0337082Y0040704D01*
X0336180Y0042881D01*
X0334514Y0044548D01*
X0332336Y0045450D01*
X0329979Y0045450D01*
X0327801Y0044548D01*
X0326135Y0042881D01*
X0325232Y0040704D01*
X0325232Y0031296D01*
X0326135Y0029119D01*
X0327801Y0027452D01*
X0329979Y0026550D01*
X0332336Y0026550D01*
X0329916Y0026576D02*
X0292399Y0026576D01*
X0292336Y0026550D02*
X0294514Y0027452D01*
X0296180Y0029119D01*
X0297082Y0031296D01*
X0297082Y0040704D01*
X0296180Y0042881D01*
X0294514Y0044548D01*
X0292336Y0045450D01*
X0289979Y0045450D01*
X0287801Y0044548D01*
X0286135Y0042881D01*
X0285232Y0040704D01*
X0285232Y0031296D01*
X0286135Y0029119D01*
X0287801Y0027452D01*
X0289979Y0026550D01*
X0292336Y0026550D01*
X0289916Y0026576D02*
X0252399Y0026576D01*
X0252336Y0026550D02*
X0254514Y0027452D01*
X0256180Y0029119D01*
X0257082Y0031296D01*
X0257082Y0040704D01*
X0256180Y0042881D01*
X0254514Y0044548D01*
X0252336Y0045450D01*
X0249979Y0045450D01*
X0247801Y0044548D01*
X0246135Y0042881D01*
X0245232Y0040704D01*
X0245232Y0031296D01*
X0246135Y0029119D01*
X0247801Y0027452D01*
X0249979Y0026550D01*
X0252336Y0026550D01*
X0249916Y0026576D02*
X0212399Y0026576D01*
X0212336Y0026550D02*
X0214514Y0027452D01*
X0216180Y0029119D01*
X0217082Y0031296D01*
X0217082Y0040704D01*
X0216180Y0042881D01*
X0214514Y0044548D01*
X0212336Y0045450D01*
X0209979Y0045450D01*
X0207801Y0044548D01*
X0206135Y0042881D01*
X0205232Y0040704D01*
X0205232Y0031296D01*
X0206135Y0029119D01*
X0207801Y0027452D01*
X0209979Y0026550D01*
X0212336Y0026550D01*
X0209916Y0026576D02*
X0172399Y0026576D01*
X0172336Y0026550D02*
X0174514Y0027452D01*
X0176180Y0029119D01*
X0177082Y0031296D01*
X0177082Y0040704D01*
X0176180Y0042881D01*
X0174514Y0044548D01*
X0172336Y0045450D01*
X0169979Y0045450D01*
X0167801Y0044548D01*
X0166135Y0042881D01*
X0165232Y0040704D01*
X0165232Y0031296D01*
X0166135Y0029119D01*
X0167801Y0027452D01*
X0169979Y0026550D01*
X0172336Y0026550D01*
X0169916Y0026576D02*
X0132399Y0026576D01*
X0132336Y0026550D02*
X0134514Y0027452D01*
X0136180Y0029119D01*
X0137082Y0031296D01*
X0137082Y0040704D01*
X0136180Y0042881D01*
X0134514Y0044548D01*
X0132336Y0045450D01*
X0129979Y0045450D01*
X0127801Y0044548D01*
X0126135Y0042881D01*
X0125232Y0040704D01*
X0125232Y0031296D01*
X0126135Y0029119D01*
X0127801Y0027452D01*
X0129979Y0026550D01*
X0132336Y0026550D01*
X0129916Y0026576D02*
X0092399Y0026576D01*
X0095236Y0028175D02*
X0127079Y0028175D01*
X0125863Y0029773D02*
X0096452Y0029773D01*
X0097082Y0031372D02*
X0125232Y0031372D01*
X0125232Y0032970D02*
X0097082Y0032970D01*
X0097082Y0034569D02*
X0125232Y0034569D01*
X0125232Y0036167D02*
X0097082Y0036167D01*
X0097082Y0037766D02*
X0125232Y0037766D01*
X0125232Y0039364D02*
X0097082Y0039364D01*
X0096975Y0040963D02*
X0125340Y0040963D01*
X0126002Y0042561D02*
X0096313Y0042561D01*
X0094902Y0044160D02*
X0127413Y0044160D01*
X0134902Y0044160D02*
X0167413Y0044160D01*
X0166002Y0042561D02*
X0136313Y0042561D01*
X0136975Y0040963D02*
X0165340Y0040963D01*
X0165232Y0039364D02*
X0137082Y0039364D01*
X0137082Y0037766D02*
X0165232Y0037766D01*
X0165232Y0036167D02*
X0137082Y0036167D01*
X0137082Y0034569D02*
X0165232Y0034569D01*
X0165232Y0032970D02*
X0137082Y0032970D01*
X0137082Y0031372D02*
X0165232Y0031372D01*
X0165863Y0029773D02*
X0136452Y0029773D01*
X0135236Y0028175D02*
X0167079Y0028175D01*
X0175236Y0028175D02*
X0207079Y0028175D01*
X0205863Y0029773D02*
X0176452Y0029773D01*
X0177082Y0031372D02*
X0205232Y0031372D01*
X0205232Y0032970D02*
X0177082Y0032970D01*
X0177082Y0034569D02*
X0205232Y0034569D01*
X0205232Y0036167D02*
X0177082Y0036167D01*
X0177082Y0037766D02*
X0205232Y0037766D01*
X0205232Y0039364D02*
X0177082Y0039364D01*
X0176975Y0040963D02*
X0205340Y0040963D01*
X0206002Y0042561D02*
X0176313Y0042561D01*
X0174902Y0044160D02*
X0207413Y0044160D01*
X0214902Y0044160D02*
X0247413Y0044160D01*
X0246002Y0042561D02*
X0216313Y0042561D01*
X0216975Y0040963D02*
X0245340Y0040963D01*
X0245232Y0039364D02*
X0217082Y0039364D01*
X0217082Y0037766D02*
X0245232Y0037766D01*
X0245232Y0036167D02*
X0217082Y0036167D01*
X0217082Y0034569D02*
X0245232Y0034569D01*
X0245232Y0032970D02*
X0217082Y0032970D01*
X0217082Y0031372D02*
X0245232Y0031372D01*
X0245863Y0029773D02*
X0216452Y0029773D01*
X0215236Y0028175D02*
X0247079Y0028175D01*
X0255236Y0028175D02*
X0287079Y0028175D01*
X0285863Y0029773D02*
X0256452Y0029773D01*
X0257082Y0031372D02*
X0285232Y0031372D01*
X0285232Y0032970D02*
X0257082Y0032970D01*
X0257082Y0034569D02*
X0285232Y0034569D01*
X0285232Y0036167D02*
X0257082Y0036167D01*
X0257082Y0037766D02*
X0285232Y0037766D01*
X0285232Y0039364D02*
X0257082Y0039364D01*
X0256975Y0040963D02*
X0285340Y0040963D01*
X0286002Y0042561D02*
X0256313Y0042561D01*
X0254902Y0044160D02*
X0287413Y0044160D01*
X0294902Y0044160D02*
X0327413Y0044160D01*
X0326002Y0042561D02*
X0296313Y0042561D01*
X0296975Y0040963D02*
X0325340Y0040963D01*
X0325232Y0039364D02*
X0297082Y0039364D01*
X0297082Y0037766D02*
X0325232Y0037766D01*
X0325232Y0036167D02*
X0297082Y0036167D01*
X0297082Y0034569D02*
X0325232Y0034569D01*
X0325232Y0032970D02*
X0297082Y0032970D01*
X0297082Y0031372D02*
X0325232Y0031372D01*
X0325863Y0029773D02*
X0296452Y0029773D01*
X0295236Y0028175D02*
X0327079Y0028175D01*
X0335236Y0028175D02*
X0361000Y0028175D01*
X0361000Y0029773D02*
X0336452Y0029773D01*
X0337082Y0031372D02*
X0361000Y0031372D01*
X0361000Y0032970D02*
X0337082Y0032970D01*
X0337082Y0034569D02*
X0361000Y0034569D01*
X0361000Y0036167D02*
X0337082Y0036167D01*
X0337082Y0037766D02*
X0361000Y0037766D01*
X0361000Y0039364D02*
X0337082Y0039364D01*
X0336975Y0040963D02*
X0361000Y0040963D01*
X0361000Y0042561D02*
X0336313Y0042561D01*
X0334902Y0044160D02*
X0361000Y0044160D01*
X0361000Y0023379D02*
X0061000Y0023379D01*
X0061000Y0021781D02*
X0361000Y0021781D01*
X0360932Y0020182D02*
X0061068Y0020182D01*
X0070406Y0128881D02*
X0108000Y0128881D01*
X0108000Y0130479D02*
X0071834Y0130479D01*
X0072200Y0132078D02*
X0108000Y0132078D01*
X0108000Y0133676D02*
X0072200Y0133676D01*
X0072200Y0135275D02*
X0108000Y0135275D01*
X0108000Y0136873D02*
X0072200Y0136873D01*
X0072200Y0138472D02*
X0108000Y0138472D01*
X0108000Y0140070D02*
X0072200Y0140070D01*
X0072200Y0141669D02*
X0108000Y0141669D01*
X0108000Y0143268D02*
X0072200Y0143268D01*
X0072200Y0144866D02*
X0108000Y0144866D01*
X0108000Y0146465D02*
X0072200Y0146465D01*
X0072200Y0148063D02*
X0108000Y0148063D01*
X0108000Y0149662D02*
X0072200Y0149662D01*
X0072200Y0151260D02*
X0108000Y0151260D01*
X0108000Y0152859D02*
X0072200Y0152859D01*
X0072200Y0154457D02*
X0108000Y0154457D01*
X0108000Y0156056D02*
X0079682Y0156056D01*
X0081217Y0157654D02*
X0108000Y0157654D01*
X0108000Y0159253D02*
X0081879Y0159253D01*
X0082100Y0160851D02*
X0108000Y0160851D01*
X0108000Y0162450D02*
X0082002Y0162450D01*
X0081340Y0164048D02*
X0108000Y0164048D01*
X0108000Y0165647D02*
X0079980Y0165647D01*
X0072318Y0156056D02*
X0072200Y0156056D01*
X0069000Y0168844D02*
X0046000Y0168844D01*
X0046000Y0170442D02*
X0069000Y0170442D01*
X0069000Y0172041D02*
X0046000Y0172041D01*
X0046000Y0173639D02*
X0069000Y0173639D01*
X0069000Y0175238D02*
X0046000Y0175238D01*
X0046000Y0176836D02*
X0069000Y0176836D01*
X0069000Y0178435D02*
X0046000Y0178435D01*
X0046000Y0180033D02*
X0069000Y0180033D01*
X0069000Y0181632D02*
X0046000Y0181632D01*
X0046000Y0183230D02*
X0069000Y0183230D01*
X0069000Y0184829D02*
X0046000Y0184829D01*
X0046000Y0186427D02*
X0069000Y0186427D01*
X0069000Y0188026D02*
X0046000Y0188026D01*
X0046000Y0189624D02*
X0069000Y0189624D01*
X0069000Y0191223D02*
X0046000Y0191223D01*
X0046000Y0192821D02*
X0069000Y0192821D01*
X0069000Y0194420D02*
X0046000Y0194420D01*
X0046000Y0196018D02*
X0069000Y0196018D01*
X0069000Y0197617D02*
X0046000Y0197617D01*
X0046000Y0199215D02*
X0069000Y0199215D01*
X0069000Y0200814D02*
X0046000Y0200814D01*
X0046000Y0202412D02*
X0069000Y0202412D01*
X0069000Y0204011D02*
X0046000Y0204011D01*
X0046000Y0205609D02*
X0069000Y0205609D01*
X0069000Y0207208D02*
X0046000Y0207208D01*
X0046000Y0208806D02*
X0069000Y0208806D01*
X0069000Y0210405D02*
X0046000Y0210405D01*
X0046000Y0212003D02*
X0069000Y0212003D01*
X0069000Y0213602D02*
X0046000Y0213602D01*
X0046000Y0215201D02*
X0069000Y0215201D01*
X0069000Y0216799D02*
X0046000Y0216799D01*
X0046000Y0218398D02*
X0069000Y0218398D01*
X0069000Y0219996D02*
X0046000Y0219996D01*
X0046000Y0221595D02*
X0069000Y0221595D01*
X0069000Y0223193D02*
X0046000Y0223193D01*
X0046000Y0224792D02*
X0069000Y0224792D01*
X0069000Y0226390D02*
X0046000Y0226390D01*
X0046000Y0227989D02*
X0069000Y0227989D01*
X0069000Y0229587D02*
X0046000Y0229587D01*
X0046000Y0231186D02*
X0069000Y0231186D01*
X0069000Y0232784D02*
X0046000Y0232784D01*
X0046000Y0234383D02*
X0070383Y0234383D01*
X0071981Y0235981D02*
X0046000Y0235981D01*
X0046000Y0237580D02*
X0073580Y0237580D01*
X0075178Y0239178D02*
X0046000Y0239178D01*
X0046000Y0240777D02*
X0097777Y0240777D01*
X0099375Y0242375D02*
X0046000Y0242375D01*
X0046000Y0243974D02*
X0100974Y0243974D01*
X0102572Y0245572D02*
X0046000Y0245572D01*
X0046000Y0247171D02*
X0103000Y0247171D01*
X0103000Y0248769D02*
X0046000Y0248769D01*
X0046000Y0250368D02*
X0103000Y0250368D01*
X0103000Y0251966D02*
X0046000Y0251966D01*
X0046000Y0253565D02*
X0103000Y0253565D01*
X0103000Y0255163D02*
X0046000Y0255163D01*
X0046000Y0256762D02*
X0103000Y0256762D01*
X0103000Y0258360D02*
X0046000Y0258360D01*
X0046000Y0259959D02*
X0103000Y0259959D01*
X0103000Y0261557D02*
X0046000Y0261557D01*
X0046000Y0263156D02*
X0103000Y0263156D01*
X0103000Y0264754D02*
X0046000Y0264754D01*
X0047353Y0266353D02*
X0103000Y0266353D01*
X0103000Y0267951D02*
X0048951Y0267951D01*
X0050550Y0269550D02*
X0103000Y0269550D01*
X0103000Y0271148D02*
X0052148Y0271148D01*
X0053747Y0272747D02*
X0103000Y0272747D01*
X0103000Y0274345D02*
X0055345Y0274345D01*
X0056944Y0275944D02*
X0103000Y0275944D01*
X0103000Y0277542D02*
X0058542Y0277542D01*
X0060141Y0279141D02*
X0102859Y0279141D01*
X0101261Y0280739D02*
X0061739Y0280739D01*
X0063338Y0282338D02*
X0099662Y0282338D01*
X0098063Y0283937D02*
X0064937Y0283937D01*
X0066535Y0285535D02*
X0096465Y0285535D01*
X0110500Y0282750D02*
X0111750Y0284000D01*
X0135000Y0284000D01*
X0135000Y0277000D01*
X0147000Y0265000D01*
X0147000Y0277000D02*
X0156000Y0286000D01*
X0156000Y0293000D01*
X0147000Y0302000D01*
X0147000Y0290000D02*
X0141000Y0290000D01*
X0135000Y0284000D01*
X0110500Y0282750D02*
X0110500Y0271000D01*
X0100704Y0239178D02*
X0123822Y0239178D01*
X0125420Y0237580D02*
X0099105Y0237580D01*
X0076507Y0235981D02*
X0127019Y0235981D01*
X0128000Y0234383D02*
X0074908Y0234383D01*
X0073310Y0232784D02*
X0128000Y0232784D01*
X0128000Y0231186D02*
X0072200Y0231186D01*
X0072200Y0229587D02*
X0128000Y0229587D01*
X0128000Y0227989D02*
X0072200Y0227989D01*
X0072200Y0200814D02*
X0106936Y0200814D01*
D20*
X0003200Y0335761D02*
X0003200Y0003200D01*
X0392501Y0003200D01*
X0392501Y0335761D01*
X0003200Y0335761D01*
X0003200Y0335385D02*
X0392501Y0335385D01*
X0392501Y0334186D02*
X0003200Y0334186D01*
X0003200Y0332988D02*
X0392501Y0332988D01*
X0392501Y0331789D02*
X0003200Y0331789D01*
X0003200Y0330591D02*
X0392501Y0330591D01*
X0392501Y0329392D02*
X0003200Y0329392D01*
X0003200Y0328194D02*
X0392501Y0328194D01*
X0392501Y0326995D02*
X0003200Y0326995D01*
X0003200Y0325797D02*
X0392501Y0325797D01*
X0392501Y0324598D02*
X0003200Y0324598D01*
X0003200Y0323400D02*
X0392501Y0323400D01*
X0392501Y0322201D02*
X0003200Y0322201D01*
X0003200Y0321003D02*
X0392501Y0321003D01*
X0392501Y0319804D02*
X0350058Y0319804D01*
X0351085Y0319378D02*
X0348981Y0320250D01*
X0346704Y0320250D01*
X0344600Y0319378D01*
X0342989Y0317768D01*
X0342118Y0315664D01*
X0342118Y0306336D01*
X0342989Y0304232D01*
X0344600Y0302622D01*
X0346704Y0301750D01*
X0348981Y0301750D01*
X0351085Y0302622D01*
X0352696Y0304232D01*
X0353568Y0306336D01*
X0353568Y0315664D01*
X0352696Y0317768D01*
X0351085Y0319378D01*
X0351858Y0318605D02*
X0392501Y0318605D01*
X0392501Y0317407D02*
X0352845Y0317407D01*
X0353342Y0316208D02*
X0392501Y0316208D01*
X0392501Y0315010D02*
X0353568Y0315010D01*
X0353568Y0313811D02*
X0392501Y0313811D01*
X0392501Y0312613D02*
X0353568Y0312613D01*
X0353568Y0311414D02*
X0392501Y0311414D01*
X0392501Y0310216D02*
X0353568Y0310216D01*
X0353568Y0309017D02*
X0392501Y0309017D01*
X0392501Y0307819D02*
X0353568Y0307819D01*
X0353568Y0306620D02*
X0392501Y0306620D01*
X0392501Y0305422D02*
X0353189Y0305422D01*
X0352687Y0304223D02*
X0392501Y0304223D01*
X0392501Y0303025D02*
X0351489Y0303025D01*
X0349166Y0301826D02*
X0392501Y0301826D01*
X0392501Y0300628D02*
X0192818Y0300628D01*
X0192900Y0300826D02*
X0192002Y0298658D01*
X0190342Y0296998D01*
X0188174Y0296100D01*
X0185826Y0296100D01*
X0183658Y0296998D01*
X0181998Y0298658D01*
X0181100Y0300826D01*
X0181100Y0303174D01*
X0181998Y0305342D01*
X0183658Y0307002D01*
X0185826Y0307900D01*
X0188174Y0307900D01*
X0190342Y0307002D01*
X0192002Y0305342D01*
X0192900Y0303174D01*
X0192900Y0300826D01*
X0192900Y0301826D02*
X0206834Y0301826D01*
X0207019Y0301750D02*
X0209296Y0301750D01*
X0211400Y0302622D01*
X0213011Y0304232D01*
X0213882Y0306336D01*
X0213882Y0315664D01*
X0213011Y0317768D01*
X0211400Y0319378D01*
X0209296Y0320250D01*
X0207019Y0320250D01*
X0204915Y0319378D01*
X0203304Y0317768D01*
X0202432Y0315664D01*
X0202432Y0306336D01*
X0203304Y0304232D01*
X0204915Y0302622D01*
X0207019Y0301750D01*
X0209481Y0301826D02*
X0226519Y0301826D01*
X0226704Y0301750D02*
X0228981Y0301750D01*
X0231085Y0302622D01*
X0232696Y0304232D01*
X0233568Y0306336D01*
X0233568Y0315664D01*
X0232696Y0317768D01*
X0231085Y0319378D01*
X0228981Y0320250D01*
X0226704Y0320250D01*
X0224600Y0319378D01*
X0222989Y0317768D01*
X0222118Y0315664D01*
X0222118Y0306336D01*
X0222989Y0304232D01*
X0224600Y0302622D01*
X0226704Y0301750D01*
X0229166Y0301826D02*
X0246834Y0301826D01*
X0247019Y0301750D02*
X0249296Y0301750D01*
X0251400Y0302622D01*
X0253011Y0304232D01*
X0253882Y0306336D01*
X0253882Y0315664D01*
X0253011Y0317768D01*
X0251400Y0319378D01*
X0249296Y0320250D01*
X0247019Y0320250D01*
X0244915Y0319378D01*
X0243304Y0317768D01*
X0242432Y0315664D01*
X0242432Y0306336D01*
X0243304Y0304232D01*
X0244915Y0302622D01*
X0247019Y0301750D01*
X0249481Y0301826D02*
X0266519Y0301826D01*
X0266704Y0301750D02*
X0268981Y0301750D01*
X0271085Y0302622D01*
X0272696Y0304232D01*
X0273568Y0306336D01*
X0273568Y0315664D01*
X0272696Y0317768D01*
X0271085Y0319378D01*
X0268981Y0320250D01*
X0266704Y0320250D01*
X0264600Y0319378D01*
X0262989Y0317768D01*
X0262118Y0315664D01*
X0262118Y0306336D01*
X0262989Y0304232D01*
X0264600Y0302622D01*
X0266704Y0301750D01*
X0269166Y0301826D02*
X0286834Y0301826D01*
X0287019Y0301750D02*
X0289296Y0301750D01*
X0291400Y0302622D01*
X0293011Y0304232D01*
X0293882Y0306336D01*
X0293882Y0315664D01*
X0293011Y0317768D01*
X0291400Y0319378D01*
X0289296Y0320250D01*
X0287019Y0320250D01*
X0284915Y0319378D01*
X0283304Y0317768D01*
X0282432Y0315664D01*
X0282432Y0306336D01*
X0283304Y0304232D01*
X0284915Y0302622D01*
X0287019Y0301750D01*
X0289481Y0301826D02*
X0306519Y0301826D01*
X0306704Y0301750D02*
X0308981Y0301750D01*
X0311085Y0302622D01*
X0312696Y0304232D01*
X0313568Y0306336D01*
X0313568Y0315664D01*
X0312696Y0317768D01*
X0311085Y0319378D01*
X0308981Y0320250D01*
X0306704Y0320250D01*
X0304600Y0319378D01*
X0302989Y0317768D01*
X0302118Y0315664D01*
X0302118Y0306336D01*
X0302989Y0304232D01*
X0304600Y0302622D01*
X0306704Y0301750D01*
X0309166Y0301826D02*
X0326834Y0301826D01*
X0327019Y0301750D02*
X0329296Y0301750D01*
X0331400Y0302622D01*
X0333011Y0304232D01*
X0333882Y0306336D01*
X0333882Y0315664D01*
X0333011Y0317768D01*
X0331400Y0319378D01*
X0329296Y0320250D01*
X0327019Y0320250D01*
X0324915Y0319378D01*
X0323304Y0317768D01*
X0322432Y0315664D01*
X0322432Y0306336D01*
X0323304Y0304232D01*
X0324915Y0302622D01*
X0327019Y0301750D01*
X0329481Y0301826D02*
X0346519Y0301826D01*
X0344196Y0303025D02*
X0331804Y0303025D01*
X0333002Y0304223D02*
X0342998Y0304223D01*
X0342496Y0305422D02*
X0333504Y0305422D01*
X0333882Y0306620D02*
X0342118Y0306620D01*
X0342118Y0307819D02*
X0333882Y0307819D01*
X0333882Y0309017D02*
X0342118Y0309017D01*
X0342118Y0310216D02*
X0333882Y0310216D01*
X0333882Y0311414D02*
X0342118Y0311414D01*
X0342118Y0312613D02*
X0333882Y0312613D01*
X0333882Y0313811D02*
X0342118Y0313811D01*
X0342118Y0315010D02*
X0333882Y0315010D01*
X0333657Y0316208D02*
X0342343Y0316208D01*
X0342840Y0317407D02*
X0333160Y0317407D01*
X0332173Y0318605D02*
X0343827Y0318605D01*
X0345627Y0319804D02*
X0330373Y0319804D01*
X0325942Y0319804D02*
X0310058Y0319804D01*
X0311858Y0318605D02*
X0324142Y0318605D01*
X0323155Y0317407D02*
X0312845Y0317407D01*
X0313342Y0316208D02*
X0322658Y0316208D01*
X0322432Y0315010D02*
X0313568Y0315010D01*
X0313568Y0313811D02*
X0322432Y0313811D01*
X0322432Y0312613D02*
X0313568Y0312613D01*
X0313568Y0311414D02*
X0322432Y0311414D01*
X0322432Y0310216D02*
X0313568Y0310216D01*
X0313568Y0309017D02*
X0322432Y0309017D01*
X0322432Y0307819D02*
X0313568Y0307819D01*
X0313568Y0306620D02*
X0322432Y0306620D01*
X0322811Y0305422D02*
X0313189Y0305422D01*
X0312687Y0304223D02*
X0323313Y0304223D01*
X0324511Y0303025D02*
X0311489Y0303025D01*
X0304196Y0303025D02*
X0291804Y0303025D01*
X0293002Y0304223D02*
X0302998Y0304223D01*
X0302496Y0305422D02*
X0293504Y0305422D01*
X0293882Y0306620D02*
X0302118Y0306620D01*
X0302118Y0307819D02*
X0293882Y0307819D01*
X0293882Y0309017D02*
X0302118Y0309017D01*
X0302118Y0310216D02*
X0293882Y0310216D01*
X0293882Y0311414D02*
X0302118Y0311414D01*
X0302118Y0312613D02*
X0293882Y0312613D01*
X0293882Y0313811D02*
X0302118Y0313811D01*
X0302118Y0315010D02*
X0293882Y0315010D01*
X0293657Y0316208D02*
X0302343Y0316208D01*
X0302840Y0317407D02*
X0293160Y0317407D01*
X0292173Y0318605D02*
X0303827Y0318605D01*
X0305627Y0319804D02*
X0290373Y0319804D01*
X0285942Y0319804D02*
X0270058Y0319804D01*
X0271858Y0318605D02*
X0284142Y0318605D01*
X0283155Y0317407D02*
X0272845Y0317407D01*
X0273342Y0316208D02*
X0282658Y0316208D01*
X0282432Y0315010D02*
X0273568Y0315010D01*
X0273568Y0313811D02*
X0282432Y0313811D01*
X0282432Y0312613D02*
X0273568Y0312613D01*
X0273568Y0311414D02*
X0282432Y0311414D01*
X0282432Y0310216D02*
X0273568Y0310216D01*
X0273568Y0309017D02*
X0282432Y0309017D01*
X0282432Y0307819D02*
X0273568Y0307819D01*
X0273568Y0306620D02*
X0282432Y0306620D01*
X0282811Y0305422D02*
X0273189Y0305422D01*
X0272687Y0304223D02*
X0283313Y0304223D01*
X0284511Y0303025D02*
X0271489Y0303025D01*
X0264196Y0303025D02*
X0251804Y0303025D01*
X0253002Y0304223D02*
X0262998Y0304223D01*
X0262496Y0305422D02*
X0253504Y0305422D01*
X0253882Y0306620D02*
X0262118Y0306620D01*
X0262118Y0307819D02*
X0253882Y0307819D01*
X0253882Y0309017D02*
X0262118Y0309017D01*
X0262118Y0310216D02*
X0253882Y0310216D01*
X0253882Y0311414D02*
X0262118Y0311414D01*
X0262118Y0312613D02*
X0253882Y0312613D01*
X0253882Y0313811D02*
X0262118Y0313811D01*
X0262118Y0315010D02*
X0253882Y0315010D01*
X0253657Y0316208D02*
X0262343Y0316208D01*
X0262840Y0317407D02*
X0253160Y0317407D01*
X0252173Y0318605D02*
X0263827Y0318605D01*
X0265627Y0319804D02*
X0250373Y0319804D01*
X0245942Y0319804D02*
X0230058Y0319804D01*
X0231858Y0318605D02*
X0244142Y0318605D01*
X0243155Y0317407D02*
X0232845Y0317407D01*
X0233342Y0316208D02*
X0242658Y0316208D01*
X0242432Y0315010D02*
X0233568Y0315010D01*
X0233568Y0313811D02*
X0242432Y0313811D01*
X0242432Y0312613D02*
X0233568Y0312613D01*
X0233568Y0311414D02*
X0242432Y0311414D01*
X0242432Y0310216D02*
X0233568Y0310216D01*
X0233568Y0309017D02*
X0242432Y0309017D01*
X0242432Y0307819D02*
X0233568Y0307819D01*
X0233568Y0306620D02*
X0242432Y0306620D01*
X0242811Y0305422D02*
X0233189Y0305422D01*
X0232687Y0304223D02*
X0243313Y0304223D01*
X0244511Y0303025D02*
X0231489Y0303025D01*
X0224196Y0303025D02*
X0211804Y0303025D01*
X0213002Y0304223D02*
X0222998Y0304223D01*
X0222496Y0305422D02*
X0213504Y0305422D01*
X0213882Y0306620D02*
X0222118Y0306620D01*
X0222118Y0307819D02*
X0213882Y0307819D01*
X0213882Y0309017D02*
X0222118Y0309017D01*
X0222118Y0310216D02*
X0213882Y0310216D01*
X0213882Y0311414D02*
X0222118Y0311414D01*
X0222118Y0312613D02*
X0213882Y0312613D01*
X0213882Y0313811D02*
X0222118Y0313811D01*
X0222118Y0315010D02*
X0213882Y0315010D01*
X0213657Y0316208D02*
X0222343Y0316208D01*
X0222840Y0317407D02*
X0213160Y0317407D01*
X0212173Y0318605D02*
X0223827Y0318605D01*
X0225627Y0319804D02*
X0210373Y0319804D01*
X0205942Y0319804D02*
X0003200Y0319804D01*
X0003200Y0318605D02*
X0204142Y0318605D01*
X0203155Y0317407D02*
X0003200Y0317407D01*
X0003200Y0316208D02*
X0202658Y0316208D01*
X0202432Y0315010D02*
X0003200Y0315010D01*
X0003200Y0313811D02*
X0202432Y0313811D01*
X0202432Y0312613D02*
X0003200Y0312613D01*
X0003200Y0311414D02*
X0202432Y0311414D01*
X0202432Y0310216D02*
X0003200Y0310216D01*
X0003200Y0309017D02*
X0202432Y0309017D01*
X0202432Y0307819D02*
X0188369Y0307819D01*
X0190723Y0306620D02*
X0202432Y0306620D01*
X0202811Y0305422D02*
X0191922Y0305422D01*
X0192465Y0304223D02*
X0203313Y0304223D01*
X0204511Y0303025D02*
X0192900Y0303025D01*
X0192321Y0299429D02*
X0392501Y0299429D01*
X0392501Y0298231D02*
X0191575Y0298231D01*
X0190376Y0297032D02*
X0392501Y0297032D01*
X0392501Y0295834D02*
X0188333Y0295834D01*
X0188174Y0295900D02*
X0185826Y0295900D01*
X0183658Y0295002D01*
X0181998Y0293342D01*
X0181100Y0291174D01*
X0181100Y0288826D01*
X0181998Y0286658D01*
X0183658Y0284998D01*
X0185826Y0284100D01*
X0188174Y0284100D01*
X0190342Y0284998D01*
X0192002Y0286658D01*
X0192900Y0288826D01*
X0192900Y0291174D01*
X0192002Y0293342D01*
X0190342Y0295002D01*
X0188174Y0295900D01*
X0185667Y0295834D02*
X0157409Y0295834D01*
X0158543Y0294699D02*
X0152758Y0300484D01*
X0152900Y0300826D01*
X0152900Y0303174D01*
X0152002Y0305342D01*
X0150342Y0307002D01*
X0148174Y0307900D01*
X0145826Y0307900D01*
X0143658Y0307002D01*
X0141998Y0305342D01*
X0141100Y0303174D01*
X0141100Y0300826D01*
X0141998Y0298658D01*
X0143658Y0296998D01*
X0145826Y0296100D01*
X0148174Y0296100D01*
X0148516Y0296242D01*
X0149341Y0295416D01*
X0148174Y0295900D01*
X0145826Y0295900D01*
X0143658Y0295002D01*
X0141998Y0293342D01*
X0141857Y0293000D01*
X0140403Y0293000D01*
X0139301Y0292543D01*
X0138457Y0291699D01*
X0133757Y0287000D01*
X0121344Y0287000D01*
X0123002Y0288658D01*
X0123900Y0290826D01*
X0123900Y0293174D01*
X0123002Y0295342D01*
X0121344Y0297000D01*
X0123002Y0298658D01*
X0123900Y0300826D01*
X0123900Y0303174D01*
X0123002Y0305342D01*
X0121342Y0307002D01*
X0119174Y0307900D01*
X0116826Y0307900D01*
X0114658Y0307002D01*
X0112998Y0305342D01*
X0112100Y0303174D01*
X0112100Y0302723D01*
X0111674Y0302900D01*
X0109326Y0302900D01*
X0107158Y0302002D01*
X0105498Y0300342D01*
X0104600Y0298174D01*
X0104600Y0295826D01*
X0105498Y0293658D01*
X0107158Y0291998D01*
X0109326Y0291100D01*
X0111674Y0291100D01*
X0112100Y0291277D01*
X0112100Y0290826D01*
X0112998Y0288658D01*
X0114656Y0287000D01*
X0111153Y0287000D01*
X0110051Y0286543D01*
X0109207Y0285699D01*
X0107957Y0284449D01*
X0107500Y0283347D01*
X0107500Y0276143D01*
X0107158Y0276002D01*
X0106000Y0274844D01*
X0106000Y0279597D01*
X0105543Y0280699D01*
X0098543Y0287699D01*
X0097699Y0288543D01*
X0096597Y0289000D01*
X0066403Y0289000D01*
X0065301Y0288543D01*
X0044301Y0267543D01*
X0043457Y0266699D01*
X0043000Y0265597D01*
X0043000Y0156243D01*
X0035757Y0149000D01*
X0015403Y0149000D01*
X0014301Y0148543D01*
X0009301Y0143543D01*
X0008457Y0142699D01*
X0008000Y0141597D01*
X0008000Y0121403D01*
X0008457Y0120301D01*
X0014457Y0114301D01*
X0015301Y0113457D01*
X0016403Y0113000D01*
X0053597Y0113000D01*
X0054699Y0113457D01*
X0066000Y0124757D01*
X0066000Y0114344D01*
X0064342Y0116002D01*
X0062174Y0116900D01*
X0059826Y0116900D01*
X0057658Y0116002D01*
X0055998Y0114342D01*
X0055100Y0112174D01*
X0055100Y0109826D01*
X0055998Y0107658D01*
X0057658Y0105998D01*
X0059826Y0105100D01*
X0062174Y0105100D01*
X0064342Y0105998D01*
X0066000Y0107656D01*
X0066000Y0106653D01*
X0066457Y0105551D01*
X0067707Y0104301D01*
X0068436Y0103571D01*
X0067800Y0102034D01*
X0067800Y0099966D01*
X0068592Y0098054D01*
X0070054Y0096592D01*
X0071483Y0096000D01*
X0070054Y0095408D01*
X0068592Y0093946D01*
X0067800Y0092034D01*
X0067800Y0089966D01*
X0068592Y0088054D01*
X0070054Y0086592D01*
X0071966Y0085800D01*
X0080034Y0085800D01*
X0081000Y0086200D01*
X0081000Y0068000D01*
X0061653Y0068000D01*
X0060551Y0067543D01*
X0059301Y0066293D01*
X0058457Y0065449D01*
X0058000Y0064347D01*
X0058000Y0019653D01*
X0058457Y0018551D01*
X0059707Y0017301D01*
X0060551Y0016457D01*
X0061653Y0016000D01*
X0360347Y0016000D01*
X0361449Y0016457D01*
X0362699Y0017707D01*
X0363543Y0018551D01*
X0364000Y0019653D01*
X0364000Y0050347D01*
X0363543Y0051449D01*
X0362699Y0052293D01*
X0362293Y0052699D01*
X0362293Y0052699D01*
X0361449Y0053543D01*
X0360347Y0054000D01*
X0111000Y0054000D01*
X0111000Y0086200D01*
X0111966Y0085800D01*
X0120034Y0085800D01*
X0121946Y0086592D01*
X0123408Y0088054D01*
X0124200Y0089966D01*
X0124200Y0092034D01*
X0123408Y0093946D01*
X0121946Y0095408D01*
X0120517Y0096000D01*
X0121946Y0096592D01*
X0123408Y0098054D01*
X0124200Y0099966D01*
X0124200Y0102034D01*
X0123408Y0103946D01*
X0121946Y0105408D01*
X0120034Y0106200D01*
X0111966Y0106200D01*
X0111000Y0105800D01*
X0111000Y0117656D01*
X0112658Y0115998D01*
X0114826Y0115100D01*
X0117174Y0115100D01*
X0119342Y0115998D01*
X0121002Y0117658D01*
X0121900Y0119826D01*
X0121900Y0122174D01*
X0121002Y0124342D01*
X0119342Y0126002D01*
X0117174Y0126900D01*
X0114826Y0126900D01*
X0112658Y0126002D01*
X0111000Y0124344D01*
X0111000Y0198000D01*
X0123597Y0198000D01*
X0124699Y0198457D01*
X0125543Y0199301D01*
X0130543Y0204301D01*
X0131000Y0205403D01*
X0131000Y0235597D01*
X0130543Y0236699D01*
X0129699Y0237543D01*
X0124699Y0242543D01*
X0123597Y0243000D01*
X0104243Y0243000D01*
X0104699Y0243457D01*
X0105543Y0244301D01*
X0106000Y0245403D01*
X0106000Y0267156D01*
X0107158Y0265998D01*
X0109326Y0265100D01*
X0111674Y0265100D01*
X0112100Y0265277D01*
X0112100Y0264826D01*
X0112998Y0262658D01*
X0114658Y0260998D01*
X0116826Y0260100D01*
X0119174Y0260100D01*
X0121342Y0260998D01*
X0123002Y0262658D01*
X0123900Y0264826D01*
X0123900Y0267174D01*
X0123002Y0269342D01*
X0121344Y0271000D01*
X0123002Y0272658D01*
X0123900Y0274826D01*
X0123900Y0277174D01*
X0123002Y0279342D01*
X0121344Y0281000D01*
X0132000Y0281000D01*
X0132000Y0276403D01*
X0132457Y0275301D01*
X0141242Y0266516D01*
X0141100Y0266174D01*
X0141100Y0263826D01*
X0141998Y0261658D01*
X0143658Y0259998D01*
X0145826Y0259100D01*
X0148174Y0259100D01*
X0150342Y0259998D01*
X0152002Y0261658D01*
X0152900Y0263826D01*
X0152900Y0266174D01*
X0152002Y0268342D01*
X0150342Y0270002D01*
X0148174Y0270900D01*
X0145826Y0270900D01*
X0145484Y0270758D01*
X0144659Y0271584D01*
X0145826Y0271100D01*
X0148174Y0271100D01*
X0150342Y0271998D01*
X0152002Y0273658D01*
X0152900Y0275826D01*
X0152900Y0278174D01*
X0152758Y0278516D01*
X0157699Y0283457D01*
X0158543Y0284301D01*
X0159000Y0285403D01*
X0159000Y0293597D01*
X0158543Y0294699D01*
X0158570Y0294635D02*
X0183291Y0294635D01*
X0182093Y0293437D02*
X0159000Y0293437D01*
X0159000Y0292238D02*
X0181541Y0292238D01*
X0181100Y0291040D02*
X0159000Y0291040D01*
X0159000Y0289841D02*
X0181100Y0289841D01*
X0181176Y0288643D02*
X0159000Y0288643D01*
X0159000Y0287444D02*
X0181673Y0287444D01*
X0182410Y0286246D02*
X0159000Y0286246D01*
X0158852Y0285047D02*
X0183609Y0285047D01*
X0185223Y0282650D02*
X0156893Y0282650D01*
X0158091Y0283849D02*
X0392501Y0283849D01*
X0392501Y0285047D02*
X0190391Y0285047D01*
X0191590Y0286246D02*
X0392501Y0286246D01*
X0392501Y0287444D02*
X0192327Y0287444D01*
X0192824Y0288643D02*
X0392501Y0288643D01*
X0392501Y0289841D02*
X0192900Y0289841D01*
X0192900Y0291040D02*
X0392501Y0291040D01*
X0392501Y0292238D02*
X0192459Y0292238D01*
X0191907Y0293437D02*
X0392501Y0293437D01*
X0392501Y0294635D02*
X0190709Y0294635D01*
X0183624Y0297032D02*
X0156210Y0297032D01*
X0155012Y0298231D02*
X0182425Y0298231D01*
X0181679Y0299429D02*
X0153813Y0299429D01*
X0152818Y0300628D02*
X0181182Y0300628D01*
X0181100Y0301826D02*
X0152900Y0301826D01*
X0152900Y0303025D02*
X0181100Y0303025D01*
X0181535Y0304223D02*
X0152465Y0304223D01*
X0151922Y0305422D02*
X0182078Y0305422D01*
X0183277Y0306620D02*
X0150723Y0306620D01*
X0148369Y0307819D02*
X0185631Y0307819D01*
X0185826Y0282900D02*
X0183658Y0282002D01*
X0181998Y0280342D01*
X0181100Y0278174D01*
X0181100Y0275826D01*
X0181998Y0273658D01*
X0183658Y0271998D01*
X0185826Y0271100D01*
X0188174Y0271100D01*
X0190342Y0271998D01*
X0192002Y0273658D01*
X0192900Y0275826D01*
X0192900Y0278174D01*
X0192002Y0280342D01*
X0190342Y0282002D01*
X0188174Y0282900D01*
X0185826Y0282900D01*
X0188777Y0282650D02*
X0224240Y0282650D01*
X0225085Y0283000D02*
X0223394Y0282300D01*
X0222100Y0281006D01*
X0221400Y0279315D01*
X0221400Y0272685D01*
X0222100Y0270994D01*
X0223394Y0269700D01*
X0225085Y0269000D01*
X0226915Y0269000D01*
X0228606Y0269700D01*
X0229900Y0270994D01*
X0230600Y0272685D01*
X0230600Y0279315D01*
X0229900Y0281006D01*
X0228606Y0282300D01*
X0226915Y0283000D01*
X0225085Y0283000D01*
X0227760Y0282650D02*
X0234240Y0282650D01*
X0235085Y0283000D02*
X0233394Y0282300D01*
X0232100Y0281006D01*
X0231400Y0279315D01*
X0231400Y0272685D01*
X0232100Y0270994D01*
X0233394Y0269700D01*
X0235085Y0269000D01*
X0236915Y0269000D01*
X0238606Y0269700D01*
X0239900Y0270994D01*
X0240600Y0272685D01*
X0240600Y0279315D01*
X0239900Y0281006D01*
X0238606Y0282300D01*
X0236915Y0283000D01*
X0235085Y0283000D01*
X0237760Y0282650D02*
X0244240Y0282650D01*
X0245085Y0283000D02*
X0243394Y0282300D01*
X0242100Y0281006D01*
X0241400Y0279315D01*
X0241400Y0272685D01*
X0242100Y0270994D01*
X0243394Y0269700D01*
X0245085Y0269000D01*
X0246915Y0269000D01*
X0248606Y0269700D01*
X0249900Y0270994D01*
X0250600Y0272685D01*
X0250600Y0279315D01*
X0249900Y0281006D01*
X0248606Y0282300D01*
X0246915Y0283000D01*
X0245085Y0283000D01*
X0247760Y0282650D02*
X0254240Y0282650D01*
X0255085Y0283000D02*
X0253394Y0282300D01*
X0252100Y0281006D01*
X0251400Y0279315D01*
X0251400Y0272685D01*
X0252100Y0270994D01*
X0253394Y0269700D01*
X0255085Y0269000D01*
X0256915Y0269000D01*
X0258606Y0269700D01*
X0259900Y0270994D01*
X0260600Y0272685D01*
X0260600Y0279315D01*
X0259900Y0281006D01*
X0258606Y0282300D01*
X0256915Y0283000D01*
X0255085Y0283000D01*
X0257760Y0282650D02*
X0274240Y0282650D01*
X0275085Y0283000D02*
X0273394Y0282300D01*
X0272100Y0281006D01*
X0271400Y0279315D01*
X0271400Y0272685D01*
X0272100Y0270994D01*
X0273394Y0269700D01*
X0275085Y0269000D01*
X0276915Y0269000D01*
X0278606Y0269700D01*
X0279900Y0270994D01*
X0280600Y0272685D01*
X0280600Y0279315D01*
X0279900Y0281006D01*
X0278606Y0282300D01*
X0276915Y0283000D01*
X0275085Y0283000D01*
X0277760Y0282650D02*
X0284240Y0282650D01*
X0285085Y0283000D02*
X0283394Y0282300D01*
X0282100Y0281006D01*
X0281400Y0279315D01*
X0281400Y0272685D01*
X0282100Y0270994D01*
X0283394Y0269700D01*
X0285085Y0269000D01*
X0286915Y0269000D01*
X0288606Y0269700D01*
X0289900Y0270994D01*
X0290600Y0272685D01*
X0290600Y0279315D01*
X0289900Y0281006D01*
X0288606Y0282300D01*
X0286915Y0283000D01*
X0285085Y0283000D01*
X0287760Y0282650D02*
X0294240Y0282650D01*
X0295085Y0283000D02*
X0293394Y0282300D01*
X0292100Y0281006D01*
X0291400Y0279315D01*
X0291400Y0272685D01*
X0292100Y0270994D01*
X0293394Y0269700D01*
X0295085Y0269000D01*
X0296915Y0269000D01*
X0298606Y0269700D01*
X0299900Y0270994D01*
X0300600Y0272685D01*
X0300600Y0279315D01*
X0299900Y0281006D01*
X0298606Y0282300D01*
X0296915Y0283000D01*
X0295085Y0283000D01*
X0297760Y0282650D02*
X0304240Y0282650D01*
X0305085Y0283000D02*
X0303394Y0282300D01*
X0302100Y0281006D01*
X0301400Y0279315D01*
X0301400Y0272685D01*
X0302100Y0270994D01*
X0303394Y0269700D01*
X0305085Y0269000D01*
X0306915Y0269000D01*
X0308606Y0269700D01*
X0309900Y0270994D01*
X0310600Y0272685D01*
X0310600Y0279315D01*
X0309900Y0281006D01*
X0308606Y0282300D01*
X0306915Y0283000D01*
X0305085Y0283000D01*
X0307760Y0282650D02*
X0314240Y0282650D01*
X0315085Y0283000D02*
X0313394Y0282300D01*
X0312100Y0281006D01*
X0311400Y0279315D01*
X0311400Y0272685D01*
X0312100Y0270994D01*
X0313394Y0269700D01*
X0315085Y0269000D01*
X0316915Y0269000D01*
X0318606Y0269700D01*
X0319900Y0270994D01*
X0320600Y0272685D01*
X0320600Y0279315D01*
X0319900Y0281006D01*
X0318606Y0282300D01*
X0316915Y0283000D01*
X0315085Y0283000D01*
X0317760Y0282650D02*
X0324240Y0282650D01*
X0325085Y0283000D02*
X0323394Y0282300D01*
X0322100Y0281006D01*
X0321400Y0279315D01*
X0321400Y0272685D01*
X0322100Y0270994D01*
X0323394Y0269700D01*
X0325085Y0269000D01*
X0326915Y0269000D01*
X0328606Y0269700D01*
X0329900Y0270994D01*
X0330600Y0272685D01*
X0330600Y0279315D01*
X0329900Y0281006D01*
X0328606Y0282300D01*
X0326915Y0283000D01*
X0325085Y0283000D01*
X0327760Y0282650D02*
X0334240Y0282650D01*
X0335085Y0283000D02*
X0333394Y0282300D01*
X0332100Y0281006D01*
X0331400Y0279315D01*
X0331400Y0272685D01*
X0332100Y0270994D01*
X0333394Y0269700D01*
X0335085Y0269000D01*
X0336915Y0269000D01*
X0338606Y0269700D01*
X0339900Y0270994D01*
X0340600Y0272685D01*
X0340600Y0279315D01*
X0339900Y0281006D01*
X0338606Y0282300D01*
X0336915Y0283000D01*
X0335085Y0283000D01*
X0337760Y0282650D02*
X0344240Y0282650D01*
X0345085Y0283000D02*
X0343394Y0282300D01*
X0342100Y0281006D01*
X0341400Y0279315D01*
X0341400Y0272685D01*
X0342100Y0270994D01*
X0343394Y0269700D01*
X0345085Y0269000D01*
X0346915Y0269000D01*
X0348606Y0269700D01*
X0349900Y0270994D01*
X0350600Y0272685D01*
X0350600Y0279315D01*
X0349900Y0281006D01*
X0348606Y0282300D01*
X0346915Y0283000D01*
X0345085Y0283000D01*
X0347760Y0282650D02*
X0354240Y0282650D01*
X0355085Y0283000D02*
X0353394Y0282300D01*
X0352100Y0281006D01*
X0351400Y0279315D01*
X0351400Y0272685D01*
X0352100Y0270994D01*
X0353394Y0269700D01*
X0355085Y0269000D01*
X0356915Y0269000D01*
X0358606Y0269700D01*
X0359900Y0270994D01*
X0360600Y0272685D01*
X0360600Y0279315D01*
X0359900Y0281006D01*
X0358606Y0282300D01*
X0356915Y0283000D01*
X0355085Y0283000D01*
X0357760Y0282650D02*
X0392501Y0282650D01*
X0392501Y0281452D02*
X0359454Y0281452D01*
X0360211Y0280253D02*
X0392501Y0280253D01*
X0392501Y0279055D02*
X0360600Y0279055D01*
X0360600Y0277856D02*
X0392501Y0277856D01*
X0392501Y0276658D02*
X0360600Y0276658D01*
X0360600Y0275459D02*
X0392501Y0275459D01*
X0392501Y0274261D02*
X0360600Y0274261D01*
X0360600Y0273062D02*
X0392501Y0273062D01*
X0392501Y0271864D02*
X0360260Y0271864D01*
X0359570Y0270665D02*
X0392501Y0270665D01*
X0392501Y0269467D02*
X0358041Y0269467D01*
X0353959Y0269467D02*
X0348041Y0269467D01*
X0349570Y0270665D02*
X0352430Y0270665D01*
X0351740Y0271864D02*
X0350260Y0271864D01*
X0350600Y0273062D02*
X0351400Y0273062D01*
X0351400Y0274261D02*
X0350600Y0274261D01*
X0350600Y0275459D02*
X0351400Y0275459D01*
X0351400Y0276658D02*
X0350600Y0276658D01*
X0350600Y0277856D02*
X0351400Y0277856D01*
X0351400Y0279055D02*
X0350600Y0279055D01*
X0350211Y0280253D02*
X0351789Y0280253D01*
X0352546Y0281452D02*
X0349454Y0281452D01*
X0342546Y0281452D02*
X0339454Y0281452D01*
X0340211Y0280253D02*
X0341789Y0280253D01*
X0341400Y0279055D02*
X0340600Y0279055D01*
X0340600Y0277856D02*
X0341400Y0277856D01*
X0341400Y0276658D02*
X0340600Y0276658D01*
X0340600Y0275459D02*
X0341400Y0275459D01*
X0341400Y0274261D02*
X0340600Y0274261D01*
X0340600Y0273062D02*
X0341400Y0273062D01*
X0341740Y0271864D02*
X0340260Y0271864D01*
X0339570Y0270665D02*
X0342430Y0270665D01*
X0343959Y0269467D02*
X0338041Y0269467D01*
X0333959Y0269467D02*
X0328041Y0269467D01*
X0329570Y0270665D02*
X0332430Y0270665D01*
X0331740Y0271864D02*
X0330260Y0271864D01*
X0330600Y0273062D02*
X0331400Y0273062D01*
X0331400Y0274261D02*
X0330600Y0274261D01*
X0330600Y0275459D02*
X0331400Y0275459D01*
X0331400Y0276658D02*
X0330600Y0276658D01*
X0330600Y0277856D02*
X0331400Y0277856D01*
X0331400Y0279055D02*
X0330600Y0279055D01*
X0330211Y0280253D02*
X0331789Y0280253D01*
X0332546Y0281452D02*
X0329454Y0281452D01*
X0322546Y0281452D02*
X0319454Y0281452D01*
X0320211Y0280253D02*
X0321789Y0280253D01*
X0321400Y0279055D02*
X0320600Y0279055D01*
X0320600Y0277856D02*
X0321400Y0277856D01*
X0321400Y0276658D02*
X0320600Y0276658D01*
X0320600Y0275459D02*
X0321400Y0275459D01*
X0321400Y0274261D02*
X0320600Y0274261D01*
X0320600Y0273062D02*
X0321400Y0273062D01*
X0321740Y0271864D02*
X0320260Y0271864D01*
X0319570Y0270665D02*
X0322430Y0270665D01*
X0323959Y0269467D02*
X0318041Y0269467D01*
X0313959Y0269467D02*
X0308041Y0269467D01*
X0309570Y0270665D02*
X0312430Y0270665D01*
X0311740Y0271864D02*
X0310260Y0271864D01*
X0310600Y0273062D02*
X0311400Y0273062D01*
X0311400Y0274261D02*
X0310600Y0274261D01*
X0310600Y0275459D02*
X0311400Y0275459D01*
X0311400Y0276658D02*
X0310600Y0276658D01*
X0310600Y0277856D02*
X0311400Y0277856D01*
X0311400Y0279055D02*
X0310600Y0279055D01*
X0310211Y0280253D02*
X0311789Y0280253D01*
X0312546Y0281452D02*
X0309454Y0281452D01*
X0302546Y0281452D02*
X0299454Y0281452D01*
X0300211Y0280253D02*
X0301789Y0280253D01*
X0301400Y0279055D02*
X0300600Y0279055D01*
X0300600Y0277856D02*
X0301400Y0277856D01*
X0301400Y0276658D02*
X0300600Y0276658D01*
X0300600Y0275459D02*
X0301400Y0275459D01*
X0301400Y0274261D02*
X0300600Y0274261D01*
X0300600Y0273062D02*
X0301400Y0273062D01*
X0301740Y0271864D02*
X0300260Y0271864D01*
X0299570Y0270665D02*
X0302430Y0270665D01*
X0303959Y0269467D02*
X0298041Y0269467D01*
X0293959Y0269467D02*
X0288041Y0269467D01*
X0289570Y0270665D02*
X0292430Y0270665D01*
X0291740Y0271864D02*
X0290260Y0271864D01*
X0290600Y0273062D02*
X0291400Y0273062D01*
X0291400Y0274261D02*
X0290600Y0274261D01*
X0290600Y0275459D02*
X0291400Y0275459D01*
X0291400Y0276658D02*
X0290600Y0276658D01*
X0290600Y0277856D02*
X0291400Y0277856D01*
X0291400Y0279055D02*
X0290600Y0279055D01*
X0290211Y0280253D02*
X0291789Y0280253D01*
X0292546Y0281452D02*
X0289454Y0281452D01*
X0282546Y0281452D02*
X0279454Y0281452D01*
X0280211Y0280253D02*
X0281789Y0280253D01*
X0281400Y0279055D02*
X0280600Y0279055D01*
X0280600Y0277856D02*
X0281400Y0277856D01*
X0281400Y0276658D02*
X0280600Y0276658D01*
X0280600Y0275459D02*
X0281400Y0275459D01*
X0281400Y0274261D02*
X0280600Y0274261D01*
X0280600Y0273062D02*
X0281400Y0273062D01*
X0281740Y0271864D02*
X0280260Y0271864D01*
X0279570Y0270665D02*
X0282430Y0270665D01*
X0283959Y0269467D02*
X0278041Y0269467D01*
X0273959Y0269467D02*
X0258041Y0269467D01*
X0259570Y0270665D02*
X0272430Y0270665D01*
X0271740Y0271864D02*
X0260260Y0271864D01*
X0260600Y0273062D02*
X0271400Y0273062D01*
X0271400Y0274261D02*
X0260600Y0274261D01*
X0260600Y0275459D02*
X0271400Y0275459D01*
X0271400Y0276658D02*
X0260600Y0276658D01*
X0260600Y0277856D02*
X0271400Y0277856D01*
X0271400Y0279055D02*
X0260600Y0279055D01*
X0260211Y0280253D02*
X0271789Y0280253D01*
X0272546Y0281452D02*
X0259454Y0281452D01*
X0252546Y0281452D02*
X0249454Y0281452D01*
X0250211Y0280253D02*
X0251789Y0280253D01*
X0251400Y0279055D02*
X0250600Y0279055D01*
X0250600Y0277856D02*
X0251400Y0277856D01*
X0251400Y0276658D02*
X0250600Y0276658D01*
X0250600Y0275459D02*
X0251400Y0275459D01*
X0251400Y0274261D02*
X0250600Y0274261D01*
X0250600Y0273062D02*
X0251400Y0273062D01*
X0251740Y0271864D02*
X0250260Y0271864D01*
X0249570Y0270665D02*
X0252430Y0270665D01*
X0253959Y0269467D02*
X0248041Y0269467D01*
X0243959Y0269467D02*
X0238041Y0269467D01*
X0239570Y0270665D02*
X0242430Y0270665D01*
X0241740Y0271864D02*
X0240260Y0271864D01*
X0240600Y0273062D02*
X0241400Y0273062D01*
X0241400Y0274261D02*
X0240600Y0274261D01*
X0240600Y0275459D02*
X0241400Y0275459D01*
X0241400Y0276658D02*
X0240600Y0276658D01*
X0240600Y0277856D02*
X0241400Y0277856D01*
X0241400Y0279055D02*
X0240600Y0279055D01*
X0240211Y0280253D02*
X0241789Y0280253D01*
X0242546Y0281452D02*
X0239454Y0281452D01*
X0232546Y0281452D02*
X0229454Y0281452D01*
X0230211Y0280253D02*
X0231789Y0280253D01*
X0231400Y0279055D02*
X0230600Y0279055D01*
X0230600Y0277856D02*
X0231400Y0277856D01*
X0231400Y0276658D02*
X0230600Y0276658D01*
X0230600Y0275459D02*
X0231400Y0275459D01*
X0231400Y0274261D02*
X0230600Y0274261D01*
X0230600Y0273062D02*
X0231400Y0273062D01*
X0231740Y0271864D02*
X0230260Y0271864D01*
X0229570Y0270665D02*
X0232430Y0270665D01*
X0233959Y0269467D02*
X0228041Y0269467D01*
X0223959Y0269467D02*
X0190877Y0269467D01*
X0190342Y0270002D02*
X0188174Y0270900D01*
X0185826Y0270900D01*
X0183658Y0270002D01*
X0181998Y0268342D01*
X0181100Y0266174D01*
X0181100Y0263826D01*
X0181998Y0261658D01*
X0183658Y0259998D01*
X0185826Y0259100D01*
X0188174Y0259100D01*
X0190342Y0259998D01*
X0192002Y0261658D01*
X0192900Y0263826D01*
X0192900Y0266174D01*
X0192002Y0268342D01*
X0190342Y0270002D01*
X0188741Y0270665D02*
X0222430Y0270665D01*
X0221740Y0271864D02*
X0190017Y0271864D01*
X0191406Y0273062D02*
X0221400Y0273062D01*
X0221400Y0274261D02*
X0192251Y0274261D01*
X0192748Y0275459D02*
X0221400Y0275459D01*
X0221400Y0276658D02*
X0192900Y0276658D01*
X0192900Y0277856D02*
X0221400Y0277856D01*
X0221400Y0279055D02*
X0192535Y0279055D01*
X0192039Y0280253D02*
X0221789Y0280253D01*
X0222546Y0281452D02*
X0190892Y0281452D01*
X0183108Y0281452D02*
X0155694Y0281452D01*
X0154496Y0280253D02*
X0181961Y0280253D01*
X0181465Y0279055D02*
X0153297Y0279055D01*
X0152900Y0277856D02*
X0181100Y0277856D01*
X0181100Y0276658D02*
X0152900Y0276658D01*
X0152748Y0275459D02*
X0181252Y0275459D01*
X0181749Y0274261D02*
X0152251Y0274261D01*
X0151406Y0273062D02*
X0182594Y0273062D01*
X0183983Y0271864D02*
X0150017Y0271864D01*
X0148741Y0270665D02*
X0185259Y0270665D01*
X0183123Y0269467D02*
X0150877Y0269467D01*
X0152032Y0268268D02*
X0181968Y0268268D01*
X0181471Y0267070D02*
X0152529Y0267070D01*
X0152900Y0265871D02*
X0181100Y0265871D01*
X0181100Y0264672D02*
X0152900Y0264672D01*
X0152754Y0263474D02*
X0181246Y0263474D01*
X0181742Y0262275D02*
X0152258Y0262275D01*
X0151421Y0261077D02*
X0182579Y0261077D01*
X0183947Y0259878D02*
X0150053Y0259878D01*
X0143947Y0259878D02*
X0106000Y0259878D01*
X0106000Y0258680D02*
X0392501Y0258680D01*
X0392501Y0259878D02*
X0190053Y0259878D01*
X0191421Y0261077D02*
X0392501Y0261077D01*
X0392501Y0262275D02*
X0192258Y0262275D01*
X0192754Y0263474D02*
X0392501Y0263474D01*
X0392501Y0264672D02*
X0192900Y0264672D01*
X0192900Y0265871D02*
X0392501Y0265871D01*
X0392501Y0267070D02*
X0192529Y0267070D01*
X0192032Y0268268D02*
X0392501Y0268268D01*
X0392501Y0257481D02*
X0106000Y0257481D01*
X0106000Y0256283D02*
X0392501Y0256283D01*
X0392501Y0255084D02*
X0106000Y0255084D01*
X0106000Y0253886D02*
X0392501Y0253886D01*
X0392501Y0252687D02*
X0357670Y0252687D01*
X0356915Y0253000D02*
X0355085Y0253000D01*
X0353394Y0252300D01*
X0352100Y0251006D01*
X0351400Y0249315D01*
X0351400Y0242685D01*
X0352100Y0240994D01*
X0353394Y0239700D01*
X0355085Y0239000D01*
X0356915Y0239000D01*
X0358606Y0239700D01*
X0359900Y0240994D01*
X0360600Y0242685D01*
X0360600Y0249315D01*
X0359900Y0251006D01*
X0358606Y0252300D01*
X0356915Y0253000D01*
X0354330Y0252687D02*
X0347670Y0252687D01*
X0346915Y0253000D02*
X0345085Y0253000D01*
X0343394Y0252300D01*
X0342100Y0251006D01*
X0341400Y0249315D01*
X0341400Y0242685D01*
X0342100Y0240994D01*
X0343394Y0239700D01*
X0345085Y0239000D01*
X0346915Y0239000D01*
X0348606Y0239700D01*
X0349900Y0240994D01*
X0350600Y0242685D01*
X0350600Y0249315D01*
X0349900Y0251006D01*
X0348606Y0252300D01*
X0346915Y0253000D01*
X0344330Y0252687D02*
X0337670Y0252687D01*
X0336915Y0253000D02*
X0335085Y0253000D01*
X0333394Y0252300D01*
X0332100Y0251006D01*
X0331400Y0249315D01*
X0331400Y0242685D01*
X0332100Y0240994D01*
X0333394Y0239700D01*
X0335085Y0239000D01*
X0336915Y0239000D01*
X0338606Y0239700D01*
X0339900Y0240994D01*
X0340600Y0242685D01*
X0340600Y0249315D01*
X0339900Y0251006D01*
X0338606Y0252300D01*
X0336915Y0253000D01*
X0334330Y0252687D02*
X0327670Y0252687D01*
X0326915Y0253000D02*
X0325085Y0253000D01*
X0323394Y0252300D01*
X0322100Y0251006D01*
X0321400Y0249315D01*
X0321400Y0242685D01*
X0322100Y0240994D01*
X0323394Y0239700D01*
X0325085Y0239000D01*
X0326915Y0239000D01*
X0328606Y0239700D01*
X0329900Y0240994D01*
X0330600Y0242685D01*
X0330600Y0249315D01*
X0329900Y0251006D01*
X0328606Y0252300D01*
X0326915Y0253000D01*
X0324330Y0252687D02*
X0317670Y0252687D01*
X0316915Y0253000D02*
X0315085Y0253000D01*
X0313394Y0252300D01*
X0312100Y0251006D01*
X0311400Y0249315D01*
X0311400Y0242685D01*
X0312100Y0240994D01*
X0313394Y0239700D01*
X0315085Y0239000D01*
X0316915Y0239000D01*
X0318606Y0239700D01*
X0319900Y0240994D01*
X0320600Y0242685D01*
X0320600Y0249315D01*
X0319900Y0251006D01*
X0318606Y0252300D01*
X0316915Y0253000D01*
X0314330Y0252687D02*
X0307670Y0252687D01*
X0306915Y0253000D02*
X0305085Y0253000D01*
X0303394Y0252300D01*
X0302100Y0251006D01*
X0301400Y0249315D01*
X0301400Y0242685D01*
X0302100Y0240994D01*
X0303394Y0239700D01*
X0305085Y0239000D01*
X0306915Y0239000D01*
X0308606Y0239700D01*
X0309900Y0240994D01*
X0310600Y0242685D01*
X0310600Y0249315D01*
X0309900Y0251006D01*
X0308606Y0252300D01*
X0306915Y0253000D01*
X0304330Y0252687D02*
X0297670Y0252687D01*
X0296915Y0253000D02*
X0295085Y0253000D01*
X0293394Y0252300D01*
X0292100Y0251006D01*
X0291400Y0249315D01*
X0291400Y0242685D01*
X0292100Y0240994D01*
X0293394Y0239700D01*
X0295085Y0239000D01*
X0296915Y0239000D01*
X0298606Y0239700D01*
X0299900Y0240994D01*
X0300600Y0242685D01*
X0300600Y0249315D01*
X0299900Y0251006D01*
X0298606Y0252300D01*
X0296915Y0253000D01*
X0294330Y0252687D02*
X0287670Y0252687D01*
X0286915Y0253000D02*
X0285085Y0253000D01*
X0283394Y0252300D01*
X0282100Y0251006D01*
X0281400Y0249315D01*
X0281400Y0242685D01*
X0282100Y0240994D01*
X0283394Y0239700D01*
X0285085Y0239000D01*
X0286915Y0239000D01*
X0288606Y0239700D01*
X0289900Y0240994D01*
X0290600Y0242685D01*
X0290600Y0249315D01*
X0289900Y0251006D01*
X0288606Y0252300D01*
X0286915Y0253000D01*
X0284330Y0252687D02*
X0277670Y0252687D01*
X0276915Y0253000D02*
X0278606Y0252300D01*
X0279900Y0251006D01*
X0280600Y0249315D01*
X0280600Y0242685D01*
X0279900Y0240994D01*
X0278606Y0239700D01*
X0276915Y0239000D01*
X0275085Y0239000D01*
X0273394Y0239700D01*
X0272100Y0240994D01*
X0271400Y0242685D01*
X0271400Y0249315D01*
X0272100Y0251006D01*
X0273394Y0252300D01*
X0275085Y0253000D01*
X0276915Y0253000D01*
X0274330Y0252687D02*
X0267670Y0252687D01*
X0266915Y0253000D02*
X0265085Y0253000D01*
X0263394Y0252300D01*
X0262100Y0251006D01*
X0261400Y0249315D01*
X0261400Y0242685D01*
X0262100Y0240994D01*
X0263394Y0239700D01*
X0265085Y0239000D01*
X0266915Y0239000D01*
X0268606Y0239700D01*
X0269900Y0240994D01*
X0270600Y0242685D01*
X0270600Y0249315D01*
X0269900Y0251006D01*
X0268606Y0252300D01*
X0266915Y0253000D01*
X0264330Y0252687D02*
X0257670Y0252687D01*
X0256915Y0253000D02*
X0258606Y0252300D01*
X0259900Y0251006D01*
X0260600Y0249315D01*
X0260600Y0242685D01*
X0259900Y0240994D01*
X0258606Y0239700D01*
X0256915Y0239000D01*
X0255085Y0239000D01*
X0253394Y0239700D01*
X0252100Y0240994D01*
X0251400Y0242685D01*
X0251400Y0249315D01*
X0252100Y0251006D01*
X0253394Y0252300D01*
X0255085Y0253000D01*
X0256915Y0253000D01*
X0254330Y0252687D02*
X0247670Y0252687D01*
X0246915Y0253000D02*
X0245085Y0253000D01*
X0243394Y0252300D01*
X0242100Y0251006D01*
X0241400Y0249315D01*
X0241400Y0242685D01*
X0242100Y0240994D01*
X0243394Y0239700D01*
X0245085Y0239000D01*
X0246915Y0239000D01*
X0248606Y0239700D01*
X0249900Y0240994D01*
X0250600Y0242685D01*
X0250600Y0249315D01*
X0249900Y0251006D01*
X0248606Y0252300D01*
X0246915Y0253000D01*
X0244330Y0252687D02*
X0237670Y0252687D01*
X0236915Y0253000D02*
X0238606Y0252300D01*
X0239900Y0251006D01*
X0240600Y0249315D01*
X0240600Y0242685D01*
X0239900Y0240994D01*
X0238606Y0239700D01*
X0236915Y0239000D01*
X0235085Y0239000D01*
X0233394Y0239700D01*
X0232100Y0240994D01*
X0231400Y0242685D01*
X0231400Y0249315D01*
X0232100Y0251006D01*
X0233394Y0252300D01*
X0235085Y0253000D01*
X0236915Y0253000D01*
X0234330Y0252687D02*
X0227670Y0252687D01*
X0226915Y0253000D02*
X0225085Y0253000D01*
X0223394Y0252300D01*
X0222100Y0251006D01*
X0221400Y0249315D01*
X0221400Y0242685D01*
X0222100Y0240994D01*
X0223394Y0239700D01*
X0225085Y0239000D01*
X0226915Y0239000D01*
X0228606Y0239700D01*
X0229900Y0240994D01*
X0230600Y0242685D01*
X0230600Y0249315D01*
X0229900Y0251006D01*
X0228606Y0252300D01*
X0226915Y0253000D01*
X0224330Y0252687D02*
X0106000Y0252687D01*
X0106000Y0251489D02*
X0204834Y0251489D01*
X0205826Y0251900D02*
X0203658Y0251002D01*
X0201998Y0249342D01*
X0201100Y0247174D01*
X0201100Y0244826D01*
X0201998Y0242658D01*
X0203658Y0240998D01*
X0205826Y0240100D01*
X0208174Y0240100D01*
X0210342Y0240998D01*
X0212002Y0242658D01*
X0212900Y0244826D01*
X0212900Y0247174D01*
X0212002Y0249342D01*
X0210342Y0251002D01*
X0208174Y0251900D01*
X0205826Y0251900D01*
X0202946Y0250290D02*
X0106000Y0250290D01*
X0106000Y0249092D02*
X0201895Y0249092D01*
X0201398Y0247893D02*
X0106000Y0247893D01*
X0106000Y0246695D02*
X0201100Y0246695D01*
X0201100Y0245496D02*
X0106000Y0245496D01*
X0105540Y0244298D02*
X0201319Y0244298D01*
X0201815Y0243099D02*
X0104342Y0243099D01*
X0125342Y0241901D02*
X0202755Y0241901D01*
X0204372Y0240702D02*
X0126540Y0240702D01*
X0127739Y0239504D02*
X0223869Y0239504D01*
X0222392Y0240702D02*
X0209628Y0240702D01*
X0211245Y0241901D02*
X0221725Y0241901D01*
X0221400Y0243099D02*
X0212185Y0243099D01*
X0212681Y0244298D02*
X0221400Y0244298D01*
X0221400Y0245496D02*
X0212900Y0245496D01*
X0212900Y0246695D02*
X0221400Y0246695D01*
X0221400Y0247893D02*
X0212602Y0247893D01*
X0212105Y0249092D02*
X0221400Y0249092D01*
X0221804Y0250290D02*
X0211053Y0250290D01*
X0209166Y0251489D02*
X0222583Y0251489D01*
X0229416Y0251489D02*
X0232583Y0251489D01*
X0231804Y0250290D02*
X0230196Y0250290D01*
X0230600Y0249092D02*
X0231400Y0249092D01*
X0231400Y0247893D02*
X0230600Y0247893D01*
X0230600Y0246695D02*
X0231400Y0246695D01*
X0231400Y0245496D02*
X0230600Y0245496D01*
X0230600Y0244298D02*
X0231400Y0244298D01*
X0231400Y0243099D02*
X0230600Y0243099D01*
X0230275Y0241901D02*
X0231725Y0241901D01*
X0232392Y0240702D02*
X0229608Y0240702D01*
X0228131Y0239504D02*
X0233869Y0239504D01*
X0235085Y0235500D02*
X0233394Y0234800D01*
X0232100Y0233506D01*
X0231400Y0231815D01*
X0231400Y0225185D01*
X0232100Y0223494D01*
X0233394Y0222200D01*
X0235085Y0221500D01*
X0236915Y0221500D01*
X0238606Y0222200D01*
X0239900Y0223494D01*
X0240600Y0225185D01*
X0240600Y0231815D01*
X0239900Y0233506D01*
X0238606Y0234800D01*
X0236915Y0235500D01*
X0235085Y0235500D01*
X0233304Y0234710D02*
X0228696Y0234710D01*
X0228606Y0234800D02*
X0226915Y0235500D01*
X0225085Y0235500D01*
X0223394Y0234800D01*
X0222100Y0233506D01*
X0221400Y0231815D01*
X0221400Y0225185D01*
X0222100Y0223494D01*
X0223394Y0222200D01*
X0225085Y0221500D01*
X0226915Y0221500D01*
X0228606Y0222200D01*
X0229900Y0223494D01*
X0230600Y0225185D01*
X0230600Y0231815D01*
X0229900Y0233506D01*
X0228606Y0234800D01*
X0229894Y0233511D02*
X0232106Y0233511D01*
X0231606Y0232313D02*
X0230394Y0232313D01*
X0230600Y0231114D02*
X0231400Y0231114D01*
X0231400Y0229916D02*
X0230600Y0229916D01*
X0230600Y0228717D02*
X0231400Y0228717D01*
X0231400Y0227519D02*
X0230600Y0227519D01*
X0230600Y0226320D02*
X0231400Y0226320D01*
X0231426Y0225122D02*
X0230574Y0225122D01*
X0230077Y0223923D02*
X0231923Y0223923D01*
X0232870Y0222725D02*
X0229130Y0222725D01*
X0226978Y0221526D02*
X0235022Y0221526D01*
X0236978Y0221526D02*
X0245022Y0221526D01*
X0245085Y0221500D02*
X0246915Y0221500D01*
X0248606Y0222200D01*
X0249900Y0223494D01*
X0250600Y0225185D01*
X0250600Y0231815D01*
X0249900Y0233506D01*
X0248606Y0234800D01*
X0246915Y0235500D01*
X0245085Y0235500D01*
X0243394Y0234800D01*
X0242100Y0233506D01*
X0241400Y0231815D01*
X0241400Y0225185D01*
X0242100Y0223494D01*
X0243394Y0222200D01*
X0245085Y0221500D01*
X0246978Y0221526D02*
X0392501Y0221526D01*
X0392501Y0220328D02*
X0131000Y0220328D01*
X0131000Y0221526D02*
X0225022Y0221526D01*
X0222870Y0222725D02*
X0131000Y0222725D01*
X0131000Y0223923D02*
X0203333Y0223923D01*
X0203458Y0223798D02*
X0205626Y0222900D01*
X0207974Y0222900D01*
X0210142Y0223798D01*
X0211802Y0225458D01*
X0212700Y0227626D01*
X0212700Y0229974D01*
X0211802Y0232142D01*
X0210142Y0233802D01*
X0207974Y0234700D01*
X0205626Y0234700D01*
X0203458Y0233802D01*
X0201798Y0232142D01*
X0200900Y0229974D01*
X0200900Y0227626D01*
X0201798Y0225458D01*
X0203458Y0223798D01*
X0202135Y0225122D02*
X0131000Y0225122D01*
X0131000Y0226320D02*
X0201441Y0226320D01*
X0200945Y0227519D02*
X0131000Y0227519D01*
X0131000Y0228717D02*
X0200900Y0228717D01*
X0200900Y0229916D02*
X0131000Y0229916D01*
X0131000Y0231114D02*
X0201372Y0231114D01*
X0201969Y0232313D02*
X0131000Y0232313D01*
X0131000Y0233511D02*
X0203167Y0233511D01*
X0210433Y0233511D02*
X0222106Y0233511D01*
X0221606Y0232313D02*
X0211631Y0232313D01*
X0212228Y0231114D02*
X0221400Y0231114D01*
X0221400Y0229916D02*
X0212700Y0229916D01*
X0212700Y0228717D02*
X0221400Y0228717D01*
X0221400Y0227519D02*
X0212655Y0227519D01*
X0212159Y0226320D02*
X0221400Y0226320D01*
X0221426Y0225122D02*
X0211465Y0225122D01*
X0210267Y0223923D02*
X0221923Y0223923D01*
X0223304Y0234710D02*
X0131000Y0234710D01*
X0130871Y0235908D02*
X0262201Y0235908D01*
X0262913Y0236620D02*
X0261380Y0235087D01*
X0260550Y0233084D01*
X0260550Y0230916D01*
X0261380Y0228913D01*
X0262913Y0227380D01*
X0264916Y0226550D01*
X0267084Y0226550D01*
X0269087Y0227380D01*
X0270620Y0228913D01*
X0271450Y0230916D01*
X0271450Y0233084D01*
X0270620Y0235087D01*
X0269087Y0236620D01*
X0267084Y0237450D01*
X0264916Y0237450D01*
X0262913Y0236620D01*
X0264087Y0237107D02*
X0130136Y0237107D01*
X0128937Y0238305D02*
X0392501Y0238305D01*
X0392501Y0237107D02*
X0267913Y0237107D01*
X0269799Y0235908D02*
X0392501Y0235908D01*
X0392501Y0234710D02*
X0270777Y0234710D01*
X0271273Y0233511D02*
X0392501Y0233511D01*
X0392501Y0232313D02*
X0271450Y0232313D01*
X0271450Y0231114D02*
X0392501Y0231114D01*
X0392501Y0229916D02*
X0271036Y0229916D01*
X0270425Y0228717D02*
X0392501Y0228717D01*
X0392501Y0227519D02*
X0269226Y0227519D01*
X0262774Y0227519D02*
X0250600Y0227519D01*
X0250600Y0228717D02*
X0261575Y0228717D01*
X0260964Y0229916D02*
X0250600Y0229916D01*
X0250600Y0231114D02*
X0260550Y0231114D01*
X0260550Y0232313D02*
X0250394Y0232313D01*
X0249894Y0233511D02*
X0260727Y0233511D01*
X0261223Y0234710D02*
X0248696Y0234710D01*
X0248131Y0239504D02*
X0253869Y0239504D01*
X0252392Y0240702D02*
X0249608Y0240702D01*
X0250275Y0241901D02*
X0251725Y0241901D01*
X0251400Y0243099D02*
X0250600Y0243099D01*
X0250600Y0244298D02*
X0251400Y0244298D01*
X0251400Y0245496D02*
X0250600Y0245496D01*
X0250600Y0246695D02*
X0251400Y0246695D01*
X0251400Y0247893D02*
X0250600Y0247893D01*
X0250600Y0249092D02*
X0251400Y0249092D01*
X0251804Y0250290D02*
X0250196Y0250290D01*
X0249416Y0251489D02*
X0252583Y0251489D01*
X0259416Y0251489D02*
X0262583Y0251489D01*
X0261804Y0250290D02*
X0260196Y0250290D01*
X0260600Y0249092D02*
X0261400Y0249092D01*
X0261400Y0247893D02*
X0260600Y0247893D01*
X0260600Y0246695D02*
X0261400Y0246695D01*
X0261400Y0245496D02*
X0260600Y0245496D01*
X0260600Y0244298D02*
X0261400Y0244298D01*
X0261400Y0243099D02*
X0260600Y0243099D01*
X0260275Y0241901D02*
X0261725Y0241901D01*
X0262392Y0240702D02*
X0259608Y0240702D01*
X0258131Y0239504D02*
X0263869Y0239504D01*
X0268131Y0239504D02*
X0273869Y0239504D01*
X0272392Y0240702D02*
X0269608Y0240702D01*
X0270275Y0241901D02*
X0271725Y0241901D01*
X0271400Y0243099D02*
X0270600Y0243099D01*
X0270600Y0244298D02*
X0271400Y0244298D01*
X0271400Y0245496D02*
X0270600Y0245496D01*
X0270600Y0246695D02*
X0271400Y0246695D01*
X0271400Y0247893D02*
X0270600Y0247893D01*
X0270600Y0249092D02*
X0271400Y0249092D01*
X0271804Y0250290D02*
X0270196Y0250290D01*
X0269416Y0251489D02*
X0272583Y0251489D01*
X0279416Y0251489D02*
X0282583Y0251489D01*
X0281804Y0250290D02*
X0280196Y0250290D01*
X0280600Y0249092D02*
X0281400Y0249092D01*
X0281400Y0247893D02*
X0280600Y0247893D01*
X0280600Y0246695D02*
X0281400Y0246695D01*
X0281400Y0245496D02*
X0280600Y0245496D01*
X0280600Y0244298D02*
X0281400Y0244298D01*
X0281400Y0243099D02*
X0280600Y0243099D01*
X0280275Y0241901D02*
X0281725Y0241901D01*
X0282392Y0240702D02*
X0279608Y0240702D01*
X0278131Y0239504D02*
X0283869Y0239504D01*
X0288131Y0239504D02*
X0293869Y0239504D01*
X0292392Y0240702D02*
X0289608Y0240702D01*
X0290275Y0241901D02*
X0291725Y0241901D01*
X0291400Y0243099D02*
X0290600Y0243099D01*
X0290600Y0244298D02*
X0291400Y0244298D01*
X0291400Y0245496D02*
X0290600Y0245496D01*
X0290600Y0246695D02*
X0291400Y0246695D01*
X0291400Y0247893D02*
X0290600Y0247893D01*
X0290600Y0249092D02*
X0291400Y0249092D01*
X0291804Y0250290D02*
X0290196Y0250290D01*
X0289416Y0251489D02*
X0292583Y0251489D01*
X0299416Y0251489D02*
X0302583Y0251489D01*
X0301804Y0250290D02*
X0300196Y0250290D01*
X0300600Y0249092D02*
X0301400Y0249092D01*
X0301400Y0247893D02*
X0300600Y0247893D01*
X0300600Y0246695D02*
X0301400Y0246695D01*
X0301400Y0245496D02*
X0300600Y0245496D01*
X0300600Y0244298D02*
X0301400Y0244298D01*
X0301400Y0243099D02*
X0300600Y0243099D01*
X0300275Y0241901D02*
X0301725Y0241901D01*
X0302392Y0240702D02*
X0299608Y0240702D01*
X0298131Y0239504D02*
X0303869Y0239504D01*
X0308131Y0239504D02*
X0313869Y0239504D01*
X0312392Y0240702D02*
X0309608Y0240702D01*
X0310275Y0241901D02*
X0311725Y0241901D01*
X0311400Y0243099D02*
X0310600Y0243099D01*
X0310600Y0244298D02*
X0311400Y0244298D01*
X0311400Y0245496D02*
X0310600Y0245496D01*
X0310600Y0246695D02*
X0311400Y0246695D01*
X0311400Y0247893D02*
X0310600Y0247893D01*
X0310600Y0249092D02*
X0311400Y0249092D01*
X0311804Y0250290D02*
X0310196Y0250290D01*
X0309416Y0251489D02*
X0312583Y0251489D01*
X0319416Y0251489D02*
X0322583Y0251489D01*
X0321804Y0250290D02*
X0320196Y0250290D01*
X0320600Y0249092D02*
X0321400Y0249092D01*
X0321400Y0247893D02*
X0320600Y0247893D01*
X0320600Y0246695D02*
X0321400Y0246695D01*
X0321400Y0245496D02*
X0320600Y0245496D01*
X0320600Y0244298D02*
X0321400Y0244298D01*
X0321400Y0243099D02*
X0320600Y0243099D01*
X0320275Y0241901D02*
X0321725Y0241901D01*
X0322392Y0240702D02*
X0319608Y0240702D01*
X0318131Y0239504D02*
X0323869Y0239504D01*
X0328131Y0239504D02*
X0333869Y0239504D01*
X0332392Y0240702D02*
X0329608Y0240702D01*
X0330275Y0241901D02*
X0331725Y0241901D01*
X0331400Y0243099D02*
X0330600Y0243099D01*
X0330600Y0244298D02*
X0331400Y0244298D01*
X0331400Y0245496D02*
X0330600Y0245496D01*
X0330600Y0246695D02*
X0331400Y0246695D01*
X0331400Y0247893D02*
X0330600Y0247893D01*
X0330600Y0249092D02*
X0331400Y0249092D01*
X0331804Y0250290D02*
X0330196Y0250290D01*
X0329416Y0251489D02*
X0332583Y0251489D01*
X0339416Y0251489D02*
X0342583Y0251489D01*
X0341804Y0250290D02*
X0340196Y0250290D01*
X0340600Y0249092D02*
X0341400Y0249092D01*
X0341400Y0247893D02*
X0340600Y0247893D01*
X0340600Y0246695D02*
X0341400Y0246695D01*
X0341400Y0245496D02*
X0340600Y0245496D01*
X0340600Y0244298D02*
X0341400Y0244298D01*
X0341400Y0243099D02*
X0340600Y0243099D01*
X0340275Y0241901D02*
X0341725Y0241901D01*
X0342392Y0240702D02*
X0339608Y0240702D01*
X0338131Y0239504D02*
X0343869Y0239504D01*
X0348131Y0239504D02*
X0353869Y0239504D01*
X0352392Y0240702D02*
X0349608Y0240702D01*
X0350275Y0241901D02*
X0351725Y0241901D01*
X0351400Y0243099D02*
X0350600Y0243099D01*
X0350600Y0244298D02*
X0351400Y0244298D01*
X0351400Y0245496D02*
X0350600Y0245496D01*
X0350600Y0246695D02*
X0351400Y0246695D01*
X0351400Y0247893D02*
X0350600Y0247893D01*
X0350600Y0249092D02*
X0351400Y0249092D01*
X0351804Y0250290D02*
X0350196Y0250290D01*
X0349416Y0251489D02*
X0352583Y0251489D01*
X0359416Y0251489D02*
X0392501Y0251489D01*
X0392501Y0250290D02*
X0360196Y0250290D01*
X0360600Y0249092D02*
X0392501Y0249092D01*
X0392501Y0247893D02*
X0360600Y0247893D01*
X0360600Y0246695D02*
X0392501Y0246695D01*
X0392501Y0245496D02*
X0360600Y0245496D01*
X0360600Y0244298D02*
X0392501Y0244298D01*
X0392501Y0243099D02*
X0360600Y0243099D01*
X0360275Y0241901D02*
X0392501Y0241901D01*
X0392501Y0240702D02*
X0359608Y0240702D01*
X0358131Y0239504D02*
X0392501Y0239504D01*
X0392501Y0226320D02*
X0250600Y0226320D01*
X0250574Y0225122D02*
X0392501Y0225122D01*
X0392501Y0223923D02*
X0250077Y0223923D01*
X0249130Y0222725D02*
X0392501Y0222725D01*
X0392501Y0219129D02*
X0131000Y0219129D01*
X0131000Y0217931D02*
X0392501Y0217931D01*
X0392501Y0216732D02*
X0208945Y0216732D01*
X0209742Y0216402D02*
X0207574Y0217300D01*
X0205226Y0217300D01*
X0203058Y0216402D01*
X0201398Y0214742D01*
X0200500Y0212574D01*
X0200500Y0210226D01*
X0201398Y0208058D01*
X0203058Y0206398D01*
X0205226Y0205500D01*
X0207574Y0205500D01*
X0209742Y0206398D01*
X0211402Y0208058D01*
X0212300Y0210226D01*
X0212300Y0212574D01*
X0211402Y0214742D01*
X0209742Y0216402D01*
X0210610Y0215534D02*
X0392501Y0215534D01*
X0392501Y0214335D02*
X0211570Y0214335D01*
X0212067Y0213137D02*
X0392501Y0213137D01*
X0392501Y0211938D02*
X0212300Y0211938D01*
X0212300Y0210739D02*
X0261128Y0210739D01*
X0260550Y0210161D02*
X0261839Y0211450D01*
X0270161Y0211450D01*
X0271450Y0210161D01*
X0271450Y0201839D01*
X0270161Y0200550D01*
X0261839Y0200550D01*
X0260550Y0201839D01*
X0260550Y0210161D01*
X0260550Y0209541D02*
X0212016Y0209541D01*
X0211520Y0208342D02*
X0260550Y0208342D01*
X0260550Y0207144D02*
X0210488Y0207144D01*
X0208649Y0205945D02*
X0260550Y0205945D01*
X0260550Y0204747D02*
X0248658Y0204747D01*
X0248606Y0204800D02*
X0246915Y0205500D01*
X0245085Y0205500D01*
X0243394Y0204800D01*
X0242100Y0203506D01*
X0241400Y0201815D01*
X0241400Y0195185D01*
X0242100Y0193494D01*
X0243394Y0192200D01*
X0245085Y0191500D01*
X0246915Y0191500D01*
X0248606Y0192200D01*
X0249900Y0193494D01*
X0250600Y0195185D01*
X0250600Y0201815D01*
X0249900Y0203506D01*
X0248606Y0204800D01*
X0249857Y0203548D02*
X0260550Y0203548D01*
X0260550Y0202350D02*
X0250378Y0202350D01*
X0250600Y0201151D02*
X0261237Y0201151D01*
X0270763Y0201151D02*
X0392501Y0201151D01*
X0392501Y0199953D02*
X0250600Y0199953D01*
X0250600Y0198754D02*
X0392501Y0198754D01*
X0392501Y0197556D02*
X0250600Y0197556D01*
X0250600Y0196357D02*
X0392501Y0196357D01*
X0392501Y0195159D02*
X0250589Y0195159D01*
X0250093Y0193960D02*
X0392501Y0193960D01*
X0392501Y0192762D02*
X0249167Y0192762D01*
X0247068Y0191563D02*
X0392501Y0191563D01*
X0392501Y0190365D02*
X0111000Y0190365D01*
X0111000Y0191563D02*
X0224932Y0191563D01*
X0225085Y0191500D02*
X0226915Y0191500D01*
X0228606Y0192200D01*
X0229900Y0193494D01*
X0230600Y0195185D01*
X0230600Y0201815D01*
X0229900Y0203506D01*
X0228606Y0204800D01*
X0226915Y0205500D01*
X0225085Y0205500D01*
X0223394Y0204800D01*
X0222100Y0203506D01*
X0221400Y0201815D01*
X0221400Y0195185D01*
X0222100Y0193494D01*
X0223394Y0192200D01*
X0225085Y0191500D01*
X0227068Y0191563D02*
X0234932Y0191563D01*
X0235085Y0191500D02*
X0236915Y0191500D01*
X0238606Y0192200D01*
X0239900Y0193494D01*
X0240600Y0195185D01*
X0240600Y0201815D01*
X0239900Y0203506D01*
X0238606Y0204800D01*
X0236915Y0205500D01*
X0235085Y0205500D01*
X0233394Y0204800D01*
X0232100Y0203506D01*
X0231400Y0201815D01*
X0231400Y0195185D01*
X0232100Y0193494D01*
X0233394Y0192200D01*
X0235085Y0191500D01*
X0237068Y0191563D02*
X0244932Y0191563D01*
X0242833Y0192762D02*
X0239167Y0192762D01*
X0240093Y0193960D02*
X0241907Y0193960D01*
X0241411Y0195159D02*
X0240589Y0195159D01*
X0240600Y0196357D02*
X0241400Y0196357D01*
X0241400Y0197556D02*
X0240600Y0197556D01*
X0240600Y0198754D02*
X0241400Y0198754D01*
X0241400Y0199953D02*
X0240600Y0199953D01*
X0240600Y0201151D02*
X0241400Y0201151D01*
X0241622Y0202350D02*
X0240378Y0202350D01*
X0239857Y0203548D02*
X0242143Y0203548D01*
X0243342Y0204747D02*
X0238658Y0204747D01*
X0233342Y0204747D02*
X0228658Y0204747D01*
X0229857Y0203548D02*
X0232143Y0203548D01*
X0231622Y0202350D02*
X0230378Y0202350D01*
X0230600Y0201151D02*
X0231400Y0201151D01*
X0231400Y0199953D02*
X0230600Y0199953D01*
X0230600Y0198754D02*
X0231400Y0198754D01*
X0231400Y0197556D02*
X0230600Y0197556D01*
X0230600Y0196357D02*
X0231400Y0196357D01*
X0231411Y0195159D02*
X0230589Y0195159D01*
X0230093Y0193960D02*
X0231907Y0193960D01*
X0232833Y0192762D02*
X0229167Y0192762D01*
X0222833Y0192762D02*
X0111000Y0192762D01*
X0111000Y0193960D02*
X0221907Y0193960D01*
X0221411Y0195159D02*
X0111000Y0195159D01*
X0111000Y0196357D02*
X0221400Y0196357D01*
X0221400Y0197556D02*
X0111000Y0197556D01*
X0111000Y0189166D02*
X0392501Y0189166D01*
X0392501Y0187968D02*
X0111000Y0187968D01*
X0111000Y0186769D02*
X0392501Y0186769D01*
X0392501Y0185571D02*
X0111000Y0185571D01*
X0111000Y0184372D02*
X0392501Y0184372D01*
X0392501Y0183174D02*
X0111000Y0183174D01*
X0111000Y0181975D02*
X0392501Y0181975D01*
X0392501Y0180777D02*
X0111000Y0180777D01*
X0111000Y0179578D02*
X0392501Y0179578D01*
X0392501Y0178380D02*
X0111000Y0178380D01*
X0111000Y0177181D02*
X0392501Y0177181D01*
X0392501Y0175983D02*
X0111000Y0175983D01*
X0111000Y0174784D02*
X0392501Y0174784D01*
X0392501Y0173586D02*
X0111000Y0173586D01*
X0111000Y0172387D02*
X0392501Y0172387D01*
X0392501Y0171189D02*
X0111000Y0171189D01*
X0111000Y0169990D02*
X0392501Y0169990D01*
X0392501Y0168792D02*
X0111000Y0168792D01*
X0111000Y0167593D02*
X0392501Y0167593D01*
X0392501Y0166395D02*
X0358394Y0166395D01*
X0359342Y0166002D02*
X0357174Y0166900D01*
X0354826Y0166900D01*
X0352658Y0166002D01*
X0350998Y0164342D01*
X0350100Y0162174D01*
X0350100Y0159826D01*
X0350998Y0157658D01*
X0352658Y0155998D01*
X0354826Y0155100D01*
X0357174Y0155100D01*
X0359342Y0155998D01*
X0361002Y0157658D01*
X0361900Y0159826D01*
X0361900Y0162174D01*
X0361002Y0164342D01*
X0359342Y0166002D01*
X0360148Y0165196D02*
X0392501Y0165196D01*
X0392501Y0163998D02*
X0361144Y0163998D01*
X0361641Y0162799D02*
X0392501Y0162799D01*
X0392501Y0161601D02*
X0361900Y0161601D01*
X0361900Y0160402D02*
X0392501Y0160402D01*
X0392501Y0159203D02*
X0361642Y0159203D01*
X0361146Y0158005D02*
X0392501Y0158005D01*
X0392501Y0156806D02*
X0360150Y0156806D01*
X0358400Y0155608D02*
X0392501Y0155608D01*
X0392501Y0154409D02*
X0111000Y0154409D01*
X0111000Y0153211D02*
X0392501Y0153211D01*
X0392501Y0152012D02*
X0111000Y0152012D01*
X0111000Y0150814D02*
X0392501Y0150814D01*
X0392501Y0149615D02*
X0111000Y0149615D01*
X0111000Y0148417D02*
X0392501Y0148417D01*
X0392501Y0147218D02*
X0111000Y0147218D01*
X0111000Y0146020D02*
X0392501Y0146020D01*
X0392501Y0144821D02*
X0111000Y0144821D01*
X0111000Y0143623D02*
X0392501Y0143623D01*
X0392501Y0142424D02*
X0111000Y0142424D01*
X0111000Y0141226D02*
X0392501Y0141226D01*
X0392501Y0140027D02*
X0111000Y0140027D01*
X0111000Y0138829D02*
X0392501Y0138829D01*
X0392501Y0137630D02*
X0111000Y0137630D01*
X0111000Y0136432D02*
X0392501Y0136432D01*
X0392501Y0135233D02*
X0111000Y0135233D01*
X0111000Y0134035D02*
X0392501Y0134035D01*
X0392501Y0132836D02*
X0111000Y0132836D01*
X0111000Y0131638D02*
X0392501Y0131638D01*
X0392501Y0130439D02*
X0111000Y0130439D01*
X0111000Y0129241D02*
X0392501Y0129241D01*
X0392501Y0128042D02*
X0111000Y0128042D01*
X0111000Y0126844D02*
X0114690Y0126844D01*
X0117310Y0126844D02*
X0130690Y0126844D01*
X0130826Y0126900D02*
X0128658Y0126002D01*
X0126998Y0124342D01*
X0126100Y0122174D01*
X0126100Y0119826D01*
X0126998Y0117658D01*
X0128658Y0115998D01*
X0130826Y0115100D01*
X0133174Y0115100D01*
X0135342Y0115998D01*
X0137002Y0117658D01*
X0137900Y0119826D01*
X0137900Y0122174D01*
X0137002Y0124342D01*
X0135342Y0126002D01*
X0133174Y0126900D01*
X0130826Y0126900D01*
X0133310Y0126844D02*
X0154690Y0126844D01*
X0154826Y0126900D02*
X0152658Y0126002D01*
X0150998Y0124342D01*
X0150100Y0122174D01*
X0150100Y0119826D01*
X0150998Y0117658D01*
X0152658Y0115998D01*
X0154826Y0115100D01*
X0157174Y0115100D01*
X0159342Y0115998D01*
X0161002Y0117658D01*
X0161900Y0119826D01*
X0161900Y0122174D01*
X0161002Y0124342D01*
X0159342Y0126002D01*
X0157174Y0126900D01*
X0154826Y0126900D01*
X0157310Y0126844D02*
X0194690Y0126844D01*
X0194826Y0126900D02*
X0192658Y0126002D01*
X0190998Y0124342D01*
X0190100Y0122174D01*
X0190100Y0119826D01*
X0190998Y0117658D01*
X0192658Y0115998D01*
X0194826Y0115100D01*
X0197174Y0115100D01*
X0199342Y0115998D01*
X0201002Y0117658D01*
X0201900Y0119826D01*
X0201900Y0122174D01*
X0201002Y0124342D01*
X0199342Y0126002D01*
X0197174Y0126900D01*
X0194826Y0126900D01*
X0197310Y0126844D02*
X0234690Y0126844D01*
X0234826Y0126900D02*
X0232658Y0126002D01*
X0230998Y0124342D01*
X0230100Y0122174D01*
X0230100Y0119826D01*
X0230998Y0117658D01*
X0232658Y0115998D01*
X0234826Y0115100D01*
X0237174Y0115100D01*
X0239342Y0115998D01*
X0241002Y0117658D01*
X0241900Y0119826D01*
X0241900Y0122174D01*
X0241002Y0124342D01*
X0239342Y0126002D01*
X0237174Y0126900D01*
X0234826Y0126900D01*
X0237310Y0126844D02*
X0274690Y0126844D01*
X0274826Y0126900D02*
X0272658Y0126002D01*
X0270998Y0124342D01*
X0270100Y0122174D01*
X0270100Y0119826D01*
X0270998Y0117658D01*
X0272658Y0115998D01*
X0274826Y0115100D01*
X0277174Y0115100D01*
X0279342Y0115998D01*
X0281002Y0117658D01*
X0281900Y0119826D01*
X0281900Y0122174D01*
X0281002Y0124342D01*
X0279342Y0126002D01*
X0277174Y0126900D01*
X0274826Y0126900D01*
X0277310Y0126844D02*
X0314690Y0126844D01*
X0314826Y0126900D02*
X0312658Y0126002D01*
X0310998Y0124342D01*
X0310100Y0122174D01*
X0310100Y0119826D01*
X0310998Y0117658D01*
X0312658Y0115998D01*
X0314826Y0115100D01*
X0317174Y0115100D01*
X0319342Y0115998D01*
X0321002Y0117658D01*
X0321900Y0119826D01*
X0321900Y0122174D01*
X0321002Y0124342D01*
X0319342Y0126002D01*
X0317174Y0126900D01*
X0314826Y0126900D01*
X0317310Y0126844D02*
X0354690Y0126844D01*
X0354826Y0126900D02*
X0352658Y0126002D01*
X0350998Y0124342D01*
X0350100Y0122174D01*
X0350100Y0119826D01*
X0350998Y0117658D01*
X0352658Y0115998D01*
X0354826Y0115100D01*
X0357174Y0115100D01*
X0359342Y0115998D01*
X0361002Y0117658D01*
X0361900Y0119826D01*
X0361900Y0122174D01*
X0361002Y0124342D01*
X0359342Y0126002D01*
X0357174Y0126900D01*
X0354826Y0126900D01*
X0357310Y0126844D02*
X0392501Y0126844D01*
X0392501Y0125645D02*
X0359699Y0125645D01*
X0360897Y0124447D02*
X0392501Y0124447D01*
X0392501Y0123248D02*
X0361455Y0123248D01*
X0361900Y0122050D02*
X0392501Y0122050D01*
X0392501Y0120851D02*
X0361900Y0120851D01*
X0361828Y0119653D02*
X0392501Y0119653D01*
X0392501Y0118454D02*
X0361332Y0118454D01*
X0360599Y0117256D02*
X0392501Y0117256D01*
X0392501Y0116057D02*
X0359401Y0116057D01*
X0352599Y0116057D02*
X0344209Y0116057D01*
X0344342Y0116002D02*
X0342174Y0116900D01*
X0339826Y0116900D01*
X0337658Y0116002D01*
X0335998Y0114342D01*
X0335100Y0112174D01*
X0335100Y0109826D01*
X0335998Y0107658D01*
X0337658Y0105998D01*
X0339826Y0105100D01*
X0342174Y0105100D01*
X0344342Y0105998D01*
X0346002Y0107658D01*
X0346900Y0109826D01*
X0346900Y0112174D01*
X0346002Y0114342D01*
X0344342Y0116002D01*
X0345485Y0114859D02*
X0392501Y0114859D01*
X0392501Y0113660D02*
X0346284Y0113660D01*
X0346781Y0112462D02*
X0392501Y0112462D01*
X0392501Y0111263D02*
X0346900Y0111263D01*
X0346900Y0110065D02*
X0392501Y0110065D01*
X0392501Y0108866D02*
X0346502Y0108866D01*
X0346006Y0107668D02*
X0392501Y0107668D01*
X0392501Y0106469D02*
X0344813Y0106469D01*
X0342585Y0105270D02*
X0349917Y0105270D01*
X0350054Y0105408D02*
X0348592Y0103946D01*
X0347800Y0102034D01*
X0347800Y0099966D01*
X0348592Y0098054D01*
X0350054Y0096592D01*
X0351483Y0096000D01*
X0350054Y0095408D01*
X0348592Y0093946D01*
X0347800Y0092034D01*
X0347800Y0089966D01*
X0348592Y0088054D01*
X0350054Y0086592D01*
X0351966Y0085800D01*
X0360034Y0085800D01*
X0361946Y0086592D01*
X0363408Y0088054D01*
X0364200Y0089966D01*
X0364200Y0092034D01*
X0363408Y0093946D01*
X0361946Y0095408D01*
X0360517Y0096000D01*
X0361946Y0096592D01*
X0363408Y0098054D01*
X0364200Y0099966D01*
X0364200Y0102034D01*
X0363408Y0103946D01*
X0361946Y0105408D01*
X0360034Y0106200D01*
X0351966Y0106200D01*
X0350054Y0105408D01*
X0348718Y0104072D02*
X0323282Y0104072D01*
X0323408Y0103946D02*
X0321946Y0105408D01*
X0320034Y0106200D01*
X0311966Y0106200D01*
X0310054Y0105408D01*
X0308592Y0103946D01*
X0307800Y0102034D01*
X0307800Y0099966D01*
X0308592Y0098054D01*
X0310054Y0096592D01*
X0311483Y0096000D01*
X0310054Y0095408D01*
X0308592Y0093946D01*
X0307800Y0092034D01*
X0307800Y0089966D01*
X0308592Y0088054D01*
X0310054Y0086592D01*
X0311966Y0085800D01*
X0320034Y0085800D01*
X0321946Y0086592D01*
X0323408Y0088054D01*
X0324200Y0089966D01*
X0324200Y0092034D01*
X0323408Y0093946D01*
X0321946Y0095408D01*
X0320517Y0096000D01*
X0321946Y0096592D01*
X0323408Y0098054D01*
X0324200Y0099966D01*
X0324200Y0102034D01*
X0323408Y0103946D01*
X0323852Y0102873D02*
X0348148Y0102873D01*
X0347800Y0101675D02*
X0324200Y0101675D01*
X0324200Y0100476D02*
X0347800Y0100476D01*
X0348085Y0099278D02*
X0323915Y0099278D01*
X0323419Y0098079D02*
X0348581Y0098079D01*
X0349765Y0096881D02*
X0322235Y0096881D01*
X0321284Y0095682D02*
X0350716Y0095682D01*
X0349130Y0094484D02*
X0322870Y0094484D01*
X0323682Y0093285D02*
X0348318Y0093285D01*
X0347822Y0092087D02*
X0324178Y0092087D01*
X0324200Y0090888D02*
X0347800Y0090888D01*
X0347914Y0089690D02*
X0324086Y0089690D01*
X0323589Y0088491D02*
X0348411Y0088491D01*
X0349353Y0087293D02*
X0322647Y0087293D01*
X0320745Y0086094D02*
X0351255Y0086094D01*
X0360745Y0086094D02*
X0392501Y0086094D01*
X0392501Y0084896D02*
X0111000Y0084896D01*
X0111000Y0086094D02*
X0111255Y0086094D01*
X0111000Y0083697D02*
X0392501Y0083697D01*
X0392501Y0082499D02*
X0111000Y0082499D01*
X0111000Y0081300D02*
X0392501Y0081300D01*
X0392501Y0080102D02*
X0111000Y0080102D01*
X0111000Y0078903D02*
X0392501Y0078903D01*
X0392501Y0077705D02*
X0111000Y0077705D01*
X0111000Y0076506D02*
X0392501Y0076506D01*
X0392501Y0075308D02*
X0111000Y0075308D01*
X0111000Y0074109D02*
X0392501Y0074109D01*
X0392501Y0072911D02*
X0111000Y0072911D01*
X0111000Y0071712D02*
X0392501Y0071712D01*
X0392501Y0070514D02*
X0111000Y0070514D01*
X0111000Y0069315D02*
X0392501Y0069315D01*
X0392501Y0068117D02*
X0111000Y0068117D01*
X0111000Y0066918D02*
X0392501Y0066918D01*
X0392501Y0065720D02*
X0111000Y0065720D01*
X0111000Y0064521D02*
X0392501Y0064521D01*
X0392501Y0063323D02*
X0111000Y0063323D01*
X0111000Y0062124D02*
X0392501Y0062124D01*
X0392501Y0060926D02*
X0111000Y0060926D01*
X0111000Y0059727D02*
X0392501Y0059727D01*
X0392501Y0058529D02*
X0111000Y0058529D01*
X0111000Y0057330D02*
X0392501Y0057330D01*
X0392501Y0056132D02*
X0111000Y0056132D01*
X0111000Y0054933D02*
X0392501Y0054933D01*
X0392501Y0053734D02*
X0360988Y0053734D01*
X0362457Y0052536D02*
X0392501Y0052536D01*
X0392501Y0051337D02*
X0363590Y0051337D01*
X0364000Y0050139D02*
X0392501Y0050139D01*
X0392501Y0048940D02*
X0364000Y0048940D01*
X0364000Y0047742D02*
X0392501Y0047742D01*
X0392501Y0046543D02*
X0364000Y0046543D01*
X0364000Y0045345D02*
X0392501Y0045345D01*
X0392501Y0044146D02*
X0364000Y0044146D01*
X0364000Y0042948D02*
X0392501Y0042948D01*
X0392501Y0041749D02*
X0364000Y0041749D01*
X0364000Y0040551D02*
X0392501Y0040551D01*
X0392501Y0039352D02*
X0364000Y0039352D01*
X0364000Y0038154D02*
X0392501Y0038154D01*
X0392501Y0036955D02*
X0364000Y0036955D01*
X0364000Y0035757D02*
X0392501Y0035757D01*
X0392501Y0034558D02*
X0364000Y0034558D01*
X0364000Y0033360D02*
X0392501Y0033360D01*
X0392501Y0032161D02*
X0364000Y0032161D01*
X0364000Y0030963D02*
X0392501Y0030963D01*
X0392501Y0029764D02*
X0364000Y0029764D01*
X0364000Y0028566D02*
X0392501Y0028566D01*
X0392501Y0027367D02*
X0364000Y0027367D01*
X0364000Y0026169D02*
X0392501Y0026169D01*
X0392501Y0024970D02*
X0364000Y0024970D01*
X0364000Y0023772D02*
X0392501Y0023772D01*
X0392501Y0022573D02*
X0364000Y0022573D01*
X0364000Y0021375D02*
X0392501Y0021375D01*
X0392501Y0020176D02*
X0364000Y0020176D01*
X0363720Y0018978D02*
X0392501Y0018978D01*
X0392501Y0017779D02*
X0362772Y0017779D01*
X0361573Y0016581D02*
X0392501Y0016581D01*
X0392501Y0015382D02*
X0003200Y0015382D01*
X0003200Y0014184D02*
X0392501Y0014184D01*
X0392501Y0012985D02*
X0003200Y0012985D01*
X0003200Y0011787D02*
X0392501Y0011787D01*
X0392501Y0010588D02*
X0003200Y0010588D01*
X0003200Y0009390D02*
X0392501Y0009390D01*
X0392501Y0008191D02*
X0003200Y0008191D01*
X0003200Y0006993D02*
X0392501Y0006993D01*
X0392501Y0005794D02*
X0003200Y0005794D01*
X0003200Y0004596D02*
X0392501Y0004596D01*
X0392501Y0003397D02*
X0003200Y0003397D01*
X0003200Y0016581D02*
X0060427Y0016581D01*
X0059228Y0017779D02*
X0003200Y0017779D01*
X0003200Y0018978D02*
X0058280Y0018978D01*
X0058000Y0020176D02*
X0003200Y0020176D01*
X0003200Y0021375D02*
X0058000Y0021375D01*
X0058000Y0022573D02*
X0003200Y0022573D01*
X0003200Y0023772D02*
X0058000Y0023772D01*
X0058000Y0024970D02*
X0003200Y0024970D01*
X0003200Y0026169D02*
X0058000Y0026169D01*
X0058000Y0027367D02*
X0053786Y0027367D01*
X0054400Y0027622D02*
X0056011Y0029232D01*
X0056882Y0031336D01*
X0056882Y0040664D01*
X0056011Y0042768D01*
X0054400Y0044378D01*
X0052296Y0045250D01*
X0050019Y0045250D01*
X0047915Y0044378D01*
X0046304Y0042768D01*
X0045432Y0040664D01*
X0045432Y0031336D01*
X0046304Y0029232D01*
X0047915Y0027622D01*
X0050019Y0026750D01*
X0052296Y0026750D01*
X0054400Y0027622D01*
X0055345Y0028566D02*
X0058000Y0028566D01*
X0058000Y0029764D02*
X0056231Y0029764D01*
X0056728Y0030963D02*
X0058000Y0030963D01*
X0058000Y0032161D02*
X0056882Y0032161D01*
X0056882Y0033360D02*
X0058000Y0033360D01*
X0058000Y0034558D02*
X0056882Y0034558D01*
X0056882Y0035757D02*
X0058000Y0035757D01*
X0058000Y0036955D02*
X0056882Y0036955D01*
X0056882Y0038154D02*
X0058000Y0038154D01*
X0058000Y0039352D02*
X0056882Y0039352D01*
X0056882Y0040551D02*
X0058000Y0040551D01*
X0058000Y0041749D02*
X0056433Y0041749D01*
X0055831Y0042948D02*
X0058000Y0042948D01*
X0058000Y0044146D02*
X0054632Y0044146D01*
X0058000Y0045345D02*
X0003200Y0045345D01*
X0003200Y0046543D02*
X0058000Y0046543D01*
X0058000Y0047742D02*
X0003200Y0047742D01*
X0003200Y0048940D02*
X0058000Y0048940D01*
X0058000Y0050139D02*
X0003200Y0050139D01*
X0003200Y0051337D02*
X0058000Y0051337D01*
X0058000Y0052536D02*
X0003200Y0052536D01*
X0003200Y0053734D02*
X0058000Y0053734D01*
X0058000Y0054933D02*
X0003200Y0054933D01*
X0003200Y0056132D02*
X0058000Y0056132D01*
X0058000Y0057330D02*
X0003200Y0057330D01*
X0003200Y0058529D02*
X0058000Y0058529D01*
X0058000Y0059727D02*
X0003200Y0059727D01*
X0003200Y0060926D02*
X0058000Y0060926D01*
X0058000Y0062124D02*
X0003200Y0062124D01*
X0003200Y0063323D02*
X0058000Y0063323D01*
X0058072Y0064521D02*
X0003200Y0064521D01*
X0003200Y0065720D02*
X0058727Y0065720D01*
X0059925Y0066918D02*
X0003200Y0066918D01*
X0003200Y0068117D02*
X0081000Y0068117D01*
X0081000Y0069315D02*
X0003200Y0069315D01*
X0003200Y0070514D02*
X0081000Y0070514D01*
X0081000Y0071712D02*
X0003200Y0071712D01*
X0003200Y0072911D02*
X0081000Y0072911D01*
X0081000Y0074109D02*
X0003200Y0074109D01*
X0003200Y0075308D02*
X0081000Y0075308D01*
X0081000Y0076506D02*
X0003200Y0076506D01*
X0003200Y0077705D02*
X0081000Y0077705D01*
X0081000Y0078903D02*
X0003200Y0078903D01*
X0003200Y0080102D02*
X0081000Y0080102D01*
X0081000Y0081300D02*
X0003200Y0081300D01*
X0003200Y0082499D02*
X0081000Y0082499D01*
X0081000Y0083697D02*
X0003200Y0083697D01*
X0003200Y0084896D02*
X0081000Y0084896D01*
X0081000Y0086094D02*
X0080745Y0086094D01*
X0071255Y0086094D02*
X0003200Y0086094D01*
X0003200Y0087293D02*
X0069353Y0087293D01*
X0068411Y0088491D02*
X0003200Y0088491D01*
X0003200Y0089690D02*
X0067914Y0089690D01*
X0067800Y0090888D02*
X0003200Y0090888D01*
X0003200Y0092087D02*
X0067822Y0092087D01*
X0068318Y0093285D02*
X0003200Y0093285D01*
X0003200Y0094484D02*
X0069130Y0094484D01*
X0070716Y0095682D02*
X0003200Y0095682D01*
X0003200Y0096881D02*
X0069765Y0096881D01*
X0068581Y0098079D02*
X0003200Y0098079D01*
X0003200Y0099278D02*
X0068085Y0099278D01*
X0067800Y0100476D02*
X0003200Y0100476D01*
X0003200Y0101675D02*
X0067800Y0101675D01*
X0068148Y0102873D02*
X0003200Y0102873D01*
X0003200Y0104072D02*
X0067935Y0104072D01*
X0066737Y0105270D02*
X0062585Y0105270D01*
X0064813Y0106469D02*
X0066076Y0106469D01*
X0059415Y0105270D02*
X0003200Y0105270D01*
X0003200Y0106469D02*
X0057187Y0106469D01*
X0055994Y0107668D02*
X0003200Y0107668D01*
X0003200Y0108866D02*
X0055498Y0108866D01*
X0055100Y0110065D02*
X0003200Y0110065D01*
X0003200Y0111263D02*
X0055100Y0111263D01*
X0055219Y0112462D02*
X0003200Y0112462D01*
X0003200Y0113660D02*
X0015097Y0113660D01*
X0013899Y0114859D02*
X0003200Y0114859D01*
X0003200Y0116057D02*
X0012700Y0116057D01*
X0011502Y0117256D02*
X0003200Y0117256D01*
X0003200Y0118454D02*
X0010303Y0118454D01*
X0009105Y0119653D02*
X0003200Y0119653D01*
X0003200Y0120851D02*
X0008229Y0120851D01*
X0008000Y0122050D02*
X0003200Y0122050D01*
X0003200Y0123248D02*
X0008000Y0123248D01*
X0008000Y0124447D02*
X0003200Y0124447D01*
X0003200Y0125645D02*
X0008000Y0125645D01*
X0008000Y0126844D02*
X0003200Y0126844D01*
X0003200Y0128042D02*
X0008000Y0128042D01*
X0008000Y0129241D02*
X0003200Y0129241D01*
X0003200Y0130439D02*
X0008000Y0130439D01*
X0008000Y0131638D02*
X0003200Y0131638D01*
X0003200Y0132836D02*
X0008000Y0132836D01*
X0008000Y0134035D02*
X0003200Y0134035D01*
X0003200Y0135233D02*
X0008000Y0135233D01*
X0008000Y0136432D02*
X0003200Y0136432D01*
X0003200Y0137630D02*
X0008000Y0137630D01*
X0008000Y0138829D02*
X0003200Y0138829D01*
X0003200Y0140027D02*
X0008000Y0140027D01*
X0008000Y0141226D02*
X0003200Y0141226D01*
X0003200Y0142424D02*
X0008343Y0142424D01*
X0009380Y0143623D02*
X0003200Y0143623D01*
X0003200Y0144821D02*
X0010579Y0144821D01*
X0011777Y0146020D02*
X0003200Y0146020D01*
X0003200Y0147218D02*
X0012976Y0147218D01*
X0014174Y0148417D02*
X0003200Y0148417D01*
X0003200Y0149615D02*
X0036373Y0149615D01*
X0037571Y0150814D02*
X0003200Y0150814D01*
X0003200Y0152012D02*
X0038770Y0152012D01*
X0039968Y0153211D02*
X0003200Y0153211D01*
X0003200Y0154409D02*
X0041167Y0154409D01*
X0042365Y0155608D02*
X0003200Y0155608D01*
X0003200Y0156806D02*
X0043000Y0156806D01*
X0043000Y0158005D02*
X0003200Y0158005D01*
X0003200Y0159203D02*
X0043000Y0159203D01*
X0043000Y0160402D02*
X0003200Y0160402D01*
X0003200Y0161601D02*
X0043000Y0161601D01*
X0043000Y0162799D02*
X0003200Y0162799D01*
X0003200Y0163998D02*
X0043000Y0163998D01*
X0043000Y0165196D02*
X0003200Y0165196D01*
X0003200Y0166395D02*
X0043000Y0166395D01*
X0043000Y0167593D02*
X0003200Y0167593D01*
X0003200Y0168792D02*
X0043000Y0168792D01*
X0043000Y0169990D02*
X0003200Y0169990D01*
X0003200Y0171189D02*
X0024033Y0171189D01*
X0024232Y0170989D02*
X0026336Y0170118D01*
X0035664Y0170118D01*
X0037768Y0170989D01*
X0039378Y0172600D01*
X0040250Y0174704D01*
X0040250Y0176981D01*
X0039378Y0179085D01*
X0037768Y0180696D01*
X0035664Y0181568D01*
X0026336Y0181568D01*
X0024232Y0180696D01*
X0022622Y0179085D01*
X0021750Y0176981D01*
X0021750Y0174704D01*
X0022622Y0172600D01*
X0024232Y0170989D01*
X0022834Y0172387D02*
X0003200Y0172387D01*
X0003200Y0173586D02*
X0022213Y0173586D01*
X0021750Y0174784D02*
X0003200Y0174784D01*
X0003200Y0175983D02*
X0021750Y0175983D01*
X0021833Y0177181D02*
X0003200Y0177181D01*
X0003200Y0178380D02*
X0022329Y0178380D01*
X0023114Y0179578D02*
X0003200Y0179578D01*
X0003200Y0180777D02*
X0024427Y0180777D01*
X0037573Y0180777D02*
X0043000Y0180777D01*
X0043000Y0181975D02*
X0003200Y0181975D01*
X0003200Y0183174D02*
X0043000Y0183174D01*
X0043000Y0184372D02*
X0003200Y0184372D01*
X0003200Y0185571D02*
X0043000Y0185571D01*
X0043000Y0186769D02*
X0003200Y0186769D01*
X0003200Y0187968D02*
X0043000Y0187968D01*
X0043000Y0189166D02*
X0003200Y0189166D01*
X0003200Y0190365D02*
X0043000Y0190365D01*
X0043000Y0191563D02*
X0003200Y0191563D01*
X0003200Y0192762D02*
X0043000Y0192762D01*
X0043000Y0193960D02*
X0003200Y0193960D01*
X0003200Y0195159D02*
X0043000Y0195159D01*
X0043000Y0196357D02*
X0037821Y0196357D01*
X0037768Y0196304D02*
X0039378Y0197915D01*
X0040250Y0200019D01*
X0040250Y0202296D01*
X0039378Y0204400D01*
X0037768Y0206011D01*
X0035664Y0206882D01*
X0026336Y0206882D01*
X0024232Y0206011D01*
X0022622Y0204400D01*
X0021750Y0202296D01*
X0021750Y0200019D01*
X0022622Y0197915D01*
X0024232Y0196304D01*
X0026336Y0195432D01*
X0035664Y0195432D01*
X0037768Y0196304D01*
X0039020Y0197556D02*
X0043000Y0197556D01*
X0043000Y0198754D02*
X0039726Y0198754D01*
X0040223Y0199953D02*
X0043000Y0199953D01*
X0043000Y0201151D02*
X0040250Y0201151D01*
X0040228Y0202350D02*
X0043000Y0202350D01*
X0043000Y0203548D02*
X0039731Y0203548D01*
X0039032Y0204747D02*
X0043000Y0204747D01*
X0043000Y0205945D02*
X0037833Y0205945D01*
X0043000Y0207144D02*
X0003200Y0207144D01*
X0003200Y0208342D02*
X0043000Y0208342D01*
X0043000Y0209541D02*
X0003200Y0209541D01*
X0003200Y0210739D02*
X0043000Y0210739D01*
X0043000Y0211938D02*
X0003200Y0211938D01*
X0003200Y0213137D02*
X0043000Y0213137D01*
X0043000Y0214335D02*
X0003200Y0214335D01*
X0003200Y0215534D02*
X0043000Y0215534D01*
X0043000Y0216732D02*
X0003200Y0216732D01*
X0003200Y0217931D02*
X0043000Y0217931D01*
X0043000Y0219129D02*
X0003200Y0219129D01*
X0003200Y0220328D02*
X0043000Y0220328D01*
X0043000Y0221526D02*
X0003200Y0221526D01*
X0003200Y0222725D02*
X0043000Y0222725D01*
X0043000Y0223923D02*
X0003200Y0223923D01*
X0003200Y0225122D02*
X0043000Y0225122D01*
X0043000Y0226320D02*
X0003200Y0226320D01*
X0003200Y0227519D02*
X0043000Y0227519D01*
X0043000Y0228717D02*
X0003200Y0228717D01*
X0003200Y0229916D02*
X0043000Y0229916D01*
X0043000Y0231114D02*
X0003200Y0231114D01*
X0003200Y0232313D02*
X0043000Y0232313D01*
X0043000Y0233511D02*
X0003200Y0233511D01*
X0003200Y0234710D02*
X0043000Y0234710D01*
X0043000Y0235908D02*
X0003200Y0235908D01*
X0003200Y0237107D02*
X0043000Y0237107D01*
X0043000Y0238305D02*
X0003200Y0238305D01*
X0003200Y0239504D02*
X0043000Y0239504D01*
X0043000Y0240702D02*
X0003200Y0240702D01*
X0003200Y0241901D02*
X0043000Y0241901D01*
X0043000Y0243099D02*
X0003200Y0243099D01*
X0003200Y0244298D02*
X0043000Y0244298D01*
X0043000Y0245496D02*
X0035818Y0245496D01*
X0035664Y0245432D02*
X0037768Y0246304D01*
X0039378Y0247915D01*
X0040250Y0250019D01*
X0040250Y0252296D01*
X0039378Y0254400D01*
X0037768Y0256011D01*
X0035664Y0256882D01*
X0026336Y0256882D01*
X0024232Y0256011D01*
X0022622Y0254400D01*
X0021750Y0252296D01*
X0021750Y0250019D01*
X0022622Y0247915D01*
X0024232Y0246304D01*
X0026336Y0245432D01*
X0035664Y0245432D01*
X0038159Y0246695D02*
X0043000Y0246695D01*
X0043000Y0247893D02*
X0039357Y0247893D01*
X0039866Y0249092D02*
X0043000Y0249092D01*
X0043000Y0250290D02*
X0040250Y0250290D01*
X0040250Y0251489D02*
X0043000Y0251489D01*
X0043000Y0252687D02*
X0040088Y0252687D01*
X0039592Y0253886D02*
X0043000Y0253886D01*
X0043000Y0255084D02*
X0038694Y0255084D01*
X0037111Y0256283D02*
X0043000Y0256283D01*
X0043000Y0257481D02*
X0003200Y0257481D01*
X0003200Y0256283D02*
X0024889Y0256283D01*
X0023306Y0255084D02*
X0003200Y0255084D01*
X0003200Y0253886D02*
X0022408Y0253886D01*
X0021912Y0252687D02*
X0003200Y0252687D01*
X0003200Y0251489D02*
X0021750Y0251489D01*
X0021750Y0250290D02*
X0003200Y0250290D01*
X0003200Y0249092D02*
X0022134Y0249092D01*
X0022643Y0247893D02*
X0003200Y0247893D01*
X0003200Y0246695D02*
X0023841Y0246695D01*
X0026182Y0245496D02*
X0003200Y0245496D01*
X0003200Y0258680D02*
X0043000Y0258680D01*
X0043000Y0259878D02*
X0003200Y0259878D01*
X0003200Y0261077D02*
X0043000Y0261077D01*
X0043000Y0262275D02*
X0003200Y0262275D01*
X0003200Y0263474D02*
X0043000Y0263474D01*
X0043000Y0264672D02*
X0003200Y0264672D01*
X0003200Y0265871D02*
X0024517Y0265871D01*
X0024232Y0265989D02*
X0026336Y0265118D01*
X0035664Y0265118D01*
X0037768Y0265989D01*
X0039378Y0267600D01*
X0040250Y0269704D01*
X0040250Y0271981D01*
X0039378Y0274085D01*
X0037768Y0275696D01*
X0035664Y0276568D01*
X0026336Y0276568D01*
X0024232Y0275696D01*
X0022622Y0274085D01*
X0021750Y0271981D01*
X0021750Y0269704D01*
X0022622Y0267600D01*
X0024232Y0265989D01*
X0023152Y0267070D02*
X0003200Y0267070D01*
X0003200Y0268268D02*
X0022345Y0268268D01*
X0021848Y0269467D02*
X0003200Y0269467D01*
X0003200Y0270665D02*
X0021750Y0270665D01*
X0021750Y0271864D02*
X0003200Y0271864D01*
X0003200Y0273062D02*
X0022198Y0273062D01*
X0022797Y0274261D02*
X0003200Y0274261D01*
X0003200Y0275459D02*
X0023995Y0275459D01*
X0038005Y0275459D02*
X0052216Y0275459D01*
X0051018Y0274261D02*
X0039203Y0274261D01*
X0039802Y0273062D02*
X0049819Y0273062D01*
X0048621Y0271864D02*
X0040250Y0271864D01*
X0040250Y0270665D02*
X0047422Y0270665D01*
X0046224Y0269467D02*
X0040152Y0269467D01*
X0039655Y0268268D02*
X0045025Y0268268D01*
X0043827Y0267070D02*
X0038848Y0267070D01*
X0037483Y0265871D02*
X0043114Y0265871D01*
X0053415Y0276658D02*
X0003200Y0276658D01*
X0003200Y0277856D02*
X0054613Y0277856D01*
X0055812Y0279055D02*
X0003200Y0279055D01*
X0003200Y0280253D02*
X0057010Y0280253D01*
X0058209Y0281452D02*
X0003200Y0281452D01*
X0003200Y0282650D02*
X0059408Y0282650D01*
X0060606Y0283849D02*
X0003200Y0283849D01*
X0003200Y0285047D02*
X0061805Y0285047D01*
X0063003Y0286246D02*
X0003200Y0286246D01*
X0003200Y0287444D02*
X0064202Y0287444D01*
X0065541Y0288643D02*
X0003200Y0288643D01*
X0003200Y0289841D02*
X0112508Y0289841D01*
X0112100Y0291040D02*
X0003200Y0291040D01*
X0003200Y0292238D02*
X0106918Y0292238D01*
X0105719Y0293437D02*
X0003200Y0293437D01*
X0003200Y0294635D02*
X0105093Y0294635D01*
X0104600Y0295834D02*
X0003200Y0295834D01*
X0003200Y0297032D02*
X0104600Y0297032D01*
X0104624Y0298231D02*
X0003200Y0298231D01*
X0003200Y0299429D02*
X0105120Y0299429D01*
X0105784Y0300628D02*
X0003200Y0300628D01*
X0003200Y0301826D02*
X0106982Y0301826D01*
X0112100Y0303025D02*
X0003200Y0303025D01*
X0003200Y0304223D02*
X0112535Y0304223D01*
X0113078Y0305422D02*
X0003200Y0305422D01*
X0003200Y0306620D02*
X0114277Y0306620D01*
X0116631Y0307819D02*
X0003200Y0307819D01*
X0097459Y0288643D02*
X0113013Y0288643D01*
X0114212Y0287444D02*
X0098798Y0287444D01*
X0099997Y0286246D02*
X0109753Y0286246D01*
X0108555Y0285047D02*
X0101195Y0285047D01*
X0102394Y0283849D02*
X0107708Y0283849D01*
X0107500Y0282650D02*
X0103592Y0282650D01*
X0104791Y0281452D02*
X0107500Y0281452D01*
X0107500Y0280253D02*
X0105728Y0280253D01*
X0106000Y0279055D02*
X0107500Y0279055D01*
X0107500Y0277856D02*
X0106000Y0277856D01*
X0106000Y0276658D02*
X0107500Y0276658D01*
X0106615Y0275459D02*
X0106000Y0275459D01*
X0106000Y0267070D02*
X0106087Y0267070D01*
X0106000Y0265871D02*
X0107465Y0265871D01*
X0106000Y0264672D02*
X0112164Y0264672D01*
X0112660Y0263474D02*
X0106000Y0263474D01*
X0106000Y0262275D02*
X0113381Y0262275D01*
X0114579Y0261077D02*
X0106000Y0261077D01*
X0121421Y0261077D02*
X0142579Y0261077D01*
X0141742Y0262275D02*
X0122619Y0262275D01*
X0123340Y0263474D02*
X0141246Y0263474D01*
X0141100Y0264672D02*
X0123836Y0264672D01*
X0123900Y0265871D02*
X0141100Y0265871D01*
X0140688Y0267070D02*
X0123900Y0267070D01*
X0123447Y0268268D02*
X0139489Y0268268D01*
X0138291Y0269467D02*
X0122877Y0269467D01*
X0121679Y0270665D02*
X0137092Y0270665D01*
X0135894Y0271864D02*
X0122207Y0271864D01*
X0123169Y0273062D02*
X0134695Y0273062D01*
X0133497Y0274261D02*
X0123666Y0274261D01*
X0123900Y0275459D02*
X0132391Y0275459D01*
X0132000Y0276658D02*
X0123900Y0276658D01*
X0123617Y0277856D02*
X0132000Y0277856D01*
X0132000Y0279055D02*
X0123121Y0279055D01*
X0122091Y0280253D02*
X0132000Y0280253D01*
X0134202Y0287444D02*
X0121788Y0287444D01*
X0122987Y0288643D02*
X0135400Y0288643D01*
X0136599Y0289841D02*
X0123492Y0289841D01*
X0123900Y0291040D02*
X0137797Y0291040D01*
X0138996Y0292238D02*
X0123900Y0292238D01*
X0123791Y0293437D02*
X0142093Y0293437D01*
X0143291Y0294635D02*
X0123295Y0294635D01*
X0122510Y0295834D02*
X0145667Y0295834D01*
X0143624Y0297032D02*
X0121376Y0297032D01*
X0122575Y0298231D02*
X0142425Y0298231D01*
X0141679Y0299429D02*
X0123321Y0299429D01*
X0123818Y0300628D02*
X0141182Y0300628D01*
X0141100Y0301826D02*
X0123900Y0301826D01*
X0123900Y0303025D02*
X0141100Y0303025D01*
X0141535Y0304223D02*
X0123465Y0304223D01*
X0122922Y0305422D02*
X0142078Y0305422D01*
X0143277Y0306620D02*
X0121723Y0306620D01*
X0119369Y0307819D02*
X0145631Y0307819D01*
X0148333Y0295834D02*
X0148924Y0295834D01*
X0239416Y0251489D02*
X0242583Y0251489D01*
X0241804Y0250290D02*
X0240196Y0250290D01*
X0240600Y0249092D02*
X0241400Y0249092D01*
X0241400Y0247893D02*
X0240600Y0247893D01*
X0240600Y0246695D02*
X0241400Y0246695D01*
X0241400Y0245496D02*
X0240600Y0245496D01*
X0240600Y0244298D02*
X0241400Y0244298D01*
X0241400Y0243099D02*
X0240600Y0243099D01*
X0240275Y0241901D02*
X0241725Y0241901D01*
X0242392Y0240702D02*
X0239608Y0240702D01*
X0238131Y0239504D02*
X0243869Y0239504D01*
X0243304Y0234710D02*
X0238696Y0234710D01*
X0239894Y0233511D02*
X0242106Y0233511D01*
X0241606Y0232313D02*
X0240394Y0232313D01*
X0240600Y0231114D02*
X0241400Y0231114D01*
X0241400Y0229916D02*
X0240600Y0229916D01*
X0240600Y0228717D02*
X0241400Y0228717D01*
X0241400Y0227519D02*
X0240600Y0227519D01*
X0240600Y0226320D02*
X0241400Y0226320D01*
X0241426Y0225122D02*
X0240574Y0225122D01*
X0240077Y0223923D02*
X0241923Y0223923D01*
X0242870Y0222725D02*
X0239130Y0222725D01*
X0223342Y0204747D02*
X0130728Y0204747D01*
X0131000Y0205945D02*
X0204151Y0205945D01*
X0202312Y0207144D02*
X0131000Y0207144D01*
X0131000Y0208342D02*
X0201280Y0208342D01*
X0200784Y0209541D02*
X0131000Y0209541D01*
X0131000Y0210739D02*
X0200500Y0210739D01*
X0200500Y0211938D02*
X0131000Y0211938D01*
X0131000Y0213137D02*
X0200733Y0213137D01*
X0201230Y0214335D02*
X0131000Y0214335D01*
X0131000Y0215534D02*
X0202190Y0215534D01*
X0203855Y0216732D02*
X0131000Y0216732D01*
X0129791Y0203548D02*
X0222143Y0203548D01*
X0221622Y0202350D02*
X0128593Y0202350D01*
X0127394Y0201151D02*
X0221400Y0201151D01*
X0221400Y0199953D02*
X0126196Y0199953D01*
X0124997Y0198754D02*
X0221400Y0198754D01*
X0234826Y0166900D02*
X0232658Y0166002D01*
X0230998Y0164342D01*
X0230100Y0162174D01*
X0230100Y0159826D01*
X0230998Y0157658D01*
X0232658Y0155998D01*
X0234826Y0155100D01*
X0237174Y0155100D01*
X0239342Y0155998D01*
X0241002Y0157658D01*
X0241900Y0159826D01*
X0241900Y0162174D01*
X0241002Y0164342D01*
X0239342Y0166002D01*
X0237174Y0166900D01*
X0234826Y0166900D01*
X0233606Y0166395D02*
X0198394Y0166395D01*
X0199342Y0166002D02*
X0197174Y0166900D01*
X0194826Y0166900D01*
X0192658Y0166002D01*
X0190998Y0164342D01*
X0190100Y0162174D01*
X0190100Y0159826D01*
X0190998Y0157658D01*
X0192658Y0155998D01*
X0194826Y0155100D01*
X0197174Y0155100D01*
X0199342Y0155998D01*
X0201002Y0157658D01*
X0201900Y0159826D01*
X0201900Y0162174D01*
X0201002Y0164342D01*
X0199342Y0166002D01*
X0200148Y0165196D02*
X0231852Y0165196D01*
X0230856Y0163998D02*
X0201144Y0163998D01*
X0201641Y0162799D02*
X0230359Y0162799D01*
X0230100Y0161601D02*
X0201900Y0161601D01*
X0201900Y0160402D02*
X0230100Y0160402D01*
X0230358Y0159203D02*
X0201642Y0159203D01*
X0201146Y0158005D02*
X0230854Y0158005D01*
X0231850Y0156806D02*
X0200150Y0156806D01*
X0198400Y0155608D02*
X0233600Y0155608D01*
X0238400Y0155608D02*
X0273600Y0155608D01*
X0272658Y0155998D02*
X0274826Y0155100D01*
X0277174Y0155100D01*
X0279342Y0155998D01*
X0281002Y0157658D01*
X0281900Y0159826D01*
X0281900Y0162174D01*
X0281002Y0164342D01*
X0279342Y0166002D01*
X0277174Y0166900D01*
X0274826Y0166900D01*
X0272658Y0166002D01*
X0270998Y0164342D01*
X0270100Y0162174D01*
X0270100Y0159826D01*
X0270998Y0157658D01*
X0272658Y0155998D01*
X0271850Y0156806D02*
X0240150Y0156806D01*
X0241146Y0158005D02*
X0270854Y0158005D01*
X0270358Y0159203D02*
X0241642Y0159203D01*
X0241900Y0160402D02*
X0270100Y0160402D01*
X0270100Y0161601D02*
X0241900Y0161601D01*
X0241641Y0162799D02*
X0270359Y0162799D01*
X0270856Y0163998D02*
X0241144Y0163998D01*
X0240148Y0165196D02*
X0271852Y0165196D01*
X0273606Y0166395D02*
X0238394Y0166395D01*
X0278394Y0166395D02*
X0313606Y0166395D01*
X0312658Y0166002D02*
X0314826Y0166900D01*
X0317174Y0166900D01*
X0319342Y0166002D01*
X0321002Y0164342D01*
X0321900Y0162174D01*
X0321900Y0159826D01*
X0321002Y0157658D01*
X0319342Y0155998D01*
X0317174Y0155100D01*
X0314826Y0155100D01*
X0312658Y0155998D01*
X0310998Y0157658D01*
X0310100Y0159826D01*
X0310100Y0162174D01*
X0310998Y0164342D01*
X0312658Y0166002D01*
X0311852Y0165196D02*
X0280148Y0165196D01*
X0281144Y0163998D02*
X0310856Y0163998D01*
X0310359Y0162799D02*
X0281641Y0162799D01*
X0281900Y0161601D02*
X0310100Y0161601D01*
X0310100Y0160402D02*
X0281900Y0160402D01*
X0281642Y0159203D02*
X0310358Y0159203D01*
X0310854Y0158005D02*
X0281146Y0158005D01*
X0280150Y0156806D02*
X0311850Y0156806D01*
X0313600Y0155608D02*
X0278400Y0155608D01*
X0279699Y0125645D02*
X0312301Y0125645D01*
X0311103Y0124447D02*
X0280897Y0124447D01*
X0281455Y0123248D02*
X0310545Y0123248D01*
X0310100Y0122050D02*
X0281900Y0122050D01*
X0281900Y0120851D02*
X0310100Y0120851D01*
X0310172Y0119653D02*
X0281828Y0119653D01*
X0281332Y0118454D02*
X0310668Y0118454D01*
X0311401Y0117256D02*
X0280599Y0117256D01*
X0279401Y0116057D02*
X0297791Y0116057D01*
X0297658Y0116002D02*
X0295998Y0114342D01*
X0295100Y0112174D01*
X0295100Y0109826D01*
X0295998Y0107658D01*
X0297658Y0105998D01*
X0299826Y0105100D01*
X0302174Y0105100D01*
X0304342Y0105998D01*
X0306002Y0107658D01*
X0306900Y0109826D01*
X0306900Y0112174D01*
X0306002Y0114342D01*
X0304342Y0116002D01*
X0302174Y0116900D01*
X0299826Y0116900D01*
X0297658Y0116002D01*
X0296515Y0114859D02*
X0265485Y0114859D01*
X0266002Y0114342D02*
X0264342Y0116002D01*
X0262174Y0116900D01*
X0259826Y0116900D01*
X0257658Y0116002D01*
X0255998Y0114342D01*
X0255100Y0112174D01*
X0255100Y0109826D01*
X0255998Y0107658D01*
X0257658Y0105998D01*
X0259826Y0105100D01*
X0262174Y0105100D01*
X0264342Y0105998D01*
X0266002Y0107658D01*
X0266900Y0109826D01*
X0266900Y0112174D01*
X0266002Y0114342D01*
X0266284Y0113660D02*
X0295716Y0113660D01*
X0295219Y0112462D02*
X0266781Y0112462D01*
X0266900Y0111263D02*
X0295100Y0111263D01*
X0295100Y0110065D02*
X0266900Y0110065D01*
X0266502Y0108866D02*
X0295498Y0108866D01*
X0295994Y0107668D02*
X0266006Y0107668D01*
X0264813Y0106469D02*
X0297187Y0106469D01*
X0299415Y0105270D02*
X0282083Y0105270D01*
X0281946Y0105408D02*
X0280034Y0106200D01*
X0271966Y0106200D01*
X0270054Y0105408D01*
X0268592Y0103946D01*
X0267800Y0102034D01*
X0267800Y0099966D01*
X0268592Y0098054D01*
X0270054Y0096592D01*
X0271483Y0096000D01*
X0270054Y0095408D01*
X0268592Y0093946D01*
X0267800Y0092034D01*
X0267800Y0089966D01*
X0268592Y0088054D01*
X0270054Y0086592D01*
X0271966Y0085800D01*
X0280034Y0085800D01*
X0281946Y0086592D01*
X0283408Y0088054D01*
X0284200Y0089966D01*
X0284200Y0092034D01*
X0283408Y0093946D01*
X0281946Y0095408D01*
X0280517Y0096000D01*
X0281946Y0096592D01*
X0283408Y0098054D01*
X0284200Y0099966D01*
X0284200Y0102034D01*
X0283408Y0103946D01*
X0281946Y0105408D01*
X0283282Y0104072D02*
X0308718Y0104072D01*
X0308148Y0102873D02*
X0283852Y0102873D01*
X0284200Y0101675D02*
X0307800Y0101675D01*
X0307800Y0100476D02*
X0284200Y0100476D01*
X0283915Y0099278D02*
X0308085Y0099278D01*
X0308581Y0098079D02*
X0283419Y0098079D01*
X0282235Y0096881D02*
X0309765Y0096881D01*
X0310716Y0095682D02*
X0281284Y0095682D01*
X0282870Y0094484D02*
X0309130Y0094484D01*
X0308318Y0093285D02*
X0283682Y0093285D01*
X0284178Y0092087D02*
X0307822Y0092087D01*
X0307800Y0090888D02*
X0284200Y0090888D01*
X0284086Y0089690D02*
X0307914Y0089690D01*
X0308411Y0088491D02*
X0283589Y0088491D01*
X0282647Y0087293D02*
X0309353Y0087293D01*
X0311255Y0086094D02*
X0280745Y0086094D01*
X0271255Y0086094D02*
X0240745Y0086094D01*
X0240034Y0085800D02*
X0241946Y0086592D01*
X0243408Y0088054D01*
X0244200Y0089966D01*
X0244200Y0092034D01*
X0243408Y0093946D01*
X0241946Y0095408D01*
X0240517Y0096000D01*
X0241946Y0096592D01*
X0243408Y0098054D01*
X0244200Y0099966D01*
X0244200Y0102034D01*
X0243408Y0103946D01*
X0241946Y0105408D01*
X0240034Y0106200D01*
X0231966Y0106200D01*
X0230054Y0105408D01*
X0228592Y0103946D01*
X0227800Y0102034D01*
X0227800Y0099966D01*
X0228592Y0098054D01*
X0230054Y0096592D01*
X0231483Y0096000D01*
X0230054Y0095408D01*
X0228592Y0093946D01*
X0227800Y0092034D01*
X0227800Y0089966D01*
X0228592Y0088054D01*
X0230054Y0086592D01*
X0231966Y0085800D01*
X0240034Y0085800D01*
X0242647Y0087293D02*
X0269353Y0087293D01*
X0268411Y0088491D02*
X0243589Y0088491D01*
X0244086Y0089690D02*
X0267914Y0089690D01*
X0267800Y0090888D02*
X0244200Y0090888D01*
X0244178Y0092087D02*
X0267822Y0092087D01*
X0268318Y0093285D02*
X0243682Y0093285D01*
X0242870Y0094484D02*
X0269130Y0094484D01*
X0270716Y0095682D02*
X0241284Y0095682D01*
X0242235Y0096881D02*
X0269765Y0096881D01*
X0268581Y0098079D02*
X0243419Y0098079D01*
X0243915Y0099278D02*
X0268085Y0099278D01*
X0267800Y0100476D02*
X0244200Y0100476D01*
X0244200Y0101675D02*
X0267800Y0101675D01*
X0268148Y0102873D02*
X0243852Y0102873D01*
X0243282Y0104072D02*
X0268718Y0104072D01*
X0269917Y0105270D02*
X0262585Y0105270D01*
X0259415Y0105270D02*
X0242083Y0105270D01*
X0239401Y0116057D02*
X0257791Y0116057D01*
X0256515Y0114859D02*
X0225485Y0114859D01*
X0226002Y0114342D02*
X0224342Y0116002D01*
X0222174Y0116900D01*
X0219826Y0116900D01*
X0217658Y0116002D01*
X0215998Y0114342D01*
X0215100Y0112174D01*
X0215100Y0109826D01*
X0215998Y0107658D01*
X0217658Y0105998D01*
X0219826Y0105100D01*
X0222174Y0105100D01*
X0224342Y0105998D01*
X0226002Y0107658D01*
X0226900Y0109826D01*
X0226900Y0112174D01*
X0226002Y0114342D01*
X0226284Y0113660D02*
X0255716Y0113660D01*
X0255219Y0112462D02*
X0226781Y0112462D01*
X0226900Y0111263D02*
X0255100Y0111263D01*
X0255100Y0110065D02*
X0226900Y0110065D01*
X0226502Y0108866D02*
X0255498Y0108866D01*
X0255994Y0107668D02*
X0226006Y0107668D01*
X0224813Y0106469D02*
X0257187Y0106469D01*
X0264209Y0116057D02*
X0272599Y0116057D01*
X0271401Y0117256D02*
X0240599Y0117256D01*
X0241332Y0118454D02*
X0270668Y0118454D01*
X0270172Y0119653D02*
X0241828Y0119653D01*
X0241900Y0120851D02*
X0270100Y0120851D01*
X0270100Y0122050D02*
X0241900Y0122050D01*
X0241455Y0123248D02*
X0270545Y0123248D01*
X0271103Y0124447D02*
X0240897Y0124447D01*
X0239699Y0125645D02*
X0272301Y0125645D01*
X0304209Y0116057D02*
X0312599Y0116057D01*
X0306284Y0113660D02*
X0335716Y0113660D01*
X0335219Y0112462D02*
X0306781Y0112462D01*
X0306900Y0111263D02*
X0335100Y0111263D01*
X0335100Y0110065D02*
X0306900Y0110065D01*
X0306502Y0108866D02*
X0335498Y0108866D01*
X0335994Y0107668D02*
X0306006Y0107668D01*
X0304813Y0106469D02*
X0337187Y0106469D01*
X0339415Y0105270D02*
X0322083Y0105270D01*
X0319401Y0116057D02*
X0337791Y0116057D01*
X0336515Y0114859D02*
X0305485Y0114859D01*
X0302585Y0105270D02*
X0309917Y0105270D01*
X0320599Y0117256D02*
X0351401Y0117256D01*
X0350668Y0118454D02*
X0321332Y0118454D01*
X0321828Y0119653D02*
X0350172Y0119653D01*
X0350100Y0120851D02*
X0321900Y0120851D01*
X0321900Y0122050D02*
X0350100Y0122050D01*
X0350545Y0123248D02*
X0321455Y0123248D01*
X0320897Y0124447D02*
X0351103Y0124447D01*
X0352301Y0125645D02*
X0319699Y0125645D01*
X0318400Y0155608D02*
X0353600Y0155608D01*
X0351850Y0156806D02*
X0320150Y0156806D01*
X0321146Y0158005D02*
X0350854Y0158005D01*
X0350358Y0159203D02*
X0321642Y0159203D01*
X0321900Y0160402D02*
X0350100Y0160402D01*
X0350100Y0161601D02*
X0321900Y0161601D01*
X0321641Y0162799D02*
X0350359Y0162799D01*
X0350856Y0163998D02*
X0321144Y0163998D01*
X0320148Y0165196D02*
X0351852Y0165196D01*
X0353606Y0166395D02*
X0318394Y0166395D01*
X0271450Y0202350D02*
X0392501Y0202350D01*
X0392501Y0203548D02*
X0271450Y0203548D01*
X0271450Y0204747D02*
X0392501Y0204747D01*
X0392501Y0205945D02*
X0271450Y0205945D01*
X0271450Y0207144D02*
X0392501Y0207144D01*
X0392501Y0208342D02*
X0271450Y0208342D01*
X0271450Y0209541D02*
X0392501Y0209541D01*
X0392501Y0210739D02*
X0270872Y0210739D01*
X0193606Y0166395D02*
X0158394Y0166395D01*
X0159342Y0166002D02*
X0157174Y0166900D01*
X0154826Y0166900D01*
X0152658Y0166002D01*
X0150998Y0164342D01*
X0150100Y0162174D01*
X0150100Y0159826D01*
X0150998Y0157658D01*
X0152658Y0155998D01*
X0154826Y0155100D01*
X0157174Y0155100D01*
X0159342Y0155998D01*
X0161002Y0157658D01*
X0161900Y0159826D01*
X0161900Y0162174D01*
X0161002Y0164342D01*
X0159342Y0166002D01*
X0160148Y0165196D02*
X0191852Y0165196D01*
X0190856Y0163998D02*
X0161144Y0163998D01*
X0161641Y0162799D02*
X0190359Y0162799D01*
X0190100Y0161601D02*
X0161900Y0161601D01*
X0161900Y0160402D02*
X0190100Y0160402D01*
X0190358Y0159203D02*
X0161642Y0159203D01*
X0161146Y0158005D02*
X0190854Y0158005D01*
X0191850Y0156806D02*
X0160150Y0156806D01*
X0158400Y0155608D02*
X0193600Y0155608D01*
X0192301Y0125645D02*
X0159699Y0125645D01*
X0160897Y0124447D02*
X0191103Y0124447D01*
X0190545Y0123248D02*
X0161455Y0123248D01*
X0161900Y0122050D02*
X0190100Y0122050D01*
X0190100Y0120851D02*
X0161900Y0120851D01*
X0161828Y0119653D02*
X0190172Y0119653D01*
X0190668Y0118454D02*
X0161332Y0118454D01*
X0160599Y0117256D02*
X0191401Y0117256D01*
X0192599Y0116057D02*
X0184209Y0116057D01*
X0184342Y0116002D02*
X0182174Y0116900D01*
X0179826Y0116900D01*
X0177658Y0116002D01*
X0175998Y0114342D01*
X0175100Y0112174D01*
X0175100Y0109826D01*
X0175998Y0107658D01*
X0177658Y0105998D01*
X0179826Y0105100D01*
X0182174Y0105100D01*
X0184342Y0105998D01*
X0186002Y0107658D01*
X0186900Y0109826D01*
X0186900Y0112174D01*
X0186002Y0114342D01*
X0184342Y0116002D01*
X0185485Y0114859D02*
X0216515Y0114859D01*
X0215716Y0113660D02*
X0186284Y0113660D01*
X0186781Y0112462D02*
X0215219Y0112462D01*
X0215100Y0111263D02*
X0186900Y0111263D01*
X0186900Y0110065D02*
X0215100Y0110065D01*
X0215498Y0108866D02*
X0186502Y0108866D01*
X0186006Y0107668D02*
X0215994Y0107668D01*
X0217187Y0106469D02*
X0184813Y0106469D01*
X0182585Y0105270D02*
X0189917Y0105270D01*
X0190054Y0105408D02*
X0188592Y0103946D01*
X0187800Y0102034D01*
X0187800Y0099966D01*
X0188592Y0098054D01*
X0190054Y0096592D01*
X0191483Y0096000D01*
X0190054Y0095408D01*
X0188592Y0093946D01*
X0187800Y0092034D01*
X0187800Y0089966D01*
X0188592Y0088054D01*
X0190054Y0086592D01*
X0191966Y0085800D01*
X0200034Y0085800D01*
X0201946Y0086592D01*
X0203408Y0088054D01*
X0204200Y0089966D01*
X0204200Y0092034D01*
X0203408Y0093946D01*
X0201946Y0095408D01*
X0200517Y0096000D01*
X0201946Y0096592D01*
X0203408Y0098054D01*
X0204200Y0099966D01*
X0204200Y0102034D01*
X0203408Y0103946D01*
X0201946Y0105408D01*
X0200034Y0106200D01*
X0191966Y0106200D01*
X0190054Y0105408D01*
X0188718Y0104072D02*
X0163282Y0104072D01*
X0163408Y0103946D02*
X0161946Y0105408D01*
X0160034Y0106200D01*
X0151966Y0106200D01*
X0150054Y0105408D01*
X0148592Y0103946D01*
X0147800Y0102034D01*
X0147800Y0099966D01*
X0148592Y0098054D01*
X0150054Y0096592D01*
X0151483Y0096000D01*
X0150054Y0095408D01*
X0148592Y0093946D01*
X0147800Y0092034D01*
X0147800Y0089966D01*
X0148592Y0088054D01*
X0150054Y0086592D01*
X0151966Y0085800D01*
X0160034Y0085800D01*
X0161946Y0086592D01*
X0163408Y0088054D01*
X0164200Y0089966D01*
X0164200Y0092034D01*
X0163408Y0093946D01*
X0161946Y0095408D01*
X0160517Y0096000D01*
X0161946Y0096592D01*
X0163408Y0098054D01*
X0164200Y0099966D01*
X0164200Y0102034D01*
X0163408Y0103946D01*
X0163852Y0102873D02*
X0188148Y0102873D01*
X0187800Y0101675D02*
X0164200Y0101675D01*
X0164200Y0100476D02*
X0187800Y0100476D01*
X0188085Y0099278D02*
X0163915Y0099278D01*
X0163419Y0098079D02*
X0188581Y0098079D01*
X0189765Y0096881D02*
X0162235Y0096881D01*
X0161284Y0095682D02*
X0190716Y0095682D01*
X0189130Y0094484D02*
X0162870Y0094484D01*
X0163682Y0093285D02*
X0188318Y0093285D01*
X0187822Y0092087D02*
X0164178Y0092087D01*
X0164200Y0090888D02*
X0187800Y0090888D01*
X0187914Y0089690D02*
X0164086Y0089690D01*
X0163589Y0088491D02*
X0188411Y0088491D01*
X0189353Y0087293D02*
X0162647Y0087293D01*
X0160745Y0086094D02*
X0191255Y0086094D01*
X0200745Y0086094D02*
X0231255Y0086094D01*
X0229353Y0087293D02*
X0202647Y0087293D01*
X0203589Y0088491D02*
X0228411Y0088491D01*
X0227914Y0089690D02*
X0204086Y0089690D01*
X0204200Y0090888D02*
X0227800Y0090888D01*
X0227822Y0092087D02*
X0204178Y0092087D01*
X0203682Y0093285D02*
X0228318Y0093285D01*
X0229130Y0094484D02*
X0202870Y0094484D01*
X0201284Y0095682D02*
X0230716Y0095682D01*
X0229765Y0096881D02*
X0202235Y0096881D01*
X0203419Y0098079D02*
X0228581Y0098079D01*
X0228085Y0099278D02*
X0203915Y0099278D01*
X0204200Y0100476D02*
X0227800Y0100476D01*
X0227800Y0101675D02*
X0204200Y0101675D01*
X0203852Y0102873D02*
X0228148Y0102873D01*
X0228718Y0104072D02*
X0203282Y0104072D01*
X0202083Y0105270D02*
X0219415Y0105270D01*
X0222585Y0105270D02*
X0229917Y0105270D01*
X0232599Y0116057D02*
X0224209Y0116057D01*
X0217791Y0116057D02*
X0199401Y0116057D01*
X0200599Y0117256D02*
X0231401Y0117256D01*
X0230668Y0118454D02*
X0201332Y0118454D01*
X0201828Y0119653D02*
X0230172Y0119653D01*
X0230100Y0120851D02*
X0201900Y0120851D01*
X0201900Y0122050D02*
X0230100Y0122050D01*
X0230545Y0123248D02*
X0201455Y0123248D01*
X0200897Y0124447D02*
X0231103Y0124447D01*
X0232301Y0125645D02*
X0199699Y0125645D01*
X0177791Y0116057D02*
X0159401Y0116057D01*
X0152599Y0116057D02*
X0144209Y0116057D01*
X0144342Y0116002D02*
X0142174Y0116900D01*
X0139826Y0116900D01*
X0137658Y0116002D01*
X0135998Y0114342D01*
X0135100Y0112174D01*
X0135100Y0109826D01*
X0135998Y0107658D01*
X0137658Y0105998D01*
X0139826Y0105100D01*
X0142174Y0105100D01*
X0144342Y0105998D01*
X0146002Y0107658D01*
X0146900Y0109826D01*
X0146900Y0112174D01*
X0146002Y0114342D01*
X0144342Y0116002D01*
X0145485Y0114859D02*
X0176515Y0114859D01*
X0175716Y0113660D02*
X0146284Y0113660D01*
X0146781Y0112462D02*
X0175219Y0112462D01*
X0175100Y0111263D02*
X0146900Y0111263D01*
X0146900Y0110065D02*
X0175100Y0110065D01*
X0175498Y0108866D02*
X0146502Y0108866D01*
X0146006Y0107668D02*
X0175994Y0107668D01*
X0177187Y0106469D02*
X0144813Y0106469D01*
X0142585Y0105270D02*
X0149917Y0105270D01*
X0148718Y0104072D02*
X0123282Y0104072D01*
X0123852Y0102873D02*
X0148148Y0102873D01*
X0147800Y0101675D02*
X0124200Y0101675D01*
X0124200Y0100476D02*
X0147800Y0100476D01*
X0148085Y0099278D02*
X0123915Y0099278D01*
X0123419Y0098079D02*
X0148581Y0098079D01*
X0149765Y0096881D02*
X0122235Y0096881D01*
X0121284Y0095682D02*
X0150716Y0095682D01*
X0149130Y0094484D02*
X0122870Y0094484D01*
X0123682Y0093285D02*
X0148318Y0093285D01*
X0147822Y0092087D02*
X0124178Y0092087D01*
X0124200Y0090888D02*
X0147800Y0090888D01*
X0147914Y0089690D02*
X0124086Y0089690D01*
X0123589Y0088491D02*
X0148411Y0088491D01*
X0149353Y0087293D02*
X0122647Y0087293D01*
X0120745Y0086094D02*
X0151255Y0086094D01*
X0162083Y0105270D02*
X0179415Y0105270D01*
X0151401Y0117256D02*
X0136599Y0117256D01*
X0137332Y0118454D02*
X0150668Y0118454D01*
X0150172Y0119653D02*
X0137828Y0119653D01*
X0137900Y0120851D02*
X0150100Y0120851D01*
X0150100Y0122050D02*
X0137900Y0122050D01*
X0137455Y0123248D02*
X0150545Y0123248D01*
X0151103Y0124447D02*
X0136897Y0124447D01*
X0135699Y0125645D02*
X0152301Y0125645D01*
X0137791Y0116057D02*
X0135401Y0116057D01*
X0136515Y0114859D02*
X0111000Y0114859D01*
X0111000Y0116057D02*
X0112599Y0116057D01*
X0111401Y0117256D02*
X0111000Y0117256D01*
X0111000Y0113660D02*
X0135716Y0113660D01*
X0135219Y0112462D02*
X0111000Y0112462D01*
X0111000Y0111263D02*
X0135100Y0111263D01*
X0135100Y0110065D02*
X0111000Y0110065D01*
X0111000Y0108866D02*
X0135498Y0108866D01*
X0135994Y0107668D02*
X0111000Y0107668D01*
X0111000Y0106469D02*
X0137187Y0106469D01*
X0139415Y0105270D02*
X0122083Y0105270D01*
X0119401Y0116057D02*
X0128599Y0116057D01*
X0127401Y0117256D02*
X0120599Y0117256D01*
X0121332Y0118454D02*
X0126668Y0118454D01*
X0126172Y0119653D02*
X0121828Y0119653D01*
X0121900Y0120851D02*
X0126100Y0120851D01*
X0126100Y0122050D02*
X0121900Y0122050D01*
X0121455Y0123248D02*
X0126545Y0123248D01*
X0127103Y0124447D02*
X0120897Y0124447D01*
X0119699Y0125645D02*
X0128301Y0125645D01*
X0112301Y0125645D02*
X0111000Y0125645D01*
X0111000Y0124447D02*
X0111103Y0124447D01*
X0111000Y0155608D02*
X0129600Y0155608D01*
X0128658Y0155998D02*
X0130826Y0155100D01*
X0133174Y0155100D01*
X0135342Y0155998D01*
X0137002Y0157658D01*
X0137900Y0159826D01*
X0137900Y0162174D01*
X0137002Y0164342D01*
X0135342Y0166002D01*
X0133174Y0166900D01*
X0130826Y0166900D01*
X0128658Y0166002D01*
X0126998Y0164342D01*
X0126100Y0162174D01*
X0126100Y0159826D01*
X0126998Y0157658D01*
X0128658Y0155998D01*
X0127850Y0156806D02*
X0111000Y0156806D01*
X0111000Y0158005D02*
X0126854Y0158005D01*
X0126358Y0159203D02*
X0111000Y0159203D01*
X0111000Y0160402D02*
X0126100Y0160402D01*
X0126100Y0161601D02*
X0111000Y0161601D01*
X0111000Y0162799D02*
X0126359Y0162799D01*
X0126856Y0163998D02*
X0111000Y0163998D01*
X0111000Y0165196D02*
X0127852Y0165196D01*
X0129606Y0166395D02*
X0111000Y0166395D01*
X0134394Y0166395D02*
X0153606Y0166395D01*
X0151852Y0165196D02*
X0136148Y0165196D01*
X0137144Y0163998D02*
X0150856Y0163998D01*
X0150359Y0162799D02*
X0137641Y0162799D01*
X0137900Y0161601D02*
X0150100Y0161601D01*
X0150100Y0160402D02*
X0137900Y0160402D01*
X0137642Y0159203D02*
X0150358Y0159203D01*
X0150854Y0158005D02*
X0137146Y0158005D01*
X0136150Y0156806D02*
X0151850Y0156806D01*
X0153600Y0155608D02*
X0134400Y0155608D01*
X0066000Y0124447D02*
X0065689Y0124447D01*
X0066000Y0123248D02*
X0064491Y0123248D01*
X0063292Y0122050D02*
X0066000Y0122050D01*
X0066000Y0120851D02*
X0062094Y0120851D01*
X0060895Y0119653D02*
X0066000Y0119653D01*
X0066000Y0118454D02*
X0059697Y0118454D01*
X0058498Y0117256D02*
X0066000Y0117256D01*
X0066000Y0116057D02*
X0064209Y0116057D01*
X0065485Y0114859D02*
X0066000Y0114859D01*
X0057791Y0116057D02*
X0057300Y0116057D01*
X0056515Y0114859D02*
X0056101Y0114859D01*
X0055716Y0113660D02*
X0054903Y0113660D01*
X0043000Y0171189D02*
X0037967Y0171189D01*
X0039166Y0172387D02*
X0043000Y0172387D01*
X0043000Y0173586D02*
X0039787Y0173586D01*
X0040250Y0174784D02*
X0043000Y0174784D01*
X0043000Y0175983D02*
X0040250Y0175983D01*
X0040167Y0177181D02*
X0043000Y0177181D01*
X0043000Y0178380D02*
X0039671Y0178380D01*
X0038886Y0179578D02*
X0043000Y0179578D01*
X0024179Y0196357D02*
X0003200Y0196357D01*
X0003200Y0197556D02*
X0022980Y0197556D01*
X0022274Y0198754D02*
X0003200Y0198754D01*
X0003200Y0199953D02*
X0021777Y0199953D01*
X0021750Y0201151D02*
X0003200Y0201151D01*
X0003200Y0202350D02*
X0021772Y0202350D01*
X0022269Y0203548D02*
X0003200Y0203548D01*
X0003200Y0204747D02*
X0022968Y0204747D01*
X0024167Y0205945D02*
X0003200Y0205945D01*
X0003200Y0044146D02*
X0047683Y0044146D01*
X0046484Y0042948D02*
X0003200Y0042948D01*
X0003200Y0041749D02*
X0045882Y0041749D01*
X0045432Y0040551D02*
X0003200Y0040551D01*
X0003200Y0039352D02*
X0045432Y0039352D01*
X0045432Y0038154D02*
X0003200Y0038154D01*
X0003200Y0036955D02*
X0045432Y0036955D01*
X0045432Y0035757D02*
X0003200Y0035757D01*
X0003200Y0034558D02*
X0045432Y0034558D01*
X0045432Y0033360D02*
X0003200Y0033360D01*
X0003200Y0032161D02*
X0045432Y0032161D01*
X0045587Y0030963D02*
X0003200Y0030963D01*
X0003200Y0029764D02*
X0046084Y0029764D01*
X0046970Y0028566D02*
X0003200Y0028566D01*
X0003200Y0027367D02*
X0048529Y0027367D01*
X0362699Y0052293D02*
X0362699Y0052293D01*
X0362647Y0087293D02*
X0392501Y0087293D01*
X0392501Y0088491D02*
X0363589Y0088491D01*
X0364086Y0089690D02*
X0392501Y0089690D01*
X0392501Y0090888D02*
X0364200Y0090888D01*
X0364178Y0092087D02*
X0392501Y0092087D01*
X0392501Y0093285D02*
X0363682Y0093285D01*
X0362870Y0094484D02*
X0392501Y0094484D01*
X0392501Y0095682D02*
X0361284Y0095682D01*
X0362235Y0096881D02*
X0392501Y0096881D01*
X0392501Y0098079D02*
X0363419Y0098079D01*
X0363915Y0099278D02*
X0392501Y0099278D01*
X0392501Y0100476D02*
X0364200Y0100476D01*
X0364200Y0101675D02*
X0392501Y0101675D01*
X0392501Y0102873D02*
X0363852Y0102873D01*
X0363282Y0104072D02*
X0392501Y0104072D01*
X0392501Y0105270D02*
X0362083Y0105270D01*
M02*
