G75*
%MOIN*%
%OFA0B0*%
%FSLAX25Y25*%
%IPPOS*%
%LPD*%
%AMOC8*
5,1,8,0,0,1.08239X$1,22.5*
%
%ADD10C,0.07550*%
%ADD11C,0.08300*%
%ADD12C,0.05300*%
%ADD13C,0.06500*%
%ADD14C,0.07900*%
%ADD15C,0.25500*%
%ADD16C,0.07000*%
%ADD17R,0.07000X0.07000*%
%ADD18C,0.07100*%
D10*
X0051157Y0032475D02*
X0051157Y0039525D01*
X0070843Y0039525D02*
X0070843Y0032475D01*
X0091157Y0032475D02*
X0091157Y0039525D01*
X0110843Y0039525D02*
X0110843Y0032475D01*
X0131157Y0032475D02*
X0131157Y0039525D01*
X0150843Y0039525D02*
X0150843Y0032475D01*
X0171157Y0032475D02*
X0171157Y0039525D01*
X0190843Y0039525D02*
X0190843Y0032475D01*
X0211157Y0032475D02*
X0211157Y0039525D01*
X0230843Y0039525D02*
X0230843Y0032475D01*
X0251157Y0032475D02*
X0251157Y0039525D01*
X0270843Y0039525D02*
X0270843Y0032475D01*
X0291157Y0032475D02*
X0291157Y0039525D01*
X0310843Y0039525D02*
X0310843Y0032475D01*
X0331157Y0032475D02*
X0331157Y0039525D01*
X0350843Y0039525D02*
X0350843Y0032475D01*
X0034525Y0106157D02*
X0027475Y0106157D01*
X0027475Y0125843D02*
X0034525Y0125843D01*
X0034525Y0156157D02*
X0027475Y0156157D01*
X0027475Y0175843D02*
X0034525Y0175843D01*
X0034525Y0201157D02*
X0027475Y0201157D01*
X0027475Y0220843D02*
X0034525Y0220843D01*
X0034525Y0251157D02*
X0027475Y0251157D01*
X0027475Y0270843D02*
X0034525Y0270843D01*
X0208157Y0307475D02*
X0208157Y0314525D01*
X0227843Y0314525D02*
X0227843Y0307475D01*
X0248157Y0307475D02*
X0248157Y0314525D01*
X0267843Y0314525D02*
X0267843Y0307475D01*
X0288157Y0307475D02*
X0288157Y0314525D01*
X0307843Y0314525D02*
X0307843Y0307475D01*
X0328157Y0307475D02*
X0328157Y0314525D01*
X0347843Y0314525D02*
X0347843Y0307475D01*
D11*
X0081000Y0274900D02*
X0081000Y0267100D01*
X0081000Y0184900D02*
X0081000Y0177100D01*
D12*
X0226000Y0196100D02*
X0226000Y0200900D01*
X0236000Y0200900D02*
X0236000Y0196100D01*
X0246000Y0196100D02*
X0246000Y0200900D01*
X0246000Y0226100D02*
X0246000Y0230900D01*
X0236000Y0230900D02*
X0236000Y0226100D01*
X0226000Y0226100D02*
X0226000Y0230900D01*
X0226000Y0243600D02*
X0226000Y0248400D01*
X0236000Y0248400D02*
X0236000Y0243600D01*
X0246000Y0243600D02*
X0246000Y0248400D01*
X0256000Y0248400D02*
X0256000Y0243600D01*
X0266000Y0243600D02*
X0266000Y0248400D01*
X0276000Y0248400D02*
X0276000Y0243600D01*
X0286000Y0243600D02*
X0286000Y0248400D01*
X0296000Y0248400D02*
X0296000Y0243600D01*
X0306000Y0243600D02*
X0306000Y0248400D01*
X0316000Y0248400D02*
X0316000Y0243600D01*
X0326000Y0243600D02*
X0326000Y0248400D01*
X0336000Y0248400D02*
X0336000Y0243600D01*
X0346000Y0243600D02*
X0346000Y0248400D01*
X0356000Y0248400D02*
X0356000Y0243600D01*
X0356000Y0273600D02*
X0356000Y0278400D01*
X0346000Y0278400D02*
X0346000Y0273600D01*
X0336000Y0273600D02*
X0336000Y0278400D01*
X0326000Y0278400D02*
X0326000Y0273600D01*
X0316000Y0273600D02*
X0316000Y0278400D01*
X0306000Y0278400D02*
X0306000Y0273600D01*
X0296000Y0273600D02*
X0296000Y0278400D01*
X0286000Y0278400D02*
X0286000Y0273600D01*
X0276000Y0273600D02*
X0276000Y0278400D01*
X0266000Y0278400D02*
X0266000Y0273600D01*
X0256000Y0273600D02*
X0256000Y0278400D01*
X0246000Y0278400D02*
X0246000Y0273600D01*
X0236000Y0273600D02*
X0236000Y0278400D01*
X0226000Y0278400D02*
X0226000Y0273600D01*
D13*
X0233000Y0101000D02*
X0239000Y0101000D01*
X0239000Y0091000D02*
X0233000Y0091000D01*
X0233000Y0081000D02*
X0239000Y0081000D01*
X0273000Y0081000D02*
X0279000Y0081000D01*
X0279000Y0091000D02*
X0273000Y0091000D01*
X0273000Y0101000D02*
X0279000Y0101000D01*
X0313000Y0101000D02*
X0319000Y0101000D01*
X0319000Y0091000D02*
X0313000Y0091000D01*
X0313000Y0081000D02*
X0319000Y0081000D01*
X0353000Y0081000D02*
X0359000Y0081000D01*
X0359000Y0091000D02*
X0353000Y0091000D01*
X0353000Y0101000D02*
X0359000Y0101000D01*
X0199000Y0101000D02*
X0193000Y0101000D01*
X0193000Y0091000D02*
X0199000Y0091000D01*
X0199000Y0081000D02*
X0193000Y0081000D01*
X0159000Y0081000D02*
X0153000Y0081000D01*
X0153000Y0091000D02*
X0159000Y0091000D01*
X0159000Y0101000D02*
X0153000Y0101000D01*
X0119000Y0101000D02*
X0113000Y0101000D01*
X0113000Y0091000D02*
X0119000Y0091000D01*
X0119000Y0081000D02*
X0113000Y0081000D01*
X0079000Y0081000D02*
X0073000Y0081000D01*
X0073000Y0091000D02*
X0079000Y0091000D01*
X0079000Y0101000D02*
X0073000Y0101000D01*
D14*
X0061000Y0111000D03*
X0076000Y0121000D03*
X0116000Y0121000D03*
X0132000Y0121000D03*
X0141000Y0111000D03*
X0156000Y0121000D03*
X0181000Y0111000D03*
X0196000Y0121000D03*
X0221000Y0111000D03*
X0236000Y0121000D03*
X0261000Y0111000D03*
X0276000Y0121000D03*
X0301000Y0111000D03*
X0316000Y0121000D03*
X0341000Y0111000D03*
X0356000Y0121000D03*
X0356000Y0161000D03*
X0316000Y0161000D03*
X0276000Y0161000D03*
X0236000Y0161000D03*
X0196000Y0161000D03*
X0156000Y0161000D03*
X0132000Y0161000D03*
X0116000Y0161000D03*
X0076000Y0161000D03*
X0166400Y0211400D03*
X0166800Y0228800D03*
X0167000Y0246000D03*
X0147000Y0265000D03*
X0147000Y0277000D03*
X0147000Y0290000D03*
X0147000Y0302000D03*
X0118000Y0302000D03*
X0110500Y0297000D03*
X0118000Y0292000D03*
X0118000Y0276000D03*
X0110500Y0271000D03*
X0118000Y0266000D03*
X0187000Y0265000D03*
X0187000Y0277000D03*
X0187000Y0290000D03*
X0187000Y0302000D03*
X0207000Y0246000D03*
X0206800Y0228800D03*
X0206400Y0211400D03*
X0221000Y0071000D03*
X0181000Y0071000D03*
X0141000Y0071000D03*
X0061000Y0071000D03*
X0261000Y0071000D03*
X0301000Y0071000D03*
X0341000Y0071000D03*
D15*
X0021000Y0021000D03*
X0021000Y0318000D03*
X0374000Y0318000D03*
X0376000Y0021000D03*
D16*
X0276000Y0206000D03*
X0276000Y0232000D03*
X0266000Y0232000D03*
D17*
X0266000Y0206000D03*
X0113000Y0226000D03*
D18*
X0143000Y0226000D03*
M02*
