G75*
%MOIN*%
%OFA0B0*%
%FSLAX25Y25*%
%IPPOS*%
%LPD*%
%AMOC8*
5,1,8,0,0,1.08239X$1,22.5*
%
%ADD10C,0.07050*%
%ADD11C,0.07800*%
%ADD12C,0.04800*%
%ADD13C,0.06000*%
%ADD14C,0.07400*%
%ADD15C,0.25000*%
%ADD16C,0.06500*%
%ADD17R,0.06500X0.06500*%
%ADD18C,0.06600*%
%ADD19C,0.10000*%
%ADD20C,0.01600*%
%ADD21C,0.03200*%
%ADD22C,0.01200*%
D10*
X0051157Y0032475D02*
X0051157Y0039525D01*
X0070843Y0039525D02*
X0070843Y0032475D01*
X0091157Y0032475D02*
X0091157Y0039525D01*
X0110843Y0039525D02*
X0110843Y0032475D01*
X0131157Y0032475D02*
X0131157Y0039525D01*
X0150843Y0039525D02*
X0150843Y0032475D01*
X0171157Y0032475D02*
X0171157Y0039525D01*
X0190843Y0039525D02*
X0190843Y0032475D01*
X0211157Y0032475D02*
X0211157Y0039525D01*
X0230843Y0039525D02*
X0230843Y0032475D01*
X0251157Y0032475D02*
X0251157Y0039525D01*
X0270843Y0039525D02*
X0270843Y0032475D01*
X0291157Y0032475D02*
X0291157Y0039525D01*
X0310843Y0039525D02*
X0310843Y0032475D01*
X0331157Y0032475D02*
X0331157Y0039525D01*
X0350843Y0039525D02*
X0350843Y0032475D01*
X0034525Y0106157D02*
X0027475Y0106157D01*
X0027475Y0125843D02*
X0034525Y0125843D01*
X0034525Y0156157D02*
X0027475Y0156157D01*
X0027475Y0175843D02*
X0034525Y0175843D01*
X0034525Y0201157D02*
X0027475Y0201157D01*
X0027475Y0220843D02*
X0034525Y0220843D01*
X0034525Y0251157D02*
X0027475Y0251157D01*
X0027475Y0270843D02*
X0034525Y0270843D01*
X0208157Y0307475D02*
X0208157Y0314525D01*
X0227843Y0314525D02*
X0227843Y0307475D01*
X0248157Y0307475D02*
X0248157Y0314525D01*
X0267843Y0314525D02*
X0267843Y0307475D01*
X0288157Y0307475D02*
X0288157Y0314525D01*
X0307843Y0314525D02*
X0307843Y0307475D01*
X0328157Y0307475D02*
X0328157Y0314525D01*
X0347843Y0314525D02*
X0347843Y0307475D01*
D11*
X0081000Y0274900D02*
X0081000Y0267100D01*
X0081000Y0184900D02*
X0081000Y0177100D01*
D12*
X0226000Y0196100D02*
X0226000Y0200900D01*
X0236000Y0200900D02*
X0236000Y0196100D01*
X0246000Y0196100D02*
X0246000Y0200900D01*
X0246000Y0226100D02*
X0246000Y0230900D01*
X0236000Y0230900D02*
X0236000Y0226100D01*
X0226000Y0226100D02*
X0226000Y0230900D01*
X0226000Y0243600D02*
X0226000Y0248400D01*
X0236000Y0248400D02*
X0236000Y0243600D01*
X0246000Y0243600D02*
X0246000Y0248400D01*
X0256000Y0248400D02*
X0256000Y0243600D01*
X0266000Y0243600D02*
X0266000Y0248400D01*
X0276000Y0248400D02*
X0276000Y0243600D01*
X0286000Y0243600D02*
X0286000Y0248400D01*
X0296000Y0248400D02*
X0296000Y0243600D01*
X0306000Y0243600D02*
X0306000Y0248400D01*
X0316000Y0248400D02*
X0316000Y0243600D01*
X0326000Y0243600D02*
X0326000Y0248400D01*
X0336000Y0248400D02*
X0336000Y0243600D01*
X0346000Y0243600D02*
X0346000Y0248400D01*
X0356000Y0248400D02*
X0356000Y0243600D01*
X0356000Y0273600D02*
X0356000Y0278400D01*
X0346000Y0278400D02*
X0346000Y0273600D01*
X0336000Y0273600D02*
X0336000Y0278400D01*
X0326000Y0278400D02*
X0326000Y0273600D01*
X0316000Y0273600D02*
X0316000Y0278400D01*
X0306000Y0278400D02*
X0306000Y0273600D01*
X0296000Y0273600D02*
X0296000Y0278400D01*
X0286000Y0278400D02*
X0286000Y0273600D01*
X0276000Y0273600D02*
X0276000Y0278400D01*
X0266000Y0278400D02*
X0266000Y0273600D01*
X0256000Y0273600D02*
X0256000Y0278400D01*
X0246000Y0278400D02*
X0246000Y0273600D01*
X0236000Y0273600D02*
X0236000Y0278400D01*
X0226000Y0278400D02*
X0226000Y0273600D01*
D13*
X0233000Y0101000D02*
X0239000Y0101000D01*
X0239000Y0091000D02*
X0233000Y0091000D01*
X0233000Y0081000D02*
X0239000Y0081000D01*
X0273000Y0081000D02*
X0279000Y0081000D01*
X0279000Y0091000D02*
X0273000Y0091000D01*
X0273000Y0101000D02*
X0279000Y0101000D01*
X0313000Y0101000D02*
X0319000Y0101000D01*
X0319000Y0091000D02*
X0313000Y0091000D01*
X0313000Y0081000D02*
X0319000Y0081000D01*
X0353000Y0081000D02*
X0359000Y0081000D01*
X0359000Y0091000D02*
X0353000Y0091000D01*
X0353000Y0101000D02*
X0359000Y0101000D01*
X0199000Y0101000D02*
X0193000Y0101000D01*
X0193000Y0091000D02*
X0199000Y0091000D01*
X0199000Y0081000D02*
X0193000Y0081000D01*
X0159000Y0081000D02*
X0153000Y0081000D01*
X0153000Y0091000D02*
X0159000Y0091000D01*
X0159000Y0101000D02*
X0153000Y0101000D01*
X0119000Y0101000D02*
X0113000Y0101000D01*
X0113000Y0091000D02*
X0119000Y0091000D01*
X0119000Y0081000D02*
X0113000Y0081000D01*
X0079000Y0081000D02*
X0073000Y0081000D01*
X0073000Y0091000D02*
X0079000Y0091000D01*
X0079000Y0101000D02*
X0073000Y0101000D01*
D14*
X0061000Y0111000D03*
X0076000Y0121000D03*
X0116000Y0121000D03*
X0132000Y0121000D03*
X0141000Y0111000D03*
X0156000Y0121000D03*
X0181000Y0111000D03*
X0196000Y0121000D03*
X0221000Y0111000D03*
X0236000Y0121000D03*
X0261000Y0111000D03*
X0276000Y0121000D03*
X0301000Y0111000D03*
X0316000Y0121000D03*
X0341000Y0111000D03*
X0356000Y0121000D03*
X0356000Y0161000D03*
X0316000Y0161000D03*
X0276000Y0161000D03*
X0236000Y0161000D03*
X0196000Y0161000D03*
X0156000Y0161000D03*
X0132000Y0161000D03*
X0116000Y0161000D03*
X0076000Y0161000D03*
X0166400Y0211400D03*
X0166800Y0228800D03*
X0167000Y0246000D03*
X0147000Y0265000D03*
X0147000Y0277000D03*
X0147000Y0290000D03*
X0147000Y0302000D03*
X0118000Y0302000D03*
X0110500Y0297000D03*
X0118000Y0292000D03*
X0118000Y0276000D03*
X0110500Y0271000D03*
X0118000Y0266000D03*
X0187000Y0265000D03*
X0187000Y0277000D03*
X0187000Y0290000D03*
X0187000Y0302000D03*
X0207000Y0246000D03*
X0206800Y0228800D03*
X0206400Y0211400D03*
X0221000Y0071000D03*
X0181000Y0071000D03*
X0141000Y0071000D03*
X0061000Y0071000D03*
X0261000Y0071000D03*
X0301000Y0071000D03*
X0341000Y0071000D03*
D15*
X0376000Y0021000D03*
X0374000Y0318000D03*
X0021000Y0318000D03*
X0021000Y0021000D03*
D16*
X0266000Y0232000D03*
X0276000Y0232000D03*
X0276000Y0206000D03*
D17*
X0266000Y0206000D03*
X0113000Y0226000D03*
D18*
X0143000Y0226000D03*
D19*
X0156000Y0091000D02*
X0169000Y0091000D01*
X0169000Y0070000D01*
X0154000Y0055000D01*
X0141000Y0055000D01*
X0131157Y0045157D01*
X0131157Y0036000D01*
X0115000Y0055000D02*
X0129000Y0069000D01*
X0129000Y0091000D01*
X0116000Y0091000D01*
X0115000Y0055000D02*
X0101000Y0055000D01*
X0091157Y0045157D01*
X0091157Y0036000D01*
X0051157Y0036000D02*
X0041000Y0036000D01*
X0041000Y0091000D01*
X0076000Y0091000D01*
X0171157Y0044157D02*
X0171157Y0036000D01*
X0171157Y0044157D02*
X0182000Y0055000D01*
X0193000Y0055000D01*
X0209000Y0071000D01*
X0209000Y0091000D01*
X0196000Y0091000D01*
X0236000Y0091000D02*
X0249000Y0091000D01*
X0249000Y0070000D01*
X0234000Y0055000D01*
X0221000Y0055000D01*
X0211157Y0045157D01*
X0211157Y0036000D01*
X0251157Y0036000D02*
X0251157Y0044157D01*
X0262000Y0055000D01*
X0274000Y0055000D01*
X0289000Y0070000D01*
X0289000Y0091000D01*
X0276000Y0091000D01*
X0316000Y0091000D02*
X0329000Y0091000D01*
X0329000Y0071000D01*
X0313000Y0055000D01*
X0302000Y0055000D01*
X0291157Y0044157D01*
X0291157Y0036000D01*
X0331157Y0036000D02*
X0331157Y0045157D01*
X0341000Y0055000D01*
X0354000Y0055000D01*
X0370000Y0071000D01*
X0370000Y0091000D01*
X0356000Y0091000D01*
D20*
X0356000Y0101000D02*
X0351000Y0101000D01*
X0341000Y0111000D01*
X0351000Y0121000D01*
X0356000Y0121000D01*
X0316000Y0121000D02*
X0311000Y0121000D01*
X0301000Y0111000D01*
X0311000Y0101000D01*
X0316000Y0101000D01*
X0276000Y0101000D02*
X0271000Y0101000D01*
X0261000Y0111000D01*
X0271000Y0121000D01*
X0276000Y0121000D01*
X0236000Y0121000D02*
X0231000Y0121000D01*
X0221000Y0111000D01*
X0231000Y0101000D01*
X0236000Y0101000D01*
X0196000Y0101000D02*
X0191000Y0101000D01*
X0181000Y0111000D01*
X0191000Y0121000D01*
X0196000Y0121000D01*
X0156000Y0121000D02*
X0151000Y0121000D01*
X0141000Y0111000D01*
X0151000Y0101000D01*
X0156000Y0101000D01*
X0132000Y0121000D02*
X0116000Y0121000D01*
X0116000Y0101000D01*
X0076000Y0101000D02*
X0071000Y0101000D01*
X0061000Y0111000D01*
X0071000Y0121000D01*
X0076000Y0121000D01*
X0076000Y0161000D02*
X0105750Y0161000D01*
X0107000Y0162250D01*
X0107000Y0181750D01*
X0108250Y0183000D01*
X0284750Y0183000D01*
X0286000Y0184250D01*
X0286000Y0246000D01*
X0296000Y0246000D02*
X0296000Y0181250D01*
X0294750Y0180000D01*
X0133250Y0180000D01*
X0132000Y0178750D01*
X0132000Y0161000D01*
X0156000Y0161000D02*
X0156000Y0175750D01*
X0157250Y0177000D01*
X0304750Y0177000D01*
X0306000Y0178250D01*
X0306000Y0246000D01*
X0316000Y0246000D02*
X0316000Y0175250D01*
X0314750Y0174000D01*
X0197250Y0174000D01*
X0196000Y0172750D01*
X0196000Y0161000D01*
X0236000Y0161000D02*
X0236000Y0169750D01*
X0237250Y0171000D01*
X0324750Y0171000D01*
X0326000Y0172250D01*
X0326000Y0246000D01*
X0336000Y0246000D02*
X0336000Y0169250D01*
X0334750Y0168000D01*
X0277250Y0168000D01*
X0276000Y0166750D01*
X0276000Y0161000D01*
X0316000Y0161000D02*
X0344750Y0161000D01*
X0346000Y0162250D01*
X0346000Y0246000D01*
X0356000Y0246000D02*
X0356000Y0161000D01*
X0266000Y0232000D02*
X0266000Y0236750D01*
X0264750Y0238000D01*
X0257250Y0238000D01*
X0256000Y0239250D01*
X0256000Y0246000D01*
X0256000Y0255000D01*
X0252000Y0259000D01*
X0212000Y0259000D01*
X0200000Y0271000D01*
X0153000Y0271000D01*
X0147000Y0277000D01*
X0141000Y0283000D02*
X0134000Y0276000D01*
X0118000Y0276000D01*
X0110500Y0271000D02*
X0110000Y0271000D01*
X0097000Y0284000D01*
X0062000Y0284000D01*
X0039000Y0261000D01*
X0010000Y0261000D01*
X0009000Y0260000D01*
X0009000Y0261000D01*
X0045000Y0297000D01*
X0110500Y0297000D01*
X0104000Y0292000D02*
X0107000Y0289000D01*
X0115000Y0289000D01*
X0118000Y0292000D01*
X0136000Y0292000D01*
X0140000Y0296000D01*
X0181000Y0296000D01*
X0187000Y0290000D01*
X0195000Y0286250D02*
X0195000Y0300750D01*
X0193750Y0302000D01*
X0187000Y0302000D01*
X0187000Y0307750D01*
X0185750Y0309000D01*
X0131250Y0309000D01*
X0130000Y0307750D01*
X0130000Y0303250D01*
X0128750Y0302000D01*
X0118000Y0302000D01*
X0104000Y0292000D02*
X0047000Y0292000D01*
X0031000Y0276000D01*
X0031000Y0270843D01*
X0031000Y0251157D02*
X0083157Y0251157D01*
X0099000Y0267000D01*
X0104000Y0267000D01*
X0107000Y0264000D01*
X0116000Y0264000D01*
X0118000Y0266000D01*
X0133000Y0266000D01*
X0140000Y0259000D01*
X0181000Y0259000D01*
X0187000Y0265000D01*
X0187000Y0277000D02*
X0181000Y0283000D01*
X0141000Y0283000D01*
X0187000Y0277000D02*
X0205000Y0277000D01*
X0214000Y0268000D01*
X0244750Y0268000D01*
X0246000Y0269250D01*
X0246000Y0276000D01*
X0249000Y0285000D02*
X0245000Y0289000D01*
X0209407Y0289000D01*
X0208157Y0290250D01*
X0208157Y0311000D01*
X0227843Y0311000D02*
X0227843Y0294250D01*
X0229093Y0293000D01*
X0247000Y0293000D01*
X0251000Y0289000D01*
X0294750Y0289000D01*
X0296000Y0287750D01*
X0296000Y0276000D01*
X0286000Y0276000D02*
X0286000Y0283750D01*
X0284750Y0285000D01*
X0249000Y0285000D01*
X0258000Y0293000D02*
X0248157Y0302843D01*
X0248157Y0311000D01*
X0267843Y0311000D02*
X0267843Y0298250D01*
X0269093Y0297000D01*
X0314750Y0297000D01*
X0316000Y0295750D01*
X0316000Y0276000D01*
X0306000Y0276000D02*
X0306000Y0291750D01*
X0304750Y0293000D01*
X0258000Y0293000D01*
X0276000Y0276000D02*
X0276000Y0265250D01*
X0274750Y0264000D01*
X0272250Y0264000D01*
X0271000Y0262750D01*
X0271000Y0239250D01*
X0269750Y0238000D01*
X0267250Y0238000D01*
X0266000Y0236750D01*
X0246000Y0228500D02*
X0246000Y0212650D01*
X0244750Y0211400D01*
X0206400Y0211400D01*
X0208050Y0219000D02*
X0206800Y0220250D01*
X0206800Y0228800D01*
X0208050Y0219000D02*
X0234750Y0219000D01*
X0236000Y0220250D01*
X0236000Y0228500D01*
X0236000Y0246000D01*
X0226000Y0246000D02*
X0207000Y0246000D01*
X0226000Y0246000D02*
X0226000Y0228500D01*
X0246000Y0228500D02*
X0246000Y0246000D01*
X0236000Y0276000D02*
X0236000Y0283750D01*
X0234750Y0285000D01*
X0196250Y0285000D01*
X0195000Y0286250D01*
X0288157Y0302250D02*
X0288157Y0311000D01*
X0288157Y0302250D02*
X0289407Y0301000D01*
X0317000Y0301000D01*
X0326000Y0292000D01*
X0326000Y0276000D01*
X0336000Y0276000D02*
X0336000Y0289000D01*
X0314000Y0311000D01*
X0307843Y0311000D01*
X0328000Y0310843D02*
X0328000Y0303000D01*
X0346000Y0285000D01*
X0346000Y0276000D01*
X0356000Y0276000D02*
X0356000Y0292000D01*
X0348000Y0300000D01*
X0348000Y0310843D01*
X0347843Y0311000D01*
X0328157Y0311000D02*
X0328000Y0310843D01*
X0031000Y0201157D02*
X0010250Y0201157D01*
X0009000Y0202407D01*
X0009000Y0260000D01*
D21*
X0058250Y0198500D02*
X0057000Y0197250D01*
X0057000Y0177093D01*
X0055750Y0175843D01*
X0031000Y0175843D01*
X0058250Y0198500D02*
X0226000Y0198500D01*
X0236000Y0198500D01*
X0246000Y0198500D01*
X0264750Y0198500D01*
X0266000Y0199750D01*
X0266000Y0206000D01*
X0266000Y0232000D01*
D22*
X0003200Y0335761D02*
X0003200Y0003200D01*
X0392501Y0003200D01*
X0392501Y0335761D01*
X0003200Y0335761D01*
X0003200Y0335385D02*
X0392501Y0335385D01*
X0392501Y0334186D02*
X0003200Y0334186D01*
X0003200Y0332988D02*
X0392501Y0332988D01*
X0392501Y0331789D02*
X0003200Y0331789D01*
X0003200Y0330591D02*
X0392501Y0330591D01*
X0392501Y0329392D02*
X0003200Y0329392D01*
X0003200Y0328194D02*
X0392501Y0328194D01*
X0392501Y0326995D02*
X0003200Y0326995D01*
X0003200Y0325797D02*
X0392501Y0325797D01*
X0392501Y0324598D02*
X0003200Y0324598D01*
X0003200Y0323400D02*
X0392501Y0323400D01*
X0392501Y0322201D02*
X0003200Y0322201D01*
X0003200Y0321003D02*
X0392501Y0321003D01*
X0392501Y0319804D02*
X0350058Y0319804D01*
X0351085Y0319378D02*
X0348981Y0320250D01*
X0346704Y0320250D01*
X0344600Y0319378D01*
X0342989Y0317768D01*
X0342118Y0315664D01*
X0342118Y0306336D01*
X0342989Y0304232D01*
X0344600Y0302622D01*
X0345000Y0302456D01*
X0345000Y0299403D01*
X0345457Y0298301D01*
X0346301Y0297457D01*
X0353000Y0290757D01*
X0353000Y0281905D01*
X0352100Y0281006D01*
X0351400Y0279315D01*
X0351400Y0272685D01*
X0352100Y0270994D01*
X0353394Y0269700D01*
X0355085Y0269000D01*
X0356915Y0269000D01*
X0358606Y0269700D01*
X0359900Y0270994D01*
X0360600Y0272685D01*
X0360600Y0279315D01*
X0359900Y0281006D01*
X0359000Y0281905D01*
X0359000Y0292597D01*
X0358543Y0293699D01*
X0351000Y0301243D01*
X0351000Y0302586D01*
X0351085Y0302622D01*
X0352696Y0304232D01*
X0353568Y0306336D01*
X0353568Y0315664D01*
X0352696Y0317768D01*
X0351085Y0319378D01*
X0351858Y0318605D02*
X0392501Y0318605D01*
X0392501Y0317407D02*
X0352845Y0317407D01*
X0353342Y0316208D02*
X0392501Y0316208D01*
X0392501Y0315010D02*
X0353568Y0315010D01*
X0353568Y0313811D02*
X0392501Y0313811D01*
X0392501Y0312613D02*
X0353568Y0312613D01*
X0353568Y0311414D02*
X0392501Y0311414D01*
X0392501Y0310216D02*
X0353568Y0310216D01*
X0353568Y0309017D02*
X0392501Y0309017D01*
X0392501Y0307819D02*
X0353568Y0307819D01*
X0353568Y0306620D02*
X0392501Y0306620D01*
X0392501Y0305422D02*
X0353189Y0305422D01*
X0352687Y0304223D02*
X0392501Y0304223D01*
X0392501Y0303025D02*
X0351489Y0303025D01*
X0351000Y0301826D02*
X0392501Y0301826D01*
X0392501Y0300628D02*
X0351615Y0300628D01*
X0352813Y0299429D02*
X0392501Y0299429D01*
X0392501Y0298231D02*
X0354012Y0298231D01*
X0355210Y0297032D02*
X0392501Y0297032D01*
X0392501Y0295834D02*
X0356409Y0295834D01*
X0357607Y0294635D02*
X0392501Y0294635D01*
X0392501Y0293437D02*
X0358652Y0293437D01*
X0359000Y0292238D02*
X0392501Y0292238D01*
X0392501Y0291040D02*
X0359000Y0291040D01*
X0359000Y0289841D02*
X0392501Y0289841D01*
X0392501Y0288643D02*
X0359000Y0288643D01*
X0359000Y0287444D02*
X0392501Y0287444D01*
X0392501Y0286246D02*
X0359000Y0286246D01*
X0359000Y0285047D02*
X0392501Y0285047D01*
X0392501Y0283849D02*
X0359000Y0283849D01*
X0359000Y0282650D02*
X0392501Y0282650D01*
X0392501Y0281452D02*
X0359454Y0281452D01*
X0360211Y0280253D02*
X0392501Y0280253D01*
X0392501Y0279055D02*
X0360600Y0279055D01*
X0360600Y0277856D02*
X0392501Y0277856D01*
X0392501Y0276658D02*
X0360600Y0276658D01*
X0360600Y0275459D02*
X0392501Y0275459D01*
X0392501Y0274261D02*
X0360600Y0274261D01*
X0360600Y0273062D02*
X0392501Y0273062D01*
X0392501Y0271864D02*
X0360260Y0271864D01*
X0359570Y0270665D02*
X0392501Y0270665D01*
X0392501Y0269467D02*
X0358041Y0269467D01*
X0353959Y0269467D02*
X0348041Y0269467D01*
X0348606Y0269700D02*
X0346915Y0269000D01*
X0345085Y0269000D01*
X0343394Y0269700D01*
X0342100Y0270994D01*
X0341400Y0272685D01*
X0341400Y0279315D01*
X0342100Y0281006D01*
X0343000Y0281905D01*
X0343000Y0283757D01*
X0339000Y0287757D01*
X0339000Y0281905D01*
X0339900Y0281006D01*
X0340600Y0279315D01*
X0340600Y0272685D01*
X0339900Y0270994D01*
X0338606Y0269700D01*
X0336915Y0269000D01*
X0335085Y0269000D01*
X0333394Y0269700D01*
X0332100Y0270994D01*
X0331400Y0272685D01*
X0331400Y0279315D01*
X0332100Y0281006D01*
X0333000Y0281905D01*
X0333000Y0287757D01*
X0329000Y0291757D01*
X0329000Y0281905D01*
X0329900Y0281006D01*
X0330600Y0279315D01*
X0330600Y0272685D01*
X0329900Y0270994D01*
X0328606Y0269700D01*
X0326915Y0269000D01*
X0325085Y0269000D01*
X0323394Y0269700D01*
X0322100Y0270994D01*
X0321400Y0272685D01*
X0321400Y0279315D01*
X0322100Y0281006D01*
X0323000Y0281905D01*
X0323000Y0290757D01*
X0319000Y0294757D01*
X0319000Y0281905D01*
X0319900Y0281006D01*
X0320600Y0279315D01*
X0320600Y0272685D01*
X0319900Y0270994D01*
X0318606Y0269700D01*
X0316915Y0269000D01*
X0315085Y0269000D01*
X0313394Y0269700D01*
X0312100Y0270994D01*
X0311400Y0272685D01*
X0311400Y0279315D01*
X0312100Y0281006D01*
X0313000Y0281905D01*
X0313000Y0294000D01*
X0307993Y0294000D01*
X0308543Y0293449D01*
X0309000Y0292347D01*
X0309000Y0281905D01*
X0309900Y0281006D01*
X0310600Y0279315D01*
X0310600Y0272685D01*
X0309900Y0270994D01*
X0308606Y0269700D01*
X0306915Y0269000D01*
X0305085Y0269000D01*
X0303394Y0269700D01*
X0302100Y0270994D01*
X0301400Y0272685D01*
X0301400Y0279315D01*
X0302100Y0281006D01*
X0303000Y0281905D01*
X0303000Y0290000D01*
X0297993Y0290000D01*
X0298543Y0289449D01*
X0299000Y0288347D01*
X0299000Y0281905D01*
X0299900Y0281006D01*
X0300600Y0279315D01*
X0300600Y0272685D01*
X0299900Y0270994D01*
X0298606Y0269700D01*
X0296915Y0269000D01*
X0295085Y0269000D01*
X0293394Y0269700D01*
X0292100Y0270994D01*
X0291400Y0272685D01*
X0291400Y0279315D01*
X0292100Y0281006D01*
X0293000Y0281905D01*
X0293000Y0286000D01*
X0287993Y0286000D01*
X0288543Y0285449D01*
X0289000Y0284347D01*
X0289000Y0281905D01*
X0289900Y0281006D01*
X0290600Y0279315D01*
X0290600Y0272685D01*
X0289900Y0270994D01*
X0288606Y0269700D01*
X0286915Y0269000D01*
X0285085Y0269000D01*
X0283394Y0269700D01*
X0282100Y0270994D01*
X0281400Y0272685D01*
X0281400Y0279315D01*
X0282100Y0281006D01*
X0283000Y0281905D01*
X0283000Y0282000D01*
X0278905Y0282000D01*
X0279900Y0281006D01*
X0280600Y0279315D01*
X0280600Y0272685D01*
X0279900Y0270994D01*
X0279000Y0270095D01*
X0279000Y0264653D01*
X0278543Y0263551D01*
X0277699Y0262707D01*
X0276449Y0261457D01*
X0275347Y0261000D01*
X0274000Y0261000D01*
X0274000Y0252551D01*
X0275085Y0253000D01*
X0276915Y0253000D01*
X0278606Y0252300D01*
X0279900Y0251006D01*
X0280600Y0249315D01*
X0280600Y0242685D01*
X0279900Y0240994D01*
X0278606Y0239700D01*
X0276915Y0239000D01*
X0275085Y0239000D01*
X0274000Y0239449D01*
X0274000Y0238653D01*
X0273543Y0237551D01*
X0272699Y0236707D01*
X0271449Y0235457D01*
X0270602Y0235106D01*
X0270620Y0235087D01*
X0271450Y0233084D01*
X0271450Y0230916D01*
X0270620Y0228913D01*
X0269800Y0228093D01*
X0269800Y0211450D01*
X0270161Y0211450D01*
X0271450Y0210161D01*
X0271450Y0201839D01*
X0270161Y0200550D01*
X0269800Y0200550D01*
X0269800Y0198994D01*
X0269221Y0197597D01*
X0268153Y0196529D01*
X0268153Y0196529D01*
X0267971Y0196347D01*
X0267971Y0196347D01*
X0266903Y0195279D01*
X0265506Y0194700D01*
X0250399Y0194700D01*
X0249900Y0193494D01*
X0248606Y0192200D01*
X0246915Y0191500D01*
X0245085Y0191500D01*
X0243394Y0192200D01*
X0242100Y0193494D01*
X0241601Y0194700D01*
X0240399Y0194700D01*
X0239900Y0193494D01*
X0238606Y0192200D01*
X0236915Y0191500D01*
X0235085Y0191500D01*
X0233394Y0192200D01*
X0232100Y0193494D01*
X0231601Y0194700D01*
X0230399Y0194700D01*
X0229900Y0193494D01*
X0228606Y0192200D01*
X0226915Y0191500D01*
X0225085Y0191500D01*
X0223394Y0192200D01*
X0222100Y0193494D01*
X0221601Y0194700D01*
X0060800Y0194700D01*
X0060800Y0176337D01*
X0060221Y0174940D01*
X0058971Y0173690D01*
X0057903Y0172621D01*
X0056506Y0172043D01*
X0038821Y0172043D01*
X0037768Y0170989D01*
X0035664Y0170118D01*
X0026336Y0170118D01*
X0024232Y0170989D01*
X0022622Y0172600D01*
X0021750Y0174704D01*
X0021750Y0176981D01*
X0022622Y0179085D01*
X0024232Y0180696D01*
X0026336Y0181568D01*
X0035664Y0181568D01*
X0037768Y0180696D01*
X0038821Y0179643D01*
X0053200Y0179643D01*
X0053200Y0198006D01*
X0053779Y0199403D01*
X0054847Y0200471D01*
X0056097Y0201721D01*
X0057494Y0202300D01*
X0221601Y0202300D01*
X0222100Y0203506D01*
X0223394Y0204800D01*
X0225085Y0205500D01*
X0226915Y0205500D01*
X0228606Y0204800D01*
X0229900Y0203506D01*
X0230399Y0202300D01*
X0231601Y0202300D01*
X0232100Y0203506D01*
X0233394Y0204800D01*
X0235085Y0205500D01*
X0236915Y0205500D01*
X0238606Y0204800D01*
X0239900Y0203506D01*
X0240399Y0202300D01*
X0241601Y0202300D01*
X0242100Y0203506D01*
X0243394Y0204800D01*
X0245085Y0205500D01*
X0246915Y0205500D01*
X0248606Y0204800D01*
X0249900Y0203506D01*
X0250399Y0202300D01*
X0260550Y0202300D01*
X0260550Y0210161D01*
X0261839Y0211450D01*
X0262200Y0211450D01*
X0262200Y0228093D01*
X0261380Y0228913D01*
X0260550Y0230916D01*
X0260550Y0233084D01*
X0261344Y0235000D01*
X0256653Y0235000D01*
X0255551Y0235457D01*
X0254301Y0236707D01*
X0253457Y0237551D01*
X0253000Y0238653D01*
X0253000Y0240095D01*
X0252100Y0240994D01*
X0251400Y0242685D01*
X0251400Y0249315D01*
X0252100Y0251006D01*
X0253000Y0251905D01*
X0253000Y0253757D01*
X0250757Y0256000D01*
X0211403Y0256000D01*
X0210301Y0256457D01*
X0198757Y0268000D01*
X0192143Y0268000D01*
X0192900Y0266174D01*
X0192900Y0263826D01*
X0192002Y0261658D01*
X0190342Y0259998D01*
X0188174Y0259100D01*
X0185826Y0259100D01*
X0185484Y0259242D01*
X0182699Y0256457D01*
X0181597Y0256000D01*
X0139403Y0256000D01*
X0138301Y0256457D01*
X0137457Y0257301D01*
X0131757Y0263000D01*
X0123143Y0263000D01*
X0123002Y0262658D01*
X0121342Y0260998D01*
X0119174Y0260100D01*
X0116826Y0260100D01*
X0114658Y0260998D01*
X0114656Y0261000D01*
X0106403Y0261000D01*
X0105301Y0261457D01*
X0104457Y0262301D01*
X0102757Y0264000D01*
X0100243Y0264000D01*
X0084857Y0248614D01*
X0083754Y0248157D01*
X0039479Y0248157D01*
X0039378Y0247915D01*
X0037768Y0246304D01*
X0035664Y0245432D01*
X0026336Y0245432D01*
X0024232Y0246304D01*
X0022622Y0247915D01*
X0021750Y0250019D01*
X0021750Y0252296D01*
X0022622Y0254400D01*
X0024232Y0256011D01*
X0026336Y0256882D01*
X0035664Y0256882D01*
X0037768Y0256011D01*
X0039378Y0254400D01*
X0039479Y0254157D01*
X0081915Y0254157D01*
X0096457Y0268699D01*
X0097301Y0269543D01*
X0098403Y0270000D01*
X0104597Y0270000D01*
X0104600Y0269999D01*
X0104600Y0272157D01*
X0095757Y0281000D01*
X0063243Y0281000D01*
X0041543Y0259301D01*
X0040699Y0258457D01*
X0039597Y0258000D01*
X0012000Y0258000D01*
X0012000Y0204157D01*
X0022521Y0204157D01*
X0022622Y0204400D01*
X0024232Y0206011D01*
X0026336Y0206882D01*
X0035664Y0206882D01*
X0037768Y0206011D01*
X0039378Y0204400D01*
X0040250Y0202296D01*
X0040250Y0200019D01*
X0039378Y0197915D01*
X0037768Y0196304D01*
X0035664Y0195432D01*
X0026336Y0195432D01*
X0024232Y0196304D01*
X0022622Y0197915D01*
X0022521Y0198157D01*
X0009653Y0198157D01*
X0008551Y0198614D01*
X0007707Y0199458D01*
X0007707Y0199458D01*
X0007301Y0199864D01*
X0007301Y0199864D01*
X0006457Y0200708D01*
X0006000Y0201811D01*
X0006000Y0261597D01*
X0006457Y0262699D01*
X0042457Y0298699D01*
X0043301Y0299543D01*
X0044403Y0300000D01*
X0105357Y0300000D01*
X0105498Y0300342D01*
X0107158Y0302002D01*
X0109326Y0302900D01*
X0111674Y0302900D01*
X0112100Y0302723D01*
X0112100Y0303174D01*
X0112998Y0305342D01*
X0114658Y0307002D01*
X0116826Y0307900D01*
X0119174Y0307900D01*
X0121342Y0307002D01*
X0123002Y0305342D01*
X0123143Y0305000D01*
X0127000Y0305000D01*
X0127000Y0308347D01*
X0127457Y0309449D01*
X0128707Y0310699D01*
X0129551Y0311543D01*
X0130653Y0312000D01*
X0186347Y0312000D01*
X0187449Y0311543D01*
X0188699Y0310293D01*
X0189543Y0309449D01*
X0190000Y0308347D01*
X0190000Y0307143D01*
X0190342Y0307002D01*
X0192002Y0305342D01*
X0192143Y0305000D01*
X0194347Y0305000D01*
X0195449Y0304543D01*
X0196293Y0303699D01*
X0197543Y0302449D01*
X0198000Y0301347D01*
X0198000Y0288000D01*
X0206165Y0288000D01*
X0205614Y0288551D01*
X0205157Y0289653D01*
X0205157Y0302521D01*
X0204915Y0302622D01*
X0203304Y0304232D01*
X0202432Y0306336D01*
X0202432Y0315664D01*
X0203304Y0317768D01*
X0204915Y0319378D01*
X0207019Y0320250D01*
X0209296Y0320250D01*
X0211400Y0319378D01*
X0213011Y0317768D01*
X0213882Y0315664D01*
X0213882Y0306336D01*
X0213011Y0304232D01*
X0211400Y0302622D01*
X0211157Y0302521D01*
X0211157Y0292000D01*
X0225850Y0292000D01*
X0225299Y0292551D01*
X0224843Y0293653D01*
X0224843Y0302521D01*
X0224600Y0302622D01*
X0222989Y0304232D01*
X0222118Y0306336D01*
X0222118Y0315664D01*
X0222989Y0317768D01*
X0224600Y0319378D01*
X0226704Y0320250D01*
X0228981Y0320250D01*
X0231085Y0319378D01*
X0232696Y0317768D01*
X0233568Y0315664D01*
X0233568Y0306336D01*
X0232696Y0304232D01*
X0231085Y0302622D01*
X0230843Y0302521D01*
X0230843Y0296000D01*
X0247597Y0296000D01*
X0248699Y0295543D01*
X0249543Y0294699D01*
X0252243Y0292000D01*
X0254757Y0292000D01*
X0246458Y0300299D01*
X0245614Y0301143D01*
X0245157Y0302246D01*
X0245157Y0302521D01*
X0244915Y0302622D01*
X0243304Y0304232D01*
X0242432Y0306336D01*
X0242432Y0315664D01*
X0243304Y0317768D01*
X0244915Y0319378D01*
X0247019Y0320250D01*
X0249296Y0320250D01*
X0251400Y0319378D01*
X0253011Y0317768D01*
X0253882Y0315664D01*
X0253882Y0306336D01*
X0253011Y0304232D01*
X0252011Y0303232D01*
X0259243Y0296000D01*
X0265850Y0296000D01*
X0265299Y0296551D01*
X0264843Y0297653D01*
X0264843Y0302521D01*
X0264600Y0302622D01*
X0262989Y0304232D01*
X0262118Y0306336D01*
X0262118Y0315664D01*
X0262989Y0317768D01*
X0264600Y0319378D01*
X0266704Y0320250D01*
X0268981Y0320250D01*
X0271085Y0319378D01*
X0272696Y0317768D01*
X0273568Y0315664D01*
X0273568Y0306336D01*
X0272696Y0304232D01*
X0271085Y0302622D01*
X0270843Y0302521D01*
X0270843Y0300000D01*
X0286165Y0300000D01*
X0285614Y0300551D01*
X0285157Y0301653D01*
X0285157Y0302521D01*
X0284915Y0302622D01*
X0283304Y0304232D01*
X0282432Y0306336D01*
X0282432Y0315664D01*
X0283304Y0317768D01*
X0284915Y0319378D01*
X0287019Y0320250D01*
X0289296Y0320250D01*
X0291400Y0319378D01*
X0293011Y0317768D01*
X0293882Y0315664D01*
X0293882Y0306336D01*
X0293011Y0304232D01*
X0292779Y0304000D01*
X0303221Y0304000D01*
X0302989Y0304232D01*
X0302118Y0306336D01*
X0302118Y0315664D01*
X0302989Y0317768D01*
X0304600Y0319378D01*
X0306704Y0320250D01*
X0308981Y0320250D01*
X0311085Y0319378D01*
X0312696Y0317768D01*
X0313568Y0315664D01*
X0313568Y0314000D01*
X0314597Y0314000D01*
X0315699Y0313543D01*
X0316543Y0312699D01*
X0322432Y0306810D01*
X0322432Y0315664D01*
X0323304Y0317768D01*
X0324915Y0319378D01*
X0327019Y0320250D01*
X0329296Y0320250D01*
X0331400Y0319378D01*
X0333011Y0317768D01*
X0333882Y0315664D01*
X0333882Y0306336D01*
X0333011Y0304232D01*
X0332011Y0303232D01*
X0348543Y0286699D01*
X0349000Y0285597D01*
X0349000Y0281905D01*
X0349900Y0281006D01*
X0350600Y0279315D01*
X0350600Y0272685D01*
X0349900Y0270994D01*
X0348606Y0269700D01*
X0349570Y0270665D02*
X0352430Y0270665D01*
X0351740Y0271864D02*
X0350260Y0271864D01*
X0350600Y0273062D02*
X0351400Y0273062D01*
X0351400Y0274261D02*
X0350600Y0274261D01*
X0350600Y0275459D02*
X0351400Y0275459D01*
X0351400Y0276658D02*
X0350600Y0276658D01*
X0350600Y0277856D02*
X0351400Y0277856D01*
X0351400Y0279055D02*
X0350600Y0279055D01*
X0350211Y0280253D02*
X0351789Y0280253D01*
X0352546Y0281452D02*
X0349454Y0281452D01*
X0349000Y0282650D02*
X0353000Y0282650D01*
X0353000Y0283849D02*
X0349000Y0283849D01*
X0349000Y0285047D02*
X0353000Y0285047D01*
X0353000Y0286246D02*
X0348731Y0286246D01*
X0347798Y0287444D02*
X0353000Y0287444D01*
X0353000Y0288643D02*
X0346600Y0288643D01*
X0345401Y0289841D02*
X0353000Y0289841D01*
X0352718Y0291040D02*
X0344203Y0291040D01*
X0343004Y0292238D02*
X0351519Y0292238D01*
X0350321Y0293437D02*
X0341806Y0293437D01*
X0340607Y0294635D02*
X0349122Y0294635D01*
X0347924Y0295834D02*
X0339409Y0295834D01*
X0338210Y0297032D02*
X0346725Y0297032D01*
X0345527Y0298231D02*
X0337012Y0298231D01*
X0335813Y0299429D02*
X0345000Y0299429D01*
X0345000Y0300628D02*
X0334615Y0300628D01*
X0333416Y0301826D02*
X0345000Y0301826D01*
X0344196Y0303025D02*
X0332218Y0303025D01*
X0333002Y0304223D02*
X0342998Y0304223D01*
X0342496Y0305422D02*
X0333504Y0305422D01*
X0333882Y0306620D02*
X0342118Y0306620D01*
X0342118Y0307819D02*
X0333882Y0307819D01*
X0333882Y0309017D02*
X0342118Y0309017D01*
X0342118Y0310216D02*
X0333882Y0310216D01*
X0333882Y0311414D02*
X0342118Y0311414D01*
X0342118Y0312613D02*
X0333882Y0312613D01*
X0333882Y0313811D02*
X0342118Y0313811D01*
X0342118Y0315010D02*
X0333882Y0315010D01*
X0333657Y0316208D02*
X0342343Y0316208D01*
X0342840Y0317407D02*
X0333160Y0317407D01*
X0332173Y0318605D02*
X0343827Y0318605D01*
X0345627Y0319804D02*
X0330373Y0319804D01*
X0325942Y0319804D02*
X0310058Y0319804D01*
X0311858Y0318605D02*
X0324142Y0318605D01*
X0323155Y0317407D02*
X0312845Y0317407D01*
X0313342Y0316208D02*
X0322658Y0316208D01*
X0322432Y0315010D02*
X0313568Y0315010D01*
X0315052Y0313811D02*
X0322432Y0313811D01*
X0322432Y0312613D02*
X0316630Y0312613D01*
X0317828Y0311414D02*
X0322432Y0311414D01*
X0322432Y0310216D02*
X0319027Y0310216D01*
X0320225Y0309017D02*
X0322432Y0309017D01*
X0322432Y0307819D02*
X0321424Y0307819D01*
X0319122Y0294635D02*
X0319000Y0294635D01*
X0319000Y0293437D02*
X0320321Y0293437D01*
X0321519Y0292238D02*
X0319000Y0292238D01*
X0319000Y0291040D02*
X0322718Y0291040D01*
X0323000Y0289841D02*
X0319000Y0289841D01*
X0319000Y0288643D02*
X0323000Y0288643D01*
X0323000Y0287444D02*
X0319000Y0287444D01*
X0319000Y0286246D02*
X0323000Y0286246D01*
X0323000Y0285047D02*
X0319000Y0285047D01*
X0319000Y0283849D02*
X0323000Y0283849D01*
X0323000Y0282650D02*
X0319000Y0282650D01*
X0319454Y0281452D02*
X0322546Y0281452D01*
X0321789Y0280253D02*
X0320211Y0280253D01*
X0320600Y0279055D02*
X0321400Y0279055D01*
X0321400Y0277856D02*
X0320600Y0277856D01*
X0320600Y0276658D02*
X0321400Y0276658D01*
X0321400Y0275459D02*
X0320600Y0275459D01*
X0320600Y0274261D02*
X0321400Y0274261D01*
X0321400Y0273062D02*
X0320600Y0273062D01*
X0320260Y0271864D02*
X0321740Y0271864D01*
X0322430Y0270665D02*
X0319570Y0270665D01*
X0318041Y0269467D02*
X0323959Y0269467D01*
X0328041Y0269467D02*
X0333959Y0269467D01*
X0332430Y0270665D02*
X0329570Y0270665D01*
X0330260Y0271864D02*
X0331740Y0271864D01*
X0331400Y0273062D02*
X0330600Y0273062D01*
X0330600Y0274261D02*
X0331400Y0274261D01*
X0331400Y0275459D02*
X0330600Y0275459D01*
X0330600Y0276658D02*
X0331400Y0276658D01*
X0331400Y0277856D02*
X0330600Y0277856D01*
X0330600Y0279055D02*
X0331400Y0279055D01*
X0331789Y0280253D02*
X0330211Y0280253D01*
X0329454Y0281452D02*
X0332546Y0281452D01*
X0333000Y0282650D02*
X0329000Y0282650D01*
X0329000Y0283849D02*
X0333000Y0283849D01*
X0333000Y0285047D02*
X0329000Y0285047D01*
X0329000Y0286246D02*
X0333000Y0286246D01*
X0333000Y0287444D02*
X0329000Y0287444D01*
X0329000Y0288643D02*
X0332115Y0288643D01*
X0330916Y0289841D02*
X0329000Y0289841D01*
X0329000Y0291040D02*
X0329718Y0291040D01*
X0339000Y0287444D02*
X0339313Y0287444D01*
X0339000Y0286246D02*
X0340512Y0286246D01*
X0341710Y0285047D02*
X0339000Y0285047D01*
X0339000Y0283849D02*
X0342909Y0283849D01*
X0343000Y0282650D02*
X0339000Y0282650D01*
X0339454Y0281452D02*
X0342546Y0281452D01*
X0341789Y0280253D02*
X0340211Y0280253D01*
X0340600Y0279055D02*
X0341400Y0279055D01*
X0341400Y0277856D02*
X0340600Y0277856D01*
X0340600Y0276658D02*
X0341400Y0276658D01*
X0341400Y0275459D02*
X0340600Y0275459D01*
X0340600Y0274261D02*
X0341400Y0274261D01*
X0341400Y0273062D02*
X0340600Y0273062D01*
X0340260Y0271864D02*
X0341740Y0271864D01*
X0342430Y0270665D02*
X0339570Y0270665D01*
X0338041Y0269467D02*
X0343959Y0269467D01*
X0345085Y0253000D02*
X0343394Y0252300D01*
X0342100Y0251006D01*
X0341400Y0249315D01*
X0341400Y0242685D01*
X0342100Y0240994D01*
X0343000Y0240095D01*
X0343000Y0164000D01*
X0321143Y0164000D01*
X0321002Y0164342D01*
X0320344Y0165000D01*
X0335347Y0165000D01*
X0336449Y0165457D01*
X0337699Y0166707D01*
X0338543Y0167551D01*
X0339000Y0168653D01*
X0339000Y0240095D01*
X0339900Y0240994D01*
X0340600Y0242685D01*
X0340600Y0249315D01*
X0339900Y0251006D01*
X0338606Y0252300D01*
X0336915Y0253000D01*
X0335085Y0253000D01*
X0333394Y0252300D01*
X0332100Y0251006D01*
X0331400Y0249315D01*
X0331400Y0242685D01*
X0332100Y0240994D01*
X0333000Y0240095D01*
X0333000Y0171000D01*
X0328729Y0171000D01*
X0329000Y0171653D01*
X0329000Y0240095D01*
X0329900Y0240994D01*
X0330600Y0242685D01*
X0330600Y0249315D01*
X0329900Y0251006D01*
X0328606Y0252300D01*
X0326915Y0253000D01*
X0325085Y0253000D01*
X0323394Y0252300D01*
X0322100Y0251006D01*
X0321400Y0249315D01*
X0321400Y0242685D01*
X0322100Y0240994D01*
X0323000Y0240095D01*
X0323000Y0174000D01*
X0318729Y0174000D01*
X0319000Y0174653D01*
X0319000Y0240095D01*
X0319900Y0240994D01*
X0320600Y0242685D01*
X0320600Y0249315D01*
X0319900Y0251006D01*
X0318606Y0252300D01*
X0316915Y0253000D01*
X0315085Y0253000D01*
X0313394Y0252300D01*
X0312100Y0251006D01*
X0311400Y0249315D01*
X0311400Y0242685D01*
X0312100Y0240994D01*
X0313000Y0240095D01*
X0313000Y0177000D01*
X0308729Y0177000D01*
X0309000Y0177653D01*
X0309000Y0240095D01*
X0309900Y0240994D01*
X0310600Y0242685D01*
X0310600Y0249315D01*
X0309900Y0251006D01*
X0308606Y0252300D01*
X0306915Y0253000D01*
X0305085Y0253000D01*
X0303394Y0252300D01*
X0302100Y0251006D01*
X0301400Y0249315D01*
X0301400Y0242685D01*
X0302100Y0240994D01*
X0303000Y0240095D01*
X0303000Y0180000D01*
X0298729Y0180000D01*
X0299000Y0180653D01*
X0299000Y0240095D01*
X0299900Y0240994D01*
X0300600Y0242685D01*
X0300600Y0249315D01*
X0299900Y0251006D01*
X0298606Y0252300D01*
X0296915Y0253000D01*
X0295085Y0253000D01*
X0293394Y0252300D01*
X0292100Y0251006D01*
X0291400Y0249315D01*
X0291400Y0242685D01*
X0292100Y0240994D01*
X0293000Y0240095D01*
X0293000Y0183000D01*
X0288729Y0183000D01*
X0289000Y0183653D01*
X0289000Y0240095D01*
X0289900Y0240994D01*
X0290600Y0242685D01*
X0290600Y0249315D01*
X0289900Y0251006D01*
X0288606Y0252300D01*
X0286915Y0253000D01*
X0285085Y0253000D01*
X0283394Y0252300D01*
X0282100Y0251006D01*
X0281400Y0249315D01*
X0281400Y0242685D01*
X0282100Y0240994D01*
X0283000Y0240095D01*
X0283000Y0186000D01*
X0107653Y0186000D01*
X0106551Y0185543D01*
X0105707Y0184699D01*
X0104457Y0183449D01*
X0104000Y0182347D01*
X0104000Y0164000D01*
X0081143Y0164000D01*
X0081002Y0164342D01*
X0079342Y0166002D01*
X0077174Y0166900D01*
X0074826Y0166900D01*
X0072658Y0166002D01*
X0070998Y0164342D01*
X0070100Y0162174D01*
X0070100Y0159826D01*
X0070998Y0157658D01*
X0072658Y0155998D01*
X0074826Y0155100D01*
X0077174Y0155100D01*
X0079342Y0155998D01*
X0081002Y0157658D01*
X0081143Y0158000D01*
X0106347Y0158000D01*
X0107449Y0158457D01*
X0108699Y0159707D01*
X0109543Y0160551D01*
X0110000Y0161653D01*
X0110000Y0180000D01*
X0129271Y0180000D01*
X0129000Y0179347D01*
X0129000Y0166143D01*
X0128658Y0166002D01*
X0126998Y0164342D01*
X0126100Y0162174D01*
X0126100Y0159826D01*
X0126998Y0157658D01*
X0128658Y0155998D01*
X0130826Y0155100D01*
X0133174Y0155100D01*
X0135342Y0155998D01*
X0137002Y0157658D01*
X0137900Y0159826D01*
X0137900Y0162174D01*
X0137002Y0164342D01*
X0135342Y0166002D01*
X0135000Y0166143D01*
X0135000Y0177000D01*
X0153271Y0177000D01*
X0153000Y0176347D01*
X0153000Y0166143D01*
X0152658Y0166002D01*
X0150998Y0164342D01*
X0150100Y0162174D01*
X0150100Y0159826D01*
X0150998Y0157658D01*
X0152658Y0155998D01*
X0154826Y0155100D01*
X0157174Y0155100D01*
X0159342Y0155998D01*
X0161002Y0157658D01*
X0161900Y0159826D01*
X0161900Y0162174D01*
X0161002Y0164342D01*
X0159342Y0166002D01*
X0159000Y0166143D01*
X0159000Y0174000D01*
X0193271Y0174000D01*
X0193000Y0173347D01*
X0193000Y0166143D01*
X0192658Y0166002D01*
X0190998Y0164342D01*
X0190100Y0162174D01*
X0190100Y0159826D01*
X0190998Y0157658D01*
X0192658Y0155998D01*
X0194826Y0155100D01*
X0197174Y0155100D01*
X0199342Y0155998D01*
X0201002Y0157658D01*
X0201900Y0159826D01*
X0201900Y0162174D01*
X0201002Y0164342D01*
X0199342Y0166002D01*
X0199000Y0166143D01*
X0199000Y0171000D01*
X0233271Y0171000D01*
X0233000Y0170347D01*
X0233000Y0166143D01*
X0232658Y0166002D01*
X0230998Y0164342D01*
X0230100Y0162174D01*
X0230100Y0159826D01*
X0230998Y0157658D01*
X0232658Y0155998D01*
X0234826Y0155100D01*
X0237174Y0155100D01*
X0239342Y0155998D01*
X0241002Y0157658D01*
X0241900Y0159826D01*
X0241900Y0162174D01*
X0241002Y0164342D01*
X0239342Y0166002D01*
X0239000Y0166143D01*
X0239000Y0168000D01*
X0273271Y0168000D01*
X0273000Y0167347D01*
X0273000Y0166143D01*
X0272658Y0166002D01*
X0270998Y0164342D01*
X0270100Y0162174D01*
X0270100Y0159826D01*
X0270998Y0157658D01*
X0272658Y0155998D01*
X0274826Y0155100D01*
X0277174Y0155100D01*
X0279342Y0155998D01*
X0281002Y0157658D01*
X0281900Y0159826D01*
X0281900Y0162174D01*
X0281002Y0164342D01*
X0280344Y0165000D01*
X0311656Y0165000D01*
X0310998Y0164342D01*
X0310100Y0162174D01*
X0310100Y0159826D01*
X0310998Y0157658D01*
X0312658Y0155998D01*
X0314826Y0155100D01*
X0317174Y0155100D01*
X0319342Y0155998D01*
X0321002Y0157658D01*
X0321143Y0158000D01*
X0345347Y0158000D01*
X0346449Y0158457D01*
X0347699Y0159707D01*
X0348543Y0160551D01*
X0349000Y0161653D01*
X0349000Y0240095D01*
X0349900Y0240994D01*
X0350600Y0242685D01*
X0350600Y0249315D01*
X0349900Y0251006D01*
X0348606Y0252300D01*
X0346915Y0253000D01*
X0345085Y0253000D01*
X0344330Y0252687D02*
X0337670Y0252687D01*
X0339416Y0251489D02*
X0342583Y0251489D01*
X0341804Y0250290D02*
X0340196Y0250290D01*
X0340600Y0249092D02*
X0341400Y0249092D01*
X0341400Y0247893D02*
X0340600Y0247893D01*
X0340600Y0246695D02*
X0341400Y0246695D01*
X0341400Y0245496D02*
X0340600Y0245496D01*
X0340600Y0244298D02*
X0341400Y0244298D01*
X0341400Y0243099D02*
X0340600Y0243099D01*
X0340275Y0241901D02*
X0341725Y0241901D01*
X0342392Y0240702D02*
X0339608Y0240702D01*
X0339000Y0239504D02*
X0343000Y0239504D01*
X0343000Y0238305D02*
X0339000Y0238305D01*
X0339000Y0237107D02*
X0343000Y0237107D01*
X0343000Y0235908D02*
X0339000Y0235908D01*
X0339000Y0234710D02*
X0343000Y0234710D01*
X0343000Y0233511D02*
X0339000Y0233511D01*
X0339000Y0232313D02*
X0343000Y0232313D01*
X0343000Y0231114D02*
X0339000Y0231114D01*
X0339000Y0229916D02*
X0343000Y0229916D01*
X0343000Y0228717D02*
X0339000Y0228717D01*
X0339000Y0227519D02*
X0343000Y0227519D01*
X0343000Y0226320D02*
X0339000Y0226320D01*
X0339000Y0225122D02*
X0343000Y0225122D01*
X0343000Y0223923D02*
X0339000Y0223923D01*
X0339000Y0222725D02*
X0343000Y0222725D01*
X0343000Y0221526D02*
X0339000Y0221526D01*
X0339000Y0220328D02*
X0343000Y0220328D01*
X0343000Y0219129D02*
X0339000Y0219129D01*
X0339000Y0217931D02*
X0343000Y0217931D01*
X0343000Y0216732D02*
X0339000Y0216732D01*
X0339000Y0215534D02*
X0343000Y0215534D01*
X0343000Y0214335D02*
X0339000Y0214335D01*
X0339000Y0213137D02*
X0343000Y0213137D01*
X0343000Y0211938D02*
X0339000Y0211938D01*
X0339000Y0210739D02*
X0343000Y0210739D01*
X0343000Y0209541D02*
X0339000Y0209541D01*
X0339000Y0208342D02*
X0343000Y0208342D01*
X0343000Y0207144D02*
X0339000Y0207144D01*
X0339000Y0205945D02*
X0343000Y0205945D01*
X0343000Y0204747D02*
X0339000Y0204747D01*
X0339000Y0203548D02*
X0343000Y0203548D01*
X0343000Y0202350D02*
X0339000Y0202350D01*
X0339000Y0201151D02*
X0343000Y0201151D01*
X0343000Y0199953D02*
X0339000Y0199953D01*
X0339000Y0198754D02*
X0343000Y0198754D01*
X0343000Y0197556D02*
X0339000Y0197556D01*
X0339000Y0196357D02*
X0343000Y0196357D01*
X0343000Y0195159D02*
X0339000Y0195159D01*
X0339000Y0193960D02*
X0343000Y0193960D01*
X0343000Y0192762D02*
X0339000Y0192762D01*
X0339000Y0191563D02*
X0343000Y0191563D01*
X0343000Y0190365D02*
X0339000Y0190365D01*
X0339000Y0189166D02*
X0343000Y0189166D01*
X0343000Y0187968D02*
X0339000Y0187968D01*
X0339000Y0186769D02*
X0343000Y0186769D01*
X0343000Y0185571D02*
X0339000Y0185571D01*
X0339000Y0184372D02*
X0343000Y0184372D01*
X0343000Y0183174D02*
X0339000Y0183174D01*
X0339000Y0181975D02*
X0343000Y0181975D01*
X0343000Y0180777D02*
X0339000Y0180777D01*
X0339000Y0179578D02*
X0343000Y0179578D01*
X0343000Y0178380D02*
X0339000Y0178380D01*
X0339000Y0177181D02*
X0343000Y0177181D01*
X0343000Y0175983D02*
X0339000Y0175983D01*
X0339000Y0174784D02*
X0343000Y0174784D01*
X0343000Y0173586D02*
X0339000Y0173586D01*
X0339000Y0172387D02*
X0343000Y0172387D01*
X0343000Y0171189D02*
X0339000Y0171189D01*
X0339000Y0169990D02*
X0343000Y0169990D01*
X0343000Y0168792D02*
X0339000Y0168792D01*
X0338561Y0167593D02*
X0343000Y0167593D01*
X0343000Y0166395D02*
X0337387Y0166395D01*
X0335820Y0165196D02*
X0343000Y0165196D01*
X0349000Y0165196D02*
X0351852Y0165196D01*
X0352658Y0166002D02*
X0350998Y0164342D01*
X0350100Y0162174D01*
X0350100Y0159826D01*
X0350998Y0157658D01*
X0352658Y0155998D01*
X0354826Y0155100D01*
X0357174Y0155100D01*
X0359342Y0155998D01*
X0361002Y0157658D01*
X0361900Y0159826D01*
X0361900Y0162174D01*
X0361002Y0164342D01*
X0359342Y0166002D01*
X0359000Y0166143D01*
X0359000Y0240095D01*
X0359900Y0240994D01*
X0360600Y0242685D01*
X0360600Y0249315D01*
X0359900Y0251006D01*
X0358606Y0252300D01*
X0356915Y0253000D01*
X0355085Y0253000D01*
X0353394Y0252300D01*
X0352100Y0251006D01*
X0351400Y0249315D01*
X0351400Y0242685D01*
X0352100Y0240994D01*
X0353000Y0240095D01*
X0353000Y0166143D01*
X0352658Y0166002D01*
X0353000Y0166395D02*
X0349000Y0166395D01*
X0349000Y0167593D02*
X0353000Y0167593D01*
X0353000Y0168792D02*
X0349000Y0168792D01*
X0349000Y0169990D02*
X0353000Y0169990D01*
X0353000Y0171189D02*
X0349000Y0171189D01*
X0349000Y0172387D02*
X0353000Y0172387D01*
X0353000Y0173586D02*
X0349000Y0173586D01*
X0349000Y0174784D02*
X0353000Y0174784D01*
X0353000Y0175983D02*
X0349000Y0175983D01*
X0349000Y0177181D02*
X0353000Y0177181D01*
X0353000Y0178380D02*
X0349000Y0178380D01*
X0349000Y0179578D02*
X0353000Y0179578D01*
X0353000Y0180777D02*
X0349000Y0180777D01*
X0349000Y0181975D02*
X0353000Y0181975D01*
X0353000Y0183174D02*
X0349000Y0183174D01*
X0349000Y0184372D02*
X0353000Y0184372D01*
X0353000Y0185571D02*
X0349000Y0185571D01*
X0349000Y0186769D02*
X0353000Y0186769D01*
X0353000Y0187968D02*
X0349000Y0187968D01*
X0349000Y0189166D02*
X0353000Y0189166D01*
X0353000Y0190365D02*
X0349000Y0190365D01*
X0349000Y0191563D02*
X0353000Y0191563D01*
X0353000Y0192762D02*
X0349000Y0192762D01*
X0349000Y0193960D02*
X0353000Y0193960D01*
X0353000Y0195159D02*
X0349000Y0195159D01*
X0349000Y0196357D02*
X0353000Y0196357D01*
X0353000Y0197556D02*
X0349000Y0197556D01*
X0349000Y0198754D02*
X0353000Y0198754D01*
X0353000Y0199953D02*
X0349000Y0199953D01*
X0349000Y0201151D02*
X0353000Y0201151D01*
X0353000Y0202350D02*
X0349000Y0202350D01*
X0349000Y0203548D02*
X0353000Y0203548D01*
X0353000Y0204747D02*
X0349000Y0204747D01*
X0349000Y0205945D02*
X0353000Y0205945D01*
X0353000Y0207144D02*
X0349000Y0207144D01*
X0349000Y0208342D02*
X0353000Y0208342D01*
X0353000Y0209541D02*
X0349000Y0209541D01*
X0349000Y0210739D02*
X0353000Y0210739D01*
X0353000Y0211938D02*
X0349000Y0211938D01*
X0349000Y0213137D02*
X0353000Y0213137D01*
X0353000Y0214335D02*
X0349000Y0214335D01*
X0349000Y0215534D02*
X0353000Y0215534D01*
X0353000Y0216732D02*
X0349000Y0216732D01*
X0349000Y0217931D02*
X0353000Y0217931D01*
X0353000Y0219129D02*
X0349000Y0219129D01*
X0349000Y0220328D02*
X0353000Y0220328D01*
X0353000Y0221526D02*
X0349000Y0221526D01*
X0349000Y0222725D02*
X0353000Y0222725D01*
X0353000Y0223923D02*
X0349000Y0223923D01*
X0349000Y0225122D02*
X0353000Y0225122D01*
X0353000Y0226320D02*
X0349000Y0226320D01*
X0349000Y0227519D02*
X0353000Y0227519D01*
X0353000Y0228717D02*
X0349000Y0228717D01*
X0349000Y0229916D02*
X0353000Y0229916D01*
X0353000Y0231114D02*
X0349000Y0231114D01*
X0349000Y0232313D02*
X0353000Y0232313D01*
X0353000Y0233511D02*
X0349000Y0233511D01*
X0349000Y0234710D02*
X0353000Y0234710D01*
X0353000Y0235908D02*
X0349000Y0235908D01*
X0349000Y0237107D02*
X0353000Y0237107D01*
X0353000Y0238305D02*
X0349000Y0238305D01*
X0349000Y0239504D02*
X0353000Y0239504D01*
X0352392Y0240702D02*
X0349608Y0240702D01*
X0350275Y0241901D02*
X0351725Y0241901D01*
X0351400Y0243099D02*
X0350600Y0243099D01*
X0350600Y0244298D02*
X0351400Y0244298D01*
X0351400Y0245496D02*
X0350600Y0245496D01*
X0350600Y0246695D02*
X0351400Y0246695D01*
X0351400Y0247893D02*
X0350600Y0247893D01*
X0350600Y0249092D02*
X0351400Y0249092D01*
X0351804Y0250290D02*
X0350196Y0250290D01*
X0349416Y0251489D02*
X0352583Y0251489D01*
X0354330Y0252687D02*
X0347670Y0252687D01*
X0357670Y0252687D02*
X0392501Y0252687D01*
X0392501Y0251489D02*
X0359416Y0251489D01*
X0360196Y0250290D02*
X0392501Y0250290D01*
X0392501Y0249092D02*
X0360600Y0249092D01*
X0360600Y0247893D02*
X0392501Y0247893D01*
X0392501Y0246695D02*
X0360600Y0246695D01*
X0360600Y0245496D02*
X0392501Y0245496D01*
X0392501Y0244298D02*
X0360600Y0244298D01*
X0360600Y0243099D02*
X0392501Y0243099D01*
X0392501Y0241901D02*
X0360275Y0241901D01*
X0359608Y0240702D02*
X0392501Y0240702D01*
X0392501Y0239504D02*
X0359000Y0239504D01*
X0359000Y0238305D02*
X0392501Y0238305D01*
X0392501Y0237107D02*
X0359000Y0237107D01*
X0359000Y0235908D02*
X0392501Y0235908D01*
X0392501Y0234710D02*
X0359000Y0234710D01*
X0359000Y0233511D02*
X0392501Y0233511D01*
X0392501Y0232313D02*
X0359000Y0232313D01*
X0359000Y0231114D02*
X0392501Y0231114D01*
X0392501Y0229916D02*
X0359000Y0229916D01*
X0359000Y0228717D02*
X0392501Y0228717D01*
X0392501Y0227519D02*
X0359000Y0227519D01*
X0359000Y0226320D02*
X0392501Y0226320D01*
X0392501Y0225122D02*
X0359000Y0225122D01*
X0359000Y0223923D02*
X0392501Y0223923D01*
X0392501Y0222725D02*
X0359000Y0222725D01*
X0359000Y0221526D02*
X0392501Y0221526D01*
X0392501Y0220328D02*
X0359000Y0220328D01*
X0359000Y0219129D02*
X0392501Y0219129D01*
X0392501Y0217931D02*
X0359000Y0217931D01*
X0359000Y0216732D02*
X0392501Y0216732D01*
X0392501Y0215534D02*
X0359000Y0215534D01*
X0359000Y0214335D02*
X0392501Y0214335D01*
X0392501Y0213137D02*
X0359000Y0213137D01*
X0359000Y0211938D02*
X0392501Y0211938D01*
X0392501Y0210739D02*
X0359000Y0210739D01*
X0359000Y0209541D02*
X0392501Y0209541D01*
X0392501Y0208342D02*
X0359000Y0208342D01*
X0359000Y0207144D02*
X0392501Y0207144D01*
X0392501Y0205945D02*
X0359000Y0205945D01*
X0359000Y0204747D02*
X0392501Y0204747D01*
X0392501Y0203548D02*
X0359000Y0203548D01*
X0359000Y0202350D02*
X0392501Y0202350D01*
X0392501Y0201151D02*
X0359000Y0201151D01*
X0359000Y0199953D02*
X0392501Y0199953D01*
X0392501Y0198754D02*
X0359000Y0198754D01*
X0359000Y0197556D02*
X0392501Y0197556D01*
X0392501Y0196357D02*
X0359000Y0196357D01*
X0359000Y0195159D02*
X0392501Y0195159D01*
X0392501Y0193960D02*
X0359000Y0193960D01*
X0359000Y0192762D02*
X0392501Y0192762D01*
X0392501Y0191563D02*
X0359000Y0191563D01*
X0359000Y0190365D02*
X0392501Y0190365D01*
X0392501Y0189166D02*
X0359000Y0189166D01*
X0359000Y0187968D02*
X0392501Y0187968D01*
X0392501Y0186769D02*
X0359000Y0186769D01*
X0359000Y0185571D02*
X0392501Y0185571D01*
X0392501Y0184372D02*
X0359000Y0184372D01*
X0359000Y0183174D02*
X0392501Y0183174D01*
X0392501Y0181975D02*
X0359000Y0181975D01*
X0359000Y0180777D02*
X0392501Y0180777D01*
X0392501Y0179578D02*
X0359000Y0179578D01*
X0359000Y0178380D02*
X0392501Y0178380D01*
X0392501Y0177181D02*
X0359000Y0177181D01*
X0359000Y0175983D02*
X0392501Y0175983D01*
X0392501Y0174784D02*
X0359000Y0174784D01*
X0359000Y0173586D02*
X0392501Y0173586D01*
X0392501Y0172387D02*
X0359000Y0172387D01*
X0359000Y0171189D02*
X0392501Y0171189D01*
X0392501Y0169990D02*
X0359000Y0169990D01*
X0359000Y0168792D02*
X0392501Y0168792D01*
X0392501Y0167593D02*
X0359000Y0167593D01*
X0359000Y0166395D02*
X0392501Y0166395D01*
X0392501Y0165196D02*
X0360148Y0165196D01*
X0361144Y0163998D02*
X0392501Y0163998D01*
X0392501Y0162799D02*
X0361641Y0162799D01*
X0361900Y0161601D02*
X0392501Y0161601D01*
X0392501Y0160402D02*
X0361900Y0160402D01*
X0361642Y0159203D02*
X0392501Y0159203D01*
X0392501Y0158005D02*
X0361146Y0158005D01*
X0360150Y0156806D02*
X0392501Y0156806D01*
X0392501Y0155608D02*
X0358400Y0155608D01*
X0353600Y0155608D02*
X0318400Y0155608D01*
X0320150Y0156806D02*
X0351850Y0156806D01*
X0350854Y0158005D02*
X0345359Y0158005D01*
X0347196Y0159203D02*
X0350358Y0159203D01*
X0350100Y0160402D02*
X0348395Y0160402D01*
X0348978Y0161601D02*
X0350100Y0161601D01*
X0350359Y0162799D02*
X0349000Y0162799D01*
X0349000Y0163998D02*
X0350856Y0163998D01*
X0333000Y0171189D02*
X0328808Y0171189D01*
X0329000Y0172387D02*
X0333000Y0172387D01*
X0333000Y0173586D02*
X0329000Y0173586D01*
X0329000Y0174784D02*
X0333000Y0174784D01*
X0333000Y0175983D02*
X0329000Y0175983D01*
X0329000Y0177181D02*
X0333000Y0177181D01*
X0333000Y0178380D02*
X0329000Y0178380D01*
X0329000Y0179578D02*
X0333000Y0179578D01*
X0333000Y0180777D02*
X0329000Y0180777D01*
X0329000Y0181975D02*
X0333000Y0181975D01*
X0333000Y0183174D02*
X0329000Y0183174D01*
X0329000Y0184372D02*
X0333000Y0184372D01*
X0333000Y0185571D02*
X0329000Y0185571D01*
X0329000Y0186769D02*
X0333000Y0186769D01*
X0333000Y0187968D02*
X0329000Y0187968D01*
X0329000Y0189166D02*
X0333000Y0189166D01*
X0333000Y0190365D02*
X0329000Y0190365D01*
X0329000Y0191563D02*
X0333000Y0191563D01*
X0333000Y0192762D02*
X0329000Y0192762D01*
X0329000Y0193960D02*
X0333000Y0193960D01*
X0333000Y0195159D02*
X0329000Y0195159D01*
X0329000Y0196357D02*
X0333000Y0196357D01*
X0333000Y0197556D02*
X0329000Y0197556D01*
X0329000Y0198754D02*
X0333000Y0198754D01*
X0333000Y0199953D02*
X0329000Y0199953D01*
X0329000Y0201151D02*
X0333000Y0201151D01*
X0333000Y0202350D02*
X0329000Y0202350D01*
X0329000Y0203548D02*
X0333000Y0203548D01*
X0333000Y0204747D02*
X0329000Y0204747D01*
X0329000Y0205945D02*
X0333000Y0205945D01*
X0333000Y0207144D02*
X0329000Y0207144D01*
X0329000Y0208342D02*
X0333000Y0208342D01*
X0333000Y0209541D02*
X0329000Y0209541D01*
X0329000Y0210739D02*
X0333000Y0210739D01*
X0333000Y0211938D02*
X0329000Y0211938D01*
X0329000Y0213137D02*
X0333000Y0213137D01*
X0333000Y0214335D02*
X0329000Y0214335D01*
X0329000Y0215534D02*
X0333000Y0215534D01*
X0333000Y0216732D02*
X0329000Y0216732D01*
X0329000Y0217931D02*
X0333000Y0217931D01*
X0333000Y0219129D02*
X0329000Y0219129D01*
X0329000Y0220328D02*
X0333000Y0220328D01*
X0333000Y0221526D02*
X0329000Y0221526D01*
X0329000Y0222725D02*
X0333000Y0222725D01*
X0333000Y0223923D02*
X0329000Y0223923D01*
X0329000Y0225122D02*
X0333000Y0225122D01*
X0333000Y0226320D02*
X0329000Y0226320D01*
X0329000Y0227519D02*
X0333000Y0227519D01*
X0333000Y0228717D02*
X0329000Y0228717D01*
X0329000Y0229916D02*
X0333000Y0229916D01*
X0333000Y0231114D02*
X0329000Y0231114D01*
X0329000Y0232313D02*
X0333000Y0232313D01*
X0333000Y0233511D02*
X0329000Y0233511D01*
X0329000Y0234710D02*
X0333000Y0234710D01*
X0333000Y0235908D02*
X0329000Y0235908D01*
X0329000Y0237107D02*
X0333000Y0237107D01*
X0333000Y0238305D02*
X0329000Y0238305D01*
X0329000Y0239504D02*
X0333000Y0239504D01*
X0332392Y0240702D02*
X0329608Y0240702D01*
X0330275Y0241901D02*
X0331725Y0241901D01*
X0331400Y0243099D02*
X0330600Y0243099D01*
X0330600Y0244298D02*
X0331400Y0244298D01*
X0331400Y0245496D02*
X0330600Y0245496D01*
X0330600Y0246695D02*
X0331400Y0246695D01*
X0331400Y0247893D02*
X0330600Y0247893D01*
X0330600Y0249092D02*
X0331400Y0249092D01*
X0331804Y0250290D02*
X0330196Y0250290D01*
X0329416Y0251489D02*
X0332583Y0251489D01*
X0334330Y0252687D02*
X0327670Y0252687D01*
X0324330Y0252687D02*
X0317670Y0252687D01*
X0319416Y0251489D02*
X0322583Y0251489D01*
X0321804Y0250290D02*
X0320196Y0250290D01*
X0320600Y0249092D02*
X0321400Y0249092D01*
X0321400Y0247893D02*
X0320600Y0247893D01*
X0320600Y0246695D02*
X0321400Y0246695D01*
X0321400Y0245496D02*
X0320600Y0245496D01*
X0320600Y0244298D02*
X0321400Y0244298D01*
X0321400Y0243099D02*
X0320600Y0243099D01*
X0320275Y0241901D02*
X0321725Y0241901D01*
X0322392Y0240702D02*
X0319608Y0240702D01*
X0319000Y0239504D02*
X0323000Y0239504D01*
X0323000Y0238305D02*
X0319000Y0238305D01*
X0319000Y0237107D02*
X0323000Y0237107D01*
X0323000Y0235908D02*
X0319000Y0235908D01*
X0319000Y0234710D02*
X0323000Y0234710D01*
X0323000Y0233511D02*
X0319000Y0233511D01*
X0319000Y0232313D02*
X0323000Y0232313D01*
X0323000Y0231114D02*
X0319000Y0231114D01*
X0319000Y0229916D02*
X0323000Y0229916D01*
X0323000Y0228717D02*
X0319000Y0228717D01*
X0319000Y0227519D02*
X0323000Y0227519D01*
X0323000Y0226320D02*
X0319000Y0226320D01*
X0319000Y0225122D02*
X0323000Y0225122D01*
X0323000Y0223923D02*
X0319000Y0223923D01*
X0319000Y0222725D02*
X0323000Y0222725D01*
X0323000Y0221526D02*
X0319000Y0221526D01*
X0319000Y0220328D02*
X0323000Y0220328D01*
X0323000Y0219129D02*
X0319000Y0219129D01*
X0319000Y0217931D02*
X0323000Y0217931D01*
X0323000Y0216732D02*
X0319000Y0216732D01*
X0319000Y0215534D02*
X0323000Y0215534D01*
X0323000Y0214335D02*
X0319000Y0214335D01*
X0319000Y0213137D02*
X0323000Y0213137D01*
X0323000Y0211938D02*
X0319000Y0211938D01*
X0319000Y0210739D02*
X0323000Y0210739D01*
X0323000Y0209541D02*
X0319000Y0209541D01*
X0319000Y0208342D02*
X0323000Y0208342D01*
X0323000Y0207144D02*
X0319000Y0207144D01*
X0319000Y0205945D02*
X0323000Y0205945D01*
X0323000Y0204747D02*
X0319000Y0204747D01*
X0319000Y0203548D02*
X0323000Y0203548D01*
X0323000Y0202350D02*
X0319000Y0202350D01*
X0319000Y0201151D02*
X0323000Y0201151D01*
X0323000Y0199953D02*
X0319000Y0199953D01*
X0319000Y0198754D02*
X0323000Y0198754D01*
X0323000Y0197556D02*
X0319000Y0197556D01*
X0319000Y0196357D02*
X0323000Y0196357D01*
X0323000Y0195159D02*
X0319000Y0195159D01*
X0319000Y0193960D02*
X0323000Y0193960D01*
X0323000Y0192762D02*
X0319000Y0192762D01*
X0319000Y0191563D02*
X0323000Y0191563D01*
X0323000Y0190365D02*
X0319000Y0190365D01*
X0319000Y0189166D02*
X0323000Y0189166D01*
X0323000Y0187968D02*
X0319000Y0187968D01*
X0319000Y0186769D02*
X0323000Y0186769D01*
X0323000Y0185571D02*
X0319000Y0185571D01*
X0319000Y0184372D02*
X0323000Y0184372D01*
X0323000Y0183174D02*
X0319000Y0183174D01*
X0319000Y0181975D02*
X0323000Y0181975D01*
X0323000Y0180777D02*
X0319000Y0180777D01*
X0319000Y0179578D02*
X0323000Y0179578D01*
X0323000Y0178380D02*
X0319000Y0178380D01*
X0319000Y0177181D02*
X0323000Y0177181D01*
X0323000Y0175983D02*
X0319000Y0175983D01*
X0319000Y0174784D02*
X0323000Y0174784D01*
X0313000Y0177181D02*
X0308804Y0177181D01*
X0309000Y0178380D02*
X0313000Y0178380D01*
X0313000Y0179578D02*
X0309000Y0179578D01*
X0309000Y0180777D02*
X0313000Y0180777D01*
X0313000Y0181975D02*
X0309000Y0181975D01*
X0309000Y0183174D02*
X0313000Y0183174D01*
X0313000Y0184372D02*
X0309000Y0184372D01*
X0309000Y0185571D02*
X0313000Y0185571D01*
X0313000Y0186769D02*
X0309000Y0186769D01*
X0309000Y0187968D02*
X0313000Y0187968D01*
X0313000Y0189166D02*
X0309000Y0189166D01*
X0309000Y0190365D02*
X0313000Y0190365D01*
X0313000Y0191563D02*
X0309000Y0191563D01*
X0309000Y0192762D02*
X0313000Y0192762D01*
X0313000Y0193960D02*
X0309000Y0193960D01*
X0309000Y0195159D02*
X0313000Y0195159D01*
X0313000Y0196357D02*
X0309000Y0196357D01*
X0309000Y0197556D02*
X0313000Y0197556D01*
X0313000Y0198754D02*
X0309000Y0198754D01*
X0309000Y0199953D02*
X0313000Y0199953D01*
X0313000Y0201151D02*
X0309000Y0201151D01*
X0309000Y0202350D02*
X0313000Y0202350D01*
X0313000Y0203548D02*
X0309000Y0203548D01*
X0309000Y0204747D02*
X0313000Y0204747D01*
X0313000Y0205945D02*
X0309000Y0205945D01*
X0309000Y0207144D02*
X0313000Y0207144D01*
X0313000Y0208342D02*
X0309000Y0208342D01*
X0309000Y0209541D02*
X0313000Y0209541D01*
X0313000Y0210739D02*
X0309000Y0210739D01*
X0309000Y0211938D02*
X0313000Y0211938D01*
X0313000Y0213137D02*
X0309000Y0213137D01*
X0309000Y0214335D02*
X0313000Y0214335D01*
X0313000Y0215534D02*
X0309000Y0215534D01*
X0309000Y0216732D02*
X0313000Y0216732D01*
X0313000Y0217931D02*
X0309000Y0217931D01*
X0309000Y0219129D02*
X0313000Y0219129D01*
X0313000Y0220328D02*
X0309000Y0220328D01*
X0309000Y0221526D02*
X0313000Y0221526D01*
X0313000Y0222725D02*
X0309000Y0222725D01*
X0309000Y0223923D02*
X0313000Y0223923D01*
X0313000Y0225122D02*
X0309000Y0225122D01*
X0309000Y0226320D02*
X0313000Y0226320D01*
X0313000Y0227519D02*
X0309000Y0227519D01*
X0309000Y0228717D02*
X0313000Y0228717D01*
X0313000Y0229916D02*
X0309000Y0229916D01*
X0309000Y0231114D02*
X0313000Y0231114D01*
X0313000Y0232313D02*
X0309000Y0232313D01*
X0309000Y0233511D02*
X0313000Y0233511D01*
X0313000Y0234710D02*
X0309000Y0234710D01*
X0309000Y0235908D02*
X0313000Y0235908D01*
X0313000Y0237107D02*
X0309000Y0237107D01*
X0309000Y0238305D02*
X0313000Y0238305D01*
X0313000Y0239504D02*
X0309000Y0239504D01*
X0309608Y0240702D02*
X0312392Y0240702D01*
X0311725Y0241901D02*
X0310275Y0241901D01*
X0310600Y0243099D02*
X0311400Y0243099D01*
X0311400Y0244298D02*
X0310600Y0244298D01*
X0310600Y0245496D02*
X0311400Y0245496D01*
X0311400Y0246695D02*
X0310600Y0246695D01*
X0310600Y0247893D02*
X0311400Y0247893D01*
X0311400Y0249092D02*
X0310600Y0249092D01*
X0310196Y0250290D02*
X0311804Y0250290D01*
X0312583Y0251489D02*
X0309416Y0251489D01*
X0307670Y0252687D02*
X0314330Y0252687D01*
X0304330Y0252687D02*
X0297670Y0252687D01*
X0299416Y0251489D02*
X0302583Y0251489D01*
X0301804Y0250290D02*
X0300196Y0250290D01*
X0300600Y0249092D02*
X0301400Y0249092D01*
X0301400Y0247893D02*
X0300600Y0247893D01*
X0300600Y0246695D02*
X0301400Y0246695D01*
X0301400Y0245496D02*
X0300600Y0245496D01*
X0300600Y0244298D02*
X0301400Y0244298D01*
X0301400Y0243099D02*
X0300600Y0243099D01*
X0300275Y0241901D02*
X0301725Y0241901D01*
X0302392Y0240702D02*
X0299608Y0240702D01*
X0299000Y0239504D02*
X0303000Y0239504D01*
X0303000Y0238305D02*
X0299000Y0238305D01*
X0299000Y0237107D02*
X0303000Y0237107D01*
X0303000Y0235908D02*
X0299000Y0235908D01*
X0299000Y0234710D02*
X0303000Y0234710D01*
X0303000Y0233511D02*
X0299000Y0233511D01*
X0299000Y0232313D02*
X0303000Y0232313D01*
X0303000Y0231114D02*
X0299000Y0231114D01*
X0299000Y0229916D02*
X0303000Y0229916D01*
X0303000Y0228717D02*
X0299000Y0228717D01*
X0299000Y0227519D02*
X0303000Y0227519D01*
X0303000Y0226320D02*
X0299000Y0226320D01*
X0299000Y0225122D02*
X0303000Y0225122D01*
X0303000Y0223923D02*
X0299000Y0223923D01*
X0299000Y0222725D02*
X0303000Y0222725D01*
X0303000Y0221526D02*
X0299000Y0221526D01*
X0299000Y0220328D02*
X0303000Y0220328D01*
X0303000Y0219129D02*
X0299000Y0219129D01*
X0299000Y0217931D02*
X0303000Y0217931D01*
X0303000Y0216732D02*
X0299000Y0216732D01*
X0299000Y0215534D02*
X0303000Y0215534D01*
X0303000Y0214335D02*
X0299000Y0214335D01*
X0299000Y0213137D02*
X0303000Y0213137D01*
X0303000Y0211938D02*
X0299000Y0211938D01*
X0299000Y0210739D02*
X0303000Y0210739D01*
X0303000Y0209541D02*
X0299000Y0209541D01*
X0299000Y0208342D02*
X0303000Y0208342D01*
X0303000Y0207144D02*
X0299000Y0207144D01*
X0299000Y0205945D02*
X0303000Y0205945D01*
X0303000Y0204747D02*
X0299000Y0204747D01*
X0299000Y0203548D02*
X0303000Y0203548D01*
X0303000Y0202350D02*
X0299000Y0202350D01*
X0299000Y0201151D02*
X0303000Y0201151D01*
X0303000Y0199953D02*
X0299000Y0199953D01*
X0299000Y0198754D02*
X0303000Y0198754D01*
X0303000Y0197556D02*
X0299000Y0197556D01*
X0299000Y0196357D02*
X0303000Y0196357D01*
X0303000Y0195159D02*
X0299000Y0195159D01*
X0299000Y0193960D02*
X0303000Y0193960D01*
X0303000Y0192762D02*
X0299000Y0192762D01*
X0299000Y0191563D02*
X0303000Y0191563D01*
X0303000Y0190365D02*
X0299000Y0190365D01*
X0299000Y0189166D02*
X0303000Y0189166D01*
X0303000Y0187968D02*
X0299000Y0187968D01*
X0299000Y0186769D02*
X0303000Y0186769D01*
X0303000Y0185571D02*
X0299000Y0185571D01*
X0299000Y0184372D02*
X0303000Y0184372D01*
X0303000Y0183174D02*
X0299000Y0183174D01*
X0299000Y0181975D02*
X0303000Y0181975D01*
X0303000Y0180777D02*
X0299000Y0180777D01*
X0293000Y0183174D02*
X0288801Y0183174D01*
X0289000Y0184372D02*
X0293000Y0184372D01*
X0293000Y0185571D02*
X0289000Y0185571D01*
X0289000Y0186769D02*
X0293000Y0186769D01*
X0293000Y0187968D02*
X0289000Y0187968D01*
X0289000Y0189166D02*
X0293000Y0189166D01*
X0293000Y0190365D02*
X0289000Y0190365D01*
X0289000Y0191563D02*
X0293000Y0191563D01*
X0293000Y0192762D02*
X0289000Y0192762D01*
X0289000Y0193960D02*
X0293000Y0193960D01*
X0293000Y0195159D02*
X0289000Y0195159D01*
X0289000Y0196357D02*
X0293000Y0196357D01*
X0293000Y0197556D02*
X0289000Y0197556D01*
X0289000Y0198754D02*
X0293000Y0198754D01*
X0293000Y0199953D02*
X0289000Y0199953D01*
X0289000Y0201151D02*
X0293000Y0201151D01*
X0293000Y0202350D02*
X0289000Y0202350D01*
X0289000Y0203548D02*
X0293000Y0203548D01*
X0293000Y0204747D02*
X0289000Y0204747D01*
X0289000Y0205945D02*
X0293000Y0205945D01*
X0293000Y0207144D02*
X0289000Y0207144D01*
X0289000Y0208342D02*
X0293000Y0208342D01*
X0293000Y0209541D02*
X0289000Y0209541D01*
X0289000Y0210739D02*
X0293000Y0210739D01*
X0293000Y0211938D02*
X0289000Y0211938D01*
X0289000Y0213137D02*
X0293000Y0213137D01*
X0293000Y0214335D02*
X0289000Y0214335D01*
X0289000Y0215534D02*
X0293000Y0215534D01*
X0293000Y0216732D02*
X0289000Y0216732D01*
X0289000Y0217931D02*
X0293000Y0217931D01*
X0293000Y0219129D02*
X0289000Y0219129D01*
X0289000Y0220328D02*
X0293000Y0220328D01*
X0293000Y0221526D02*
X0289000Y0221526D01*
X0289000Y0222725D02*
X0293000Y0222725D01*
X0293000Y0223923D02*
X0289000Y0223923D01*
X0289000Y0225122D02*
X0293000Y0225122D01*
X0293000Y0226320D02*
X0289000Y0226320D01*
X0289000Y0227519D02*
X0293000Y0227519D01*
X0293000Y0228717D02*
X0289000Y0228717D01*
X0289000Y0229916D02*
X0293000Y0229916D01*
X0293000Y0231114D02*
X0289000Y0231114D01*
X0289000Y0232313D02*
X0293000Y0232313D01*
X0293000Y0233511D02*
X0289000Y0233511D01*
X0289000Y0234710D02*
X0293000Y0234710D01*
X0293000Y0235908D02*
X0289000Y0235908D01*
X0289000Y0237107D02*
X0293000Y0237107D01*
X0293000Y0238305D02*
X0289000Y0238305D01*
X0289000Y0239504D02*
X0293000Y0239504D01*
X0292392Y0240702D02*
X0289608Y0240702D01*
X0290275Y0241901D02*
X0291725Y0241901D01*
X0291400Y0243099D02*
X0290600Y0243099D01*
X0290600Y0244298D02*
X0291400Y0244298D01*
X0291400Y0245496D02*
X0290600Y0245496D01*
X0290600Y0246695D02*
X0291400Y0246695D01*
X0291400Y0247893D02*
X0290600Y0247893D01*
X0290600Y0249092D02*
X0291400Y0249092D01*
X0291804Y0250290D02*
X0290196Y0250290D01*
X0289416Y0251489D02*
X0292583Y0251489D01*
X0294330Y0252687D02*
X0287670Y0252687D01*
X0284330Y0252687D02*
X0277670Y0252687D01*
X0279416Y0251489D02*
X0282583Y0251489D01*
X0281804Y0250290D02*
X0280196Y0250290D01*
X0280600Y0249092D02*
X0281400Y0249092D01*
X0281400Y0247893D02*
X0280600Y0247893D01*
X0280600Y0246695D02*
X0281400Y0246695D01*
X0281400Y0245496D02*
X0280600Y0245496D01*
X0280600Y0244298D02*
X0281400Y0244298D01*
X0281400Y0243099D02*
X0280600Y0243099D01*
X0280275Y0241901D02*
X0281725Y0241901D01*
X0282392Y0240702D02*
X0279608Y0240702D01*
X0278131Y0239504D02*
X0283000Y0239504D01*
X0283000Y0238305D02*
X0273856Y0238305D01*
X0273099Y0237107D02*
X0283000Y0237107D01*
X0283000Y0235908D02*
X0271901Y0235908D01*
X0270777Y0234710D02*
X0283000Y0234710D01*
X0283000Y0233511D02*
X0271273Y0233511D01*
X0271450Y0232313D02*
X0283000Y0232313D01*
X0283000Y0231114D02*
X0271450Y0231114D01*
X0271036Y0229916D02*
X0283000Y0229916D01*
X0283000Y0228717D02*
X0270425Y0228717D01*
X0269800Y0227519D02*
X0283000Y0227519D01*
X0283000Y0226320D02*
X0269800Y0226320D01*
X0269800Y0225122D02*
X0283000Y0225122D01*
X0283000Y0223923D02*
X0269800Y0223923D01*
X0269800Y0222725D02*
X0283000Y0222725D01*
X0283000Y0221526D02*
X0269800Y0221526D01*
X0269800Y0220328D02*
X0283000Y0220328D01*
X0283000Y0219129D02*
X0269800Y0219129D01*
X0269800Y0217931D02*
X0283000Y0217931D01*
X0283000Y0216732D02*
X0269800Y0216732D01*
X0269800Y0215534D02*
X0283000Y0215534D01*
X0283000Y0214335D02*
X0269800Y0214335D01*
X0269800Y0213137D02*
X0283000Y0213137D01*
X0283000Y0211938D02*
X0269800Y0211938D01*
X0270872Y0210739D02*
X0283000Y0210739D01*
X0283000Y0209541D02*
X0271450Y0209541D01*
X0271450Y0208342D02*
X0283000Y0208342D01*
X0283000Y0207144D02*
X0271450Y0207144D01*
X0271450Y0205945D02*
X0283000Y0205945D01*
X0283000Y0204747D02*
X0271450Y0204747D01*
X0271450Y0203548D02*
X0283000Y0203548D01*
X0283000Y0202350D02*
X0271450Y0202350D01*
X0270763Y0201151D02*
X0283000Y0201151D01*
X0283000Y0199953D02*
X0269800Y0199953D01*
X0269701Y0198754D02*
X0283000Y0198754D01*
X0283000Y0197556D02*
X0269180Y0197556D01*
X0267981Y0196357D02*
X0283000Y0196357D01*
X0283000Y0195159D02*
X0266614Y0195159D01*
X0260550Y0202350D02*
X0250378Y0202350D01*
X0249857Y0203548D02*
X0260550Y0203548D01*
X0260550Y0204747D02*
X0248658Y0204747D01*
X0246449Y0208857D02*
X0247293Y0209701D01*
X0248543Y0210951D01*
X0249000Y0212053D01*
X0249000Y0222595D01*
X0249900Y0223494D01*
X0250600Y0225185D01*
X0250600Y0231815D01*
X0249900Y0233506D01*
X0249000Y0234405D01*
X0249000Y0240095D01*
X0249900Y0240994D01*
X0250600Y0242685D01*
X0250600Y0249315D01*
X0249900Y0251006D01*
X0248606Y0252300D01*
X0246915Y0253000D01*
X0245085Y0253000D01*
X0243394Y0252300D01*
X0242100Y0251006D01*
X0241400Y0249315D01*
X0241400Y0242685D01*
X0242100Y0240994D01*
X0243000Y0240095D01*
X0243000Y0234405D01*
X0242100Y0233506D01*
X0241400Y0231815D01*
X0241400Y0225185D01*
X0242100Y0223494D01*
X0243000Y0222595D01*
X0243000Y0214400D01*
X0211543Y0214400D01*
X0211402Y0214742D01*
X0210144Y0216000D01*
X0235347Y0216000D01*
X0236449Y0216457D01*
X0237293Y0217301D01*
X0238543Y0218551D01*
X0239000Y0219653D01*
X0239000Y0222595D01*
X0239900Y0223494D01*
X0240600Y0225185D01*
X0240600Y0231815D01*
X0239900Y0233506D01*
X0239000Y0234405D01*
X0239000Y0240095D01*
X0239900Y0240994D01*
X0240600Y0242685D01*
X0240600Y0249315D01*
X0239900Y0251006D01*
X0238606Y0252300D01*
X0236915Y0253000D01*
X0235085Y0253000D01*
X0233394Y0252300D01*
X0232100Y0251006D01*
X0231400Y0249315D01*
X0231400Y0242685D01*
X0232100Y0240994D01*
X0233000Y0240095D01*
X0233000Y0234405D01*
X0232100Y0233506D01*
X0231400Y0231815D01*
X0231400Y0225185D01*
X0232100Y0223494D01*
X0233000Y0222595D01*
X0233000Y0222000D01*
X0228122Y0222000D01*
X0228606Y0222200D01*
X0229900Y0223494D01*
X0230600Y0225185D01*
X0230600Y0231815D01*
X0229900Y0233506D01*
X0229000Y0234405D01*
X0229000Y0240095D01*
X0229900Y0240994D01*
X0230600Y0242685D01*
X0230600Y0249315D01*
X0229900Y0251006D01*
X0228606Y0252300D01*
X0226915Y0253000D01*
X0225085Y0253000D01*
X0223394Y0252300D01*
X0222100Y0251006D01*
X0221400Y0249315D01*
X0221400Y0249000D01*
X0212143Y0249000D01*
X0212002Y0249342D01*
X0210342Y0251002D01*
X0208174Y0251900D01*
X0205826Y0251900D01*
X0203658Y0251002D01*
X0201998Y0249342D01*
X0201100Y0247174D01*
X0201100Y0244826D01*
X0201998Y0242658D01*
X0203658Y0240998D01*
X0205826Y0240100D01*
X0208174Y0240100D01*
X0210342Y0240998D01*
X0212002Y0242658D01*
X0212143Y0243000D01*
X0221400Y0243000D01*
X0221400Y0242685D01*
X0222100Y0240994D01*
X0223000Y0240095D01*
X0223000Y0234405D01*
X0222100Y0233506D01*
X0221400Y0231815D01*
X0221400Y0225185D01*
X0222100Y0223494D01*
X0223394Y0222200D01*
X0223878Y0222000D01*
X0209800Y0222000D01*
X0209800Y0223657D01*
X0210142Y0223798D01*
X0211802Y0225458D01*
X0212700Y0227626D01*
X0212700Y0229974D01*
X0211802Y0232142D01*
X0210142Y0233802D01*
X0207974Y0234700D01*
X0205626Y0234700D01*
X0203458Y0233802D01*
X0201798Y0232142D01*
X0200900Y0229974D01*
X0200900Y0227626D01*
X0201798Y0225458D01*
X0203458Y0223798D01*
X0203800Y0223657D01*
X0203800Y0219653D01*
X0204257Y0218551D01*
X0205101Y0217707D01*
X0205507Y0217300D01*
X0205226Y0217300D01*
X0203058Y0216402D01*
X0201398Y0214742D01*
X0200500Y0212574D01*
X0200500Y0210226D01*
X0201398Y0208058D01*
X0203058Y0206398D01*
X0205226Y0205500D01*
X0207574Y0205500D01*
X0209742Y0206398D01*
X0211402Y0208058D01*
X0211543Y0208400D01*
X0245347Y0208400D01*
X0246449Y0208857D01*
X0247134Y0209541D02*
X0260550Y0209541D01*
X0260550Y0208342D02*
X0211520Y0208342D01*
X0210488Y0207144D02*
X0260550Y0207144D01*
X0260550Y0205945D02*
X0208649Y0205945D01*
X0204151Y0205945D02*
X0037833Y0205945D01*
X0039032Y0204747D02*
X0223342Y0204747D01*
X0222143Y0203548D02*
X0039731Y0203548D01*
X0040228Y0202350D02*
X0221622Y0202350D01*
X0228658Y0204747D02*
X0233342Y0204747D01*
X0232143Y0203548D02*
X0229857Y0203548D01*
X0230378Y0202350D02*
X0231622Y0202350D01*
X0238658Y0204747D02*
X0243342Y0204747D01*
X0242143Y0203548D02*
X0239857Y0203548D01*
X0240378Y0202350D02*
X0241622Y0202350D01*
X0241907Y0193960D02*
X0240093Y0193960D01*
X0239167Y0192762D02*
X0242833Y0192762D01*
X0244932Y0191563D02*
X0237068Y0191563D01*
X0234932Y0191563D02*
X0227068Y0191563D01*
X0224932Y0191563D02*
X0060800Y0191563D01*
X0060800Y0190365D02*
X0078253Y0190365D01*
X0077545Y0190071D02*
X0075829Y0188355D01*
X0074900Y0186113D01*
X0074900Y0175887D01*
X0075829Y0173645D01*
X0077545Y0171929D01*
X0079787Y0171000D01*
X0082213Y0171000D01*
X0084455Y0171929D01*
X0086171Y0173645D01*
X0087100Y0175887D01*
X0087100Y0186113D01*
X0086171Y0188355D01*
X0084455Y0190071D01*
X0082213Y0191000D01*
X0079787Y0191000D01*
X0077545Y0190071D01*
X0076640Y0189166D02*
X0060800Y0189166D01*
X0060800Y0187968D02*
X0075668Y0187968D01*
X0075172Y0186769D02*
X0060800Y0186769D01*
X0060800Y0185571D02*
X0074900Y0185571D01*
X0074900Y0184372D02*
X0060800Y0184372D01*
X0060800Y0183174D02*
X0074900Y0183174D01*
X0074900Y0181975D02*
X0060800Y0181975D01*
X0060800Y0180777D02*
X0074900Y0180777D01*
X0074900Y0179578D02*
X0060800Y0179578D01*
X0060800Y0178380D02*
X0074900Y0178380D01*
X0074900Y0177181D02*
X0060800Y0177181D01*
X0060653Y0175983D02*
X0074900Y0175983D01*
X0075357Y0174784D02*
X0060066Y0174784D01*
X0058867Y0173586D02*
X0075888Y0173586D01*
X0077086Y0172387D02*
X0057338Y0172387D01*
X0053200Y0180777D02*
X0037573Y0180777D01*
X0037967Y0171189D02*
X0079331Y0171189D01*
X0082669Y0171189D02*
X0104000Y0171189D01*
X0104000Y0172387D02*
X0084914Y0172387D01*
X0086112Y0173586D02*
X0104000Y0173586D01*
X0104000Y0174784D02*
X0086643Y0174784D01*
X0087100Y0175983D02*
X0104000Y0175983D01*
X0104000Y0177181D02*
X0087100Y0177181D01*
X0087100Y0178380D02*
X0104000Y0178380D01*
X0104000Y0179578D02*
X0087100Y0179578D01*
X0087100Y0180777D02*
X0104000Y0180777D01*
X0104000Y0181975D02*
X0087100Y0181975D01*
X0087100Y0183174D02*
X0104343Y0183174D01*
X0105380Y0184372D02*
X0087100Y0184372D01*
X0087100Y0185571D02*
X0106617Y0185571D01*
X0110000Y0179578D02*
X0129096Y0179578D01*
X0129000Y0178380D02*
X0110000Y0178380D01*
X0110000Y0177181D02*
X0129000Y0177181D01*
X0129000Y0175983D02*
X0110000Y0175983D01*
X0110000Y0174784D02*
X0129000Y0174784D01*
X0129000Y0173586D02*
X0110000Y0173586D01*
X0110000Y0172387D02*
X0129000Y0172387D01*
X0129000Y0171189D02*
X0110000Y0171189D01*
X0110000Y0169990D02*
X0129000Y0169990D01*
X0129000Y0168792D02*
X0110000Y0168792D01*
X0110000Y0167593D02*
X0129000Y0167593D01*
X0129000Y0166395D02*
X0110000Y0166395D01*
X0110000Y0165196D02*
X0127852Y0165196D01*
X0126856Y0163998D02*
X0110000Y0163998D01*
X0110000Y0162799D02*
X0126359Y0162799D01*
X0126100Y0161601D02*
X0109978Y0161601D01*
X0109395Y0160402D02*
X0126100Y0160402D01*
X0126358Y0159203D02*
X0108196Y0159203D01*
X0106359Y0158005D02*
X0126854Y0158005D01*
X0127850Y0156806D02*
X0080150Y0156806D01*
X0078400Y0155608D02*
X0129600Y0155608D01*
X0134400Y0155608D02*
X0153600Y0155608D01*
X0151850Y0156806D02*
X0136150Y0156806D01*
X0137146Y0158005D02*
X0150854Y0158005D01*
X0150358Y0159203D02*
X0137642Y0159203D01*
X0137900Y0160402D02*
X0150100Y0160402D01*
X0150100Y0161601D02*
X0137900Y0161601D01*
X0137641Y0162799D02*
X0150359Y0162799D01*
X0150856Y0163998D02*
X0137144Y0163998D01*
X0136148Y0165196D02*
X0151852Y0165196D01*
X0153000Y0166395D02*
X0135000Y0166395D01*
X0135000Y0167593D02*
X0153000Y0167593D01*
X0153000Y0168792D02*
X0135000Y0168792D01*
X0135000Y0169990D02*
X0153000Y0169990D01*
X0153000Y0171189D02*
X0135000Y0171189D01*
X0135000Y0172387D02*
X0153000Y0172387D01*
X0153000Y0173586D02*
X0135000Y0173586D01*
X0135000Y0174784D02*
X0153000Y0174784D01*
X0153000Y0175983D02*
X0135000Y0175983D01*
X0159000Y0173586D02*
X0193099Y0173586D01*
X0193000Y0172387D02*
X0159000Y0172387D01*
X0159000Y0171189D02*
X0193000Y0171189D01*
X0193000Y0169990D02*
X0159000Y0169990D01*
X0159000Y0168792D02*
X0193000Y0168792D01*
X0193000Y0167593D02*
X0159000Y0167593D01*
X0159000Y0166395D02*
X0193000Y0166395D01*
X0191852Y0165196D02*
X0160148Y0165196D01*
X0161144Y0163998D02*
X0190856Y0163998D01*
X0190359Y0162799D02*
X0161641Y0162799D01*
X0161900Y0161601D02*
X0190100Y0161601D01*
X0190100Y0160402D02*
X0161900Y0160402D01*
X0161642Y0159203D02*
X0190358Y0159203D01*
X0190854Y0158005D02*
X0161146Y0158005D01*
X0160150Y0156806D02*
X0191850Y0156806D01*
X0193600Y0155608D02*
X0158400Y0155608D01*
X0157174Y0126900D02*
X0154826Y0126900D01*
X0152658Y0126002D01*
X0150998Y0124342D01*
X0150857Y0124000D01*
X0150403Y0124000D01*
X0149301Y0123543D01*
X0142516Y0116758D01*
X0142174Y0116900D01*
X0139826Y0116900D01*
X0137658Y0116002D01*
X0135998Y0114342D01*
X0135100Y0112174D01*
X0135100Y0109826D01*
X0135998Y0107658D01*
X0137658Y0105998D01*
X0139826Y0105100D01*
X0142174Y0105100D01*
X0142516Y0105242D01*
X0147806Y0099951D01*
X0148592Y0098054D01*
X0150054Y0096592D01*
X0151012Y0096195D01*
X0150347Y0095530D01*
X0150054Y0095408D01*
X0148592Y0093946D01*
X0147800Y0092034D01*
X0147800Y0089966D01*
X0148592Y0088054D01*
X0150054Y0086592D01*
X0150347Y0086470D01*
X0151922Y0084896D01*
X0136200Y0084896D01*
X0136200Y0086094D02*
X0150723Y0086094D01*
X0151922Y0084896D02*
X0154568Y0083800D01*
X0161800Y0083800D01*
X0161800Y0072982D01*
X0151018Y0062200D01*
X0139568Y0062200D01*
X0136922Y0061104D01*
X0134896Y0059078D01*
X0125054Y0049236D01*
X0123957Y0046590D01*
X0123957Y0034568D01*
X0125054Y0031922D01*
X0125432Y0031543D01*
X0125432Y0031336D01*
X0126304Y0029232D01*
X0127915Y0027622D01*
X0130019Y0026750D01*
X0132296Y0026750D01*
X0134400Y0027622D01*
X0136011Y0029232D01*
X0136882Y0031336D01*
X0136882Y0031543D01*
X0137261Y0031922D01*
X0138357Y0034568D01*
X0138357Y0042175D01*
X0143982Y0047800D01*
X0155432Y0047800D01*
X0158078Y0048896D01*
X0173078Y0063896D01*
X0175104Y0065922D01*
X0176200Y0068568D01*
X0176200Y0092432D01*
X0175104Y0095078D01*
X0173078Y0097104D01*
X0170432Y0098200D01*
X0163469Y0098200D01*
X0164200Y0099966D01*
X0164200Y0102034D01*
X0163408Y0103946D01*
X0161946Y0105408D01*
X0160034Y0106200D01*
X0151966Y0106200D01*
X0150606Y0105637D01*
X0146758Y0109484D01*
X0146900Y0109826D01*
X0146900Y0112174D01*
X0146758Y0112516D01*
X0151449Y0117207D01*
X0152658Y0115998D01*
X0154826Y0115100D01*
X0157174Y0115100D01*
X0159342Y0115998D01*
X0161002Y0117658D01*
X0161900Y0119826D01*
X0161900Y0122174D01*
X0161002Y0124342D01*
X0159342Y0126002D01*
X0157174Y0126900D01*
X0157310Y0126844D02*
X0194690Y0126844D01*
X0194826Y0126900D02*
X0192658Y0126002D01*
X0190998Y0124342D01*
X0190857Y0124000D01*
X0190403Y0124000D01*
X0189301Y0123543D01*
X0182516Y0116758D01*
X0182174Y0116900D01*
X0179826Y0116900D01*
X0177658Y0116002D01*
X0175998Y0114342D01*
X0175100Y0112174D01*
X0175100Y0109826D01*
X0175998Y0107658D01*
X0177658Y0105998D01*
X0179826Y0105100D01*
X0182174Y0105100D01*
X0182516Y0105242D01*
X0187806Y0099951D01*
X0188592Y0098054D01*
X0190054Y0096592D01*
X0191012Y0096195D01*
X0190347Y0095530D01*
X0190054Y0095408D01*
X0188592Y0093946D01*
X0187800Y0092034D01*
X0187800Y0089966D01*
X0188592Y0088054D01*
X0190054Y0086592D01*
X0190347Y0086470D01*
X0191922Y0084896D01*
X0176200Y0084896D01*
X0176200Y0086094D02*
X0190723Y0086094D01*
X0191922Y0084896D02*
X0194568Y0083800D01*
X0201800Y0083800D01*
X0201800Y0073982D01*
X0190018Y0062200D01*
X0180568Y0062200D01*
X0177922Y0061104D01*
X0165054Y0048236D01*
X0163957Y0045590D01*
X0163957Y0034568D01*
X0165054Y0031922D01*
X0165432Y0031543D01*
X0165432Y0031336D01*
X0166304Y0029232D01*
X0167915Y0027622D01*
X0170019Y0026750D01*
X0172296Y0026750D01*
X0174400Y0027622D01*
X0176011Y0029232D01*
X0176882Y0031336D01*
X0176882Y0031543D01*
X0177261Y0031922D01*
X0178357Y0034568D01*
X0178357Y0041175D01*
X0184982Y0047800D01*
X0194432Y0047800D01*
X0197078Y0048896D01*
X0213078Y0064896D01*
X0213078Y0064896D01*
X0215104Y0066922D01*
X0216200Y0069568D01*
X0216200Y0092432D01*
X0215104Y0095078D01*
X0213078Y0097104D01*
X0210432Y0098200D01*
X0203469Y0098200D01*
X0204200Y0099966D01*
X0204200Y0102034D01*
X0203408Y0103946D01*
X0201946Y0105408D01*
X0200034Y0106200D01*
X0191966Y0106200D01*
X0190606Y0105637D01*
X0186758Y0109484D01*
X0186900Y0109826D01*
X0186900Y0112174D01*
X0186758Y0112516D01*
X0191449Y0117207D01*
X0192658Y0115998D01*
X0194826Y0115100D01*
X0197174Y0115100D01*
X0199342Y0115998D01*
X0201002Y0117658D01*
X0201900Y0119826D01*
X0201900Y0122174D01*
X0201002Y0124342D01*
X0199342Y0126002D01*
X0197174Y0126900D01*
X0194826Y0126900D01*
X0197310Y0126844D02*
X0234690Y0126844D01*
X0234826Y0126900D02*
X0232658Y0126002D01*
X0230998Y0124342D01*
X0230857Y0124000D01*
X0230403Y0124000D01*
X0229301Y0123543D01*
X0222516Y0116758D01*
X0222174Y0116900D01*
X0219826Y0116900D01*
X0217658Y0116002D01*
X0215998Y0114342D01*
X0215100Y0112174D01*
X0215100Y0109826D01*
X0215998Y0107658D01*
X0217658Y0105998D01*
X0219826Y0105100D01*
X0222174Y0105100D01*
X0222516Y0105242D01*
X0227806Y0099951D01*
X0228592Y0098054D01*
X0230054Y0096592D01*
X0231012Y0096195D01*
X0230347Y0095530D01*
X0230054Y0095408D01*
X0228592Y0093946D01*
X0227800Y0092034D01*
X0227800Y0089966D01*
X0228592Y0088054D01*
X0230054Y0086592D01*
X0230347Y0086470D01*
X0231922Y0084896D01*
X0216200Y0084896D01*
X0216200Y0086094D02*
X0230723Y0086094D01*
X0231922Y0084896D02*
X0234568Y0083800D01*
X0241800Y0083800D01*
X0241800Y0072982D01*
X0231018Y0062200D01*
X0219568Y0062200D01*
X0216922Y0061104D01*
X0214896Y0059078D01*
X0205054Y0049236D01*
X0203957Y0046590D01*
X0203957Y0034568D01*
X0205054Y0031922D01*
X0205432Y0031543D01*
X0205432Y0031336D01*
X0206304Y0029232D01*
X0207915Y0027622D01*
X0210019Y0026750D01*
X0212296Y0026750D01*
X0214400Y0027622D01*
X0216011Y0029232D01*
X0216882Y0031336D01*
X0216882Y0031543D01*
X0217261Y0031922D01*
X0218357Y0034568D01*
X0218357Y0042175D01*
X0223982Y0047800D01*
X0235432Y0047800D01*
X0238078Y0048896D01*
X0253078Y0063896D01*
X0255104Y0065922D01*
X0256200Y0068568D01*
X0256200Y0092432D01*
X0255104Y0095078D01*
X0253078Y0097104D01*
X0250432Y0098200D01*
X0243469Y0098200D01*
X0244200Y0099966D01*
X0244200Y0102034D01*
X0243408Y0103946D01*
X0241946Y0105408D01*
X0240034Y0106200D01*
X0231966Y0106200D01*
X0230606Y0105637D01*
X0226758Y0109484D01*
X0226900Y0109826D01*
X0226900Y0112174D01*
X0226758Y0112516D01*
X0231449Y0117207D01*
X0232658Y0115998D01*
X0234826Y0115100D01*
X0237174Y0115100D01*
X0239342Y0115998D01*
X0241002Y0117658D01*
X0241900Y0119826D01*
X0241900Y0122174D01*
X0241002Y0124342D01*
X0239342Y0126002D01*
X0237174Y0126900D01*
X0234826Y0126900D01*
X0237310Y0126844D02*
X0274690Y0126844D01*
X0274826Y0126900D02*
X0272658Y0126002D01*
X0270998Y0124342D01*
X0270857Y0124000D01*
X0270403Y0124000D01*
X0269301Y0123543D01*
X0262516Y0116758D01*
X0262174Y0116900D01*
X0259826Y0116900D01*
X0257658Y0116002D01*
X0255998Y0114342D01*
X0255100Y0112174D01*
X0255100Y0109826D01*
X0255998Y0107658D01*
X0257658Y0105998D01*
X0259826Y0105100D01*
X0262174Y0105100D01*
X0262516Y0105242D01*
X0267806Y0099951D01*
X0268592Y0098054D01*
X0270054Y0096592D01*
X0271012Y0096195D01*
X0270347Y0095530D01*
X0270054Y0095408D01*
X0268592Y0093946D01*
X0267800Y0092034D01*
X0267800Y0089966D01*
X0268592Y0088054D01*
X0270054Y0086592D01*
X0270347Y0086470D01*
X0271922Y0084896D01*
X0256200Y0084896D01*
X0256200Y0086094D02*
X0270723Y0086094D01*
X0271922Y0084896D02*
X0274568Y0083800D01*
X0281800Y0083800D01*
X0281800Y0072982D01*
X0271018Y0062200D01*
X0260568Y0062200D01*
X0257922Y0061104D01*
X0255896Y0059078D01*
X0245054Y0048236D01*
X0243957Y0045590D01*
X0243957Y0034568D01*
X0245054Y0031922D01*
X0245432Y0031543D01*
X0245432Y0031336D01*
X0246304Y0029232D01*
X0247915Y0027622D01*
X0250019Y0026750D01*
X0252296Y0026750D01*
X0254400Y0027622D01*
X0256011Y0029232D01*
X0256882Y0031336D01*
X0256882Y0031543D01*
X0257261Y0031922D01*
X0258357Y0034568D01*
X0258357Y0041175D01*
X0264982Y0047800D01*
X0275432Y0047800D01*
X0278078Y0048896D01*
X0293078Y0063896D01*
X0295104Y0065922D01*
X0296200Y0068568D01*
X0296200Y0092432D01*
X0295104Y0095078D01*
X0293078Y0097104D01*
X0290432Y0098200D01*
X0283469Y0098200D01*
X0284200Y0099966D01*
X0284200Y0102034D01*
X0283408Y0103946D01*
X0281946Y0105408D01*
X0280034Y0106200D01*
X0271966Y0106200D01*
X0270606Y0105637D01*
X0266758Y0109484D01*
X0266900Y0109826D01*
X0266900Y0112174D01*
X0266758Y0112516D01*
X0271449Y0117207D01*
X0272658Y0115998D01*
X0274826Y0115100D01*
X0277174Y0115100D01*
X0279342Y0115998D01*
X0281002Y0117658D01*
X0281900Y0119826D01*
X0281900Y0122174D01*
X0281002Y0124342D01*
X0279342Y0126002D01*
X0277174Y0126900D01*
X0274826Y0126900D01*
X0277310Y0126844D02*
X0314690Y0126844D01*
X0314826Y0126900D02*
X0312658Y0126002D01*
X0310998Y0124342D01*
X0310857Y0124000D01*
X0310403Y0124000D01*
X0309301Y0123543D01*
X0302516Y0116758D01*
X0302174Y0116900D01*
X0299826Y0116900D01*
X0297658Y0116002D01*
X0295998Y0114342D01*
X0295100Y0112174D01*
X0295100Y0109826D01*
X0295998Y0107658D01*
X0297658Y0105998D01*
X0299826Y0105100D01*
X0302174Y0105100D01*
X0302516Y0105242D01*
X0307806Y0099951D01*
X0308592Y0098054D01*
X0310054Y0096592D01*
X0311012Y0096195D01*
X0310347Y0095530D01*
X0310054Y0095408D01*
X0308592Y0093946D01*
X0307800Y0092034D01*
X0307800Y0089966D01*
X0308592Y0088054D01*
X0310054Y0086592D01*
X0310347Y0086470D01*
X0311922Y0084896D01*
X0296200Y0084896D01*
X0296200Y0086094D02*
X0310723Y0086094D01*
X0311922Y0084896D02*
X0314568Y0083800D01*
X0321800Y0083800D01*
X0321800Y0073982D01*
X0310018Y0062200D01*
X0300568Y0062200D01*
X0297922Y0061104D01*
X0295896Y0059078D01*
X0285054Y0048236D01*
X0283957Y0045590D01*
X0283957Y0034568D01*
X0285054Y0031922D01*
X0285432Y0031543D01*
X0285432Y0031336D01*
X0286304Y0029232D01*
X0287915Y0027622D01*
X0290019Y0026750D01*
X0292296Y0026750D01*
X0294400Y0027622D01*
X0296011Y0029232D01*
X0296882Y0031336D01*
X0296882Y0031543D01*
X0297261Y0031922D01*
X0298357Y0034568D01*
X0298357Y0041175D01*
X0304982Y0047800D01*
X0314432Y0047800D01*
X0317078Y0048896D01*
X0333078Y0064896D01*
X0335104Y0066922D01*
X0336200Y0069568D01*
X0336200Y0092432D01*
X0335104Y0095078D01*
X0333078Y0097104D01*
X0330432Y0098200D01*
X0323469Y0098200D01*
X0324200Y0099966D01*
X0324200Y0102034D01*
X0323408Y0103946D01*
X0321946Y0105408D01*
X0320034Y0106200D01*
X0311966Y0106200D01*
X0310606Y0105637D01*
X0306758Y0109484D01*
X0306900Y0109826D01*
X0306900Y0112174D01*
X0306758Y0112516D01*
X0311449Y0117207D01*
X0312658Y0115998D01*
X0314826Y0115100D01*
X0317174Y0115100D01*
X0319342Y0115998D01*
X0321002Y0117658D01*
X0321900Y0119826D01*
X0321900Y0122174D01*
X0321002Y0124342D01*
X0319342Y0126002D01*
X0317174Y0126900D01*
X0314826Y0126900D01*
X0317310Y0126844D02*
X0354690Y0126844D01*
X0354826Y0126900D02*
X0352658Y0126002D01*
X0350998Y0124342D01*
X0350857Y0124000D01*
X0350403Y0124000D01*
X0349301Y0123543D01*
X0342516Y0116758D01*
X0342174Y0116900D01*
X0339826Y0116900D01*
X0337658Y0116002D01*
X0335998Y0114342D01*
X0335100Y0112174D01*
X0335100Y0109826D01*
X0335998Y0107658D01*
X0337658Y0105998D01*
X0339826Y0105100D01*
X0342174Y0105100D01*
X0342516Y0105242D01*
X0347806Y0099951D01*
X0348592Y0098054D01*
X0350054Y0096592D01*
X0351012Y0096195D01*
X0350347Y0095530D01*
X0350054Y0095408D01*
X0348592Y0093946D01*
X0347800Y0092034D01*
X0347800Y0089966D01*
X0348592Y0088054D01*
X0350054Y0086592D01*
X0350347Y0086470D01*
X0351922Y0084896D01*
X0336200Y0084896D01*
X0336200Y0086094D02*
X0350723Y0086094D01*
X0351922Y0084896D02*
X0354568Y0083800D01*
X0362800Y0083800D01*
X0362800Y0073982D01*
X0351018Y0062200D01*
X0339568Y0062200D01*
X0336922Y0061104D01*
X0334896Y0059078D01*
X0325054Y0049236D01*
X0323957Y0046590D01*
X0323957Y0034568D01*
X0325054Y0031922D01*
X0325432Y0031543D01*
X0325432Y0031336D01*
X0326304Y0029232D01*
X0327915Y0027622D01*
X0330019Y0026750D01*
X0332296Y0026750D01*
X0334400Y0027622D01*
X0336011Y0029232D01*
X0336882Y0031336D01*
X0336882Y0031543D01*
X0337261Y0031922D01*
X0338357Y0034568D01*
X0338357Y0042175D01*
X0343982Y0047800D01*
X0355432Y0047800D01*
X0358078Y0048896D01*
X0374078Y0064896D01*
X0376104Y0066922D01*
X0377200Y0069568D01*
X0377200Y0092432D01*
X0376104Y0095078D01*
X0374078Y0097104D01*
X0371432Y0098200D01*
X0363469Y0098200D01*
X0364200Y0099966D01*
X0364200Y0102034D01*
X0363408Y0103946D01*
X0361946Y0105408D01*
X0360034Y0106200D01*
X0351966Y0106200D01*
X0350606Y0105637D01*
X0346758Y0109484D01*
X0346900Y0109826D01*
X0346900Y0112174D01*
X0346758Y0112516D01*
X0351449Y0117207D01*
X0352658Y0115998D01*
X0354826Y0115100D01*
X0357174Y0115100D01*
X0359342Y0115998D01*
X0361002Y0117658D01*
X0361900Y0119826D01*
X0361900Y0122174D01*
X0361002Y0124342D01*
X0359342Y0126002D01*
X0357174Y0126900D01*
X0354826Y0126900D01*
X0357310Y0126844D02*
X0392501Y0126844D01*
X0392501Y0128042D02*
X0039811Y0128042D01*
X0039378Y0129085D02*
X0040250Y0126981D01*
X0040250Y0124704D01*
X0039378Y0122600D01*
X0037768Y0120989D01*
X0035664Y0120118D01*
X0026336Y0120118D01*
X0024232Y0120989D01*
X0022622Y0122600D01*
X0021750Y0124704D01*
X0021750Y0126981D01*
X0022622Y0129085D01*
X0024232Y0130696D01*
X0026336Y0131568D01*
X0035664Y0131568D01*
X0037768Y0130696D01*
X0039378Y0129085D01*
X0039223Y0129241D02*
X0392501Y0129241D01*
X0392501Y0130439D02*
X0038025Y0130439D01*
X0040250Y0126844D02*
X0074690Y0126844D01*
X0074826Y0126900D02*
X0072658Y0126002D01*
X0070998Y0124342D01*
X0070857Y0124000D01*
X0070403Y0124000D01*
X0069301Y0123543D01*
X0062516Y0116758D01*
X0062174Y0116900D01*
X0059826Y0116900D01*
X0057658Y0116002D01*
X0055998Y0114342D01*
X0055100Y0112174D01*
X0055100Y0109826D01*
X0055998Y0107658D01*
X0057658Y0105998D01*
X0059826Y0105100D01*
X0062174Y0105100D01*
X0062516Y0105242D01*
X0067806Y0099951D01*
X0068531Y0098200D01*
X0039568Y0098200D01*
X0036922Y0097104D01*
X0034896Y0095078D01*
X0033800Y0092432D01*
X0033800Y0034568D01*
X0034896Y0031922D01*
X0036922Y0029896D01*
X0039568Y0028800D01*
X0046736Y0028800D01*
X0047915Y0027622D01*
X0050019Y0026750D01*
X0052296Y0026750D01*
X0054400Y0027622D01*
X0056011Y0029232D01*
X0056882Y0031336D01*
X0056882Y0031543D01*
X0057261Y0031922D01*
X0058357Y0034568D01*
X0058357Y0037432D01*
X0057261Y0040078D01*
X0056882Y0040457D01*
X0056882Y0040664D01*
X0056011Y0042768D01*
X0054400Y0044378D01*
X0052296Y0045250D01*
X0050019Y0045250D01*
X0048200Y0044497D01*
X0048200Y0083800D01*
X0077432Y0083800D01*
X0080078Y0084896D01*
X0111922Y0084896D01*
X0114568Y0083800D01*
X0121800Y0083800D01*
X0121800Y0071982D01*
X0112018Y0062200D01*
X0099568Y0062200D01*
X0096922Y0061104D01*
X0094896Y0059078D01*
X0085054Y0049236D01*
X0083957Y0046590D01*
X0083957Y0034568D01*
X0085054Y0031922D01*
X0085432Y0031543D01*
X0085432Y0031336D01*
X0086304Y0029232D01*
X0087915Y0027622D01*
X0090019Y0026750D01*
X0092296Y0026750D01*
X0094400Y0027622D01*
X0096011Y0029232D01*
X0096882Y0031336D01*
X0096882Y0031543D01*
X0097261Y0031922D01*
X0098357Y0034568D01*
X0098357Y0042175D01*
X0103982Y0047800D01*
X0116432Y0047800D01*
X0119078Y0048896D01*
X0133078Y0062896D01*
X0135104Y0064922D01*
X0136200Y0067568D01*
X0136200Y0092432D01*
X0135104Y0095078D01*
X0133078Y0097104D01*
X0130432Y0098200D01*
X0123469Y0098200D01*
X0124200Y0099966D01*
X0124200Y0102034D01*
X0123408Y0103946D01*
X0121946Y0105408D01*
X0120034Y0106200D01*
X0119000Y0106200D01*
X0119000Y0115857D01*
X0119342Y0115998D01*
X0121002Y0117658D01*
X0121143Y0118000D01*
X0126857Y0118000D01*
X0126998Y0117658D01*
X0128658Y0115998D01*
X0130826Y0115100D01*
X0133174Y0115100D01*
X0135342Y0115998D01*
X0137002Y0117658D01*
X0137900Y0119826D01*
X0137900Y0122174D01*
X0137002Y0124342D01*
X0135342Y0126002D01*
X0133174Y0126900D01*
X0130826Y0126900D01*
X0128658Y0126002D01*
X0126998Y0124342D01*
X0126857Y0124000D01*
X0121143Y0124000D01*
X0121002Y0124342D01*
X0119342Y0126002D01*
X0117174Y0126900D01*
X0114826Y0126900D01*
X0112658Y0126002D01*
X0110998Y0124342D01*
X0110100Y0122174D01*
X0110100Y0119826D01*
X0110998Y0117658D01*
X0112658Y0115998D01*
X0113000Y0115857D01*
X0113000Y0106200D01*
X0111966Y0106200D01*
X0110054Y0105408D01*
X0108592Y0103946D01*
X0107800Y0102034D01*
X0107800Y0099966D01*
X0108592Y0098054D01*
X0110054Y0096592D01*
X0111012Y0096195D01*
X0110347Y0095530D01*
X0110054Y0095408D01*
X0108592Y0093946D01*
X0107800Y0092034D01*
X0107800Y0089966D01*
X0108592Y0088054D01*
X0110054Y0086592D01*
X0110347Y0086470D01*
X0111922Y0084896D01*
X0110723Y0086094D02*
X0081277Y0086094D01*
X0081653Y0086470D02*
X0081946Y0086592D01*
X0083408Y0088054D01*
X0084200Y0089966D01*
X0084200Y0092034D01*
X0083408Y0093946D01*
X0081946Y0095408D01*
X0081653Y0095530D01*
X0080988Y0096195D01*
X0081946Y0096592D01*
X0083408Y0098054D01*
X0084200Y0099966D01*
X0084200Y0102034D01*
X0083408Y0103946D01*
X0081946Y0105408D01*
X0080034Y0106200D01*
X0071966Y0106200D01*
X0070606Y0105637D01*
X0066758Y0109484D01*
X0066900Y0109826D01*
X0066900Y0112174D01*
X0066758Y0112516D01*
X0071449Y0117207D01*
X0072658Y0115998D01*
X0074826Y0115100D01*
X0077174Y0115100D01*
X0079342Y0115998D01*
X0081002Y0117658D01*
X0081900Y0119826D01*
X0081900Y0122174D01*
X0081002Y0124342D01*
X0079342Y0126002D01*
X0077174Y0126900D01*
X0074826Y0126900D01*
X0077310Y0126844D02*
X0114690Y0126844D01*
X0117310Y0126844D02*
X0130690Y0126844D01*
X0133310Y0126844D02*
X0154690Y0126844D01*
X0152301Y0125645D02*
X0135699Y0125645D01*
X0136897Y0124447D02*
X0151103Y0124447D01*
X0149006Y0123248D02*
X0137455Y0123248D01*
X0137900Y0122050D02*
X0147807Y0122050D01*
X0146608Y0120851D02*
X0137900Y0120851D01*
X0137828Y0119653D02*
X0145410Y0119653D01*
X0144211Y0118454D02*
X0137332Y0118454D01*
X0136599Y0117256D02*
X0143013Y0117256D01*
X0147903Y0113660D02*
X0175716Y0113660D01*
X0175219Y0112462D02*
X0146781Y0112462D01*
X0146900Y0111263D02*
X0175100Y0111263D01*
X0175100Y0110065D02*
X0146900Y0110065D01*
X0147377Y0108866D02*
X0175498Y0108866D01*
X0175994Y0107668D02*
X0148575Y0107668D01*
X0149774Y0106469D02*
X0177187Y0106469D01*
X0179415Y0105270D02*
X0162083Y0105270D01*
X0163282Y0104072D02*
X0183685Y0104072D01*
X0184884Y0102873D02*
X0163852Y0102873D01*
X0164200Y0101675D02*
X0186082Y0101675D01*
X0187281Y0100476D02*
X0164200Y0100476D01*
X0163915Y0099278D02*
X0188085Y0099278D01*
X0188581Y0098079D02*
X0170723Y0098079D01*
X0173301Y0096881D02*
X0189765Y0096881D01*
X0190500Y0095682D02*
X0174500Y0095682D01*
X0175350Y0094484D02*
X0189130Y0094484D01*
X0188318Y0093285D02*
X0175847Y0093285D01*
X0176200Y0092087D02*
X0187822Y0092087D01*
X0187800Y0090888D02*
X0176200Y0090888D01*
X0176200Y0089690D02*
X0187914Y0089690D01*
X0188411Y0088491D02*
X0176200Y0088491D01*
X0176200Y0087293D02*
X0189353Y0087293D01*
X0201800Y0083697D02*
X0176200Y0083697D01*
X0176200Y0082499D02*
X0201800Y0082499D01*
X0201800Y0081300D02*
X0176200Y0081300D01*
X0176200Y0080102D02*
X0201800Y0080102D01*
X0201800Y0078903D02*
X0176200Y0078903D01*
X0176200Y0077705D02*
X0201800Y0077705D01*
X0201800Y0076506D02*
X0176200Y0076506D01*
X0176200Y0075308D02*
X0201800Y0075308D01*
X0201800Y0074109D02*
X0176200Y0074109D01*
X0176200Y0072911D02*
X0200728Y0072911D01*
X0199530Y0071712D02*
X0176200Y0071712D01*
X0176200Y0070514D02*
X0198331Y0070514D01*
X0197133Y0069315D02*
X0176200Y0069315D01*
X0176013Y0068117D02*
X0195934Y0068117D01*
X0194736Y0066918D02*
X0175517Y0066918D01*
X0174902Y0065720D02*
X0193537Y0065720D01*
X0192339Y0064521D02*
X0173703Y0064521D01*
X0172505Y0063323D02*
X0191140Y0063323D01*
X0180385Y0062124D02*
X0171306Y0062124D01*
X0170108Y0060926D02*
X0177743Y0060926D01*
X0176545Y0059727D02*
X0168909Y0059727D01*
X0167711Y0058529D02*
X0175346Y0058529D01*
X0174148Y0057330D02*
X0166512Y0057330D01*
X0165314Y0056132D02*
X0172949Y0056132D01*
X0171751Y0054933D02*
X0164115Y0054933D01*
X0162917Y0053734D02*
X0170552Y0053734D01*
X0169354Y0052536D02*
X0161718Y0052536D01*
X0160520Y0051337D02*
X0168155Y0051337D01*
X0166957Y0050139D02*
X0159321Y0050139D01*
X0158123Y0048940D02*
X0165758Y0048940D01*
X0164849Y0047742D02*
X0143924Y0047742D01*
X0142726Y0046543D02*
X0164353Y0046543D01*
X0163957Y0045345D02*
X0141527Y0045345D01*
X0140329Y0044146D02*
X0147368Y0044146D01*
X0147600Y0044378D02*
X0145989Y0042768D01*
X0145118Y0040664D01*
X0145118Y0031336D01*
X0145989Y0029232D01*
X0147600Y0027622D01*
X0149704Y0026750D01*
X0151981Y0026750D01*
X0154085Y0027622D01*
X0155696Y0029232D01*
X0156568Y0031336D01*
X0156568Y0040664D01*
X0155696Y0042768D01*
X0154085Y0044378D01*
X0151981Y0045250D01*
X0149704Y0045250D01*
X0147600Y0044378D01*
X0146169Y0042948D02*
X0139130Y0042948D01*
X0138357Y0041749D02*
X0145567Y0041749D01*
X0145118Y0040551D02*
X0138357Y0040551D01*
X0138357Y0039352D02*
X0145118Y0039352D01*
X0145118Y0038154D02*
X0138357Y0038154D01*
X0138357Y0036955D02*
X0145118Y0036955D01*
X0145118Y0035757D02*
X0138357Y0035757D01*
X0138354Y0034558D02*
X0145118Y0034558D01*
X0145118Y0033360D02*
X0137857Y0033360D01*
X0137361Y0032161D02*
X0145118Y0032161D01*
X0145272Y0030963D02*
X0136728Y0030963D01*
X0136231Y0029764D02*
X0145769Y0029764D01*
X0146655Y0028566D02*
X0135345Y0028566D01*
X0133786Y0027367D02*
X0148214Y0027367D01*
X0153471Y0027367D02*
X0168529Y0027367D01*
X0166970Y0028566D02*
X0155030Y0028566D01*
X0155916Y0029764D02*
X0166084Y0029764D01*
X0165587Y0030963D02*
X0156413Y0030963D01*
X0156568Y0032161D02*
X0164954Y0032161D01*
X0164458Y0033360D02*
X0156568Y0033360D01*
X0156568Y0034558D02*
X0163961Y0034558D01*
X0163957Y0035757D02*
X0156568Y0035757D01*
X0156568Y0036955D02*
X0163957Y0036955D01*
X0163957Y0038154D02*
X0156568Y0038154D01*
X0156568Y0039352D02*
X0163957Y0039352D01*
X0163957Y0040551D02*
X0156568Y0040551D01*
X0156118Y0041749D02*
X0163957Y0041749D01*
X0163957Y0042948D02*
X0155516Y0042948D01*
X0154317Y0044146D02*
X0163957Y0044146D01*
X0178357Y0040551D02*
X0185118Y0040551D01*
X0185118Y0040664D02*
X0185989Y0042768D01*
X0187600Y0044378D01*
X0189704Y0045250D01*
X0191981Y0045250D01*
X0194085Y0044378D01*
X0195696Y0042768D01*
X0196568Y0040664D01*
X0196568Y0031336D01*
X0195696Y0029232D01*
X0194085Y0027622D01*
X0191981Y0026750D01*
X0189704Y0026750D01*
X0187600Y0027622D01*
X0185989Y0029232D01*
X0185118Y0031336D01*
X0185118Y0040664D01*
X0185567Y0041749D02*
X0178932Y0041749D01*
X0180130Y0042948D02*
X0186169Y0042948D01*
X0187368Y0044146D02*
X0181329Y0044146D01*
X0182527Y0045345D02*
X0203957Y0045345D01*
X0203957Y0046543D02*
X0183726Y0046543D01*
X0184924Y0047742D02*
X0204435Y0047742D01*
X0204931Y0048940D02*
X0197123Y0048940D01*
X0198321Y0050139D02*
X0205957Y0050139D01*
X0207155Y0051337D02*
X0199520Y0051337D01*
X0200718Y0052536D02*
X0208354Y0052536D01*
X0209552Y0053734D02*
X0201917Y0053734D01*
X0203115Y0054933D02*
X0210751Y0054933D01*
X0211949Y0056132D02*
X0204314Y0056132D01*
X0205512Y0057330D02*
X0213148Y0057330D01*
X0214346Y0058529D02*
X0206711Y0058529D01*
X0207909Y0059727D02*
X0215545Y0059727D01*
X0216743Y0060926D02*
X0209108Y0060926D01*
X0210306Y0062124D02*
X0219385Y0062124D01*
X0215100Y0066918D02*
X0235736Y0066918D01*
X0236934Y0068117D02*
X0215599Y0068117D01*
X0216095Y0069315D02*
X0238133Y0069315D01*
X0239331Y0070514D02*
X0216200Y0070514D01*
X0216200Y0071712D02*
X0240530Y0071712D01*
X0241728Y0072911D02*
X0216200Y0072911D01*
X0216200Y0074109D02*
X0241800Y0074109D01*
X0241800Y0075308D02*
X0216200Y0075308D01*
X0216200Y0076506D02*
X0241800Y0076506D01*
X0241800Y0077705D02*
X0216200Y0077705D01*
X0216200Y0078903D02*
X0241800Y0078903D01*
X0241800Y0080102D02*
X0216200Y0080102D01*
X0216200Y0081300D02*
X0241800Y0081300D01*
X0241800Y0082499D02*
X0216200Y0082499D01*
X0216200Y0083697D02*
X0241800Y0083697D01*
X0256200Y0083697D02*
X0281800Y0083697D01*
X0281800Y0082499D02*
X0256200Y0082499D01*
X0256200Y0081300D02*
X0281800Y0081300D01*
X0281800Y0080102D02*
X0256200Y0080102D01*
X0256200Y0078903D02*
X0281800Y0078903D01*
X0281800Y0077705D02*
X0256200Y0077705D01*
X0256200Y0076506D02*
X0281800Y0076506D01*
X0281800Y0075308D02*
X0256200Y0075308D01*
X0256200Y0074109D02*
X0281800Y0074109D01*
X0281728Y0072911D02*
X0256200Y0072911D01*
X0256200Y0071712D02*
X0280530Y0071712D01*
X0279331Y0070514D02*
X0256200Y0070514D01*
X0256200Y0069315D02*
X0278133Y0069315D01*
X0276934Y0068117D02*
X0256013Y0068117D01*
X0255517Y0066918D02*
X0275736Y0066918D01*
X0274537Y0065720D02*
X0254902Y0065720D01*
X0253703Y0064521D02*
X0273339Y0064521D01*
X0272140Y0063323D02*
X0252505Y0063323D01*
X0251306Y0062124D02*
X0260385Y0062124D01*
X0257743Y0060926D02*
X0250108Y0060926D01*
X0248909Y0059727D02*
X0256545Y0059727D01*
X0255346Y0058529D02*
X0247711Y0058529D01*
X0246512Y0057330D02*
X0254148Y0057330D01*
X0252949Y0056132D02*
X0245314Y0056132D01*
X0244115Y0054933D02*
X0251751Y0054933D01*
X0250552Y0053734D02*
X0242917Y0053734D01*
X0241718Y0052536D02*
X0249354Y0052536D01*
X0248155Y0051337D02*
X0240520Y0051337D01*
X0239321Y0050139D02*
X0246957Y0050139D01*
X0245758Y0048940D02*
X0238123Y0048940D01*
X0234085Y0044378D02*
X0231981Y0045250D01*
X0229704Y0045250D01*
X0227600Y0044378D01*
X0225989Y0042768D01*
X0225118Y0040664D01*
X0225118Y0031336D01*
X0225989Y0029232D01*
X0227600Y0027622D01*
X0229704Y0026750D01*
X0231981Y0026750D01*
X0234085Y0027622D01*
X0235696Y0029232D01*
X0236568Y0031336D01*
X0236568Y0040664D01*
X0235696Y0042768D01*
X0234085Y0044378D01*
X0234317Y0044146D02*
X0243957Y0044146D01*
X0243957Y0042948D02*
X0235516Y0042948D01*
X0236118Y0041749D02*
X0243957Y0041749D01*
X0243957Y0040551D02*
X0236568Y0040551D01*
X0236568Y0039352D02*
X0243957Y0039352D01*
X0243957Y0038154D02*
X0236568Y0038154D01*
X0236568Y0036955D02*
X0243957Y0036955D01*
X0243957Y0035757D02*
X0236568Y0035757D01*
X0236568Y0034558D02*
X0243961Y0034558D01*
X0244458Y0033360D02*
X0236568Y0033360D01*
X0236568Y0032161D02*
X0244954Y0032161D01*
X0245587Y0030963D02*
X0236413Y0030963D01*
X0235916Y0029764D02*
X0246084Y0029764D01*
X0246970Y0028566D02*
X0235030Y0028566D01*
X0233471Y0027367D02*
X0248529Y0027367D01*
X0253786Y0027367D02*
X0268214Y0027367D01*
X0267600Y0027622D02*
X0269704Y0026750D01*
X0271981Y0026750D01*
X0274085Y0027622D01*
X0275696Y0029232D01*
X0276568Y0031336D01*
X0276568Y0040664D01*
X0275696Y0042768D01*
X0274085Y0044378D01*
X0271981Y0045250D01*
X0269704Y0045250D01*
X0267600Y0044378D01*
X0265989Y0042768D01*
X0265118Y0040664D01*
X0265118Y0031336D01*
X0265989Y0029232D01*
X0267600Y0027622D01*
X0266655Y0028566D02*
X0255345Y0028566D01*
X0256231Y0029764D02*
X0265769Y0029764D01*
X0265272Y0030963D02*
X0256728Y0030963D01*
X0257361Y0032161D02*
X0265118Y0032161D01*
X0265118Y0033360D02*
X0257857Y0033360D01*
X0258354Y0034558D02*
X0265118Y0034558D01*
X0265118Y0035757D02*
X0258357Y0035757D01*
X0258357Y0036955D02*
X0265118Y0036955D01*
X0265118Y0038154D02*
X0258357Y0038154D01*
X0258357Y0039352D02*
X0265118Y0039352D01*
X0265118Y0040551D02*
X0258357Y0040551D01*
X0258932Y0041749D02*
X0265567Y0041749D01*
X0266169Y0042948D02*
X0260130Y0042948D01*
X0261329Y0044146D02*
X0267368Y0044146D01*
X0264924Y0047742D02*
X0284849Y0047742D01*
X0284353Y0046543D02*
X0263726Y0046543D01*
X0262527Y0045345D02*
X0283957Y0045345D01*
X0283957Y0044146D02*
X0274317Y0044146D01*
X0275516Y0042948D02*
X0283957Y0042948D01*
X0283957Y0041749D02*
X0276118Y0041749D01*
X0276568Y0040551D02*
X0283957Y0040551D01*
X0283957Y0039352D02*
X0276568Y0039352D01*
X0276568Y0038154D02*
X0283957Y0038154D01*
X0283957Y0036955D02*
X0276568Y0036955D01*
X0276568Y0035757D02*
X0283957Y0035757D01*
X0283961Y0034558D02*
X0276568Y0034558D01*
X0276568Y0033360D02*
X0284458Y0033360D01*
X0284954Y0032161D02*
X0276568Y0032161D01*
X0276413Y0030963D02*
X0285587Y0030963D01*
X0286084Y0029764D02*
X0275916Y0029764D01*
X0275030Y0028566D02*
X0286970Y0028566D01*
X0288529Y0027367D02*
X0273471Y0027367D01*
X0293786Y0027367D02*
X0308214Y0027367D01*
X0307600Y0027622D02*
X0309704Y0026750D01*
X0311981Y0026750D01*
X0314085Y0027622D01*
X0315696Y0029232D01*
X0316568Y0031336D01*
X0316568Y0040664D01*
X0315696Y0042768D01*
X0314085Y0044378D01*
X0311981Y0045250D01*
X0309704Y0045250D01*
X0307600Y0044378D01*
X0305989Y0042768D01*
X0305118Y0040664D01*
X0305118Y0031336D01*
X0305989Y0029232D01*
X0307600Y0027622D01*
X0306655Y0028566D02*
X0295345Y0028566D01*
X0296231Y0029764D02*
X0305769Y0029764D01*
X0305272Y0030963D02*
X0296728Y0030963D01*
X0297361Y0032161D02*
X0305118Y0032161D01*
X0305118Y0033360D02*
X0297857Y0033360D01*
X0298354Y0034558D02*
X0305118Y0034558D01*
X0305118Y0035757D02*
X0298357Y0035757D01*
X0298357Y0036955D02*
X0305118Y0036955D01*
X0305118Y0038154D02*
X0298357Y0038154D01*
X0298357Y0039352D02*
X0305118Y0039352D01*
X0305118Y0040551D02*
X0298357Y0040551D01*
X0298932Y0041749D02*
X0305567Y0041749D01*
X0306169Y0042948D02*
X0300130Y0042948D01*
X0301329Y0044146D02*
X0307368Y0044146D01*
X0304924Y0047742D02*
X0324435Y0047742D01*
X0323957Y0046543D02*
X0303726Y0046543D01*
X0302527Y0045345D02*
X0323957Y0045345D01*
X0323957Y0044146D02*
X0314317Y0044146D01*
X0315516Y0042948D02*
X0323957Y0042948D01*
X0323957Y0041749D02*
X0316118Y0041749D01*
X0316568Y0040551D02*
X0323957Y0040551D01*
X0323957Y0039352D02*
X0316568Y0039352D01*
X0316568Y0038154D02*
X0323957Y0038154D01*
X0323957Y0036955D02*
X0316568Y0036955D01*
X0316568Y0035757D02*
X0323957Y0035757D01*
X0323961Y0034558D02*
X0316568Y0034558D01*
X0316568Y0033360D02*
X0324458Y0033360D01*
X0324954Y0032161D02*
X0316568Y0032161D01*
X0316413Y0030963D02*
X0325587Y0030963D01*
X0326084Y0029764D02*
X0315916Y0029764D01*
X0315030Y0028566D02*
X0326970Y0028566D01*
X0328529Y0027367D02*
X0313471Y0027367D01*
X0333786Y0027367D02*
X0348214Y0027367D01*
X0347600Y0027622D02*
X0349704Y0026750D01*
X0351981Y0026750D01*
X0354085Y0027622D01*
X0355696Y0029232D01*
X0356568Y0031336D01*
X0356568Y0040664D01*
X0355696Y0042768D01*
X0354085Y0044378D01*
X0351981Y0045250D01*
X0349704Y0045250D01*
X0347600Y0044378D01*
X0345989Y0042768D01*
X0345118Y0040664D01*
X0345118Y0031336D01*
X0345989Y0029232D01*
X0347600Y0027622D01*
X0346655Y0028566D02*
X0335345Y0028566D01*
X0336231Y0029764D02*
X0345769Y0029764D01*
X0345272Y0030963D02*
X0336728Y0030963D01*
X0337361Y0032161D02*
X0345118Y0032161D01*
X0345118Y0033360D02*
X0337857Y0033360D01*
X0338354Y0034558D02*
X0345118Y0034558D01*
X0345118Y0035757D02*
X0338357Y0035757D01*
X0338357Y0036955D02*
X0345118Y0036955D01*
X0345118Y0038154D02*
X0338357Y0038154D01*
X0338357Y0039352D02*
X0345118Y0039352D01*
X0345118Y0040551D02*
X0338357Y0040551D01*
X0338357Y0041749D02*
X0345567Y0041749D01*
X0346169Y0042948D02*
X0339130Y0042948D01*
X0340329Y0044146D02*
X0347368Y0044146D01*
X0343924Y0047742D02*
X0392501Y0047742D01*
X0392501Y0048940D02*
X0358123Y0048940D01*
X0359321Y0050139D02*
X0392501Y0050139D01*
X0392501Y0051337D02*
X0360520Y0051337D01*
X0361718Y0052536D02*
X0392501Y0052536D01*
X0392501Y0053734D02*
X0362917Y0053734D01*
X0364115Y0054933D02*
X0392501Y0054933D01*
X0392501Y0056132D02*
X0365314Y0056132D01*
X0366512Y0057330D02*
X0392501Y0057330D01*
X0392501Y0058529D02*
X0367711Y0058529D01*
X0368909Y0059727D02*
X0392501Y0059727D01*
X0392501Y0060926D02*
X0370108Y0060926D01*
X0371306Y0062124D02*
X0392501Y0062124D01*
X0392501Y0063323D02*
X0372505Y0063323D01*
X0373703Y0064521D02*
X0392501Y0064521D01*
X0392501Y0065720D02*
X0374902Y0065720D01*
X0376100Y0066918D02*
X0392501Y0066918D01*
X0392501Y0068117D02*
X0376599Y0068117D01*
X0377095Y0069315D02*
X0392501Y0069315D01*
X0392501Y0070514D02*
X0377200Y0070514D01*
X0377200Y0071712D02*
X0392501Y0071712D01*
X0392501Y0072911D02*
X0377200Y0072911D01*
X0377200Y0074109D02*
X0392501Y0074109D01*
X0392501Y0075308D02*
X0377200Y0075308D01*
X0377200Y0076506D02*
X0392501Y0076506D01*
X0392501Y0077705D02*
X0377200Y0077705D01*
X0377200Y0078903D02*
X0392501Y0078903D01*
X0392501Y0080102D02*
X0377200Y0080102D01*
X0377200Y0081300D02*
X0392501Y0081300D01*
X0392501Y0082499D02*
X0377200Y0082499D01*
X0377200Y0083697D02*
X0392501Y0083697D01*
X0392501Y0084896D02*
X0377200Y0084896D01*
X0377200Y0086094D02*
X0392501Y0086094D01*
X0392501Y0087293D02*
X0377200Y0087293D01*
X0377200Y0088491D02*
X0392501Y0088491D01*
X0392501Y0089690D02*
X0377200Y0089690D01*
X0377200Y0090888D02*
X0392501Y0090888D01*
X0392501Y0092087D02*
X0377200Y0092087D01*
X0376847Y0093285D02*
X0392501Y0093285D01*
X0392501Y0094484D02*
X0376350Y0094484D01*
X0375500Y0095682D02*
X0392501Y0095682D01*
X0392501Y0096881D02*
X0374301Y0096881D01*
X0371723Y0098079D02*
X0392501Y0098079D01*
X0392501Y0099278D02*
X0363915Y0099278D01*
X0364200Y0100476D02*
X0392501Y0100476D01*
X0392501Y0101675D02*
X0364200Y0101675D01*
X0363852Y0102873D02*
X0392501Y0102873D01*
X0392501Y0104072D02*
X0363282Y0104072D01*
X0362083Y0105270D02*
X0392501Y0105270D01*
X0392501Y0106469D02*
X0349774Y0106469D01*
X0348575Y0107668D02*
X0392501Y0107668D01*
X0392501Y0108866D02*
X0347377Y0108866D01*
X0346900Y0110065D02*
X0392501Y0110065D01*
X0392501Y0111263D02*
X0346900Y0111263D01*
X0346781Y0112462D02*
X0392501Y0112462D01*
X0392501Y0113660D02*
X0347903Y0113660D01*
X0349101Y0114859D02*
X0392501Y0114859D01*
X0392501Y0116057D02*
X0359401Y0116057D01*
X0360599Y0117256D02*
X0392501Y0117256D01*
X0392501Y0118454D02*
X0361332Y0118454D01*
X0361828Y0119653D02*
X0392501Y0119653D01*
X0392501Y0120851D02*
X0361900Y0120851D01*
X0361900Y0122050D02*
X0392501Y0122050D01*
X0392501Y0123248D02*
X0361455Y0123248D01*
X0360897Y0124447D02*
X0392501Y0124447D01*
X0392501Y0125645D02*
X0359699Y0125645D01*
X0352301Y0125645D02*
X0319699Y0125645D01*
X0320897Y0124447D02*
X0351103Y0124447D01*
X0349006Y0123248D02*
X0321455Y0123248D01*
X0321900Y0122050D02*
X0347807Y0122050D01*
X0346609Y0120851D02*
X0321900Y0120851D01*
X0321828Y0119653D02*
X0345410Y0119653D01*
X0344211Y0118454D02*
X0321332Y0118454D01*
X0320599Y0117256D02*
X0343013Y0117256D01*
X0337791Y0116057D02*
X0319401Y0116057D01*
X0312599Y0116057D02*
X0310300Y0116057D01*
X0309101Y0114859D02*
X0336515Y0114859D01*
X0335716Y0113660D02*
X0307903Y0113660D01*
X0306781Y0112462D02*
X0335219Y0112462D01*
X0335100Y0111263D02*
X0306900Y0111263D01*
X0306900Y0110065D02*
X0335100Y0110065D01*
X0335498Y0108866D02*
X0307377Y0108866D01*
X0308575Y0107668D02*
X0335994Y0107668D01*
X0337187Y0106469D02*
X0309774Y0106469D01*
X0304884Y0102873D02*
X0283852Y0102873D01*
X0284200Y0101675D02*
X0306082Y0101675D01*
X0307281Y0100476D02*
X0284200Y0100476D01*
X0283915Y0099278D02*
X0308085Y0099278D01*
X0308581Y0098079D02*
X0290723Y0098079D01*
X0293301Y0096881D02*
X0309765Y0096881D01*
X0310500Y0095682D02*
X0294500Y0095682D01*
X0295350Y0094484D02*
X0309130Y0094484D01*
X0308318Y0093285D02*
X0295847Y0093285D01*
X0296200Y0092087D02*
X0307822Y0092087D01*
X0307800Y0090888D02*
X0296200Y0090888D01*
X0296200Y0089690D02*
X0307914Y0089690D01*
X0308411Y0088491D02*
X0296200Y0088491D01*
X0296200Y0087293D02*
X0309353Y0087293D01*
X0321800Y0083697D02*
X0296200Y0083697D01*
X0296200Y0082499D02*
X0321800Y0082499D01*
X0321800Y0081300D02*
X0296200Y0081300D01*
X0296200Y0080102D02*
X0321800Y0080102D01*
X0321800Y0078903D02*
X0296200Y0078903D01*
X0296200Y0077705D02*
X0321800Y0077705D01*
X0321800Y0076506D02*
X0296200Y0076506D01*
X0296200Y0075308D02*
X0321800Y0075308D01*
X0321800Y0074109D02*
X0296200Y0074109D01*
X0296200Y0072911D02*
X0320728Y0072911D01*
X0319530Y0071712D02*
X0296200Y0071712D01*
X0296200Y0070514D02*
X0318331Y0070514D01*
X0317133Y0069315D02*
X0296200Y0069315D01*
X0296013Y0068117D02*
X0315934Y0068117D01*
X0314736Y0066918D02*
X0295517Y0066918D01*
X0294902Y0065720D02*
X0313537Y0065720D01*
X0312339Y0064521D02*
X0293703Y0064521D01*
X0292505Y0063323D02*
X0311140Y0063323D01*
X0300385Y0062124D02*
X0291306Y0062124D01*
X0290108Y0060926D02*
X0297743Y0060926D01*
X0296545Y0059727D02*
X0288909Y0059727D01*
X0287711Y0058529D02*
X0295346Y0058529D01*
X0294148Y0057330D02*
X0286512Y0057330D01*
X0285314Y0056132D02*
X0292949Y0056132D01*
X0291751Y0054933D02*
X0284115Y0054933D01*
X0282917Y0053734D02*
X0290552Y0053734D01*
X0289354Y0052536D02*
X0281718Y0052536D01*
X0280520Y0051337D02*
X0288155Y0051337D01*
X0286957Y0050139D02*
X0279321Y0050139D01*
X0278123Y0048940D02*
X0285758Y0048940D01*
X0317123Y0048940D02*
X0324931Y0048940D01*
X0325957Y0050139D02*
X0318321Y0050139D01*
X0319520Y0051337D02*
X0327155Y0051337D01*
X0328354Y0052536D02*
X0320718Y0052536D01*
X0321917Y0053734D02*
X0329552Y0053734D01*
X0330751Y0054933D02*
X0323115Y0054933D01*
X0324314Y0056132D02*
X0331949Y0056132D01*
X0333148Y0057330D02*
X0325512Y0057330D01*
X0326711Y0058529D02*
X0334346Y0058529D01*
X0335545Y0059727D02*
X0327909Y0059727D01*
X0329108Y0060926D02*
X0336743Y0060926D01*
X0339385Y0062124D02*
X0330306Y0062124D01*
X0331505Y0063323D02*
X0352140Y0063323D01*
X0353339Y0064521D02*
X0332703Y0064521D01*
X0333902Y0065720D02*
X0354537Y0065720D01*
X0355736Y0066918D02*
X0335100Y0066918D01*
X0335599Y0068117D02*
X0356934Y0068117D01*
X0358133Y0069315D02*
X0336095Y0069315D01*
X0336200Y0070514D02*
X0359331Y0070514D01*
X0360530Y0071712D02*
X0336200Y0071712D01*
X0336200Y0072911D02*
X0361728Y0072911D01*
X0362800Y0074109D02*
X0336200Y0074109D01*
X0336200Y0075308D02*
X0362800Y0075308D01*
X0362800Y0076506D02*
X0336200Y0076506D01*
X0336200Y0077705D02*
X0362800Y0077705D01*
X0362800Y0078903D02*
X0336200Y0078903D01*
X0336200Y0080102D02*
X0362800Y0080102D01*
X0362800Y0081300D02*
X0336200Y0081300D01*
X0336200Y0082499D02*
X0362800Y0082499D01*
X0362800Y0083697D02*
X0336200Y0083697D01*
X0336200Y0087293D02*
X0349353Y0087293D01*
X0348411Y0088491D02*
X0336200Y0088491D01*
X0336200Y0089690D02*
X0347914Y0089690D01*
X0347800Y0090888D02*
X0336200Y0090888D01*
X0336200Y0092087D02*
X0347822Y0092087D01*
X0348318Y0093285D02*
X0335847Y0093285D01*
X0335350Y0094484D02*
X0349130Y0094484D01*
X0350500Y0095682D02*
X0334500Y0095682D01*
X0333301Y0096881D02*
X0349765Y0096881D01*
X0348581Y0098079D02*
X0330723Y0098079D01*
X0323915Y0099278D02*
X0348085Y0099278D01*
X0347281Y0100476D02*
X0324200Y0100476D01*
X0324200Y0101675D02*
X0346082Y0101675D01*
X0344884Y0102873D02*
X0323852Y0102873D01*
X0323282Y0104072D02*
X0343685Y0104072D01*
X0339415Y0105270D02*
X0322083Y0105270D01*
X0306609Y0120851D02*
X0281900Y0120851D01*
X0281900Y0122050D02*
X0307807Y0122050D01*
X0309006Y0123248D02*
X0281455Y0123248D01*
X0280897Y0124447D02*
X0311103Y0124447D01*
X0312301Y0125645D02*
X0279699Y0125645D01*
X0281828Y0119653D02*
X0305410Y0119653D01*
X0304211Y0118454D02*
X0281332Y0118454D01*
X0280599Y0117256D02*
X0303013Y0117256D01*
X0297791Y0116057D02*
X0279401Y0116057D01*
X0272599Y0116057D02*
X0270300Y0116057D01*
X0269101Y0114859D02*
X0296515Y0114859D01*
X0295716Y0113660D02*
X0267903Y0113660D01*
X0266781Y0112462D02*
X0295219Y0112462D01*
X0295100Y0111263D02*
X0266900Y0111263D01*
X0266900Y0110065D02*
X0295100Y0110065D01*
X0295498Y0108866D02*
X0267377Y0108866D01*
X0268575Y0107668D02*
X0295994Y0107668D01*
X0297187Y0106469D02*
X0269774Y0106469D01*
X0266082Y0101675D02*
X0244200Y0101675D01*
X0244200Y0100476D02*
X0267281Y0100476D01*
X0268085Y0099278D02*
X0243915Y0099278D01*
X0243852Y0102873D02*
X0264884Y0102873D01*
X0263685Y0104072D02*
X0243282Y0104072D01*
X0242083Y0105270D02*
X0259415Y0105270D01*
X0257187Y0106469D02*
X0229774Y0106469D01*
X0228575Y0107668D02*
X0255994Y0107668D01*
X0255498Y0108866D02*
X0227377Y0108866D01*
X0226900Y0110065D02*
X0255100Y0110065D01*
X0255100Y0111263D02*
X0226900Y0111263D01*
X0226781Y0112462D02*
X0255219Y0112462D01*
X0255716Y0113660D02*
X0227903Y0113660D01*
X0229101Y0114859D02*
X0256515Y0114859D01*
X0257791Y0116057D02*
X0239401Y0116057D01*
X0240599Y0117256D02*
X0263013Y0117256D01*
X0264211Y0118454D02*
X0241332Y0118454D01*
X0241828Y0119653D02*
X0265410Y0119653D01*
X0266609Y0120851D02*
X0241900Y0120851D01*
X0241900Y0122050D02*
X0267807Y0122050D01*
X0269006Y0123248D02*
X0241455Y0123248D01*
X0240897Y0124447D02*
X0271103Y0124447D01*
X0272301Y0125645D02*
X0239699Y0125645D01*
X0232301Y0125645D02*
X0199699Y0125645D01*
X0200897Y0124447D02*
X0231103Y0124447D01*
X0229006Y0123248D02*
X0201455Y0123248D01*
X0201900Y0122050D02*
X0227807Y0122050D01*
X0226609Y0120851D02*
X0201900Y0120851D01*
X0201828Y0119653D02*
X0225410Y0119653D01*
X0224211Y0118454D02*
X0201332Y0118454D01*
X0200599Y0117256D02*
X0223013Y0117256D01*
X0217791Y0116057D02*
X0199401Y0116057D01*
X0192599Y0116057D02*
X0190300Y0116057D01*
X0189101Y0114859D02*
X0216515Y0114859D01*
X0215716Y0113660D02*
X0187903Y0113660D01*
X0186781Y0112462D02*
X0215219Y0112462D01*
X0215100Y0111263D02*
X0186900Y0111263D01*
X0186900Y0110065D02*
X0215100Y0110065D01*
X0215498Y0108866D02*
X0187377Y0108866D01*
X0188575Y0107668D02*
X0215994Y0107668D01*
X0217187Y0106469D02*
X0189774Y0106469D01*
X0183013Y0117256D02*
X0160599Y0117256D01*
X0161332Y0118454D02*
X0184211Y0118454D01*
X0185410Y0119653D02*
X0161828Y0119653D01*
X0161900Y0120851D02*
X0186609Y0120851D01*
X0187807Y0122050D02*
X0161900Y0122050D01*
X0161455Y0123248D02*
X0189006Y0123248D01*
X0191103Y0124447D02*
X0160897Y0124447D01*
X0159699Y0125645D02*
X0192301Y0125645D01*
X0177791Y0116057D02*
X0159401Y0116057D01*
X0152599Y0116057D02*
X0150300Y0116057D01*
X0149101Y0114859D02*
X0176515Y0114859D01*
X0150500Y0095682D02*
X0134500Y0095682D01*
X0135350Y0094484D02*
X0149130Y0094484D01*
X0148318Y0093285D02*
X0135847Y0093285D01*
X0136200Y0092087D02*
X0147822Y0092087D01*
X0147800Y0090888D02*
X0136200Y0090888D01*
X0136200Y0089690D02*
X0147914Y0089690D01*
X0148411Y0088491D02*
X0136200Y0088491D01*
X0136200Y0087293D02*
X0149353Y0087293D01*
X0149765Y0096881D02*
X0133301Y0096881D01*
X0130723Y0098079D02*
X0148581Y0098079D01*
X0148085Y0099278D02*
X0123915Y0099278D01*
X0124200Y0100476D02*
X0147281Y0100476D01*
X0146082Y0101675D02*
X0124200Y0101675D01*
X0123852Y0102873D02*
X0144884Y0102873D01*
X0143685Y0104072D02*
X0123282Y0104072D01*
X0122083Y0105270D02*
X0139415Y0105270D01*
X0137187Y0106469D02*
X0119000Y0106469D01*
X0119000Y0107668D02*
X0135994Y0107668D01*
X0135498Y0108866D02*
X0119000Y0108866D01*
X0119000Y0110065D02*
X0135100Y0110065D01*
X0135100Y0111263D02*
X0119000Y0111263D01*
X0119000Y0112462D02*
X0135219Y0112462D01*
X0135716Y0113660D02*
X0119000Y0113660D01*
X0119000Y0114859D02*
X0136515Y0114859D01*
X0135401Y0116057D02*
X0137791Y0116057D01*
X0128599Y0116057D02*
X0119401Y0116057D01*
X0120599Y0117256D02*
X0127401Y0117256D01*
X0127103Y0124447D02*
X0120897Y0124447D01*
X0119699Y0125645D02*
X0128301Y0125645D01*
X0112301Y0125645D02*
X0079699Y0125645D01*
X0080897Y0124447D02*
X0111103Y0124447D01*
X0110545Y0123248D02*
X0081455Y0123248D01*
X0081900Y0122050D02*
X0110100Y0122050D01*
X0110100Y0120851D02*
X0081900Y0120851D01*
X0081828Y0119653D02*
X0110172Y0119653D01*
X0110668Y0118454D02*
X0081332Y0118454D01*
X0080599Y0117256D02*
X0111401Y0117256D01*
X0112599Y0116057D02*
X0079401Y0116057D01*
X0072599Y0116057D02*
X0070300Y0116057D01*
X0069101Y0114859D02*
X0113000Y0114859D01*
X0113000Y0113660D02*
X0067903Y0113660D01*
X0066781Y0112462D02*
X0113000Y0112462D01*
X0113000Y0111263D02*
X0066900Y0111263D01*
X0066900Y0110065D02*
X0113000Y0110065D01*
X0113000Y0108866D02*
X0067377Y0108866D01*
X0068575Y0107668D02*
X0113000Y0107668D01*
X0113000Y0106469D02*
X0069774Y0106469D01*
X0064884Y0102873D02*
X0003200Y0102873D01*
X0003200Y0101675D02*
X0066082Y0101675D01*
X0067281Y0100476D02*
X0003200Y0100476D01*
X0003200Y0099278D02*
X0068085Y0099278D01*
X0063685Y0104072D02*
X0003200Y0104072D01*
X0003200Y0105270D02*
X0059415Y0105270D01*
X0057187Y0106469D02*
X0003200Y0106469D01*
X0003200Y0107668D02*
X0055994Y0107668D01*
X0055498Y0108866D02*
X0003200Y0108866D01*
X0003200Y0110065D02*
X0055100Y0110065D01*
X0055100Y0111263D02*
X0003200Y0111263D01*
X0003200Y0112462D02*
X0055219Y0112462D01*
X0055716Y0113660D02*
X0003200Y0113660D01*
X0003200Y0114859D02*
X0056515Y0114859D01*
X0057791Y0116057D02*
X0003200Y0116057D01*
X0003200Y0117256D02*
X0063013Y0117256D01*
X0064211Y0118454D02*
X0003200Y0118454D01*
X0003200Y0119653D02*
X0065410Y0119653D01*
X0066608Y0120851D02*
X0037435Y0120851D01*
X0038828Y0122050D02*
X0067807Y0122050D01*
X0069006Y0123248D02*
X0039647Y0123248D01*
X0040144Y0124447D02*
X0071103Y0124447D01*
X0072301Y0125645D02*
X0040250Y0125645D01*
X0024565Y0120851D02*
X0003200Y0120851D01*
X0003200Y0122050D02*
X0023171Y0122050D01*
X0022353Y0123248D02*
X0003200Y0123248D01*
X0003200Y0124447D02*
X0021856Y0124447D01*
X0021750Y0125645D02*
X0003200Y0125645D01*
X0003200Y0126844D02*
X0021750Y0126844D01*
X0022189Y0128042D02*
X0003200Y0128042D01*
X0003200Y0129241D02*
X0022777Y0129241D01*
X0023975Y0130439D02*
X0003200Y0130439D01*
X0003200Y0131638D02*
X0392501Y0131638D01*
X0392501Y0132836D02*
X0003200Y0132836D01*
X0003200Y0134035D02*
X0392501Y0134035D01*
X0392501Y0135233D02*
X0003200Y0135233D01*
X0003200Y0136432D02*
X0392501Y0136432D01*
X0392501Y0137630D02*
X0003200Y0137630D01*
X0003200Y0138829D02*
X0392501Y0138829D01*
X0392501Y0140027D02*
X0003200Y0140027D01*
X0003200Y0141226D02*
X0392501Y0141226D01*
X0392501Y0142424D02*
X0003200Y0142424D01*
X0003200Y0143623D02*
X0392501Y0143623D01*
X0392501Y0144821D02*
X0003200Y0144821D01*
X0003200Y0146020D02*
X0392501Y0146020D01*
X0392501Y0147218D02*
X0003200Y0147218D01*
X0003200Y0148417D02*
X0392501Y0148417D01*
X0392501Y0149615D02*
X0003200Y0149615D01*
X0003200Y0150814D02*
X0392501Y0150814D01*
X0392501Y0152012D02*
X0003200Y0152012D01*
X0003200Y0153211D02*
X0392501Y0153211D01*
X0392501Y0154409D02*
X0003200Y0154409D01*
X0003200Y0155608D02*
X0073600Y0155608D01*
X0071850Y0156806D02*
X0003200Y0156806D01*
X0003200Y0158005D02*
X0070854Y0158005D01*
X0070358Y0159203D02*
X0003200Y0159203D01*
X0003200Y0160402D02*
X0070100Y0160402D01*
X0070100Y0161601D02*
X0003200Y0161601D01*
X0003200Y0162799D02*
X0070359Y0162799D01*
X0070856Y0163998D02*
X0003200Y0163998D01*
X0003200Y0165196D02*
X0071852Y0165196D01*
X0073606Y0166395D02*
X0003200Y0166395D01*
X0003200Y0167593D02*
X0104000Y0167593D01*
X0104000Y0166395D02*
X0078394Y0166395D01*
X0080148Y0165196D02*
X0104000Y0165196D01*
X0104000Y0168792D02*
X0003200Y0168792D01*
X0003200Y0169990D02*
X0104000Y0169990D01*
X0086828Y0186769D02*
X0283000Y0186769D01*
X0283000Y0187968D02*
X0086332Y0187968D01*
X0085360Y0189166D02*
X0283000Y0189166D01*
X0283000Y0190365D02*
X0083747Y0190365D01*
X0060800Y0192762D02*
X0222833Y0192762D01*
X0221907Y0193960D02*
X0060800Y0193960D01*
X0053200Y0193960D02*
X0003200Y0193960D01*
X0003200Y0192762D02*
X0053200Y0192762D01*
X0053200Y0191563D02*
X0003200Y0191563D01*
X0003200Y0190365D02*
X0053200Y0190365D01*
X0053200Y0189166D02*
X0003200Y0189166D01*
X0003200Y0187968D02*
X0053200Y0187968D01*
X0053200Y0186769D02*
X0003200Y0186769D01*
X0003200Y0185571D02*
X0053200Y0185571D01*
X0053200Y0184372D02*
X0003200Y0184372D01*
X0003200Y0183174D02*
X0053200Y0183174D01*
X0053200Y0181975D02*
X0003200Y0181975D01*
X0003200Y0180777D02*
X0024427Y0180777D01*
X0023114Y0179578D02*
X0003200Y0179578D01*
X0003200Y0178380D02*
X0022329Y0178380D01*
X0021833Y0177181D02*
X0003200Y0177181D01*
X0003200Y0175983D02*
X0021750Y0175983D01*
X0021750Y0174784D02*
X0003200Y0174784D01*
X0003200Y0173586D02*
X0022213Y0173586D01*
X0022834Y0172387D02*
X0003200Y0172387D01*
X0003200Y0171189D02*
X0024033Y0171189D01*
X0024179Y0196357D02*
X0003200Y0196357D01*
X0003200Y0195159D02*
X0053200Y0195159D01*
X0053200Y0196357D02*
X0037821Y0196357D01*
X0039020Y0197556D02*
X0053200Y0197556D01*
X0053510Y0198754D02*
X0039726Y0198754D01*
X0040223Y0199953D02*
X0054329Y0199953D01*
X0055527Y0201151D02*
X0040250Y0201151D01*
X0024167Y0205945D02*
X0012000Y0205945D01*
X0012000Y0204747D02*
X0022968Y0204747D01*
X0022980Y0197556D02*
X0003200Y0197556D01*
X0003200Y0198754D02*
X0008410Y0198754D01*
X0007212Y0199953D02*
X0003200Y0199953D01*
X0003200Y0201151D02*
X0006273Y0201151D01*
X0006000Y0202350D02*
X0003200Y0202350D01*
X0003200Y0203548D02*
X0006000Y0203548D01*
X0006000Y0204747D02*
X0003200Y0204747D01*
X0003200Y0205945D02*
X0006000Y0205945D01*
X0006000Y0207144D02*
X0003200Y0207144D01*
X0003200Y0208342D02*
X0006000Y0208342D01*
X0006000Y0209541D02*
X0003200Y0209541D01*
X0003200Y0210739D02*
X0006000Y0210739D01*
X0006000Y0211938D02*
X0003200Y0211938D01*
X0003200Y0213137D02*
X0006000Y0213137D01*
X0006000Y0214335D02*
X0003200Y0214335D01*
X0003200Y0215534D02*
X0006000Y0215534D01*
X0006000Y0216732D02*
X0003200Y0216732D01*
X0003200Y0217931D02*
X0006000Y0217931D01*
X0006000Y0219129D02*
X0003200Y0219129D01*
X0003200Y0220328D02*
X0006000Y0220328D01*
X0006000Y0221526D02*
X0003200Y0221526D01*
X0003200Y0222725D02*
X0006000Y0222725D01*
X0006000Y0223923D02*
X0003200Y0223923D01*
X0003200Y0225122D02*
X0006000Y0225122D01*
X0006000Y0226320D02*
X0003200Y0226320D01*
X0003200Y0227519D02*
X0006000Y0227519D01*
X0006000Y0228717D02*
X0003200Y0228717D01*
X0003200Y0229916D02*
X0006000Y0229916D01*
X0006000Y0231114D02*
X0003200Y0231114D01*
X0003200Y0232313D02*
X0006000Y0232313D01*
X0006000Y0233511D02*
X0003200Y0233511D01*
X0003200Y0234710D02*
X0006000Y0234710D01*
X0006000Y0235908D02*
X0003200Y0235908D01*
X0003200Y0237107D02*
X0006000Y0237107D01*
X0006000Y0238305D02*
X0003200Y0238305D01*
X0003200Y0239504D02*
X0006000Y0239504D01*
X0006000Y0240702D02*
X0003200Y0240702D01*
X0003200Y0241901D02*
X0006000Y0241901D01*
X0006000Y0243099D02*
X0003200Y0243099D01*
X0003200Y0244298D02*
X0006000Y0244298D01*
X0006000Y0245496D02*
X0003200Y0245496D01*
X0003200Y0246695D02*
X0006000Y0246695D01*
X0006000Y0247893D02*
X0003200Y0247893D01*
X0003200Y0249092D02*
X0006000Y0249092D01*
X0006000Y0250290D02*
X0003200Y0250290D01*
X0003200Y0251489D02*
X0006000Y0251489D01*
X0006000Y0252687D02*
X0003200Y0252687D01*
X0003200Y0253886D02*
X0006000Y0253886D01*
X0006000Y0255084D02*
X0003200Y0255084D01*
X0003200Y0256283D02*
X0006000Y0256283D01*
X0006000Y0257481D02*
X0003200Y0257481D01*
X0003200Y0258680D02*
X0006000Y0258680D01*
X0006000Y0259878D02*
X0003200Y0259878D01*
X0003200Y0261077D02*
X0006000Y0261077D01*
X0006281Y0262275D02*
X0003200Y0262275D01*
X0003200Y0263474D02*
X0007231Y0263474D01*
X0008430Y0264672D02*
X0003200Y0264672D01*
X0003200Y0265871D02*
X0009628Y0265871D01*
X0010827Y0267070D02*
X0003200Y0267070D01*
X0003200Y0268268D02*
X0012025Y0268268D01*
X0013224Y0269467D02*
X0003200Y0269467D01*
X0003200Y0270665D02*
X0014422Y0270665D01*
X0015621Y0271864D02*
X0003200Y0271864D01*
X0003200Y0273062D02*
X0016819Y0273062D01*
X0018018Y0274261D02*
X0003200Y0274261D01*
X0003200Y0275459D02*
X0019216Y0275459D01*
X0020415Y0276658D02*
X0003200Y0276658D01*
X0003200Y0277856D02*
X0021613Y0277856D01*
X0022812Y0279055D02*
X0003200Y0279055D01*
X0003200Y0280253D02*
X0024010Y0280253D01*
X0025209Y0281452D02*
X0003200Y0281452D01*
X0003200Y0282650D02*
X0026408Y0282650D01*
X0027606Y0283849D02*
X0003200Y0283849D01*
X0003200Y0285047D02*
X0028805Y0285047D01*
X0030003Y0286246D02*
X0003200Y0286246D01*
X0003200Y0287444D02*
X0031202Y0287444D01*
X0032400Y0288643D02*
X0003200Y0288643D01*
X0003200Y0289841D02*
X0033599Y0289841D01*
X0034797Y0291040D02*
X0003200Y0291040D01*
X0003200Y0292238D02*
X0035996Y0292238D01*
X0037194Y0293437D02*
X0003200Y0293437D01*
X0003200Y0294635D02*
X0038393Y0294635D01*
X0039591Y0295834D02*
X0003200Y0295834D01*
X0003200Y0297032D02*
X0040790Y0297032D01*
X0041988Y0298231D02*
X0003200Y0298231D01*
X0003200Y0299429D02*
X0043187Y0299429D01*
X0062496Y0280253D02*
X0077984Y0280253D01*
X0077545Y0280071D02*
X0075829Y0278355D01*
X0074900Y0276113D01*
X0074900Y0265887D01*
X0075829Y0263645D01*
X0077545Y0261929D01*
X0079787Y0261000D01*
X0082213Y0261000D01*
X0084455Y0261929D01*
X0086171Y0263645D01*
X0087100Y0265887D01*
X0087100Y0276113D01*
X0086171Y0278355D01*
X0084455Y0280071D01*
X0082213Y0281000D01*
X0079787Y0281000D01*
X0077545Y0280071D01*
X0076528Y0279055D02*
X0061297Y0279055D01*
X0060099Y0277856D02*
X0075622Y0277856D01*
X0075125Y0276658D02*
X0058900Y0276658D01*
X0057702Y0275459D02*
X0074900Y0275459D01*
X0074900Y0274261D02*
X0056503Y0274261D01*
X0055305Y0273062D02*
X0074900Y0273062D01*
X0074900Y0271864D02*
X0054106Y0271864D01*
X0052908Y0270665D02*
X0074900Y0270665D01*
X0074900Y0269467D02*
X0051709Y0269467D01*
X0050511Y0268268D02*
X0074900Y0268268D01*
X0074900Y0267070D02*
X0049312Y0267070D01*
X0048114Y0265871D02*
X0074906Y0265871D01*
X0075403Y0264672D02*
X0046915Y0264672D01*
X0045717Y0263474D02*
X0075999Y0263474D01*
X0077198Y0262275D02*
X0044518Y0262275D01*
X0043320Y0261077D02*
X0079601Y0261077D01*
X0082399Y0261077D02*
X0088834Y0261077D01*
X0087636Y0259878D02*
X0042121Y0259878D01*
X0040923Y0258680D02*
X0086437Y0258680D01*
X0085239Y0257481D02*
X0012000Y0257481D01*
X0012000Y0256283D02*
X0024889Y0256283D01*
X0023306Y0255084D02*
X0012000Y0255084D01*
X0012000Y0253886D02*
X0022408Y0253886D01*
X0021912Y0252687D02*
X0012000Y0252687D01*
X0012000Y0251489D02*
X0021750Y0251489D01*
X0021750Y0250290D02*
X0012000Y0250290D01*
X0012000Y0249092D02*
X0022134Y0249092D01*
X0022643Y0247893D02*
X0012000Y0247893D01*
X0012000Y0246695D02*
X0023841Y0246695D01*
X0026182Y0245496D02*
X0012000Y0245496D01*
X0012000Y0244298D02*
X0201319Y0244298D01*
X0201100Y0245496D02*
X0035818Y0245496D01*
X0038159Y0246695D02*
X0201100Y0246695D01*
X0201398Y0247893D02*
X0039357Y0247893D01*
X0038694Y0255084D02*
X0082842Y0255084D01*
X0084040Y0256283D02*
X0037111Y0256283D01*
X0012000Y0243099D02*
X0201815Y0243099D01*
X0202755Y0241901D02*
X0012000Y0241901D01*
X0012000Y0240702D02*
X0204372Y0240702D01*
X0209628Y0240702D02*
X0222392Y0240702D01*
X0223000Y0239504D02*
X0012000Y0239504D01*
X0012000Y0238305D02*
X0223000Y0238305D01*
X0223000Y0237107D02*
X0012000Y0237107D01*
X0012000Y0235908D02*
X0223000Y0235908D01*
X0223000Y0234710D02*
X0012000Y0234710D01*
X0012000Y0233511D02*
X0203167Y0233511D01*
X0201969Y0232313D02*
X0012000Y0232313D01*
X0012000Y0231114D02*
X0108503Y0231114D01*
X0108839Y0231450D02*
X0107550Y0230161D01*
X0107550Y0221839D01*
X0108839Y0220550D01*
X0117161Y0220550D01*
X0118450Y0221839D01*
X0118450Y0230161D01*
X0117161Y0231450D01*
X0108839Y0231450D01*
X0107550Y0229916D02*
X0012000Y0229916D01*
X0012000Y0228717D02*
X0107550Y0228717D01*
X0107550Y0227519D02*
X0012000Y0227519D01*
X0012000Y0226320D02*
X0107550Y0226320D01*
X0107550Y0225122D02*
X0012000Y0225122D01*
X0012000Y0223923D02*
X0107550Y0223923D01*
X0107550Y0222725D02*
X0012000Y0222725D01*
X0012000Y0221526D02*
X0107863Y0221526D01*
X0118137Y0221526D02*
X0203800Y0221526D01*
X0203800Y0220328D02*
X0012000Y0220328D01*
X0012000Y0219129D02*
X0204017Y0219129D01*
X0204877Y0217931D02*
X0012000Y0217931D01*
X0012000Y0216732D02*
X0203855Y0216732D01*
X0202190Y0215534D02*
X0012000Y0215534D01*
X0012000Y0214335D02*
X0201230Y0214335D01*
X0200733Y0213137D02*
X0012000Y0213137D01*
X0012000Y0211938D02*
X0200500Y0211938D01*
X0200500Y0210739D02*
X0012000Y0210739D01*
X0012000Y0209541D02*
X0200784Y0209541D01*
X0201280Y0208342D02*
X0012000Y0208342D01*
X0012000Y0207144D02*
X0202312Y0207144D01*
X0210610Y0215534D02*
X0243000Y0215534D01*
X0243000Y0216732D02*
X0236725Y0216732D01*
X0237923Y0217931D02*
X0243000Y0217931D01*
X0243000Y0219129D02*
X0238783Y0219129D01*
X0239000Y0220328D02*
X0243000Y0220328D01*
X0243000Y0221526D02*
X0239000Y0221526D01*
X0239130Y0222725D02*
X0242870Y0222725D01*
X0241923Y0223923D02*
X0240077Y0223923D01*
X0240574Y0225122D02*
X0241426Y0225122D01*
X0241400Y0226320D02*
X0240600Y0226320D01*
X0240600Y0227519D02*
X0241400Y0227519D01*
X0241400Y0228717D02*
X0240600Y0228717D01*
X0240600Y0229916D02*
X0241400Y0229916D01*
X0241400Y0231114D02*
X0240600Y0231114D01*
X0240394Y0232313D02*
X0241606Y0232313D01*
X0242106Y0233511D02*
X0239894Y0233511D01*
X0239000Y0234710D02*
X0243000Y0234710D01*
X0243000Y0235908D02*
X0239000Y0235908D01*
X0239000Y0237107D02*
X0243000Y0237107D01*
X0243000Y0238305D02*
X0239000Y0238305D01*
X0239000Y0239504D02*
X0243000Y0239504D01*
X0242392Y0240702D02*
X0239608Y0240702D01*
X0240275Y0241901D02*
X0241725Y0241901D01*
X0241400Y0243099D02*
X0240600Y0243099D01*
X0240600Y0244298D02*
X0241400Y0244298D01*
X0241400Y0245496D02*
X0240600Y0245496D01*
X0240600Y0246695D02*
X0241400Y0246695D01*
X0241400Y0247893D02*
X0240600Y0247893D01*
X0240600Y0249092D02*
X0241400Y0249092D01*
X0241804Y0250290D02*
X0240196Y0250290D01*
X0239416Y0251489D02*
X0242583Y0251489D01*
X0244330Y0252687D02*
X0237670Y0252687D01*
X0234330Y0252687D02*
X0227670Y0252687D01*
X0229416Y0251489D02*
X0232583Y0251489D01*
X0231804Y0250290D02*
X0230196Y0250290D01*
X0230600Y0249092D02*
X0231400Y0249092D01*
X0231400Y0247893D02*
X0230600Y0247893D01*
X0230600Y0246695D02*
X0231400Y0246695D01*
X0231400Y0245496D02*
X0230600Y0245496D01*
X0230600Y0244298D02*
X0231400Y0244298D01*
X0231400Y0243099D02*
X0230600Y0243099D01*
X0230275Y0241901D02*
X0231725Y0241901D01*
X0232392Y0240702D02*
X0229608Y0240702D01*
X0229000Y0239504D02*
X0233000Y0239504D01*
X0233000Y0238305D02*
X0229000Y0238305D01*
X0229000Y0237107D02*
X0233000Y0237107D01*
X0233000Y0235908D02*
X0229000Y0235908D01*
X0229000Y0234710D02*
X0233000Y0234710D01*
X0232106Y0233511D02*
X0229894Y0233511D01*
X0230394Y0232313D02*
X0231606Y0232313D01*
X0231400Y0231114D02*
X0230600Y0231114D01*
X0230600Y0229916D02*
X0231400Y0229916D01*
X0231400Y0228717D02*
X0230600Y0228717D01*
X0230600Y0227519D02*
X0231400Y0227519D01*
X0231400Y0226320D02*
X0230600Y0226320D01*
X0230574Y0225122D02*
X0231426Y0225122D01*
X0231923Y0223923D02*
X0230077Y0223923D01*
X0229130Y0222725D02*
X0232870Y0222725D01*
X0222870Y0222725D02*
X0209800Y0222725D01*
X0210267Y0223923D02*
X0221923Y0223923D01*
X0221426Y0225122D02*
X0211465Y0225122D01*
X0212159Y0226320D02*
X0221400Y0226320D01*
X0221400Y0227519D02*
X0212655Y0227519D01*
X0212700Y0228717D02*
X0221400Y0228717D01*
X0221400Y0229916D02*
X0212700Y0229916D01*
X0212228Y0231114D02*
X0221400Y0231114D01*
X0221606Y0232313D02*
X0211631Y0232313D01*
X0210433Y0233511D02*
X0222106Y0233511D01*
X0221725Y0241901D02*
X0211245Y0241901D01*
X0212105Y0249092D02*
X0221400Y0249092D01*
X0221804Y0250290D02*
X0211053Y0250290D01*
X0209166Y0251489D02*
X0222583Y0251489D01*
X0224330Y0252687D02*
X0088930Y0252687D01*
X0087732Y0251489D02*
X0204834Y0251489D01*
X0202946Y0250290D02*
X0086533Y0250290D01*
X0085334Y0249092D02*
X0201895Y0249092D01*
X0209276Y0257481D02*
X0183724Y0257481D01*
X0184923Y0258680D02*
X0208077Y0258680D01*
X0206879Y0259878D02*
X0190053Y0259878D01*
X0191421Y0261077D02*
X0205680Y0261077D01*
X0204482Y0262275D02*
X0192258Y0262275D01*
X0192754Y0263474D02*
X0203283Y0263474D01*
X0202085Y0264672D02*
X0192900Y0264672D01*
X0192900Y0265871D02*
X0200886Y0265871D01*
X0199688Y0267070D02*
X0192529Y0267070D01*
X0192143Y0274000D02*
X0203757Y0274000D01*
X0212301Y0265457D01*
X0213403Y0265000D01*
X0245347Y0265000D01*
X0246449Y0265457D01*
X0247293Y0266301D01*
X0248543Y0267551D01*
X0249000Y0268653D01*
X0249000Y0270095D01*
X0249900Y0270994D01*
X0250600Y0272685D01*
X0250600Y0279315D01*
X0249900Y0281006D01*
X0248905Y0282000D01*
X0253095Y0282000D01*
X0252100Y0281006D01*
X0251400Y0279315D01*
X0251400Y0272685D01*
X0252100Y0270994D01*
X0253394Y0269700D01*
X0255085Y0269000D01*
X0256915Y0269000D01*
X0258606Y0269700D01*
X0259900Y0270994D01*
X0260600Y0272685D01*
X0260600Y0279315D01*
X0259900Y0281006D01*
X0258905Y0282000D01*
X0273095Y0282000D01*
X0272100Y0281006D01*
X0271400Y0279315D01*
X0271400Y0272685D01*
X0272100Y0270994D01*
X0273000Y0270095D01*
X0273000Y0267000D01*
X0271653Y0267000D01*
X0270551Y0266543D01*
X0269707Y0265699D01*
X0268457Y0264449D01*
X0268000Y0263347D01*
X0268000Y0252551D01*
X0266915Y0253000D01*
X0265085Y0253000D01*
X0263394Y0252300D01*
X0262100Y0251006D01*
X0261400Y0249315D01*
X0261400Y0242685D01*
X0262098Y0241000D01*
X0259902Y0241000D01*
X0260600Y0242685D01*
X0260600Y0249315D01*
X0259900Y0251006D01*
X0259000Y0251905D01*
X0259000Y0255597D01*
X0258543Y0256699D01*
X0254543Y0260699D01*
X0253699Y0261543D01*
X0252597Y0262000D01*
X0213243Y0262000D01*
X0202543Y0272699D01*
X0201699Y0273543D01*
X0200597Y0274000D01*
X0192143Y0274000D01*
X0192143Y0274000D01*
X0202181Y0273062D02*
X0204695Y0273062D01*
X0205894Y0271864D02*
X0203379Y0271864D01*
X0204578Y0270665D02*
X0207092Y0270665D01*
X0208291Y0269467D02*
X0205776Y0269467D01*
X0206975Y0268268D02*
X0209489Y0268268D01*
X0210688Y0267070D02*
X0208173Y0267070D01*
X0209372Y0265871D02*
X0211886Y0265871D01*
X0210570Y0264672D02*
X0268680Y0264672D01*
X0268053Y0263474D02*
X0211769Y0263474D01*
X0212967Y0262275D02*
X0268000Y0262275D01*
X0268000Y0261077D02*
X0254166Y0261077D01*
X0255364Y0259878D02*
X0268000Y0259878D01*
X0268000Y0258680D02*
X0256563Y0258680D01*
X0257761Y0257481D02*
X0268000Y0257481D01*
X0268000Y0256283D02*
X0258716Y0256283D01*
X0259000Y0255084D02*
X0268000Y0255084D01*
X0268000Y0253886D02*
X0259000Y0253886D01*
X0259000Y0252687D02*
X0264330Y0252687D01*
X0262583Y0251489D02*
X0259416Y0251489D01*
X0260196Y0250290D02*
X0261804Y0250290D01*
X0261400Y0249092D02*
X0260600Y0249092D01*
X0260600Y0247893D02*
X0261400Y0247893D01*
X0261400Y0246695D02*
X0260600Y0246695D01*
X0260600Y0245496D02*
X0261400Y0245496D01*
X0261400Y0244298D02*
X0260600Y0244298D01*
X0260600Y0243099D02*
X0261400Y0243099D01*
X0261725Y0241901D02*
X0260275Y0241901D01*
X0261223Y0234710D02*
X0249000Y0234710D01*
X0249000Y0235908D02*
X0255099Y0235908D01*
X0253901Y0237107D02*
X0249000Y0237107D01*
X0249000Y0238305D02*
X0253144Y0238305D01*
X0253000Y0239504D02*
X0249000Y0239504D01*
X0249608Y0240702D02*
X0252392Y0240702D01*
X0251725Y0241901D02*
X0250275Y0241901D01*
X0250600Y0243099D02*
X0251400Y0243099D01*
X0251400Y0244298D02*
X0250600Y0244298D01*
X0250600Y0245496D02*
X0251400Y0245496D01*
X0251400Y0246695D02*
X0250600Y0246695D01*
X0250600Y0247893D02*
X0251400Y0247893D01*
X0251400Y0249092D02*
X0250600Y0249092D01*
X0250196Y0250290D02*
X0251804Y0250290D01*
X0252583Y0251489D02*
X0249416Y0251489D01*
X0247670Y0252687D02*
X0253000Y0252687D01*
X0252871Y0253886D02*
X0090129Y0253886D01*
X0091327Y0255084D02*
X0251673Y0255084D01*
X0246864Y0265871D02*
X0269878Y0265871D01*
X0273000Y0267070D02*
X0248062Y0267070D01*
X0248840Y0268268D02*
X0273000Y0268268D01*
X0273000Y0269467D02*
X0258041Y0269467D01*
X0259570Y0270665D02*
X0272430Y0270665D01*
X0271740Y0271864D02*
X0260260Y0271864D01*
X0260600Y0273062D02*
X0271400Y0273062D01*
X0271400Y0274261D02*
X0260600Y0274261D01*
X0260600Y0275459D02*
X0271400Y0275459D01*
X0271400Y0276658D02*
X0260600Y0276658D01*
X0260600Y0277856D02*
X0271400Y0277856D01*
X0271400Y0279055D02*
X0260600Y0279055D01*
X0260211Y0280253D02*
X0271789Y0280253D01*
X0272546Y0281452D02*
X0259454Y0281452D01*
X0252546Y0281452D02*
X0249454Y0281452D01*
X0250211Y0280253D02*
X0251789Y0280253D01*
X0251400Y0279055D02*
X0250600Y0279055D01*
X0250600Y0277856D02*
X0251400Y0277856D01*
X0251400Y0276658D02*
X0250600Y0276658D01*
X0250600Y0275459D02*
X0251400Y0275459D01*
X0251400Y0274261D02*
X0250600Y0274261D01*
X0250600Y0273062D02*
X0251400Y0273062D01*
X0251740Y0271864D02*
X0250260Y0271864D01*
X0249570Y0270665D02*
X0252430Y0270665D01*
X0253959Y0269467D02*
X0249000Y0269467D01*
X0267670Y0252687D02*
X0268000Y0252687D01*
X0274000Y0252687D02*
X0274330Y0252687D01*
X0274000Y0253886D02*
X0392501Y0253886D01*
X0392501Y0255084D02*
X0274000Y0255084D01*
X0274000Y0256283D02*
X0392501Y0256283D01*
X0392501Y0257481D02*
X0274000Y0257481D01*
X0274000Y0258680D02*
X0392501Y0258680D01*
X0392501Y0259878D02*
X0274000Y0259878D01*
X0275533Y0261077D02*
X0392501Y0261077D01*
X0392501Y0262275D02*
X0277268Y0262275D01*
X0278467Y0263474D02*
X0392501Y0263474D01*
X0392501Y0264672D02*
X0279000Y0264672D01*
X0279000Y0265871D02*
X0392501Y0265871D01*
X0392501Y0267070D02*
X0279000Y0267070D01*
X0279000Y0268268D02*
X0392501Y0268268D01*
X0313959Y0269467D02*
X0308041Y0269467D01*
X0309570Y0270665D02*
X0312430Y0270665D01*
X0311740Y0271864D02*
X0310260Y0271864D01*
X0310600Y0273062D02*
X0311400Y0273062D01*
X0311400Y0274261D02*
X0310600Y0274261D01*
X0310600Y0275459D02*
X0311400Y0275459D01*
X0311400Y0276658D02*
X0310600Y0276658D01*
X0310600Y0277856D02*
X0311400Y0277856D01*
X0311400Y0279055D02*
X0310600Y0279055D01*
X0310211Y0280253D02*
X0311789Y0280253D01*
X0312546Y0281452D02*
X0309454Y0281452D01*
X0309000Y0282650D02*
X0313000Y0282650D01*
X0313000Y0283849D02*
X0309000Y0283849D01*
X0309000Y0285047D02*
X0313000Y0285047D01*
X0313000Y0286246D02*
X0309000Y0286246D01*
X0309000Y0287444D02*
X0313000Y0287444D01*
X0313000Y0288643D02*
X0309000Y0288643D01*
X0309000Y0289841D02*
X0313000Y0289841D01*
X0313000Y0291040D02*
X0309000Y0291040D01*
X0309000Y0292238D02*
X0313000Y0292238D01*
X0313000Y0293437D02*
X0308548Y0293437D01*
X0303000Y0289841D02*
X0298151Y0289841D01*
X0298877Y0288643D02*
X0303000Y0288643D01*
X0303000Y0287444D02*
X0299000Y0287444D01*
X0299000Y0286246D02*
X0303000Y0286246D01*
X0303000Y0285047D02*
X0299000Y0285047D01*
X0299000Y0283849D02*
X0303000Y0283849D01*
X0303000Y0282650D02*
X0299000Y0282650D01*
X0299454Y0281452D02*
X0302546Y0281452D01*
X0301789Y0280253D02*
X0300211Y0280253D01*
X0300600Y0279055D02*
X0301400Y0279055D01*
X0301400Y0277856D02*
X0300600Y0277856D01*
X0300600Y0276658D02*
X0301400Y0276658D01*
X0301400Y0275459D02*
X0300600Y0275459D01*
X0300600Y0274261D02*
X0301400Y0274261D01*
X0301400Y0273062D02*
X0300600Y0273062D01*
X0300260Y0271864D02*
X0301740Y0271864D01*
X0302430Y0270665D02*
X0299570Y0270665D01*
X0298041Y0269467D02*
X0303959Y0269467D01*
X0293959Y0269467D02*
X0288041Y0269467D01*
X0289570Y0270665D02*
X0292430Y0270665D01*
X0291740Y0271864D02*
X0290260Y0271864D01*
X0290600Y0273062D02*
X0291400Y0273062D01*
X0291400Y0274261D02*
X0290600Y0274261D01*
X0290600Y0275459D02*
X0291400Y0275459D01*
X0291400Y0276658D02*
X0290600Y0276658D01*
X0290600Y0277856D02*
X0291400Y0277856D01*
X0291400Y0279055D02*
X0290600Y0279055D01*
X0290211Y0280253D02*
X0291789Y0280253D01*
X0292546Y0281452D02*
X0289454Y0281452D01*
X0289000Y0282650D02*
X0293000Y0282650D01*
X0293000Y0283849D02*
X0289000Y0283849D01*
X0288710Y0285047D02*
X0293000Y0285047D01*
X0282546Y0281452D02*
X0279454Y0281452D01*
X0280211Y0280253D02*
X0281789Y0280253D01*
X0281400Y0279055D02*
X0280600Y0279055D01*
X0280600Y0277856D02*
X0281400Y0277856D01*
X0281400Y0276658D02*
X0280600Y0276658D01*
X0280600Y0275459D02*
X0281400Y0275459D01*
X0281400Y0274261D02*
X0280600Y0274261D01*
X0280600Y0273062D02*
X0281400Y0273062D01*
X0281740Y0271864D02*
X0280260Y0271864D01*
X0279570Y0270665D02*
X0282430Y0270665D01*
X0283959Y0269467D02*
X0279000Y0269467D01*
X0254519Y0292238D02*
X0252004Y0292238D01*
X0250806Y0293437D02*
X0253321Y0293437D01*
X0252122Y0294635D02*
X0249607Y0294635D01*
X0250924Y0295834D02*
X0247998Y0295834D01*
X0249725Y0297032D02*
X0230843Y0297032D01*
X0230843Y0298231D02*
X0248527Y0298231D01*
X0247328Y0299429D02*
X0230843Y0299429D01*
X0230843Y0300628D02*
X0246130Y0300628D01*
X0245331Y0301826D02*
X0230843Y0301826D01*
X0231489Y0303025D02*
X0244511Y0303025D01*
X0243313Y0304223D02*
X0232687Y0304223D01*
X0233189Y0305422D02*
X0242811Y0305422D01*
X0242432Y0306620D02*
X0233568Y0306620D01*
X0233568Y0307819D02*
X0242432Y0307819D01*
X0242432Y0309017D02*
X0233568Y0309017D01*
X0233568Y0310216D02*
X0242432Y0310216D01*
X0242432Y0311414D02*
X0233568Y0311414D01*
X0233568Y0312613D02*
X0242432Y0312613D01*
X0242432Y0313811D02*
X0233568Y0313811D01*
X0233568Y0315010D02*
X0242432Y0315010D01*
X0242658Y0316208D02*
X0233342Y0316208D01*
X0232845Y0317407D02*
X0243155Y0317407D01*
X0244142Y0318605D02*
X0231858Y0318605D01*
X0230058Y0319804D02*
X0245942Y0319804D01*
X0250373Y0319804D02*
X0265627Y0319804D01*
X0263827Y0318605D02*
X0252173Y0318605D01*
X0253160Y0317407D02*
X0262840Y0317407D01*
X0262343Y0316208D02*
X0253657Y0316208D01*
X0253882Y0315010D02*
X0262118Y0315010D01*
X0262118Y0313811D02*
X0253882Y0313811D01*
X0253882Y0312613D02*
X0262118Y0312613D01*
X0262118Y0311414D02*
X0253882Y0311414D01*
X0253882Y0310216D02*
X0262118Y0310216D01*
X0262118Y0309017D02*
X0253882Y0309017D01*
X0253882Y0307819D02*
X0262118Y0307819D01*
X0262118Y0306620D02*
X0253882Y0306620D01*
X0253504Y0305422D02*
X0262496Y0305422D01*
X0262998Y0304223D02*
X0253002Y0304223D01*
X0252218Y0303025D02*
X0264196Y0303025D01*
X0264843Y0301826D02*
X0253416Y0301826D01*
X0254615Y0300628D02*
X0264843Y0300628D01*
X0264843Y0299429D02*
X0255813Y0299429D01*
X0257012Y0298231D02*
X0264843Y0298231D01*
X0265100Y0297032D02*
X0258210Y0297032D01*
X0270843Y0300628D02*
X0285582Y0300628D01*
X0285157Y0301826D02*
X0270843Y0301826D01*
X0271489Y0303025D02*
X0284511Y0303025D01*
X0283313Y0304223D02*
X0272687Y0304223D01*
X0273189Y0305422D02*
X0282811Y0305422D01*
X0282432Y0306620D02*
X0273568Y0306620D01*
X0273568Y0307819D02*
X0282432Y0307819D01*
X0282432Y0309017D02*
X0273568Y0309017D01*
X0273568Y0310216D02*
X0282432Y0310216D01*
X0282432Y0311414D02*
X0273568Y0311414D01*
X0273568Y0312613D02*
X0282432Y0312613D01*
X0282432Y0313811D02*
X0273568Y0313811D01*
X0273568Y0315010D02*
X0282432Y0315010D01*
X0282658Y0316208D02*
X0273342Y0316208D01*
X0272845Y0317407D02*
X0283155Y0317407D01*
X0284142Y0318605D02*
X0271858Y0318605D01*
X0270058Y0319804D02*
X0285942Y0319804D01*
X0290373Y0319804D02*
X0305627Y0319804D01*
X0303827Y0318605D02*
X0292173Y0318605D01*
X0293160Y0317407D02*
X0302840Y0317407D01*
X0302343Y0316208D02*
X0293657Y0316208D01*
X0293882Y0315010D02*
X0302118Y0315010D01*
X0302118Y0313811D02*
X0293882Y0313811D01*
X0293882Y0312613D02*
X0302118Y0312613D01*
X0302118Y0311414D02*
X0293882Y0311414D01*
X0293882Y0310216D02*
X0302118Y0310216D01*
X0302118Y0309017D02*
X0293882Y0309017D01*
X0293882Y0307819D02*
X0302118Y0307819D01*
X0302118Y0306620D02*
X0293882Y0306620D01*
X0293504Y0305422D02*
X0302496Y0305422D01*
X0302998Y0304223D02*
X0293002Y0304223D01*
X0225612Y0292238D02*
X0211157Y0292238D01*
X0211157Y0293437D02*
X0224932Y0293437D01*
X0224843Y0294635D02*
X0211157Y0294635D01*
X0211157Y0295834D02*
X0224843Y0295834D01*
X0224843Y0297032D02*
X0211157Y0297032D01*
X0211157Y0298231D02*
X0224843Y0298231D01*
X0224843Y0299429D02*
X0211157Y0299429D01*
X0211157Y0300628D02*
X0224843Y0300628D01*
X0224843Y0301826D02*
X0211157Y0301826D01*
X0211804Y0303025D02*
X0224196Y0303025D01*
X0222998Y0304223D02*
X0213002Y0304223D01*
X0213504Y0305422D02*
X0222496Y0305422D01*
X0222118Y0306620D02*
X0213882Y0306620D01*
X0213882Y0307819D02*
X0222118Y0307819D01*
X0222118Y0309017D02*
X0213882Y0309017D01*
X0213882Y0310216D02*
X0222118Y0310216D01*
X0222118Y0311414D02*
X0213882Y0311414D01*
X0213882Y0312613D02*
X0222118Y0312613D01*
X0222118Y0313811D02*
X0213882Y0313811D01*
X0213882Y0315010D02*
X0222118Y0315010D01*
X0222343Y0316208D02*
X0213657Y0316208D01*
X0213160Y0317407D02*
X0222840Y0317407D01*
X0223827Y0318605D02*
X0212173Y0318605D01*
X0210373Y0319804D02*
X0225627Y0319804D01*
X0205942Y0319804D02*
X0003200Y0319804D01*
X0003200Y0318605D02*
X0204142Y0318605D01*
X0203155Y0317407D02*
X0003200Y0317407D01*
X0003200Y0316208D02*
X0202658Y0316208D01*
X0202432Y0315010D02*
X0003200Y0315010D01*
X0003200Y0313811D02*
X0202432Y0313811D01*
X0202432Y0312613D02*
X0003200Y0312613D01*
X0003200Y0311414D02*
X0129422Y0311414D01*
X0128223Y0310216D02*
X0003200Y0310216D01*
X0003200Y0309017D02*
X0127278Y0309017D01*
X0127000Y0307819D02*
X0119369Y0307819D01*
X0121723Y0306620D02*
X0127000Y0306620D01*
X0127000Y0305422D02*
X0122922Y0305422D01*
X0116631Y0307819D02*
X0003200Y0307819D01*
X0003200Y0306620D02*
X0114277Y0306620D01*
X0113078Y0305422D02*
X0003200Y0305422D01*
X0003200Y0304223D02*
X0112535Y0304223D01*
X0112100Y0303025D02*
X0003200Y0303025D01*
X0003200Y0301826D02*
X0106982Y0301826D01*
X0105784Y0300628D02*
X0003200Y0300628D01*
X0084016Y0280253D02*
X0096504Y0280253D01*
X0097703Y0279055D02*
X0085472Y0279055D01*
X0086378Y0277856D02*
X0098901Y0277856D01*
X0100100Y0276658D02*
X0086875Y0276658D01*
X0087100Y0275459D02*
X0101298Y0275459D01*
X0102497Y0274261D02*
X0087100Y0274261D01*
X0087100Y0273062D02*
X0103695Y0273062D01*
X0104600Y0271864D02*
X0087100Y0271864D01*
X0087100Y0270665D02*
X0104600Y0270665D01*
X0103283Y0263474D02*
X0099717Y0263474D01*
X0098518Y0262275D02*
X0104482Y0262275D01*
X0106217Y0261077D02*
X0097320Y0261077D01*
X0096121Y0259878D02*
X0134879Y0259878D01*
X0136077Y0258680D02*
X0094923Y0258680D01*
X0093724Y0257481D02*
X0137276Y0257481D01*
X0138720Y0256283D02*
X0092526Y0256283D01*
X0090033Y0262275D02*
X0084802Y0262275D01*
X0086001Y0263474D02*
X0091231Y0263474D01*
X0092430Y0264672D02*
X0086597Y0264672D01*
X0087094Y0265871D02*
X0093628Y0265871D01*
X0094827Y0267070D02*
X0087100Y0267070D01*
X0087100Y0268268D02*
X0096025Y0268268D01*
X0097224Y0269467D02*
X0087100Y0269467D01*
X0121421Y0261077D02*
X0133680Y0261077D01*
X0132482Y0262275D02*
X0122619Y0262275D01*
X0117497Y0231114D02*
X0201372Y0231114D01*
X0200900Y0229916D02*
X0118450Y0229916D01*
X0118450Y0228717D02*
X0200900Y0228717D01*
X0200945Y0227519D02*
X0118450Y0227519D01*
X0118450Y0226320D02*
X0201441Y0226320D01*
X0202135Y0225122D02*
X0118450Y0225122D01*
X0118450Y0223923D02*
X0203333Y0223923D01*
X0203800Y0222725D02*
X0118450Y0222725D01*
X0182280Y0256283D02*
X0210720Y0256283D01*
X0205576Y0288643D02*
X0198000Y0288643D01*
X0198000Y0289841D02*
X0205157Y0289841D01*
X0205157Y0291040D02*
X0198000Y0291040D01*
X0198000Y0292238D02*
X0205157Y0292238D01*
X0205157Y0293437D02*
X0198000Y0293437D01*
X0198000Y0294635D02*
X0205157Y0294635D01*
X0205157Y0295834D02*
X0198000Y0295834D01*
X0198000Y0297032D02*
X0205157Y0297032D01*
X0205157Y0298231D02*
X0198000Y0298231D01*
X0198000Y0299429D02*
X0205157Y0299429D01*
X0205157Y0300628D02*
X0198000Y0300628D01*
X0197801Y0301826D02*
X0205157Y0301826D01*
X0204511Y0303025D02*
X0196968Y0303025D01*
X0195769Y0304223D02*
X0203313Y0304223D01*
X0202811Y0305422D02*
X0191922Y0305422D01*
X0190723Y0306620D02*
X0202432Y0306620D01*
X0202432Y0307819D02*
X0190000Y0307819D01*
X0189722Y0309017D02*
X0202432Y0309017D01*
X0202432Y0310216D02*
X0188777Y0310216D01*
X0187578Y0311414D02*
X0202432Y0311414D01*
X0249894Y0233511D02*
X0260727Y0233511D01*
X0260550Y0232313D02*
X0250394Y0232313D01*
X0250600Y0231114D02*
X0260550Y0231114D01*
X0260964Y0229916D02*
X0250600Y0229916D01*
X0250600Y0228717D02*
X0261575Y0228717D01*
X0262200Y0227519D02*
X0250600Y0227519D01*
X0250600Y0226320D02*
X0262200Y0226320D01*
X0262200Y0225122D02*
X0250574Y0225122D01*
X0250077Y0223923D02*
X0262200Y0223923D01*
X0262200Y0222725D02*
X0249130Y0222725D01*
X0249000Y0221526D02*
X0262200Y0221526D01*
X0262200Y0220328D02*
X0249000Y0220328D01*
X0249000Y0219129D02*
X0262200Y0219129D01*
X0262200Y0217931D02*
X0249000Y0217931D01*
X0249000Y0216732D02*
X0262200Y0216732D01*
X0262200Y0215534D02*
X0249000Y0215534D01*
X0249000Y0214335D02*
X0262200Y0214335D01*
X0262200Y0213137D02*
X0249000Y0213137D01*
X0248952Y0211938D02*
X0262200Y0211938D01*
X0261128Y0210739D02*
X0248332Y0210739D01*
X0250093Y0193960D02*
X0283000Y0193960D01*
X0283000Y0192762D02*
X0249167Y0192762D01*
X0247068Y0191563D02*
X0283000Y0191563D01*
X0273102Y0167593D02*
X0239000Y0167593D01*
X0239000Y0166395D02*
X0273000Y0166395D01*
X0271852Y0165196D02*
X0240148Y0165196D01*
X0241144Y0163998D02*
X0270856Y0163998D01*
X0270359Y0162799D02*
X0241641Y0162799D01*
X0241900Y0161601D02*
X0270100Y0161601D01*
X0270100Y0160402D02*
X0241900Y0160402D01*
X0241642Y0159203D02*
X0270358Y0159203D01*
X0270854Y0158005D02*
X0241146Y0158005D01*
X0240150Y0156806D02*
X0271850Y0156806D01*
X0273600Y0155608D02*
X0238400Y0155608D01*
X0233600Y0155608D02*
X0198400Y0155608D01*
X0200150Y0156806D02*
X0231850Y0156806D01*
X0230854Y0158005D02*
X0201146Y0158005D01*
X0201642Y0159203D02*
X0230358Y0159203D01*
X0230100Y0160402D02*
X0201900Y0160402D01*
X0201900Y0161601D02*
X0230100Y0161601D01*
X0230359Y0162799D02*
X0201641Y0162799D01*
X0201144Y0163998D02*
X0230856Y0163998D01*
X0231852Y0165196D02*
X0200148Y0165196D01*
X0199000Y0166395D02*
X0233000Y0166395D01*
X0233000Y0167593D02*
X0199000Y0167593D01*
X0199000Y0168792D02*
X0233000Y0168792D01*
X0233000Y0169990D02*
X0199000Y0169990D01*
X0229167Y0192762D02*
X0232833Y0192762D01*
X0231907Y0193960D02*
X0230093Y0193960D01*
X0278400Y0155608D02*
X0313600Y0155608D01*
X0311850Y0156806D02*
X0280150Y0156806D01*
X0281146Y0158005D02*
X0310854Y0158005D01*
X0310358Y0159203D02*
X0281642Y0159203D01*
X0281900Y0160402D02*
X0310100Y0160402D01*
X0310100Y0161601D02*
X0281900Y0161601D01*
X0281641Y0162799D02*
X0310359Y0162799D01*
X0310856Y0163998D02*
X0281144Y0163998D01*
X0232599Y0116057D02*
X0230300Y0116057D01*
X0219415Y0105270D02*
X0202083Y0105270D01*
X0203282Y0104072D02*
X0223685Y0104072D01*
X0224884Y0102873D02*
X0203852Y0102873D01*
X0204200Y0101675D02*
X0226082Y0101675D01*
X0227281Y0100476D02*
X0204200Y0100476D01*
X0203915Y0099278D02*
X0228085Y0099278D01*
X0228581Y0098079D02*
X0210723Y0098079D01*
X0213301Y0096881D02*
X0229765Y0096881D01*
X0230500Y0095682D02*
X0214500Y0095682D01*
X0215350Y0094484D02*
X0229130Y0094484D01*
X0228318Y0093285D02*
X0215847Y0093285D01*
X0216200Y0092087D02*
X0227822Y0092087D01*
X0227800Y0090888D02*
X0216200Y0090888D01*
X0216200Y0089690D02*
X0227914Y0089690D01*
X0228411Y0088491D02*
X0216200Y0088491D01*
X0216200Y0087293D02*
X0229353Y0087293D01*
X0234537Y0065720D02*
X0213902Y0065720D01*
X0212703Y0064521D02*
X0233339Y0064521D01*
X0232140Y0063323D02*
X0211505Y0063323D01*
X0223924Y0047742D02*
X0244849Y0047742D01*
X0244353Y0046543D02*
X0222726Y0046543D01*
X0221527Y0045345D02*
X0243957Y0045345D01*
X0227368Y0044146D02*
X0220329Y0044146D01*
X0219130Y0042948D02*
X0226169Y0042948D01*
X0225567Y0041749D02*
X0218357Y0041749D01*
X0218357Y0040551D02*
X0225118Y0040551D01*
X0225118Y0039352D02*
X0218357Y0039352D01*
X0218357Y0038154D02*
X0225118Y0038154D01*
X0225118Y0036955D02*
X0218357Y0036955D01*
X0218357Y0035757D02*
X0225118Y0035757D01*
X0225118Y0034558D02*
X0218354Y0034558D01*
X0217857Y0033360D02*
X0225118Y0033360D01*
X0225118Y0032161D02*
X0217361Y0032161D01*
X0216728Y0030963D02*
X0225272Y0030963D01*
X0225769Y0029764D02*
X0216231Y0029764D01*
X0215345Y0028566D02*
X0226655Y0028566D01*
X0228214Y0027367D02*
X0213786Y0027367D01*
X0208529Y0027367D02*
X0193471Y0027367D01*
X0195030Y0028566D02*
X0206970Y0028566D01*
X0206084Y0029764D02*
X0195916Y0029764D01*
X0196413Y0030963D02*
X0205587Y0030963D01*
X0204954Y0032161D02*
X0196568Y0032161D01*
X0196568Y0033360D02*
X0204458Y0033360D01*
X0203961Y0034558D02*
X0196568Y0034558D01*
X0196568Y0035757D02*
X0203957Y0035757D01*
X0203957Y0036955D02*
X0196568Y0036955D01*
X0196568Y0038154D02*
X0203957Y0038154D01*
X0203957Y0039352D02*
X0196568Y0039352D01*
X0196568Y0040551D02*
X0203957Y0040551D01*
X0203957Y0041749D02*
X0196118Y0041749D01*
X0195516Y0042948D02*
X0203957Y0042948D01*
X0203957Y0044146D02*
X0194317Y0044146D01*
X0185118Y0039352D02*
X0178357Y0039352D01*
X0178357Y0038154D02*
X0185118Y0038154D01*
X0185118Y0036955D02*
X0178357Y0036955D01*
X0178357Y0035757D02*
X0185118Y0035757D01*
X0185118Y0034558D02*
X0178354Y0034558D01*
X0177857Y0033360D02*
X0185118Y0033360D01*
X0185118Y0032161D02*
X0177361Y0032161D01*
X0176728Y0030963D02*
X0185272Y0030963D01*
X0185769Y0029764D02*
X0176231Y0029764D01*
X0175345Y0028566D02*
X0186655Y0028566D01*
X0188214Y0027367D02*
X0173786Y0027367D01*
X0136743Y0060926D02*
X0131108Y0060926D01*
X0132306Y0062124D02*
X0139385Y0062124D01*
X0135545Y0059727D02*
X0129909Y0059727D01*
X0128711Y0058529D02*
X0134346Y0058529D01*
X0133148Y0057330D02*
X0127512Y0057330D01*
X0126314Y0056132D02*
X0131949Y0056132D01*
X0130751Y0054933D02*
X0125115Y0054933D01*
X0123917Y0053734D02*
X0129552Y0053734D01*
X0128354Y0052536D02*
X0122718Y0052536D01*
X0121520Y0051337D02*
X0127155Y0051337D01*
X0125957Y0050139D02*
X0120321Y0050139D01*
X0119123Y0048940D02*
X0124931Y0048940D01*
X0124435Y0047742D02*
X0103924Y0047742D01*
X0102726Y0046543D02*
X0123957Y0046543D01*
X0123957Y0045345D02*
X0101527Y0045345D01*
X0100329Y0044146D02*
X0107368Y0044146D01*
X0107600Y0044378D02*
X0105989Y0042768D01*
X0105118Y0040664D01*
X0105118Y0031336D01*
X0105989Y0029232D01*
X0107600Y0027622D01*
X0109704Y0026750D01*
X0111981Y0026750D01*
X0114085Y0027622D01*
X0115696Y0029232D01*
X0116568Y0031336D01*
X0116568Y0040664D01*
X0115696Y0042768D01*
X0114085Y0044378D01*
X0111981Y0045250D01*
X0109704Y0045250D01*
X0107600Y0044378D01*
X0106169Y0042948D02*
X0099130Y0042948D01*
X0098357Y0041749D02*
X0105567Y0041749D01*
X0105118Y0040551D02*
X0098357Y0040551D01*
X0098357Y0039352D02*
X0105118Y0039352D01*
X0105118Y0038154D02*
X0098357Y0038154D01*
X0098357Y0036955D02*
X0105118Y0036955D01*
X0105118Y0035757D02*
X0098357Y0035757D01*
X0098354Y0034558D02*
X0105118Y0034558D01*
X0105118Y0033360D02*
X0097857Y0033360D01*
X0097361Y0032161D02*
X0105118Y0032161D01*
X0105272Y0030963D02*
X0096728Y0030963D01*
X0096231Y0029764D02*
X0105769Y0029764D01*
X0106655Y0028566D02*
X0095345Y0028566D01*
X0093786Y0027367D02*
X0108214Y0027367D01*
X0113471Y0027367D02*
X0128529Y0027367D01*
X0126970Y0028566D02*
X0115030Y0028566D01*
X0115916Y0029764D02*
X0126084Y0029764D01*
X0125587Y0030963D02*
X0116413Y0030963D01*
X0116568Y0032161D02*
X0124954Y0032161D01*
X0124458Y0033360D02*
X0116568Y0033360D01*
X0116568Y0034558D02*
X0123961Y0034558D01*
X0123957Y0035757D02*
X0116568Y0035757D01*
X0116568Y0036955D02*
X0123957Y0036955D01*
X0123957Y0038154D02*
X0116568Y0038154D01*
X0116568Y0039352D02*
X0123957Y0039352D01*
X0123957Y0040551D02*
X0116568Y0040551D01*
X0116118Y0041749D02*
X0123957Y0041749D01*
X0123957Y0042948D02*
X0115516Y0042948D01*
X0114317Y0044146D02*
X0123957Y0044146D01*
X0133505Y0063323D02*
X0152140Y0063323D01*
X0153339Y0064521D02*
X0134703Y0064521D01*
X0135434Y0065720D02*
X0154537Y0065720D01*
X0155736Y0066918D02*
X0135931Y0066918D01*
X0136200Y0068117D02*
X0156934Y0068117D01*
X0158133Y0069315D02*
X0136200Y0069315D01*
X0136200Y0070514D02*
X0159331Y0070514D01*
X0160530Y0071712D02*
X0136200Y0071712D01*
X0136200Y0072911D02*
X0161728Y0072911D01*
X0161800Y0074109D02*
X0136200Y0074109D01*
X0136200Y0075308D02*
X0161800Y0075308D01*
X0161800Y0076506D02*
X0136200Y0076506D01*
X0136200Y0077705D02*
X0161800Y0077705D01*
X0161800Y0078903D02*
X0136200Y0078903D01*
X0136200Y0080102D02*
X0161800Y0080102D01*
X0161800Y0081300D02*
X0136200Y0081300D01*
X0136200Y0082499D02*
X0161800Y0082499D01*
X0161800Y0083697D02*
X0136200Y0083697D01*
X0121800Y0083697D02*
X0048200Y0083697D01*
X0048200Y0082499D02*
X0121800Y0082499D01*
X0121800Y0081300D02*
X0048200Y0081300D01*
X0048200Y0080102D02*
X0121800Y0080102D01*
X0121800Y0078903D02*
X0048200Y0078903D01*
X0048200Y0077705D02*
X0121800Y0077705D01*
X0121800Y0076506D02*
X0048200Y0076506D01*
X0048200Y0075308D02*
X0121800Y0075308D01*
X0121800Y0074109D02*
X0048200Y0074109D01*
X0048200Y0072911D02*
X0121800Y0072911D01*
X0121530Y0071712D02*
X0048200Y0071712D01*
X0048200Y0070514D02*
X0120331Y0070514D01*
X0119133Y0069315D02*
X0048200Y0069315D01*
X0048200Y0068117D02*
X0117934Y0068117D01*
X0116736Y0066918D02*
X0048200Y0066918D01*
X0048200Y0065720D02*
X0115537Y0065720D01*
X0114339Y0064521D02*
X0048200Y0064521D01*
X0048200Y0063323D02*
X0113140Y0063323D01*
X0099385Y0062124D02*
X0048200Y0062124D01*
X0048200Y0060926D02*
X0096743Y0060926D01*
X0095545Y0059727D02*
X0048200Y0059727D01*
X0048200Y0058529D02*
X0094346Y0058529D01*
X0093148Y0057330D02*
X0048200Y0057330D01*
X0048200Y0056132D02*
X0091949Y0056132D01*
X0090751Y0054933D02*
X0048200Y0054933D01*
X0048200Y0053734D02*
X0089552Y0053734D01*
X0088354Y0052536D02*
X0048200Y0052536D01*
X0048200Y0051337D02*
X0087155Y0051337D01*
X0085957Y0050139D02*
X0048200Y0050139D01*
X0048200Y0048940D02*
X0084931Y0048940D01*
X0084435Y0047742D02*
X0048200Y0047742D01*
X0048200Y0046543D02*
X0083957Y0046543D01*
X0083957Y0045345D02*
X0048200Y0045345D01*
X0054632Y0044146D02*
X0067368Y0044146D01*
X0067600Y0044378D02*
X0065989Y0042768D01*
X0065118Y0040664D01*
X0065118Y0031336D01*
X0065989Y0029232D01*
X0067600Y0027622D01*
X0069704Y0026750D01*
X0071981Y0026750D01*
X0074085Y0027622D01*
X0075696Y0029232D01*
X0076568Y0031336D01*
X0076568Y0040664D01*
X0075696Y0042768D01*
X0074085Y0044378D01*
X0071981Y0045250D01*
X0069704Y0045250D01*
X0067600Y0044378D01*
X0066169Y0042948D02*
X0055831Y0042948D01*
X0056433Y0041749D02*
X0065567Y0041749D01*
X0065118Y0040551D02*
X0056882Y0040551D01*
X0057562Y0039352D02*
X0065118Y0039352D01*
X0065118Y0038154D02*
X0058059Y0038154D01*
X0058357Y0036955D02*
X0065118Y0036955D01*
X0065118Y0035757D02*
X0058357Y0035757D01*
X0058354Y0034558D02*
X0065118Y0034558D01*
X0065118Y0033360D02*
X0057857Y0033360D01*
X0057361Y0032161D02*
X0065118Y0032161D01*
X0065272Y0030963D02*
X0056728Y0030963D01*
X0056231Y0029764D02*
X0065769Y0029764D01*
X0066655Y0028566D02*
X0055345Y0028566D01*
X0053786Y0027367D02*
X0068214Y0027367D01*
X0073471Y0027367D02*
X0088529Y0027367D01*
X0086970Y0028566D02*
X0075030Y0028566D01*
X0075916Y0029764D02*
X0086084Y0029764D01*
X0085587Y0030963D02*
X0076413Y0030963D01*
X0076568Y0032161D02*
X0084954Y0032161D01*
X0084458Y0033360D02*
X0076568Y0033360D01*
X0076568Y0034558D02*
X0083961Y0034558D01*
X0083957Y0035757D02*
X0076568Y0035757D01*
X0076568Y0036955D02*
X0083957Y0036955D01*
X0083957Y0038154D02*
X0076568Y0038154D01*
X0076568Y0039352D02*
X0083957Y0039352D01*
X0083957Y0040551D02*
X0076568Y0040551D01*
X0076118Y0041749D02*
X0083957Y0041749D01*
X0083957Y0042948D02*
X0075516Y0042948D01*
X0074317Y0044146D02*
X0083957Y0044146D01*
X0048529Y0027367D02*
X0003200Y0027367D01*
X0003200Y0026169D02*
X0392501Y0026169D01*
X0392501Y0027367D02*
X0353471Y0027367D01*
X0355030Y0028566D02*
X0392501Y0028566D01*
X0392501Y0029764D02*
X0355916Y0029764D01*
X0356413Y0030963D02*
X0392501Y0030963D01*
X0392501Y0032161D02*
X0356568Y0032161D01*
X0356568Y0033360D02*
X0392501Y0033360D01*
X0392501Y0034558D02*
X0356568Y0034558D01*
X0356568Y0035757D02*
X0392501Y0035757D01*
X0392501Y0036955D02*
X0356568Y0036955D01*
X0356568Y0038154D02*
X0392501Y0038154D01*
X0392501Y0039352D02*
X0356568Y0039352D01*
X0356568Y0040551D02*
X0392501Y0040551D01*
X0392501Y0041749D02*
X0356118Y0041749D01*
X0355516Y0042948D02*
X0392501Y0042948D01*
X0392501Y0044146D02*
X0354317Y0044146D01*
X0342726Y0046543D02*
X0392501Y0046543D01*
X0392501Y0045345D02*
X0341527Y0045345D01*
X0392501Y0024970D02*
X0003200Y0024970D01*
X0003200Y0023772D02*
X0392501Y0023772D01*
X0392501Y0022573D02*
X0003200Y0022573D01*
X0003200Y0021375D02*
X0392501Y0021375D01*
X0392501Y0020176D02*
X0003200Y0020176D01*
X0003200Y0018978D02*
X0392501Y0018978D01*
X0392501Y0017779D02*
X0003200Y0017779D01*
X0003200Y0016581D02*
X0392501Y0016581D01*
X0392501Y0015382D02*
X0003200Y0015382D01*
X0003200Y0014184D02*
X0392501Y0014184D01*
X0392501Y0012985D02*
X0003200Y0012985D01*
X0003200Y0011787D02*
X0392501Y0011787D01*
X0392501Y0010588D02*
X0003200Y0010588D01*
X0003200Y0009390D02*
X0392501Y0009390D01*
X0392501Y0008191D02*
X0003200Y0008191D01*
X0003200Y0006993D02*
X0392501Y0006993D01*
X0392501Y0005794D02*
X0003200Y0005794D01*
X0003200Y0004596D02*
X0392501Y0004596D01*
X0392501Y0003397D02*
X0003200Y0003397D01*
X0003200Y0028566D02*
X0046970Y0028566D01*
X0037240Y0029764D02*
X0003200Y0029764D01*
X0003200Y0030963D02*
X0035855Y0030963D01*
X0034797Y0032161D02*
X0003200Y0032161D01*
X0003200Y0033360D02*
X0034300Y0033360D01*
X0033804Y0034558D02*
X0003200Y0034558D01*
X0003200Y0035757D02*
X0033800Y0035757D01*
X0033800Y0036955D02*
X0003200Y0036955D01*
X0003200Y0038154D02*
X0033800Y0038154D01*
X0033800Y0039352D02*
X0003200Y0039352D01*
X0003200Y0040551D02*
X0033800Y0040551D01*
X0033800Y0041749D02*
X0003200Y0041749D01*
X0003200Y0042948D02*
X0033800Y0042948D01*
X0033800Y0044146D02*
X0003200Y0044146D01*
X0003200Y0045345D02*
X0033800Y0045345D01*
X0033800Y0046543D02*
X0003200Y0046543D01*
X0003200Y0047742D02*
X0033800Y0047742D01*
X0033800Y0048940D02*
X0003200Y0048940D01*
X0003200Y0050139D02*
X0033800Y0050139D01*
X0033800Y0051337D02*
X0003200Y0051337D01*
X0003200Y0052536D02*
X0033800Y0052536D01*
X0033800Y0053734D02*
X0003200Y0053734D01*
X0003200Y0054933D02*
X0033800Y0054933D01*
X0033800Y0056132D02*
X0003200Y0056132D01*
X0003200Y0057330D02*
X0033800Y0057330D01*
X0033800Y0058529D02*
X0003200Y0058529D01*
X0003200Y0059727D02*
X0033800Y0059727D01*
X0033800Y0060926D02*
X0003200Y0060926D01*
X0003200Y0062124D02*
X0033800Y0062124D01*
X0033800Y0063323D02*
X0003200Y0063323D01*
X0003200Y0064521D02*
X0033800Y0064521D01*
X0033800Y0065720D02*
X0003200Y0065720D01*
X0003200Y0066918D02*
X0033800Y0066918D01*
X0033800Y0068117D02*
X0003200Y0068117D01*
X0003200Y0069315D02*
X0033800Y0069315D01*
X0033800Y0070514D02*
X0003200Y0070514D01*
X0003200Y0071712D02*
X0033800Y0071712D01*
X0033800Y0072911D02*
X0003200Y0072911D01*
X0003200Y0074109D02*
X0033800Y0074109D01*
X0033800Y0075308D02*
X0003200Y0075308D01*
X0003200Y0076506D02*
X0033800Y0076506D01*
X0033800Y0077705D02*
X0003200Y0077705D01*
X0003200Y0078903D02*
X0033800Y0078903D01*
X0033800Y0080102D02*
X0003200Y0080102D01*
X0003200Y0081300D02*
X0033800Y0081300D01*
X0033800Y0082499D02*
X0003200Y0082499D01*
X0003200Y0083697D02*
X0033800Y0083697D01*
X0033800Y0084896D02*
X0003200Y0084896D01*
X0003200Y0086094D02*
X0033800Y0086094D01*
X0033800Y0087293D02*
X0003200Y0087293D01*
X0003200Y0088491D02*
X0033800Y0088491D01*
X0033800Y0089690D02*
X0003200Y0089690D01*
X0003200Y0090888D02*
X0033800Y0090888D01*
X0033800Y0092087D02*
X0003200Y0092087D01*
X0003200Y0093285D02*
X0034153Y0093285D01*
X0034650Y0094484D02*
X0003200Y0094484D01*
X0003200Y0095682D02*
X0035500Y0095682D01*
X0036699Y0096881D02*
X0003200Y0096881D01*
X0003200Y0098079D02*
X0039277Y0098079D01*
X0081500Y0095682D02*
X0110500Y0095682D01*
X0109765Y0096881D02*
X0082235Y0096881D01*
X0083419Y0098079D02*
X0108581Y0098079D01*
X0108085Y0099278D02*
X0083915Y0099278D01*
X0084200Y0100476D02*
X0107800Y0100476D01*
X0107800Y0101675D02*
X0084200Y0101675D01*
X0083852Y0102873D02*
X0108148Y0102873D01*
X0108718Y0104072D02*
X0083282Y0104072D01*
X0082083Y0105270D02*
X0109917Y0105270D01*
X0109130Y0094484D02*
X0082870Y0094484D01*
X0083682Y0093285D02*
X0108318Y0093285D01*
X0107822Y0092087D02*
X0084178Y0092087D01*
X0084200Y0090888D02*
X0107800Y0090888D01*
X0107914Y0089690D02*
X0084086Y0089690D01*
X0083589Y0088491D02*
X0108411Y0088491D01*
X0109353Y0087293D02*
X0082647Y0087293D01*
X0081653Y0086470D02*
X0080078Y0084896D01*
X0250723Y0098079D02*
X0268581Y0098079D01*
X0269765Y0096881D02*
X0253301Y0096881D01*
X0254500Y0095682D02*
X0270500Y0095682D01*
X0269130Y0094484D02*
X0255350Y0094484D01*
X0255847Y0093285D02*
X0268318Y0093285D01*
X0267822Y0092087D02*
X0256200Y0092087D01*
X0256200Y0090888D02*
X0267800Y0090888D01*
X0267914Y0089690D02*
X0256200Y0089690D01*
X0256200Y0088491D02*
X0268411Y0088491D01*
X0269353Y0087293D02*
X0256200Y0087293D01*
X0282083Y0105270D02*
X0299415Y0105270D01*
X0303685Y0104072D02*
X0283282Y0104072D01*
X0350300Y0116057D02*
X0352599Y0116057D01*
M02*
